<svg width="20" height="20" viewBox="0 0 20 20" fill="none" xmlns="http://www.w3.org/2000/svg">
<path d="M2.47266 8.74609V12.9143C2.47266 15.2721 2.47266 16.451 3.20489 17.1835C3.93712 17.9161 5.11563 17.9161 7.47266 17.9161H12.4727C14.8297 17.9161 16.0082 17.9161 16.7404 17.1835C17.4727 16.451 17.4727 15.2721 17.4727 12.9143V8.74609" stroke="white" stroke-width="1.25" stroke-linecap="round"/>
<path d="M12.4727 14.1602C11.9026 14.6662 10.995 14.9935 9.97266 14.9935C8.95032 14.9935 8.04273 14.6662 7.47266 14.1602" stroke="white" stroke-width="1.25" stroke-linecap="round"/>
<path d="M8.42016 7.01369C8.18517 7.86236 7.33056 9.32629 5.7068 9.53846C4.2731 9.72579 3.18571 9.09996 2.90796 8.83829C2.60172 8.62612 1.90379 7.94722 1.73287 7.52289C1.56195 7.09856 1.76136 6.17917 1.90379 5.80434L2.47318 4.15569C2.61218 3.74159 2.93757 2.76217 3.27116 2.4309C3.60476 2.09962 4.28016 2.08521 4.55816 2.08521H10.3961C11.8987 2.10644 15.1844 2.07181 15.8339 2.08521C16.4834 2.09861 16.8737 2.64306 16.9877 2.87645C17.9567 5.2238 18.3337 6.56814 18.3337 7.14099C18.2072 7.75209 17.6837 8.90437 15.8339 9.41121C13.9114 9.93787 12.8215 8.91337 12.4796 8.52004M7.62967 8.52004C7.9003 8.85246 8.74924 9.52154 9.97982 9.53846C11.2105 9.55546 12.2731 8.69687 12.6505 8.26547C12.7573 8.13817 12.9881 7.76051 13.2274 7.01369" stroke="white" stroke-width="1.25" stroke-linecap="round" stroke-linejoin="round"/>
</svg>
