<svg width="20" height="20" viewBox="0 0 20 20" fill="none" xmlns="http://www.w3.org/2000/svg">
<path d="M6.66602 14.1641H13.3327" stroke="white" stroke-width="1.25" stroke-linecap="round" stroke-linejoin="round"/>
<path d="M6.66602 10.8359H9.99935" stroke="white" stroke-width="1.25" stroke-linecap="round" stroke-linejoin="round"/>
<path d="M10.834 2.08073V2.4974C10.834 4.85442 10.834 6.03293 11.5662 6.76516C12.2985 7.4974 13.477 7.4974 15.834 7.4974H16.2507M16.6673 8.87815V11.6641C16.6673 14.8067 16.6673 16.3781 15.691 17.3544C14.7147 18.3307 13.1433 18.3307 10.0007 18.3307C6.85795 18.3307 5.28661 18.3307 4.31029 17.3544C3.33398 16.3781 3.33398 14.8067 3.33398 11.6641V7.87726C3.33398 5.17308 3.33398 3.82099 4.07238 2.90517C4.22155 2.72015 4.39008 2.55163 4.57509 2.40245C5.49091 1.66406 6.843 1.66406 9.54715 1.66406C10.1352 1.66406 10.4291 1.66406 10.6983 1.75907C10.7543 1.77883 10.8092 1.80156 10.8627 1.82719C11.1203 1.95035 11.3282 2.15823 11.7439 2.57396L15.691 6.52109C16.1727 7.0028 16.4136 7.24366 16.5405 7.54995C16.6673 7.85623 16.6673 8.19685 16.6673 8.87815Z" stroke="white" stroke-width="1.25" stroke-linecap="round" stroke-linejoin="round"/>
</svg>
