<svg width="20" height="20" viewBox="0 0 20 20" fill="none" xmlns="http://www.w3.org/2000/svg">
<path d="M7.08398 13.7494C7.66618 12.743 8.75437 12.0658 10.0006 12.0658C11.247 12.0658 12.3351 12.743 12.9173 13.7494M11.6674 8.33268C11.6674 9.25318 10.9211 9.99937 10.0007 9.99937C9.0802 9.99937 8.33401 9.25318 8.33401 8.33268C8.33401 7.41221 9.0802 6.66602 10.0007 6.66602C10.9211 6.66602 11.6674 7.41221 11.6674 8.33268Z" stroke="white" stroke-width="1.25" stroke-linecap="round"/>
<path d="M18.3327 11.6397V8.36165C15.9521 8.36165 14.4041 5.77599 15.6093 3.72307L12.7226 2.08407C11.5025 4.16236 8.49752 4.16227 7.27737 2.08398L4.39062 3.72299C5.5959 5.77594 4.04662 8.36165 1.66602 8.36165V11.6397C4.04658 11.6397 5.59456 14.2254 4.38931 16.2783L7.27606 17.9173C8.49677 15.838 11.5032 15.8379 12.7239 17.9172L15.6107 16.2782C14.4055 14.2253 15.9522 11.6397 18.3327 11.6397Z" stroke="white" stroke-width="1.25" stroke-linecap="round" stroke-linejoin="round"/>
</svg>
