<svg width="20" height="20" viewBox="0 0 20 20" fill="none" xmlns="http://www.w3.org/2000/svg">
<path d="M9.16667 17.9166H12.5C14.857 17.9166 16.0355 17.9166 16.7677 17.1843C17.5 16.4521 17.5 15.2736 17.5 12.9166V12.0833C17.5 9.72625 17.5 8.54775 16.7677 7.81549C16.0355 7.08325 14.857 7.08325 12.5 7.08325H2.5V12.9166" stroke="white" stroke-width="1.3" stroke-linecap="round" stroke-linejoin="round"/>
<path d="M12.5 7.08186V3.42517C12.5 2.68405 11.8992 2.08325 11.1581 2.08325C10.9447 2.08325 10.7343 2.13415 10.5445 2.23174L3.13525 6.04098C2.7452 6.24151 2.5 6.64328 2.5 7.08186" stroke="white" stroke-width="1.3" stroke-linecap="round" stroke-linejoin="round"/>
<path d="M14.5827 12.9166C14.8128 12.9166 14.9993 12.73 14.9993 12.4999C14.9993 12.2698 14.8128 12.0833 14.5827 12.0833M14.5827 12.9166C14.3526 12.9166 14.166 12.73 14.166 12.4999C14.166 12.2698 14.3526 12.0833 14.5827 12.0833M14.5827 12.9166V12.0833" stroke="white" stroke-width="1.5" stroke-linecap="round" stroke-linejoin="round"/>
<path d="M2.5 16.2501C2.5 16.2501 3.33333 16.2501 4.16667 17.9167C4.16667 17.9167 6.81372 13.7501 9.16667 12.9167" stroke="white" stroke-width="1.3" stroke-linecap="round" stroke-linejoin="round"/>
</svg>
