<svg width="24" height="24" viewBox="0 0 24 24" fill="none" xmlns="http://www.w3.org/2000/svg">
<path d="M24 6.95259L18.0466 9.07413L18.401 9.7829C18.9054 10.7931 18.4193 12.0406 17.1132 12.4037C17.0967 12.4092 15.2877 12.8948 14.7383 11.2492L14.2088 9.65856L15.7156 8.15104L11.9973 2.57422L8.27889 8.15104L9.78575 9.65856L9.25622 11.2492C8.91349 12.276 8.17795 12.6221 6.87438 12.3742C6.73204 12.3048 5.98867 12.2726 5.5681 11.357C5.33597 10.8529 5.34558 10.2795 5.59351 9.7829L5.94722 9.07478L0 6.95189L2.6534 17.2045H8.89291L11.9973 14.1001L15.1016 17.2045H21.3425L24 6.95259Z" fill="white"/>
<path d="M10.1766 17.9063L11.9949 16.0879L13.8134 17.9063L11.9949 19.7246L10.1766 17.9063ZM8.89383 18.6102H2.85547V21.4233H11.707L8.89383 18.6102ZM21.1409 18.6102H15.1025L12.2894 21.4233H21.1409V18.6102Z" fill="white"/>
</svg>
