<svg width="20" height="20" viewBox="0 0 20 20" fill="none" xmlns="http://www.w3.org/2000/svg">
<path d="M12.4844 5.84375C12.4844 5.84375 12.901 6.26042 13.3177 7.09375C13.3177 7.09375 14.6412 5.01042 15.8177 4.59375" stroke="white" stroke-width="1.25" stroke-linecap="round" stroke-linejoin="round"/>
<path d="M8.32839 1.68353C6.24633 1.59538 4.63778 1.83523 4.63778 1.83523C3.62207 1.90785 1.67557 2.47728 1.67558 5.80286C1.6756 9.10016 1.65405 13.1652 1.67558 14.7857C1.67558 15.7757 2.2886 18.0852 4.4104 18.2089C6.98943 18.3594 11.635 18.3914 13.7664 18.2089C14.337 18.1767 16.2365 17.7288 16.477 15.6621C16.726 13.521 16.6765 12.033 16.6765 11.6788" stroke="white" stroke-width="1.25" stroke-linecap="round" stroke-linejoin="round"/>
<path d="M18.3335 5.84635C18.3335 8.14754 16.4663 10.0131 14.1629 10.0131C11.8594 10.0131 9.99219 8.14754 9.99219 5.84635C9.99219 3.54517 11.8594 1.67969 14.1629 1.67969C16.4663 1.67969 18.3335 3.54517 18.3335 5.84635Z" stroke="white" stroke-width="1.25" stroke-linecap="round"/>
<path d="M5.81641 10.8438H9.14971" stroke="white" stroke-width="1.25" stroke-linecap="round"/>
<path d="M5.81641 14.1797H12.483" stroke="white" stroke-width="1.25" stroke-linecap="round"/>
</svg>
