<svg width="20" height="20" viewBox="0 0 20 20" fill="none" xmlns="http://www.w3.org/2000/svg">
<path d="M2.08398 10.0026C2.08398 6.27065 2.08398 4.40468 3.24335 3.2453C4.40273 2.08594 6.2687 2.08594 10.0007 2.08594C13.7326 2.08594 15.5986 2.08594 16.758 3.2453C17.9173 4.40468 17.9173 6.27065 17.9173 10.0026C17.9173 13.7345 17.9173 15.6005 16.758 16.7599C15.5986 17.9193 13.7326 17.9193 10.0007 17.9193C6.2687 17.9193 4.40273 17.9193 3.24335 16.7599C2.08398 15.6005 2.08398 13.7345 2.08398 10.0026Z" stroke="white" stroke-width="1.25"/>
<path d="M8.26299 6.66797L6.71429 7.7656C6.37259 8.00778 6.20175 8.12886 6.26187 8.23175C6.32201 8.33464 6.56363 8.33464 7.04686 8.33464H13.75" stroke="white" stroke-width="1.25" stroke-linecap="round" stroke-linejoin="round"/>
<path d="M11.737 13.3346L13.2857 12.237C13.6274 11.9948 13.7983 11.8737 13.7381 11.7709C13.678 11.668 13.4364 11.668 12.9532 11.668H6.25" stroke="white" stroke-width="1.25" stroke-linecap="round" stroke-linejoin="round"/>
</svg>
