<svg width="137" height="48" viewBox="0 0 137 48" fill="none" xmlns="http://www.w3.org/2000/svg">
<path d="M7.26172 47.2174V31.6596L36.7334 15.8596H25.353L34.0491 7.54462C34.9797 8.47255 35.7535 9.5454 36.3403 10.7213C37.2433 12.4945 37.7102 14.4575 37.7023 16.4473C37.7023 20.9476 36.1034 24.5041 32.9055 27.117C29.7077 29.7298 25.3821 31.0441 19.9288 31.06C19.3649 31.06 18.9321 31.06 18.6382 31.06C18.3444 31.06 18.0903 31.0322 17.8441 31.0164V44.7955L7.26172 47.2174Z" fill="#8424FF"/>
<path d="M7.26172 25.5286V18.3096H14.8262L7.26172 25.5286Z" fill="#8424FF"/>
<path d="M7.26172 16.2805V2.88684H18.67C22.1749 2.88684 24.9545 3.1423 27.0088 3.65321C27.803 3.85294 28.5819 4.10905 29.3397 4.41959L7.26172 16.2805Z" fill="#8424FF"/>
<path fill-rule="evenodd" clip-rule="evenodd" d="M40.1851 0L8.31894 17.0906H17.8728L0 34.1692L31.8622 17.0906H22.3083L40.1851 0Z" fill="#F47100"/>
<path fill-rule="evenodd" clip-rule="evenodd" d="M31.8622 17.0906H22.3083L40.1851 0L17.6266 19.207L24.0475 18.9052L0 34.1692L31.8622 17.0906Z" fill="#F47100"/>
<path fill-rule="evenodd" clip-rule="evenodd" d="M27.7772 7.90198L14.582 15.1488L18.1915 14.9622L27.7772 7.90198Z" fill="white"/>
<path fill-rule="evenodd" clip-rule="evenodd" d="M13.5957 24.0515L20.918 20.0211L18.0312 20.1799L13.5957 24.0515Z" fill="white"/>
<path d="M129.338 29.9166L129.339 29.9169C130.09 30.2351 130.927 30.3927 131.847 30.3927C132.818 30.3927 133.664 30.2162 134.382 29.8573L134.382 29.8573L134.384 29.8564C135.098 29.4865 135.646 28.9922 136.021 28.3719C136.394 27.7547 136.581 27.0846 136.581 26.3644C136.581 25.5365 136.383 24.8518 135.974 24.324C135.577 23.8116 135.101 23.4247 134.546 23.1665C134.004 22.9149 133.31 22.665 132.465 22.4165C131.85 22.232 131.373 22.073 131.033 21.9394C130.715 21.7978 130.448 21.6227 130.228 21.415C130.035 21.2104 129.937 20.9584 129.937 20.6489C129.937 20.1861 130.075 19.8551 130.33 19.6308C130.606 19.3997 130.977 19.2773 131.458 19.2773C132.013 19.2773 132.439 19.4187 132.752 19.6865L132.752 19.6866L132.756 19.6901C133.082 19.9488 133.252 20.2745 133.275 20.6758L133.283 20.8175H133.425H136.282H136.444L136.432 20.6563C136.342 19.456 135.861 18.5118 134.983 17.8398C134.121 17.1586 133.003 16.8247 131.643 16.8247C130.735 16.8247 129.923 16.9822 129.208 17.3012C128.492 17.6083 127.93 18.0587 127.529 18.6537C127.127 19.2504 126.928 19.9485 126.928 20.7417C126.928 21.5803 127.119 22.2707 127.515 22.7987L127.515 22.7987L127.517 22.802C127.914 23.3011 128.383 23.6811 128.925 23.939L128.925 23.939L128.929 23.9408C129.469 24.1794 130.162 24.4227 131.007 24.6712L131.007 24.6712L131.009 24.6717C131.625 24.8442 132.1 25.0029 132.438 25.1476L132.438 25.1477L132.444 25.15C132.784 25.2791 133.061 25.4591 133.279 25.6883C133.484 25.9043 133.59 26.1812 133.59 26.5314C133.59 26.9587 133.435 27.2997 133.124 27.567C132.813 27.8222 132.374 27.9587 131.792 27.9587C131.225 27.9587 130.794 27.8117 130.482 27.5338C130.181 27.2549 130.009 26.8728 129.974 26.3725L129.964 26.2329H129.825H127.041H126.889L126.891 26.3853C126.904 27.2045 127.128 27.9217 127.569 28.5307C128.007 29.1359 128.598 29.5976 129.338 29.9166Z" fill="#101828" stroke="#101828" stroke-width="0.3"/>
<path d="M116.021 30.2628H116.128L116.163 30.1619L116.981 27.7948H121.926L122.745 30.1619L122.78 30.2628H122.887H125.633H125.846L125.774 30.0621L121.117 17.091L121.081 16.9917H120.975H117.951H117.845L117.81 17.091L113.152 30.0621L113.08 30.2628H113.293H116.021ZM117.79 25.4164L119.454 20.6067L121.117 25.4164H117.79Z" fill="#101828" stroke="#101828" stroke-width="0.3"/>
<path d="M102.738 30.2628H102.844L102.879 30.1619L103.698 27.7948H108.643L109.462 30.1619L109.497 30.2628H109.604H112.35H112.563L112.491 30.0621L107.833 17.091L107.798 16.9917H107.692H104.668H104.562L104.526 17.091L99.8686 30.0621L99.7965 30.2628H100.01H102.738ZM104.507 25.4164L106.171 20.6067L107.834 25.4164H104.507Z" fill="#101828" stroke="#101828" stroke-width="0.3"/>
<path d="M91.4633 29.9166L91.4642 29.9169C92.215 30.2351 93.0518 30.3927 93.9722 30.3927C94.9428 30.3927 95.7895 30.2162 96.5073 29.8573L96.5073 29.8573L96.5092 29.8564C97.2234 29.4865 97.7712 28.9922 98.146 28.3719C98.5188 27.7547 98.7057 27.0846 98.7057 26.3644C98.7057 25.5365 98.5081 24.8518 98.099 24.324C97.7019 23.8116 97.2256 23.4247 96.6705 23.1665C96.1295 22.9149 95.4353 22.665 94.5902 22.4165C93.9752 22.232 93.4984 22.073 93.158 21.9394C92.8403 21.7978 92.5725 21.6227 92.3526 21.415C92.1601 21.2104 92.0624 20.9584 92.0624 20.6489C92.0624 20.1861 92.1998 19.8551 92.4554 19.6308C92.7312 19.3997 93.102 19.2773 93.5825 19.2773C94.1382 19.2773 94.5642 19.4187 94.8767 19.6865L94.8766 19.6866L94.8811 19.6901C95.2073 19.9488 95.3775 20.2745 95.3998 20.6758L95.4076 20.8175H95.5495H98.4073H98.5689L98.5569 20.6563C98.4675 19.456 97.9859 18.5118 97.1076 17.8398C96.246 17.1586 95.1284 16.8247 93.7681 16.8247C92.8604 16.8247 92.0475 16.9822 91.3327 17.3012C90.6166 17.6083 90.055 18.0587 89.654 18.6537C89.2519 19.2504 89.0531 19.9485 89.0531 20.7417C89.0531 21.5803 89.2438 22.2707 89.6398 22.7987L89.6398 22.7987L89.6424 22.802C90.0391 23.3011 90.5083 23.6811 91.05 23.939L91.05 23.939L91.0538 23.9408C91.5939 24.1794 92.2873 24.4227 93.1319 24.6712L93.1319 24.6712L93.1338 24.6717C93.7498 24.8442 94.225 25.0029 94.5626 25.1476L94.5626 25.1477L94.5685 25.15C94.9088 25.2791 95.186 25.4591 95.4037 25.6883C95.6089 25.9043 95.715 26.1812 95.715 26.5314C95.715 26.9587 95.5602 27.2997 95.249 27.567C94.9377 27.8222 94.4995 27.9587 93.9165 27.9587C93.3496 27.9587 92.919 27.8117 92.6072 27.5338C92.3065 27.2549 92.1341 26.8728 92.0992 26.3725L92.0894 26.2329H91.9495H89.166H89.0137L89.016 26.3853C89.0288 27.2045 89.2535 27.9217 89.694 28.5307C90.1318 29.1359 90.7233 29.5976 91.4633 29.9166Z" fill="#101828" stroke="#101828" stroke-width="0.3"/>
<path d="M75.7329 29.9166L75.7337 29.9169C76.4845 30.2351 77.3213 30.3927 78.2417 30.3927C79.2124 30.3927 80.059 30.2162 80.7769 29.8573L80.7769 29.8573L80.7788 29.8564C81.493 29.4865 82.0407 28.9922 82.4155 28.3719C82.7884 27.7547 82.9753 27.0846 82.9753 26.3644C82.9753 25.5365 82.7776 24.8518 82.3686 24.324C81.9714 23.8116 81.4952 23.4247 80.9401 23.1665C80.399 22.9149 79.7048 22.665 78.8597 22.4165C78.2448 22.232 77.768 22.073 77.4275 21.9394C77.1098 21.7978 76.8421 21.6227 76.6221 21.415C76.4296 21.2104 76.3319 20.9584 76.3319 20.6489C76.3319 20.1861 76.4693 19.8551 76.725 19.6308C77.0007 19.3997 77.3715 19.2773 77.8521 19.2773C78.4078 19.2773 78.8338 19.4187 79.1462 19.6865L79.1461 19.6866L79.1506 19.6901C79.4768 19.9488 79.647 20.2745 79.6693 20.6758L79.6772 20.8175H79.8191H82.6768H82.8384L82.8264 20.6563C82.737 19.456 82.2554 18.5118 81.3772 17.8398C80.5156 17.1586 79.3979 16.8247 78.0376 16.8247C77.1299 16.8247 76.3171 16.9822 75.6022 17.3012C74.8861 17.6083 74.3245 18.0587 73.9235 18.6537C73.5214 19.2504 73.3227 19.9485 73.3227 20.7417C73.3227 21.5803 73.5133 22.2707 73.9094 22.7987L73.9093 22.7987L73.9119 22.802C74.3086 23.3011 74.7779 23.6811 75.3195 23.939L75.3195 23.939L75.3234 23.9408C75.8635 24.1794 76.5568 24.4227 77.4015 24.6712L77.4015 24.6712L77.4034 24.6717C78.0193 24.8442 78.4946 25.0029 78.8321 25.1476L78.8321 25.1477L78.838 25.15C79.1784 25.2791 79.4555 25.4591 79.6732 25.6883C79.8784 25.9043 79.9845 26.1812 79.9845 26.5314C79.9845 26.9587 79.8297 27.2997 79.5185 27.567C79.2072 27.8222 78.769 27.9587 78.1861 27.9587C77.6191 27.9587 77.1885 27.8117 76.8767 27.5338C76.576 27.2549 76.4036 26.8728 76.3687 26.3725L76.359 26.2329H76.2191H73.4355H73.2832L73.2856 26.3853C73.2984 27.2045 73.523 27.9217 73.9635 28.5307C74.4014 29.1359 74.9928 29.5976 75.7329 29.9166Z" fill="#101828" stroke="#101828" stroke-width="0.3"/>
<path d="M59.3316 27.1082L59.332 27.1089C59.9392 28.1336 60.7625 28.938 61.8 29.52C62.8378 30.1021 63.9767 30.3927 65.2136 30.3927C66.4506 30.3927 67.5894 30.1021 68.6272 29.52C69.6649 28.9379 70.4822 28.1333 71.0772 27.108C71.6855 26.0687 71.9884 24.8979 71.9884 23.5994C71.9884 22.3134 71.6856 21.1549 71.0773 20.128C70.4825 19.0908 69.6653 18.2799 68.6276 17.6977C67.6016 17.1151 66.4625 16.8247 65.2136 16.8247C63.9767 16.8247 62.8378 17.1153 61.8 17.6975C60.7622 18.2797 59.9389 19.0904 59.3318 20.1274C58.7233 21.1545 58.4203 22.3131 58.4203 23.5994C58.4203 24.898 58.7232 26.0689 59.3316 27.1082ZM68.5315 21.4036L68.5321 21.4046C68.853 22.0228 69.0162 22.7529 69.0162 23.5994C69.0162 24.4459 68.8531 25.1827 68.5315 25.8138C68.2096 26.4458 67.7647 26.9312 67.1968 27.2746C66.6291 27.6055 65.9696 27.7731 65.2136 27.7731C64.4579 27.7731 63.7919 27.6056 63.2113 27.2742C62.6437 26.9309 62.199 26.4456 61.8772 25.8138C61.5556 25.1827 61.3925 24.4459 61.3925 23.5994C61.3925 22.7529 61.5557 22.0228 61.8766 21.4046L61.8766 21.4046L61.8772 21.4036C62.199 20.7719 62.6434 20.2931 63.2103 19.9623C63.7911 19.6305 64.4575 19.4628 65.2136 19.4628C65.9701 19.4628 66.6299 19.6307 67.1978 19.962C67.765 20.2928 68.2096 20.7717 68.5315 21.4036Z" fill="#101828" stroke="#101828" stroke-width="0.3"/>
<path d="M50.5081 30.2628H50.6581V30.1128V25.2896H52.6792C53.7593 25.2896 54.6638 25.1014 55.3846 24.7154C56.1114 24.3328 56.6486 23.8246 56.9865 23.1883C57.3323 22.5602 57.5055 21.8861 57.5055 21.1685C57.5055 20.3775 57.3203 19.6644 56.9471 19.0333C56.584 18.3983 56.0344 17.9029 55.3062 17.5452C54.5756 17.1863 53.6981 17.0102 52.6792 17.0102H47.9102H47.7602V17.1602V30.1128V30.2628H47.9102H50.5081ZM54.0607 22.4513C53.7534 22.736 53.2659 22.8927 52.5679 22.8927H50.6581V19.4257H52.5679C53.2538 19.4257 53.7402 19.5795 54.0545 19.8607C54.3656 20.139 54.5334 20.5652 54.5334 21.1685C54.5334 21.7311 54.3705 22.1519 54.0607 22.4513Z" fill="#101828" stroke="#101828" stroke-width="0.3"/>
</svg>
