<svg width="137" height="48" viewBox="0 0 137 48" fill="none" xmlns="http://www.w3.org/2000/svg">
<path d="M7.2627 47.2175V31.6597L36.7344 15.8597H25.3539L34.0501 7.54468C34.9807 8.47261 35.7545 9.54546 36.3413 10.7214C37.2443 12.4945 37.7112 14.4575 37.7033 16.4473C37.7033 20.9476 36.1044 24.5042 32.9065 27.117C29.7086 29.7299 25.3831 31.0442 19.9297 31.0601C19.3659 31.0601 18.9331 31.0601 18.6392 31.0601C18.3454 31.0601 18.0912 31.0323 17.845 31.0164V44.7955L7.2627 47.2175Z" fill="#8424FF"/>
<path d="M7.2627 25.5286V18.3096H14.8272L7.2627 25.5286Z" fill="#8424FF"/>
<path d="M7.2627 16.2805V2.88684H18.671C22.1759 2.88684 24.9555 3.1423 27.0098 3.65321C27.804 3.85294 28.5829 4.10905 29.3407 4.41959L7.2627 16.2805Z" fill="#8424FF"/>
<path fill-rule="evenodd" clip-rule="evenodd" d="M40.1851 0L8.31894 17.0906H17.8728L0 34.1692L31.8622 17.0906H22.3083L40.1851 0Z" fill="#F47100"/>
<path fill-rule="evenodd" clip-rule="evenodd" d="M31.8622 17.0906H22.3083L40.1851 0L17.6266 19.207L24.0475 18.9052L0 34.1692L31.8622 17.0906Z" fill="#F47100"/>
<path fill-rule="evenodd" clip-rule="evenodd" d="M27.7772 7.90198L14.582 15.1488L18.1915 14.9622L27.7772 7.90198Z" fill="white"/>
<path fill-rule="evenodd" clip-rule="evenodd" d="M13.5965 24.0514L20.9187 20.021L18.0319 20.1798L13.5965 24.0514Z" fill="white"/>
<path d="M129.338 29.9166L129.339 29.917C130.09 30.2351 130.927 30.3928 131.847 30.3928C132.818 30.3928 133.664 30.2163 134.382 29.8574L134.382 29.8574L134.384 29.8564C135.098 29.4866 135.646 28.9922 136.021 28.3719C136.394 27.7547 136.58 27.0846 136.58 26.3644C136.58 25.5366 136.383 24.8519 135.974 24.3241C135.577 23.8116 135.1 23.4248 134.545 23.1666C134.004 22.9149 133.31 22.6651 132.465 22.4165C131.85 22.232 131.373 22.073 131.033 21.9394C130.715 21.7979 130.447 21.6227 130.227 21.4151C130.035 21.2105 129.937 20.9585 129.937 20.649C129.937 20.1862 130.075 19.8552 130.33 19.6309C130.606 19.3997 130.977 19.2773 131.457 19.2773C132.013 19.2773 132.439 19.4188 132.751 19.6866L132.751 19.6866L132.756 19.6902C133.082 19.9489 133.252 20.2746 133.275 20.6758L133.282 20.8175H133.424H136.282H136.444L136.432 20.6564C136.342 19.4561 135.861 18.5119 134.982 17.8398C134.121 17.1587 133.003 16.8247 131.643 16.8247C130.735 16.8247 129.922 16.9823 129.207 17.3012C128.491 17.6083 127.93 18.0588 127.529 18.6538C127.127 19.2505 126.928 19.9485 126.928 20.7418C126.928 21.5804 127.119 22.2707 127.515 22.7988L127.515 22.7988L127.517 22.8021C127.914 23.3012 128.383 23.6811 128.925 23.939L128.925 23.9391L128.929 23.9408C129.469 24.1795 130.162 24.4228 131.007 24.6712L131.007 24.6712L131.009 24.6718C131.625 24.8442 132.1 25.003 132.437 25.1477L132.437 25.1478L132.443 25.1501C132.784 25.2791 133.061 25.4592 133.278 25.6884C133.484 25.9044 133.59 26.1812 133.59 26.5315C133.59 26.9588 133.435 27.2998 133.124 27.5671C132.812 27.8222 132.374 27.9588 131.791 27.9588C131.224 27.9588 130.794 27.8118 130.482 27.5339C130.181 27.255 130.009 26.8729 129.974 26.3726L129.964 26.233H129.824H127.041H126.888L126.891 26.3853C126.904 27.2045 127.128 27.9218 127.569 28.5307C128.007 29.136 128.598 29.5976 129.338 29.9166Z" fill="white" stroke="white" stroke-width="0.3"/>
<path d="M116.022 30.2629H116.129L116.164 30.1619L116.982 27.7948H121.927L122.746 30.1619L122.781 30.2629H122.888H125.634H125.847L125.775 30.0622L121.118 17.091L121.082 16.9917H120.976H117.952H117.846L117.811 17.091L113.153 30.0622L113.081 30.2629H113.294H116.022ZM117.791 25.4165L119.455 20.6068L121.118 25.4165H117.791Z" fill="white" stroke="white" stroke-width="0.3"/>
<path d="M102.738 30.2629H102.844L102.879 30.1619L103.698 27.7948H108.643L109.462 30.1619L109.497 30.2629H109.604H112.35H112.563L112.491 30.0622L107.833 17.091L107.798 16.9917H107.692H104.667H104.562L104.526 17.091L99.8685 30.0622L99.7965 30.2629H100.01H102.738ZM104.507 25.4165L106.171 20.6068L107.834 25.4165H104.507Z" fill="white" stroke="white" stroke-width="0.3"/>
<path d="M91.4633 29.9166L91.4642 29.917C92.215 30.2351 93.0518 30.3928 93.9722 30.3928C94.9428 30.3928 95.7895 30.2163 96.5073 29.8574L96.5073 29.8574L96.5092 29.8564C97.2234 29.4866 97.7712 28.9922 98.146 28.3719C98.5188 27.7547 98.7057 27.0846 98.7057 26.3644C98.7057 25.5366 98.5081 24.8519 98.099 24.3241C97.7019 23.8116 97.2256 23.4248 96.6705 23.1666C96.1295 22.9149 95.4353 22.6651 94.5902 22.4165C93.9752 22.232 93.4984 22.073 93.158 21.9394C92.8403 21.7979 92.5725 21.6227 92.3526 21.4151C92.1601 21.2105 92.0624 20.9585 92.0624 20.649C92.0624 20.1862 92.1998 19.8552 92.4554 19.6309C92.7312 19.3997 93.102 19.2773 93.5825 19.2773C94.1382 19.2773 94.5642 19.4188 94.8767 19.6866L94.8766 19.6866L94.8811 19.6902C95.2073 19.9489 95.3775 20.2746 95.3998 20.6758L95.4076 20.8175H95.5495H98.4073H98.5689L98.5569 20.6564C98.4675 19.4561 97.9859 18.5119 97.1076 17.8398C96.246 17.1587 95.1284 16.8247 93.7681 16.8247C92.8604 16.8247 92.0475 16.9823 91.3327 17.3012C90.6166 17.6083 90.055 18.0588 89.654 18.6538C89.2519 19.2505 89.0531 19.9485 89.0531 20.7418C89.0531 21.5804 89.2438 22.2707 89.6398 22.7988L89.6398 22.7988L89.6424 22.8021C90.0391 23.3012 90.5083 23.6811 91.05 23.939L91.05 23.9391L91.0538 23.9408C91.5939 24.1795 92.2873 24.4228 93.1319 24.6712L93.1319 24.6712L93.1338 24.6718C93.7498 24.8442 94.225 25.003 94.5626 25.1477L94.5626 25.1478L94.5685 25.1501C94.9088 25.2791 95.186 25.4592 95.4037 25.6884C95.6089 25.9044 95.715 26.1812 95.715 26.5315C95.715 26.9588 95.5602 27.2998 95.249 27.5671C94.9376 27.8222 94.4995 27.9588 93.9165 27.9588C93.3496 27.9588 92.919 27.8118 92.6072 27.5339C92.3065 27.255 92.1341 26.8729 92.0992 26.3726L92.0894 26.233H91.9495H89.166H89.0137L89.016 26.3853C89.0288 27.2045 89.2535 27.9218 89.694 28.5307C90.1318 29.136 90.7233 29.5976 91.4633 29.9166Z" fill="white" stroke="white" stroke-width="0.3"/>
<path d="M75.7329 29.9166L75.7338 29.917C76.4846 30.2351 77.3214 30.3928 78.2418 30.3928C79.2124 30.3928 80.0591 30.2163 80.7769 29.8574L80.7769 29.8574L80.7788 29.8564C81.493 29.4866 82.0407 28.9922 82.4155 28.3719C82.7884 27.7547 82.9753 27.0846 82.9753 26.3644C82.9753 25.5366 82.7776 24.8519 82.3686 24.3241C81.9714 23.8116 81.4952 23.4248 80.9401 23.1666C80.399 22.9149 79.7049 22.6651 78.8598 22.4165C78.2448 22.232 77.768 22.073 77.4275 21.9394C77.1099 21.7979 76.8421 21.6227 76.6221 21.4151C76.4296 21.2105 76.332 20.9585 76.332 20.649C76.332 20.1862 76.4693 19.8552 76.725 19.6309C77.0008 19.3997 77.3716 19.2773 77.8521 19.2773C78.4078 19.2773 78.8338 19.4188 79.1462 19.6866L79.1462 19.6866L79.1506 19.6902C79.4768 19.9489 79.647 20.2746 79.6693 20.6758L79.6772 20.8175H79.8191H82.6768H82.8384L82.8264 20.6564C82.737 19.4561 82.2555 18.5119 81.3772 17.8398C80.5156 17.1587 79.3979 16.8247 78.0377 16.8247C77.1299 16.8247 76.3171 16.9823 75.6023 17.3012C74.8862 17.6083 74.3246 18.0588 73.9236 18.6538C73.5214 19.2505 73.3227 19.9485 73.3227 20.7418C73.3227 21.5804 73.5134 22.2707 73.9094 22.7988L73.9093 22.7988L73.912 22.8021C74.3087 23.3012 74.7779 23.6811 75.3195 23.939L75.3195 23.9391L75.3234 23.9408C75.8635 24.1795 76.5568 24.4228 77.4015 24.6712L77.4015 24.6712L77.4034 24.6718C78.0193 24.8442 78.4946 25.003 78.8322 25.1477L78.8321 25.1478L78.8381 25.1501C79.1784 25.2791 79.4555 25.4592 79.6732 25.6884C79.8785 25.9044 79.9846 26.1812 79.9846 26.5315C79.9846 26.9588 79.8298 27.2998 79.5185 27.5671C79.2072 27.8222 78.769 27.9588 78.1861 27.9588C77.6192 27.9588 77.1885 27.8118 76.8767 27.5339C76.576 27.255 76.4036 26.8729 76.3687 26.3726L76.359 26.233H76.2191H73.4356H73.2832L73.2856 26.3853C73.2984 27.2045 73.523 27.9218 73.9635 28.5307C74.4014 29.136 74.9928 29.5976 75.7329 29.9166Z" fill="white" stroke="white" stroke-width="0.3"/>
<path d="M59.3308 27.1083L59.3312 27.109C59.9385 28.1337 60.7618 28.938 61.7993 29.52C62.8371 30.1022 63.9759 30.3928 65.2129 30.3928C66.4498 30.3928 67.5886 30.1022 68.6265 29.52C69.6642 28.9379 70.4816 28.1332 71.0766 27.1079C71.6848 26.0687 71.9876 24.8979 71.9876 23.5995C71.9876 22.3134 71.6848 21.155 71.0765 20.1281C70.4817 19.0908 69.6645 18.2799 68.6268 17.6977C67.6008 17.1151 66.4618 16.8247 65.2129 16.8247C63.9759 16.8247 62.8371 17.1153 61.7993 17.6975C60.7614 18.2797 59.9381 19.0905 59.331 20.1275C58.7225 21.1545 58.4195 22.3132 58.4195 23.5995C58.4195 24.898 58.7224 26.0689 59.3308 27.1083ZM68.5308 21.4037L68.5313 21.4047C68.8523 22.0229 69.0155 22.7529 69.0155 23.5995C69.0155 24.446 68.8523 25.1827 68.5308 25.8139C68.2088 26.4458 67.764 26.9313 67.1961 27.2746C66.6284 27.6055 65.9689 27.7732 65.2129 27.7732C64.4572 27.7732 63.7911 27.6057 63.2105 27.2743C62.6429 26.9309 62.1982 26.4456 61.8764 25.8139C61.5549 25.1827 61.3917 24.446 61.3917 23.5995C61.3917 22.7529 61.5549 22.0229 61.8759 21.4047L61.8759 21.4047L61.8764 21.4037C62.1982 20.772 62.6426 20.2932 63.2095 19.9624C63.7903 19.6306 64.4567 19.4629 65.2129 19.4629C65.9693 19.4629 66.6291 19.6307 67.1971 19.962C67.7643 20.2929 68.2088 20.7717 68.5308 21.4037Z" fill="white" stroke="white" stroke-width="0.3"/>
<path d="M50.5081 30.2629H50.6581V30.1129V25.2897H52.6792C53.7593 25.2897 54.6638 25.1015 55.3847 24.7154C56.1114 24.3328 56.6486 23.8246 56.9865 23.1883C57.3323 22.5602 57.5055 21.8862 57.5055 21.1685C57.5055 20.3775 57.3203 19.6644 56.9471 19.0333C56.584 18.3984 56.0344 17.9029 55.3062 17.5452C54.5756 17.1863 53.6981 17.0103 52.6792 17.0103H47.9102H47.7602V17.1603V30.1129V30.2629H47.9102H50.5081ZM54.0607 22.4513C53.7534 22.736 53.2659 22.8928 52.5679 22.8928H50.6581V19.4257H52.5679C53.2538 19.4257 53.7402 19.5795 54.0545 19.8607C54.3656 20.1391 54.5334 20.5653 54.5334 21.1685C54.5334 21.7312 54.3705 22.152 54.0607 22.4513Z" fill="white" stroke="white" stroke-width="0.3"/>
</svg>
