<svg width="85" height="24" viewBox="0 0 85 24" fill="none" xmlns="http://www.w3.org/2000/svg">
<path d="M16.4377 18.2296C16.4377 19.2699 16.0196 20.6686 14.7851 20.6686C14.1662 20.6686 13.8019 20.3426 13.8019 19.6948C13.8022 18.4719 15.5544 18.2296 16.4377 18.2296ZM18.2082 21.8105V16.0296C18.2082 14.1554 17.0049 13.5078 15.3192 13.5078C13.6707 13.5078 12.2978 14.2237 12.2978 16.0832H14.1036C14.1036 15.2801 14.5211 14.839 15.3194 14.839C16.2355 14.839 16.4378 15.5182 16.4378 16.3205V17.1225C14.6358 17.1734 12 17.4301 12 19.8687C12 21.2495 13.0686 21.9997 14.3349 21.9997C15.2032 21.9997 16.0034 21.7093 16.4057 20.8735H16.4379V21.8106H18.2082M23.6981 16.474H25.6667C25.6667 14.4782 24.5845 13.5078 22.6471 13.5078C20.2655 13.5078 19.01 15.0405 19.01 17.3928C19.01 20.2236 20.4284 21.9997 23.2629 21.9997C24.0484 21.9997 24.8316 21.8648 25.5835 21.6243V20.465C25.1482 20.6178 24.6978 20.6686 24.2509 20.6686C22.1441 20.6686 20.9788 19.0999 20.9788 17.0548C20.9788 16.0837 21.3291 14.839 22.4976 14.839C23.4645 14.839 23.6981 15.6397 23.6981 16.474ZM30.8121 16.474H32.7827C32.7827 14.4782 31.696 13.5078 29.7619 13.5078C27.3769 13.5078 26.1251 15.0405 26.1251 17.3928C26.1251 20.2236 27.5421 21.9997 30.3785 21.9997C31.1619 21.9997 31.9481 21.8648 32.6969 21.6243V20.465C32.2645 20.6178 31.813 20.6686 31.363 20.6686C29.2621 20.6686 28.0909 19.0999 28.0909 17.0548C28.0909 16.0837 28.4444 14.839 29.6108 14.839C30.578 14.839 30.8121 15.6397 30.8121 16.474ZM38.0714 16.1153H35.1687C35.2534 15.2962 35.8681 14.7142 36.6627 14.7142C37.5171 14.7142 38.0714 15.2466 38.0714 16.1153ZM39.8232 17.2605V16.7981C39.8232 14.8206 38.8224 13.5078 36.8032 13.5078C34.4358 13.5078 33.3982 15.0253 33.3982 17.3275C33.3982 20.0019 34.5821 22 37.4012 22C38.1531 22 38.9077 21.9156 39.6183 21.6756V20.3633C39.1507 20.5326 38.6035 20.6684 38.1035 20.6684C36.303 20.6684 35.1147 18.9819 35.1147 17.2607H39.8232M45.3105 21.8105H47.1664V16.184C47.1664 14.7876 46.5261 13.5078 45.0108 13.5078C43.876 13.5078 43.0778 14.1747 42.6586 15.2118H42.6258V13.6907H40.7703V21.8111H42.6258V18.2989C42.6258 17.2053 43.1603 15.2807 44.4899 15.2807C44.6804 15.2807 44.8898 15.2962 45.0279 15.4354C45.3406 15.7406 45.3105 16.7799 45.3105 17.1734V21.8105ZM51.0137 15.0078H53.3725V13.6907H51.0137V11L49.1699 11.7668V13.6903H47.6161V15.0073H49.1699V19.7639C49.1699 21.4538 49.9787 21.9994 51.6023 21.9994C52.105 21.9994 52.6181 21.9501 53.1158 21.8646V20.5321C52.8369 20.6024 52.5547 20.6677 52.2663 20.6677C51.1121 20.6677 51.0134 19.7986 51.0134 18.8418V15.0078M58.7301 21.8105H60.5821V13.6906H58.7301V17.205C58.7301 18.2985 58.1956 20.2237 56.8584 20.2237C56.6777 20.2237 56.4573 20.2101 56.3239 20.0729C56.0053 19.7645 56.0413 18.7238 56.0413 18.3337V13.6904H54.1922V19.3221C54.1922 20.7215 54.8206 21.9999 56.3423 21.9999C57.463 21.9999 58.2796 21.3163 58.6983 20.2963H58.7301V21.8105ZM63.6025 18.248C63.6025 16.3377 64.3023 15.487 66.2023 15.487V13.5078C64.8703 13.5078 64.2493 14.071 63.6338 15.193H63.6024V13.6903H61.7473V21.8106H63.6024V18.248M71.2489 16.1153H68.345C68.4289 15.2962 69.0454 14.7142 69.8445 14.7142C70.698 14.7142 71.2489 15.2466 71.2489 16.1153ZM73 17.2605V16.7981C73 14.8206 72.0003 13.5078 69.9795 13.5078C67.6113 13.5078 66.5765 15.0253 66.5765 17.3275C66.5765 20.0019 67.7613 22 70.5782 22C71.3299 22 72.0819 21.9156 72.7989 21.6756V20.3633C72.3324 20.5326 71.7814 20.6684 71.2845 20.6684C69.4778 20.6684 68.2937 18.9819 68.2937 17.2607H72.9999" fill="#27AAE1"/>
<path d="M48 3V4.79671C48 4.79671 53.0875 6.76816 53.8158 7.05165C53.0875 7.33088 48 9.29245 48 9.29245V11.0866L55.9237 7.86746V6.22073L48 3Z" fill="#27AAE1"/>
</svg>
