<svg width="38" height="38" viewBox="0 0 38 38" fill="none" xmlns="http://www.w3.org/2000/svg">
<rect width="38" height="38" rx="5" fill="#FF4497" fill-opacity="0.1"/>
<path d="M20.7637 7.79297C20.9877 7.85936 21.2217 7.90123 21.4328 7.99692C22.4759 8.46882 23.0868 9.27505 23.185 10.4455C23.2114 10.8327 23.2162 11.2211 23.1991 11.6088C23.1826 12.171 22.7669 12.5843 22.2501 12.5771C21.7332 12.5699 21.3417 12.162 21.3211 11.6106C21.3099 11.3199 21.3211 11.0287 21.317 10.7374C21.3064 10.0849 20.9371 9.71285 20.2998 9.71285C17.2258 9.71285 14.152 9.71285 11.0784 9.71285C10.4364 9.71285 10.0624 10.0879 10.0624 10.7332C10.0624 15.7265 10.0624 20.7196 10.0624 25.7125V25.9224H21.3181V25.6515C21.3181 24.8141 21.3134 23.9768 21.3181 23.1436C21.3228 22.5133 21.7356 22.1018 22.3212 22.1269C22.5313 22.1399 22.7308 22.2251 22.8871 22.3684C23.0435 22.5116 23.1474 22.7046 23.182 22.9158C23.1951 23.0119 23.2014 23.1088 23.2009 23.2058C23.2009 24.7286 23.2061 26.2507 23.2009 27.7735C23.195 29.2089 22.3442 30.3268 21.0189 30.6479C20.805 30.6976 20.5861 30.7216 20.3668 30.7197C17.2489 30.7245 14.1311 30.7245 11.0132 30.7197C9.61497 30.7197 8.47722 29.7556 8.21557 28.3572C8.2055 28.3226 8.19149 28.2893 8.17383 28.2579V10.2553C8.19174 10.2167 8.20668 10.1767 8.21852 10.1357C8.45371 9.01548 9.11284 8.27683 10.1788 7.91319C10.3153 7.86713 10.4564 7.83364 10.5951 7.79357L20.7637 7.79297Z" fill="#FF4497"/>
<path d="M20.7773 18.7768C20.8461 18.6746 20.912 18.5226 21.0225 18.4228C21.236 18.2302 21.4812 18.0747 21.6987 17.8845C21.7641 17.8159 21.8036 17.7261 21.8104 17.6309C21.8272 17.4391 21.8272 17.2461 21.8104 17.0543C21.8034 16.9584 21.7632 16.8681 21.6969 16.7995C21.4853 16.6159 21.2542 16.4562 21.0349 16.2816C20.7803 16.0782 20.735 15.8629 20.8926 15.5764C21.1231 15.1614 21.3583 14.7483 21.5982 14.3372C21.7616 14.0549 21.9703 13.9831 22.2679 14.1039C22.526 14.2086 22.7777 14.3318 23.0399 14.4227C23.1246 14.452 23.2398 14.4227 23.3339 14.3892C23.428 14.3557 23.4885 14.2654 23.5761 14.2397C23.9466 14.1308 24.0224 13.8473 24.0295 13.5076C24.0373 13.3513 24.054 13.1955 24.0794 13.0411C24.12 12.7361 24.2882 12.5722 24.5922 12.5668C25.0763 12.5585 25.5604 12.5585 26.0445 12.5668C26.3473 12.5722 26.496 12.7092 26.5466 13.0202C26.5942 13.3138 26.6189 13.6117 26.6677 13.9054C26.6865 13.9781 26.73 14.0417 26.7906 14.0848C26.8841 14.1542 27.0135 14.1805 27.094 14.2606C27.3468 14.5118 27.5985 14.4795 27.8796 14.3163C28.048 14.2261 28.2234 14.1501 28.404 14.089C28.6569 13.9927 28.8744 14.0615 29.0108 14.2971C29.266 14.7317 29.5149 15.1703 29.7576 15.6129C29.8963 15.8671 29.8475 16.0788 29.6182 16.2642C29.3889 16.4497 29.1561 16.6081 28.9391 16.7965C28.8744 16.8669 28.8345 16.9572 28.8256 17.0531C28.8097 17.1614 28.8597 17.2828 28.8333 17.3863C28.7492 17.7176 28.8921 17.9126 29.1596 18.0723C29.3258 18.1803 29.4831 18.3019 29.63 18.4359C29.8452 18.6183 29.8899 18.8253 29.7546 19.0723C29.5124 19.5149 29.2635 19.9535 29.0079 20.3881C28.8633 20.6339 28.6492 20.7003 28.3835 20.5926C28.1177 20.485 27.8543 20.3732 27.5962 20.2505C27.5497 20.2243 27.4962 20.2137 27.4434 20.2201C27.3907 20.2266 27.3412 20.2498 27.3022 20.2864C27.1981 20.3684 27.0893 20.4611 26.9682 20.4981C26.6901 20.5813 26.6389 20.7864 26.6213 21.0364C26.6038 21.2667 26.5747 21.4958 26.5343 21.723C26.5211 21.8358 26.4663 21.9393 26.3809 22.0125C26.2955 22.0857 26.186 22.1231 26.0745 22.1172C25.5688 22.122 25.0627 22.122 24.5563 22.1172C24.2917 22.1142 24.1177 21.9431 24.0794 21.6567C24.043 21.3833 24.0259 21.107 23.9765 20.8367C23.9486 20.7378 23.89 20.6508 23.8096 20.5885C23.7096 20.5047 23.5673 20.4688 23.4738 20.3803C23.2698 20.1836 23.0746 20.2075 22.8464 20.3313C22.6437 20.4345 22.4347 20.5246 22.2208 20.601C21.9856 20.6925 21.7728 20.6357 21.6446 20.4216C21.3747 19.9694 21.1195 19.5083 20.8632 19.046C20.8244 18.988 20.8162 18.9102 20.7773 18.7768ZM23.4444 17.3414C23.443 17.8468 23.6387 18.332 23.9886 18.6908C24.3384 19.0496 24.8139 19.2526 25.3107 19.2553C25.8075 19.2516 26.2831 19.0496 26.635 18.6927C26.9869 18.3359 27.187 17.8528 27.1922 17.3474C27.1929 16.842 26.9962 16.3571 26.6454 15.9992C26.2946 15.6413 25.8184 15.4399 25.3215 15.4392C24.8247 15.4385 24.348 15.6385 23.9962 15.9954C23.6443 16.3522 23.4463 16.8366 23.4456 17.342L23.4444 17.3414Z" fill="#FF4497"/>
</svg>
