<svg width="21" height="24" viewBox="0 0 21 24" fill="none" xmlns="http://www.w3.org/2000/svg">
<g clip-path="url(#clip0_1889_142)">
<path d="M10.215 5.80664C11.5405 5.80664 12.7033 5.28904 13.7034 4.25384C14.7034 3.21863 15.2035 2.01486 15.2035 0.642543C15.2035 0.491823 15.1916 0.277642 15.1678 0C14.9932 0.0237979 14.8622 0.0436295 14.7749 0.0594947C13.5526 0.234013 12.4771 0.832926 11.5484 1.85621C10.6198 2.87952 10.1555 3.97422 10.1555 5.14032C10.1555 5.27515 10.1753 5.49729 10.215 5.80664ZM14.9654 24C15.9099 24 16.9536 23.3535 18.0966 22.0605C19.2395 20.7675 20.1126 19.2484 20.7158 17.5032C18.4696 16.3451 17.3465 14.6832 17.3465 12.5176C17.3465 10.709 18.2553 9.16214 20.0729 7.87705C18.8109 6.29846 17.1441 5.50916 15.0725 5.50916C14.1994 5.50916 13.4018 5.64005 12.6795 5.90183L12.2271 6.06841L11.6199 6.30639C11.223 6.45711 10.8619 6.5325 10.5365 6.5325C10.2825 6.5325 9.94911 6.44521 9.53641 6.27069L9.07208 6.08031L8.63159 5.90183C7.98867 5.63212 7.29815 5.49726 6.56001 5.49726C4.58367 5.49726 2.99626 6.1636 1.79775 7.49629C0.599242 8.82894 0 10.586 0 12.7675C0 15.8374 0.960379 18.6733 2.88116 21.2752C4.2146 23.0917 5.43294 24 6.53619 24C7.00449 24 7.4688 23.9088 7.92915 23.7263L8.51252 23.4883L8.97686 23.3218C9.62769 23.0917 10.2269 22.9767 10.7746 22.9767C11.354 22.9767 12.0207 23.1235 12.7747 23.417L13.1438 23.5597C13.9137 23.8532 14.5209 24 14.9654 24Z" fill="#AF52DE"/>
</g>
<defs>
<clipPath id="clip0_1889_142">
<rect width="20.7168" height="24" fill="white"/>
</clipPath>
</defs>
</svg>
