<svg width="40" height="40" viewBox="0 0 40 40" fill="none" xmlns="http://www.w3.org/2000/svg">
<rect width="40" height="40" rx="8" fill="url(#paint0_linear_3486_181)"/>
<path fill-rule="evenodd" clip-rule="evenodd" d="M29.75 26.25H24.999C24.2697 26.25 23.5702 25.9602 23.0545 25.4445C22.5387 24.9288 22.249 24.2293 22.249 23.5V21.5C22.249 20.7706 22.5387 20.0711 23.0545 19.5554C23.5702 19.0397 24.2697 18.75 24.999 18.75H29.75V17.5C29.75 16.771 29.46 16.071 28.945 15.555C28.4288 15.0398 27.7293 14.7503 27 14.75H13C12.271 14.75 11.571 15.04 11.055 15.555C10.5398 16.0712 10.2503 16.7706 10.25 17.5V27.5C10.25 28.229 10.54 28.929 11.055 29.445C11.5712 29.9602 12.2707 30.2497 13 30.25H27C27.729 30.25 28.429 29.96 28.945 29.445C29.4602 28.9287 29.7497 28.2293 29.75 27.5V26.25ZM29.75 20.25V24.75H24.999C24.309 24.75 23.749 24.19 23.749 23.5V21.5C23.749 20.81 24.309 20.25 24.999 20.25H29.75ZM25.5 21.5C25.7652 21.5 26.0196 21.6053 26.2071 21.7929C26.3946 21.9804 26.5 22.2347 26.5 22.5C26.5 22.7652 26.3946 23.0195 26.2071 23.2071C26.0196 23.3946 25.7652 23.5 25.5 23.5C25.2348 23.5 24.9804 23.3946 24.7929 23.2071C24.6054 23.0195 24.5 22.7652 24.5 22.5C24.5 22.2347 24.6054 21.9804 24.7929 21.7929C24.9804 21.6053 25.2348 21.5 25.5 21.5ZM24.088 13.75H27C27.191 13.75 27.381 13.765 27.568 13.793L28.042 12.775C28.1259 12.5949 28.1349 12.3888 28.067 12.2021C27.9992 12.0153 27.86 11.8632 27.68 11.779L21.335 8.81996C21.1548 8.73613 20.9486 8.72728 20.7619 8.79534C20.5751 8.86341 20.423 9.00282 20.339 9.18296L19.802 10.334L23.102 11.872C23.4493 12.0339 23.7338 12.3053 23.9119 12.6446C24.0901 12.9838 24.1519 13.3722 24.088 13.75ZM13.675 13.75H23.054C23.1294 13.5712 23.1325 13.3701 23.0628 13.1891C22.993 13.008 22.8558 12.861 22.68 12.779L16.335 9.81996C16.1548 9.73613 15.9486 9.72728 15.7619 9.79534C15.5751 9.86341 15.423 10.0028 15.339 10.183L13.675 13.75Z" fill="white"/>
<defs>
<linearGradient id="paint0_linear_3486_181" x1="34.5" y1="0.999999" x2="6" y2="38.5" gradientUnits="userSpaceOnUse">
<stop stop-color="#13EB78"/>
<stop offset="1" stop-color="#00BB58"/>
</linearGradient>
</defs>
</svg>
