<svg width="38" height="38" viewBox="0 0 38 38" fill="none" xmlns="http://www.w3.org/2000/svg">
<rect width="38" height="38" rx="5" fill="#6D55FF" fill-opacity="0.1"/>
<path d="M20.2385 7.08398L21.2994 7.17852C22.9729 7.27807 24.6239 7.6078 26.2038 8.15803C26.8649 8.37759 27.4747 8.72428 27.9973 9.17778C28.5145 9.65848 28.6478 10.2096 28.3051 10.7406C28.1249 11.0035 27.8992 11.2335 27.6382 11.4204C27.0393 11.8407 26.3698 12.1545 25.66 12.3476C24.2311 12.7801 22.7563 13.05 21.2645 13.1522C19.9076 13.2658 18.5438 13.2779 17.185 13.1884C15.3381 13.0677 13.522 12.8082 11.7839 12.1626C11.1304 11.9466 10.5276 11.6047 10.011 11.1569C9.48562 10.6702 9.35224 10.101 9.70314 9.57602C9.8888 9.31594 10.1169 9.08762 10.3783 8.90021C10.9803 8.48407 11.6508 8.17247 12.3606 7.97902C13.7809 7.54913 15.248 7.28449 16.7315 7.19058C17.0783 7.16444 17.423 7.13025 17.7575 7.09807L20.2385 7.08398Z" fill="#6D55FF"/>
<path d="M9.55514 23.0039C10.2836 24.0538 11.3363 24.6009 12.4629 25.0152C14.8536 25.9042 17.3448 26.1436 19.8812 26.0571C21.5754 26.0174 23.2558 25.7467 24.8739 25.2526C25.9471 24.9106 26.9793 24.4782 27.8247 23.7159C28.0505 23.5148 28.2351 23.2714 28.4588 23.0321C28.6368 23.2902 28.7344 23.5935 28.7399 23.905C28.7399 24.9227 28.7605 25.9384 28.7399 26.9562C28.7235 27.5978 28.3624 28.0946 27.9048 28.523C27.2996 29.0606 26.5974 29.4828 25.8342 29.768C24.4506 30.3275 22.9862 30.6715 21.4941 30.7877C20.3986 30.8862 19.2985 30.9285 18.1985 30.9145C16.1765 30.8999 14.1741 30.5258 12.2885 29.8102C11.3425 29.4381 10.4416 28.9715 9.78908 28.177C9.44569 27.7856 9.25902 27.2853 9.26376 26.7691C9.26376 25.854 9.26376 24.9368 9.26376 24.0216C9.26433 23.6627 9.36509 23.3107 9.55514 23.0039V23.0039Z" fill="#6D55FF"/>
<path d="M9.55704 17.0078C10.265 18.0396 11.3034 18.5766 12.4094 19.0051C13.8911 19.5514 15.4455 19.8854 17.0245 19.9966C18.5313 20.1335 20.0485 20.1153 21.5514 19.9423C23.269 19.7412 24.9476 19.3832 26.5031 18.6008C27.2664 18.2186 27.9539 17.746 28.4402 17.0078C28.6309 17.2805 28.7351 17.6024 28.7398 17.933C28.7398 18.9387 28.7583 19.9444 28.7398 20.9379C28.7254 21.5896 28.3663 22.0945 27.9005 22.5249C27.0981 23.263 26.1214 23.6995 25.0974 24.0414C23.6099 24.5232 22.0632 24.8073 20.4987 24.8862C18.1984 25.0566 15.8852 24.8486 13.655 24.2707C12.5392 24.0013 11.4842 23.5307 10.5441 22.8829C9.94079 22.4444 9.44417 21.9235 9.29437 21.1652C9.27455 21.0665 9.26495 20.9661 9.26566 20.8655C9.26566 19.9108 9.26566 18.9561 9.26566 18.0014C9.26759 17.6502 9.36841 17.3064 9.55704 17.0078Z" fill="#6D55FF"/>
<path d="M28.5427 11.2305C28.6357 11.5049 28.6996 11.788 28.7336 12.0752C28.7555 13.0769 28.7555 14.0785 28.7336 15.0801C28.7192 15.7499 28.3519 16.2648 27.8676 16.7013C26.9708 17.5058 25.8832 17.9604 24.7402 18.3103C22.5498 18.9429 20.2646 19.2007 17.9848 19.0726C16.2756 19.0214 14.5823 18.7336 12.9552 18.2178C11.9292 17.8819 10.9668 17.4535 10.1603 16.7355C9.57955 16.2165 9.22658 15.6031 9.25121 14.7986C9.27789 13.9216 9.25122 13.0427 9.26559 12.1657C9.29297 11.8539 9.36196 11.5469 9.4708 11.2526C9.92225 12.3407 10.9072 12.7309 11.884 13.101C13.207 13.5709 14.5865 13.8704 15.9882 13.992C17.6816 14.1753 19.3889 14.2029 21.0876 14.0745C22.9775 13.9337 24.8429 13.6541 26.5994 12.9059C26.9455 12.7546 27.2771 12.5735 27.5906 12.3649C27.8038 12.2429 27.9903 12.0808 28.1393 11.8878C28.2883 11.6948 28.3968 11.4748 28.4586 11.2405L28.5427 11.2305Z" fill="#6D55FF"/>
</svg>
