<svg width="112" height="31" viewBox="0 0 112 31" fill="none" xmlns="http://www.w3.org/2000/svg">
<g clip-path="url(#clip0_2275_121)">
<path d="M14.5587 0H16.4708V30.9779H14.5587V0ZM10.6722 0H11.6281V30.9779H10.6722V0ZM21.344 0H22.3003V30.9779H21.344V0ZM19.4008 0H20.3571V30.9779H19.4008V0ZM2.89962 0H3.88661V30.9779H2.89962V0ZM5.82938 0H6.78558V30.9779H5.82938V0ZM0 0H1.9432V31H0V0ZM23.2874 0H24.2437V30.9779H23.2874V0ZM42.6577 0H44.6007V30.9779H42.6577V0ZM47.531 0H50.4303V30.9779H47.531V0ZM51.3864 0H52.3732V30.9779H51.3864V0ZM53.3296 0H55.2727V31H53.3296V0ZM35.872 0H37.8152V30.9779H35.872V0ZM39.7584 0H41.7016V30.9779H39.7584V0ZM31.9857 0H33.9288V30.9779H31.9857V0ZM27.1426 0H29.0861V30.9779H27.1426V0Z" fill="black"/>
<path d="M71.2853 0H73.1973V30.9779H71.2853V0ZM67.3988 0H68.3546V30.9779H67.3988V0ZM78.0705 0H79.0268V30.9779H78.0705V0ZM76.1273 0H77.0836V30.9779H76.1273V0ZM59.6262 0H60.6132V30.9779H59.6262V0ZM62.5559 0H63.5121V30.9779H62.5559V0ZM56.7266 0H58.6698V31H56.7266V0ZM80.0139 0H80.9702V30.9779H80.0139V0ZM99.3842 0H101.327V30.9779H99.3842V0ZM104.258 0H107.157V30.9779H104.258V0ZM108.113 0H109.1V30.9779H108.113V0ZM110.056 0H111.999V31H110.056V0ZM92.5985 0H94.5417V30.9779H92.5985V0ZM96.4849 0H98.4281V30.9779H96.4849V0ZM88.7122 0H90.6553V30.9779H88.7122V0ZM83.8692 0H85.8126V30.9779H83.8692V0Z" fill="black"/>
</g>
<defs>
<clipPath id="clip0_2275_121">
<rect width="112" height="31" fill="white"/>
</clipPath>
</defs>
</svg>
