<svg width="13" height="14" viewBox="0 0 13 14" fill="none" xmlns="http://www.w3.org/2000/svg">
<path fill-rule="evenodd" clip-rule="evenodd" d="M2 0C0.895433 0 0 0.895433 0 2V12C0 13.1046 0.895433 14 2 14H10.6667C11.7713 14 12.6667 13.1046 12.6667 12V2C12.6667 0.895433 11.7713 0 10.6667 0H2ZM1.33333 2C1.33333 1.63181 1.63181 1.33333 2 1.33333H10.6667C11.0349 1.33333 11.3333 1.63181 11.3333 2V4.83333H1.33333V2ZM2.33333 8C2.33333 7.6318 2.63181 7.33333 3 7.33333H3.66667C4.03485 7.33333 4.33333 7.6318 4.33333 8C4.33333 8.3682 4.03485 8.66667 3.66667 8.66667H3C2.63181 8.66667 2.33333 8.3682 2.33333 8ZM5.33333 8C5.33333 7.6318 5.6318 7.33333 6 7.33333H6.66667C7.03487 7.33333 7.33333 7.6318 7.33333 8C7.33333 8.3682 7.03487 8.66667 6.66667 8.66667H6C5.6318 8.66667 5.33333 8.3682 5.33333 8ZM8.33333 8C8.33333 7.6318 8.6318 7.33333 9 7.33333H9.66667C10.0349 7.33333 10.3333 7.6318 10.3333 8C10.3333 8.3682 10.0349 8.66667 9.66667 8.66667H9C8.6318 8.66667 8.33333 8.3682 8.33333 8ZM3 10C2.63181 10 2.33333 10.2985 2.33333 10.6667C2.33333 11.0349 2.63181 11.3333 3 11.3333H3.66667C4.03485 11.3333 4.33333 11.0349 4.33333 10.6667C4.33333 10.2985 4.03485 10 3.66667 10H3ZM6 10C5.6318 10 5.33333 10.2985 5.33333 10.6667C5.33333 11.0349 5.6318 11.3333 6 11.3333H6.66667C7.03487 11.3333 7.33333 11.0349 7.33333 10.6667C7.33333 10.2985 7.03487 10 6.66667 10H6ZM9 10C8.6318 10 8.33333 10.2985 8.33333 10.6667C8.33333 11.0349 8.6318 11.3333 9 11.3333H9.66667C10.0349 11.3333 10.3333 11.0349 10.3333 10.6667C10.3333 10.2985 10.0349 10 9.66667 10H9Z" fill="#567DF4"/>
</svg>
