<svg width="25" height="24" viewBox="0 0 25 24" fill="none" xmlns="http://www.w3.org/2000/svg">
<g clip-path="url(#clip0_1885_216)">
<path d="M22.5 1H2.50002C1.39747 1 0.5 1.897 0.5 3.00002V17C0.5 18.103 1.39747 19 2.50002 19H9.50225C9.48125 19.7978 9.32891 21.0738 8.75684 21.6763C8.54689 21.897 8.30666 22 8 22C7.93432 22 7.86929 22.0129 7.8086 22.038C7.74792 22.0631 7.69278 22.1 7.64634 22.1464C7.5999 22.1928 7.56307 22.248 7.53796 22.3087C7.51284 22.3693 7.49994 22.4344 7.49998 22.5001C7.49994 22.5657 7.51284 22.6308 7.53796 22.6915C7.56307 22.7521 7.5999 22.8073 7.64634 22.8537C7.69278 22.9002 7.74792 22.937 7.8086 22.9621C7.86929 22.9872 7.93432 23.0001 8 23.0001H17C17.0657 23.0001 17.1307 22.9872 17.1914 22.9621C17.2521 22.937 17.3072 22.9002 17.3537 22.8537C17.4001 22.8073 17.4369 22.7521 17.462 22.6915C17.4872 22.6308 17.5001 22.5657 17.5 22.5001C17.5001 22.4344 17.4872 22.3693 17.462 22.3087C17.4369 22.248 17.4001 22.1928 17.3537 22.1464C17.3072 22.1 17.2521 22.0631 17.1914 22.038C17.1307 22.0129 17.0657 22 17 22C16.6933 22 16.4531 21.8975 16.2441 21.6768C15.6735 21.0773 15.5202 19.7994 15.4984 19H22.5C23.6026 19 24.5 18.1031 24.5 17V3.00002C24.5 1.897 23.6025 1 22.5 1ZM12.5 18.0029C11.9473 18.0029 11.4971 17.5527 11.4971 17C11.4971 16.4472 11.9473 15.997 12.5 15.997C13.0527 15.997 13.5029 16.4472 13.5029 17C13.5029 17.5527 13.0527 18.0029 12.5 18.0029ZM2.50002 15V3.00002H22.5L22.5009 15H2.50002Z" fill="#FF9500"/>
<g clip-path="url(#clip1_1885_216)">
<path d="M45.5 1H25.5C24.3975 1 23.5 1.897 23.5 3.00002V17C23.5 18.103 24.3975 19 25.5 19H32.5023C32.4813 19.7978 32.3289 21.0738 31.7568 21.6763C31.5469 21.897 31.3067 22 31 22C30.9343 22 30.8693 22.0129 30.8086 22.038C30.7479 22.0631 30.6928 22.1 30.6463 22.1464C30.5999 22.1928 30.5631 22.248 30.538 22.3087C30.5128 22.3693 30.4999 22.4344 30.5 22.5001C30.4999 22.5657 30.5128 22.6308 30.538 22.6915C30.5631 22.7521 30.5999 22.8073 30.6463 22.8537C30.6928 22.9002 30.7479 22.937 30.8086 22.9621C30.8693 22.9872 30.9343 23.0001 31 23.0001H40C40.0657 23.0001 40.1307 22.9872 40.1914 22.9621C40.2521 22.937 40.3072 22.9002 40.3537 22.8537C40.4001 22.8073 40.4369 22.7521 40.462 22.6915C40.4872 22.6308 40.5001 22.5657 40.5 22.5001C40.5001 22.4344 40.4872 22.3693 40.462 22.3087C40.4369 22.248 40.4001 22.1928 40.3537 22.1464C40.3072 22.1 40.2521 22.0631 40.1914 22.038C40.1307 22.0129 40.0657 22 40 22C39.6933 22 39.4531 21.8975 39.2441 21.6768C38.6735 21.0773 38.5202 19.7994 38.4984 19H45.5C46.6026 19 47.5 18.1031 47.5 17V3.00002C47.5 1.897 46.6025 1 45.5 1ZM35.5 18.0029C34.9473 18.0029 34.4971 17.5527 34.4971 17C34.4971 16.4472 34.9473 15.997 35.5 15.997C36.0527 15.997 36.5029 16.4472 36.5029 17C36.5029 17.5527 36.0527 18.0029 35.5 18.0029ZM25.5 15V3.00002H45.5L45.5009 15H25.5Z" fill="#FF9500"/>
</g>
</g>
<defs>
<clipPath id="clip0_1885_216">
<rect width="24" height="24" fill="white" transform="translate(0.5)"/>
</clipPath>
<clipPath id="clip1_1885_216">
<rect width="24" height="24" fill="white" transform="translate(23.5)"/>
</clipPath>
</defs>
</svg>
