<svg width="38" height="38" viewBox="0 0 38 38" fill="none" xmlns="http://www.w3.org/2000/svg">
<rect width="38" height="38" rx="5" fill="#02C27E" fill-opacity="0.1"/>
<path d="M24.8475 26.5276L22.4908 28.5448C22.4199 28.6053 22.3496 28.6664 22.2776 28.7263C21.8447 29.0882 21.4004 29.0906 20.9745 28.7263C20.1872 28.0551 19.4007 27.3827 18.6149 26.7091C18.5498 26.6515 18.4835 26.599 18.4029 26.5316L17.0594 27.6797C16.6494 28.0305 16.2401 28.3813 15.8312 28.7321C15.5206 28.9983 15.1725 29.0854 14.7938 28.905C14.4152 28.7246 14.2544 28.4076 14.2544 27.9978C14.2544 22.8285 14.2544 17.6589 14.2544 12.4892C14.2544 10.9331 13.4198 9.64494 11.9888 9.03921C11.9427 9.02019 11.8972 8.99944 11.832 8.9712C12.0314 8.78562 12.2591 8.73375 12.5058 8.73375H16.9061C19.6956 8.73375 22.4856 8.71876 25.2751 8.73951C26.7667 8.75046 27.8807 9.44495 28.5913 10.7613C28.8572 11.2574 28.9947 11.8122 28.9913 12.375C28.9952 17.5874 28.9952 22.8002 28.9913 28.0134C28.9913 28.4134 28.8242 28.728 28.4559 28.9009C28.079 29.0784 27.7297 28.9989 27.4185 28.7309C26.5695 28.0024 25.7183 27.2739 24.8475 26.5276ZM21.6263 17.9402C22.4948 17.9402 23.364 17.9402 24.2331 17.9402C24.3832 17.9445 24.5332 17.9264 24.678 17.8866C24.8853 17.8198 25.0613 17.6802 25.1734 17.4935C25.2855 17.3069 25.3262 17.0859 25.2878 16.8716C25.2502 16.6574 25.1383 16.4633 24.972 16.3233C24.8056 16.1832 24.5952 16.1062 24.3777 16.1057C23.904 16.097 23.4302 16.1057 22.9559 16.1057C21.613 16.1057 20.2702 16.1057 18.9273 16.1057C18.3544 16.1057 17.9475 16.4924 17.9475 17.0278C17.9475 17.5632 18.3406 17.9379 18.9273 17.9419C19.831 17.9459 20.7284 17.9413 21.6263 17.9413V17.9402ZM21.613 21.6287C22.511 21.6287 23.4087 21.6287 24.3063 21.6287C24.5528 21.6384 24.7941 21.5563 24.9835 21.3982C25.123 21.2778 25.223 21.1181 25.2703 20.94C25.3176 20.7619 25.31 20.5737 25.2486 20.4C25.1189 20.0311 24.8013 19.7994 24.3714 19.7925C23.7184 19.7827 23.0648 19.789 22.4118 19.789C21.2626 19.789 20.114 19.789 18.9648 19.789C18.6472 19.789 18.3648 19.8674 18.1579 20.1222C17.9222 20.4167 17.8761 20.7469 18.0346 21.0904C18.2017 21.4535 18.506 21.6235 18.8991 21.6258C19.8033 21.631 20.7082 21.627 21.613 21.6276V21.6287ZM21.6188 14.2568C22.5248 14.2568 23.4308 14.2568 24.3368 14.2568C24.8976 14.2568 25.2964 13.8735 25.2964 13.345C25.2964 12.8165 24.8982 12.4338 24.3368 12.4338C22.5248 12.4338 20.713 12.4338 18.9014 12.4338C18.8153 12.431 18.7291 12.4388 18.6449 12.4569C18.4279 12.5092 18.2377 12.6392 18.1102 12.8223C17.9827 13.0055 17.9267 13.229 17.953 13.4507C17.9793 13.6723 18.086 13.8766 18.2528 14.0248C18.4196 14.1731 18.635 14.255 18.8582 14.2551C19.778 14.2579 20.6984 14.2551 21.6188 14.2556V14.2568Z" fill="#02C27E"/>
<path d="M12.4175 19.7898H12.1933C11.3865 19.7898 10.5842 19.7898 9.77905 19.7898C9.09782 19.7898 8.733 19.4181 8.73242 18.7334C8.73242 16.556 8.73242 14.3786 8.73242 12.2012C8.73242 11.2162 9.57272 10.3898 10.5721 10.3829C11.5576 10.3759 12.4256 11.1897 12.429 12.162C12.4383 14.6627 12.429 17.1635 12.429 19.6636C12.4296 19.6913 12.4244 19.7195 12.4175 19.7898Z" fill="#02C27E"/>
</svg>
