<svg width="38" height="38" viewBox="0 0 38 38" fill="none" xmlns="http://www.w3.org/2000/svg">
<rect width="38" height="38" rx="5" fill="#0094E8" fill-opacity="0.1"/>
<g clip-path="url(#clip0_1863_175)">
<path d="M22.4 12.43C22.4404 12.4127 22.4811 12.3963 22.522 12.3809C23.0388 12.186 23.5 11.7523 23.5 11.2V10C23.5 8.35 22.15 7 20.5 7H10.5C8.85 7 7.5 8.35 7.5 10V28C7.5 29.65 8.85 31 10.5 31H20.5C22.15 31 23.5 29.65 23.5 28L23.5001 27.1825C23.5002 26.9719 23.303 26.8365 23.1002 26.78V26.78C23.0394 26.7631 22.9502 26.72 22.9502 26.72C22.8902 26.7 22.8422 26.6815 22.7702 26.67C22.7122 26.6608 22.6779 26.6707 22.6202 26.66C22.4828 26.6346 22.4253 26.5621 22.3002 26.5V26.5C21.9311 26.3168 21.5001 26.5879 21.5001 27L21.5 28C21.5 28.55 21.05 29 20.5 29H10.5C9.95 29 9.5 28.55 9.5 28V10C9.5 9.45 9.95 9 10.5 9H11C11.55 9 12 9.45 12 10C12 10.55 12.45 11 13 11H18C18.55 11 19 10.55 19 10C19 9.45 19.45 9 20 9H20.5C21.05 9 21.5 9.45 21.5 10V11.8391C21.5 12.3026 21.9748 12.6143 22.4 12.43V12.43Z" fill="#06A6FF"/>
<path d="M20.7973 25.001V18.8377L14.8008 15.9189V19.2457V21.7576L20.7973 25.001Z" fill="#FFCC80"/>
<path d="M26.8033 15.916V19.1084C26.6232 19.0364 26.4252 19.0004 26.2212 19.0004C25.8252 19.0004 25.4411 19.1444 25.1345 19.4084L23.1669 21.1246C22.8068 21.4426 22.6028 21.8927 22.6028 22.3667C22.6028 22.8468 22.8068 23.3028 23.1669 23.6149L23.2449 23.6803L20.8086 25.001V18.8383L26.8033 15.916Z" fill="#06A6FF"/>
<path d="M26.8021 15.9163L20.8075 18.8387L18.4732 17.7045L17.5011 17.2305L14.8008 15.9163L20.7955 13L23.3517 14.2421L24.3719 14.7342L26.8021 15.9163Z" fill="#7ACFFF"/>
<path d="M24.2393 14.6776L18.3094 17.6323V20.6171L17.3691 20.1382V17.1739L23.2198 14.1855L24.2393 14.6776Z" fill="white"/>
<path d="M14.8008 15.9189V19.2457V21.7576L20.7973 25.001V18.8377L18.3154 17.6297L18.3106 17.6321V20.6169L17.3703 20.138V17.1737L17.3745 17.1719L14.8008 15.9189Z" fill="#7ACFFF"/>
<path d="M25.4487 21.9234L26.5174 20.9903C26.7053 20.8271 26.7245 20.5427 26.5606 20.3554C26.3974 20.1676 26.113 20.149 25.9252 20.3122L23.9564 22.0308L23.9474 22.0428L23.8693 22.1478L23.8411 22.1892C23.8171 22.2444 23.8027 22.3051 23.8027 22.3699C23.8027 22.4341 23.8171 22.4947 23.8417 22.5505L23.8699 22.5919L23.948 22.6969L23.957 22.7089L25.9258 24.4269C26.0116 24.5013 26.1166 24.5379 26.2216 24.5379C26.347 24.5379 26.4718 24.4857 26.5606 24.3837C26.7239 24.1965 26.7047 23.912 26.5174 23.7488L25.4625 22.8283C27.0359 22.8757 28.3026 24.1893 28.3026 25.8058V26.9514C28.3026 27.1998 28.5043 27.4014 28.7527 27.4014C29.0011 27.4014 29.2027 27.1998 29.2027 26.9514V25.8058C29.2033 23.6876 27.5255 21.9624 25.4487 21.9234Z" fill="#06A6FF"/>
</g>
<defs>
<clipPath id="clip0_1863_175">
<rect width="24" height="24" fill="white" transform="translate(7 7)"/>
</clipPath>
</defs>
</svg>
