<svg width="25" height="24" viewBox="0 0 25 24" fill="none" xmlns="http://www.w3.org/2000/svg">
<g clip-path="url(#clip0_1885_228)">
<path d="M18.1 8.26348H16V4.11348C16 3.89248 15.821 3.71348 15.6 3.71348C15.379 3.71348 15.2 3.89248 15.2 4.11348V8.26348H9.80001V4.11348C9.80001 3.89248 9.62101 3.71348 9.40001 3.71348C9.17901 3.71348 9.00001 3.89248 9.00001 4.11348V8.26348H6.90001C6.67901 8.26348 6.50001 8.44248 6.50001 8.66348C6.50001 8.88448 6.67901 9.06348 6.90001 9.06348H7.25001V13.5135C7.25001 16.4085 9.60501 18.7635 12.5 18.7635C15.395 18.7635 17.75 16.4085 17.75 13.5135V9.06348H18.1C18.321 9.06348 18.5 8.88448 18.5 8.66348C18.5 8.44248 18.321 8.26348 18.1 8.26348ZM14.0527 13.5026L12.8578 15.8924C12.8099 15.9864 12.7267 16.0577 12.6264 16.0907C12.5262 16.1236 12.417 16.1157 12.3226 16.0684C12.2282 16.0212 12.1562 15.9386 12.1225 15.8386C12.0887 15.7386 12.0958 15.6293 12.1423 15.5346L12.9082 14.0029C12.9747 13.8699 12.878 13.7135 12.7293 13.7135H11.3115C10.9894 13.7135 10.8136 13.3921 10.9423 13.1346L12.1423 10.7346C12.1903 10.6405 12.2734 10.5693 12.3737 10.5363C12.4739 10.5033 12.5832 10.5113 12.6776 10.5585C12.772 10.6057 12.8439 10.6883 12.8777 10.7883C12.9114 10.8883 12.9043 10.9976 12.8578 11.0924L12.092 12.624C12.0255 12.757 12.1222 12.9135 12.2709 12.9135H13.7C13.9867 12.9135 14.1973 13.2134 14.0527 13.5026ZM23.7023 15.1129C23.599 15.0887 23.5096 15.0244 23.4537 14.9342C23.3977 14.8441 23.3799 14.7354 23.4042 14.6321C23.4196 14.5665 23.4344 14.5005 23.4487 14.4344C23.4952 14.2184 23.7079 14.0813 23.9239 14.1275C24.0276 14.1498 24.1182 14.2124 24.1758 14.3016C24.2333 14.3907 24.2531 14.499 24.2308 14.6027C24.2155 14.6736 24.1996 14.7443 24.1831 14.8148C24.1326 15.03 23.9171 15.1634 23.7023 15.1129ZM5.17251 21.5672C2.32056 19.3652 0.505814 15.9246 0.500014 12.0817C0.490114 5.45728 5.87541 0.0634766 12.5 0.0634766C19.1187 0.0634766 24.5 5.41683 24.5 12.0635C24.5 12.1696 24.4579 12.2713 24.3829 12.3463C24.3078 12.4213 24.2061 12.4635 24.1 12.4635C23.9939 12.4635 23.8922 12.4213 23.8172 12.3463C23.7422 12.2713 23.7 12.1696 23.7 12.0635C23.7 5.88783 18.6758 0.863527 12.5001 0.863477C9.51296 0.863477 6.70041 2.03263 4.58056 4.15563C-0.195486 8.93873 0.302964 16.7967 5.66136 20.934C5.70295 20.9661 5.73781 21.006 5.76394 21.0516C5.79007 21.0972 5.80697 21.1475 5.81367 21.1996C5.82037 21.2517 5.81674 21.3046 5.80299 21.3553C5.78923 21.406 5.76563 21.4535 5.73351 21.495C5.70142 21.5366 5.66145 21.5715 5.61589 21.5976C5.57033 21.6237 5.52006 21.6406 5.46796 21.6473C5.41586 21.654 5.36296 21.6504 5.31226 21.6367C5.26157 21.6229 5.21408 21.5993 5.17251 21.5672ZM23.7225 16.3215C22.203 20.3245 18.6375 23.233 14.4185 23.911C13.1972 24.1067 12.1 23.1622 12.1 21.936V20.5135H11.65C11.429 20.5135 11.25 20.3345 11.25 20.1135V19.907C11.25 19.666 11.462 19.479 11.701 19.511C12.226 19.5805 12.764 19.582 13.3 19.5105C13.5385 19.479 13.75 19.6665 13.75 19.9075V20.1135C13.75 20.3345 13.571 20.5135 13.35 20.5135H12.9V21.936C12.9 22.6769 13.5637 23.2381 14.2915 23.121C18.229 22.488 21.556 19.774 22.9745 16.0375C23.053 15.831 23.284 15.727 23.4905 15.8055C23.697 15.884 23.801 16.115 23.7225 16.3215Z" fill="#32ADE6"/>
</g>
<defs>
<clipPath id="clip0_1885_228">
<rect width="24" height="24" fill="white" transform="translate(0.5)"/>
</clipPath>
</defs>
</svg>
