<svg width="25" height="24" viewBox="0 0 25 24" fill="none" xmlns="http://www.w3.org/2000/svg">
<path fill-rule="evenodd" clip-rule="evenodd" d="M14.1827 16.9328C15.7472 16.2183 17.1371 15.0527 18.1267 13.4404C18.3721 13.7291 18.6558 14.0449 18.9583 14.3461C19.3078 14.6942 19.7013 15.042 20.1055 15.3074C20.4922 15.5614 20.9802 15.8017 21.5 15.8017C21.7708 15.8017 22.0206 15.6556 22.1535 15.4197C22.2864 15.1837 22.2817 14.8944 22.1413 14.6628C21.695 13.9267 21.6887 12.8913 21.9632 11.8392C22.2387 10.7832 22.7389 9.93274 23.0276 9.64708C23.2437 9.4332 23.3093 9.11 23.1937 8.82879C23.078 8.54757 22.8041 8.36399 22.5 8.36399C21.0562 8.36399 19.8483 9.05601 18.9919 9.77736C18.6465 10.0682 18.3438 10.3759 18.0916 10.6676C14.3169 4.60999 4.90672 4.97825 1.81727 11.7724C1.72758 11.9696 1.72758 12.196 1.81727 12.3933C3.0896 15.1913 5.44386 16.903 8.02591 17.5198L8.96887 19.0679C8.97482 19.0776 8.98099 19.0873 8.98738 19.0968C9.39694 19.7047 10.0764 20.1063 10.9595 20.3602C11.843 20.6142 13.0058 20.7429 14.4967 20.7495C14.6962 20.7504 14.8878 20.6717 15.0292 20.531C15.1705 20.3903 15.25 20.199 15.25 19.9995C15.25 18.8999 14.8629 17.7944 14.1827 16.9328ZM6.5 11C5.94772 11 5.5 11.4477 5.5 12C5.5 12.5523 5.94772 13 6.5 13H6.50898C7.06127 13 7.50898 12.5523 7.50898 12C7.50898 11.4477 7.06127 11 6.50898 11H6.5Z" fill="#AF52DE"/>
<path d="M15.2513 3.99998C15.2513 3.78231 15.1567 3.57537 14.9921 3.43291C14.8276 3.29045 14.609 3.22655 14.3936 3.25776L14.3896 3.25834L14.3793 3.25986L14.3409 3.2656C14.3077 3.27061 14.2594 3.27799 14.1982 3.28764C14.0759 3.30694 13.9012 3.33536 13.6902 3.37215C13.2691 3.44559 12.6985 3.55316 12.1065 3.68911C11.5187 3.8241 10.8898 3.99158 10.3599 4.188C10.0954 4.28601 9.83716 4.39795 9.61416 4.52619C9.40564 4.64609 9.1569 4.81974 8.98868 5.06945C8.98229 5.07894 8.97612 5.08857 8.97017 5.09833L8.86328 5.27382C10.8637 5.01725 12.9305 5.32073 14.7754 6.18335C15.086 5.48043 15.2513 4.71466 15.2513 3.99998Z" fill="#AF52DE"/>
</svg>
