<svg width="25" height="24" viewBox="0 0 25 24" fill="none" xmlns="http://www.w3.org/2000/svg">
<path fill-rule="evenodd" clip-rule="evenodd" d="M5.55625 6.21955C4.93731 8.45617 5.94207 11.0376 7.98242 12.3766C8.99715 13.0425 10.6014 13.7156 12.4122 13.7496C14.2521 13.7841 16.2779 13.1554 18.0496 11.2577C18.2165 11.0788 18.2857 10.8299 18.2351 10.5906C18.1844 10.3512 18.0202 10.1517 17.7952 10.0558C16.5249 9.51482 15.791 8.46459 15.088 7.22899C14.9948 7.06512 14.9002 6.89446 14.804 6.72098C14.5537 6.26945 14.2929 5.79888 14.018 5.3793C13.6292 4.78585 13.1604 4.20766 12.5283 3.79284C10.3703 2.37665 7.66718 2.76507 6.26019 4.73493C7.75016 6.54121 9.33998 7.7738 10.8575 8.59594C11.2216 8.79325 11.3569 9.24845 11.1596 9.61265C10.9623 9.97684 10.5071 10.1122 10.1429 9.9148C8.60841 9.08345 7.03589 7.88947 5.55625 6.21955Z" fill="#00C7BE"/>
<path fill-rule="evenodd" clip-rule="evenodd" d="M4.15447 1.63361C3.95204 1.27222 3.49499 1.14337 3.13361 1.3458C2.77222 1.54822 2.64337 2.00528 2.8458 2.36666C3.6873 3.86894 4.60248 5.14312 5.55625 6.21955C5.64074 5.91423 5.75549 5.61533 5.90199 5.3269C6.00913 5.11595 6.12903 4.91857 6.26019 4.73493C5.52729 3.84644 4.81855 2.81914 4.15447 1.63361Z" fill="#00C7BE"/>
<path d="M5.27835 11.9262C5.71186 11.622 5.80436 11.0407 5.48494 10.6278C5.16553 10.215 4.55516 10.1269 4.12165 10.4311C3.38581 10.9474 2.75 11.6861 2.75 12.6383V13.0001C2.75 16.9237 5.47693 20.2645 8.29391 22.1097C8.99664 22.57 9.80769 22.7501 10.5829 22.7501H14.417C15.1923 22.7501 16.0033 22.57 16.706 22.1097C19.523 20.2645 22.25 16.9237 22.25 13.0001V12.6383C22.25 11.6861 21.6142 10.9474 20.8783 10.4311C20.4448 10.1269 19.8344 10.215 19.515 10.6278C19.1956 11.0407 19.2881 11.622 19.7216 11.9262C20.232 12.2843 20.3 12.5383 20.3 12.6383C20.3 12.7227 20.2565 12.9098 19.9329 13.1873C19.6096 13.4646 19.0868 13.7569 18.3578 14.0214C16.9065 14.5479 14.8357 14.8929 12.5 14.8929C10.1643 14.8929 8.09351 14.5479 6.64218 14.0214C5.91313 13.7569 5.39038 13.4646 5.06703 13.1873C4.74345 12.9098 4.7 12.7227 4.7 12.6383C4.7 12.5383 4.768 12.2843 5.27835 11.9262Z" fill="#00C7BE"/>
</svg>
