<svg width="38" height="38" viewBox="0 0 38 38" fill="none" xmlns="http://www.w3.org/2000/svg">
<rect width="38" height="38" rx="5" fill="#6D55FF" fill-opacity="0.1"/>
<path d="M9.25 21.3746C9.29234 21.2833 9.34027 21.1948 9.3935 21.1095C9.57246 20.854 9.82456 20.7409 10.1352 20.7415C12.0073 20.7415 13.8795 20.7415 15.752 20.7415C16.1369 20.7415 16.4272 20.9052 16.5758 21.2592C16.7244 21.6132 16.6169 21.9305 16.3445 22.1995C15.7818 22.7583 15.219 23.3222 14.6253 23.9165C14.9759 24.1748 15.3006 24.4471 15.654 24.6683C16.9922 25.5012 18.4554 25.8264 20.0125 25.6008C22.0294 25.3093 23.5983 24.2834 24.6731 22.5496C24.9506 22.0994 25.1335 21.5929 25.3383 21.1039C25.4509 20.8411 25.6146 20.7364 25.8966 20.7403C26.6399 20.7516 27.3839 20.7403 28.1278 20.7454C28.4171 20.7454 28.5668 20.8495 28.6174 21.0774C28.6309 21.1388 28.6309 21.2023 28.6174 21.2637C28.0333 23.6666 26.7924 25.6385 24.7908 27.1196C23.573 28.02 22.2128 28.5771 20.7255 28.8298C20.3794 28.8861 20.0282 28.9148 19.6793 28.9559H18.4092C18.1813 28.9272 17.9534 28.9035 17.7261 28.8698C15.9061 28.5985 14.277 27.8917 12.8521 26.7223C12.6659 26.5698 12.4869 26.4089 12.2742 26.226C12.2317 26.2887 12.1854 26.3488 12.1358 26.4061C11.6518 26.8928 11.169 27.3802 10.6799 27.8613C10.3316 28.204 9.89209 28.2429 9.5612 27.9412C9.43008 27.8225 9.35242 27.6447 9.25 27.491V21.3746Z" fill="#6D55FF"/>
<path d="M25.9374 11.9821C26.4581 11.4449 26.9796 10.9067 27.5018 10.3676C27.6993 10.1633 27.9312 10.0401 28.2221 10.0767C28.4253 10.0992 28.6128 10.1966 28.748 10.3498C28.8833 10.5031 28.9566 10.7012 28.9537 10.9056C28.9537 12.8167 28.9537 14.728 28.9537 16.6394C28.9537 17.0795 28.6386 17.4121 28.1962 17.4565C28.14 17.4622 28.0837 17.4661 28.0235 17.4661H22.499C22.284 17.4661 22.0781 17.4385 21.9008 17.3001C21.481 16.9731 21.4439 16.4368 21.8288 16.0435C22.3493 15.5122 22.8794 14.9894 23.4045 14.4644C23.4546 14.4149 23.5125 14.3738 23.6116 14.2916C23.2176 14.0058 22.8766 13.7193 22.5001 13.4858C20.1856 12.0485 17.0455 12.2579 14.9082 14.0485C14.1766 14.6631 13.5891 15.3901 13.2132 16.2764C13.0882 16.5713 12.9526 16.8611 12.8344 17.1583C12.7495 17.3721 12.6009 17.4655 12.3769 17.465C11.5688 17.465 10.7607 17.4695 9.95262 17.4616C9.58233 17.4576 9.41575 17.2117 9.50691 16.8538C9.83331 15.5691 10.355 14.3732 11.1349 13.2967C12.0122 12.0804 13.154 11.0789 14.4743 10.3676C15.3812 9.87335 16.3672 9.5405 17.3882 9.38395C20.1299 8.9602 22.6436 9.53926 24.9053 11.1583C25.2446 11.4025 25.5581 11.6783 25.9374 11.9821Z" fill="#6D55FF"/>
</svg>
