<svg width="25" height="24" viewBox="0 0 25 24" fill="none" xmlns="http://www.w3.org/2000/svg">
<g clip-path="url(#clip0_1885_133)">
<path d="M7.53855 7.7129C8.08881 8.51123 8.37175 9.51341 8.3718 10.639C8.59208 10.6925 8.80978 10.7561 9.0242 10.8296L15.5012 4.35248C14.2816 3.31987 12.7112 2.68476 11.161 2.61173V4.99073H9.76656V2.6864C7.76416 2.9938 6.00353 4.14829 4.91992 5.82623C6.05716 6.22293 6.95706 6.8691 7.53855 7.7129ZM24.5001 10.2291C24.5001 6.75998 23.2253 3.48712 20.8981 0.944336L18.9576 2.88487C23.0441 7.23716 22.9624 14.1022 18.7113 18.3533C17.1999 19.8648 15.2919 20.8986 13.2231 21.3492C12.6689 22.406 11.8692 23.3145 10.8999 23.9982C14.458 23.9578 17.8907 22.5416 20.4673 19.965C23.0679 17.3645 24.5001 13.9068 24.5001 10.2291Z" fill="#5856D6"/>
<path d="M10.386 11.4569C12.5905 12.756 14.0731 15.1547 14.0731 17.8934C14.0735 18.5163 13.9957 19.1368 13.8417 19.7404C15.3063 19.2685 16.6376 18.455 17.7259 17.3671C21.4332 13.6598 21.5146 7.67944 17.9714 3.87141L10.386 11.4569ZM16.1072 12.3618C16.124 12.7383 15.7746 13.059 15.41 13.059C15.0191 13.059 14.7297 12.7395 14.7127 12.3618C14.6959 11.9852 15.0453 11.6646 15.41 11.6646C15.8008 11.6646 16.0903 11.984 16.1072 12.3618ZM14.917 8.99184C15.3079 8.99184 15.5973 9.3113 15.6142 9.68906C15.6311 10.0656 15.2817 10.3863 14.917 10.3863C14.5261 10.3863 14.2367 10.0668 14.2198 9.68906C14.2029 9.31252 14.5523 8.99184 14.917 8.99184ZM12.7363 12.567C12.3454 12.567 12.056 12.2476 12.0391 11.8698C12.0222 11.4932 12.3716 11.1726 12.7363 11.1726C13.1272 11.1726 13.4166 11.492 13.4335 11.8698C13.4504 12.2463 13.101 12.567 12.7363 12.567ZM11.0019 2.60592C11.0551 2.60709 11.1083 2.60911 11.1616 2.61159V2.16581C11.1616 0.971578 10.19 0 8.99577 0H7.39648V1.39448H8.99577C9.42106 1.39448 9.76709 1.74052 9.76709 2.16586V2.68631C10.1756 2.62353 10.5887 2.59663 11.0019 2.60592Z" fill="#5856D6"/>
<path d="M12.7131 17.8934C12.7131 14.6244 10.131 11.9472 6.89928 11.7939C6.93463 11.6081 6.96706 11.3969 6.9882 11.1698C7.08809 10.0979 6.89131 9.16918 6.41914 8.48405C5.94692 7.79888 5.14906 7.28443 4.11181 6.99624C3.36936 6.78999 2.74855 6.76716 2.72244 6.76627L2.20695 6.74902L2.03961 7.23685C2.03113 7.26155 1.83153 7.84984 1.76005 8.61713C1.66016 9.68902 1.85694 10.6177 2.32916 11.3029V11.3028C2.66244 11.7864 3.15861 12.1845 3.78612 12.4785C1.83486 13.4989 0.5 15.5431 0.5 17.8934C0.5 21.2605 3.23938 23.9999 6.60659 23.9999C9.97381 23.9999 12.7131 21.2605 12.7131 17.8934ZM4.89163 14.727C4.87475 14.3504 5.22416 14.0297 5.58884 14.0297C5.97973 14.0297 6.26914 14.3491 6.28606 14.727C6.30294 15.1035 5.95353 15.4242 5.58884 15.4242C5.19795 15.4242 4.90855 15.1047 4.89163 14.727ZM6.76775 17.5819C6.37686 17.5819 6.08745 17.2624 6.07053 16.8846C6.05366 16.5081 6.40306 16.1874 6.76775 16.1874C7.15864 16.1874 7.44805 16.5069 7.46497 16.8846C7.48184 17.2612 7.13244 17.5819 6.76775 17.5819ZM7.90681 15.4242C7.51592 15.4242 7.22652 15.1047 7.20959 14.727C7.19272 14.3504 7.54212 14.0297 7.90681 14.0297C8.2977 14.0297 8.58711 14.3491 8.60403 14.727C8.62091 15.1035 8.2715 15.4242 7.90681 15.4242Z" fill="#5856D6"/>
</g>
<defs>
<clipPath id="clip0_1885_133">
<rect width="24" height="24" fill="white" transform="translate(0.5)"/>
</clipPath>
</defs>
</svg>
