<svg width="97" height="24" viewBox="0 0 97 24" fill="none" xmlns="http://www.w3.org/2000/svg">
<path d="M33.6873 9.05216C33.3597 9.05792 33.0346 8.99467 32.7337 8.86662C32.4328 8.73858 32.1629 8.54868 31.9422 8.30958C31.7214 8.07048 31.5548 7.78766 31.4534 7.47998C31.352 7.17229 31.3181 6.8468 31.3541 6.52519C31.4769 5.13063 32.723 4 34.1352 4C35.5474 4 36.5931 5.13063 36.4685 6.52519C36.3456 7.91975 35.1014 9.05216 33.6873 9.05216ZM31.067 9.79224H35.5203L33.8192 19.317H29.3983L31.067 9.79224ZM37.6224 4.41908H42.074L39.3832 19.317H34.9623L37.6224 4.41908ZM25.5643 10.4021C24.9774 9.63888 24.3309 9.21088 23.771 9.21088C23.1534 9.21088 21.3529 9.28934 20.8346 12.2639C20.2152 15.8056 22.4401 15.7753 22.9367 15.7753C23.4297 15.7753 23.7403 15.7753 24.2352 15.4079L24.4194 14.4325H22.5954L23.1516 11.2581H29.6439L28.4393 17.9117C25.6564 19.4383 24.0492 19.6202 22.4401 19.6202C16.0399 19.6202 15.2056 14.675 15.8232 11.2564C16.4408 7.83772 19.78 5.08961 23.6464 5.08961C27.7892 5.08961 29.3351 7.1654 29.9527 8.72225L25.5643 10.4021ZM80.522 15.2278L73.795 15.2243C73.8726 16.2657 74.4252 16.9523 75.0627 16.9523C75.5106 16.9523 76.0524 16.7811 76.3612 16.0785L79.9983 16.7597C78.9491 18.823 76.7621 19.9982 74.4668 19.9982C70.9236 19.9982 68.5957 16.7597 69.6703 13.4588L68.6951 13.4552L67.644 19.317H63.1906L64.2435 13.4552H62.5116L61.4606 19.317H57.009L58.0907 13.4552H56.888C56.9259 13.9652 56.8771 14.7267 56.7778 15.2296L50.0508 15.2243C50.1266 16.2657 50.681 16.9541 51.3185 16.9541C51.7664 16.9541 52.3082 16.7829 52.617 16.0803L56.2541 16.7615C55.2049 18.8248 53.0197 20 50.7226 20C47.9053 20 45.6931 17.8511 45.6931 15.2581L44.9508 19.317H40.53L43.1883 4.41908H47.6399L46.0705 13.0611C46.9717 10.8783 49.2327 9.29113 51.6689 9.29113C54.0545 9.29113 56.1837 10.2666 56.7543 12.5938L57.2546 9.79224H58.7083L59.4813 5.58003H63.9329L63.1599 9.79224H64.89L65.6629 5.58003H70.1145L69.3723 9.79224H70.8567L70.4685 11.8859C71.5827 10.3326 73.441 9.29291 75.4113 9.29291C79.6425 9.29113 81.136 12.1016 80.522 15.2278ZM50.3523 13.4516L52.924 13.4498C53.0215 12.3049 52.431 12.0802 51.7519 12.0927C51.2391 12.1016 50.6864 12.6616 50.3523 13.4516ZM74.0929 13.4623L76.6664 13.4659C76.7639 12.3192 76.177 12.082 75.498 12.0927C74.9815 12.1016 74.4252 12.667 74.0929 13.4623Z" fill="black"/>
</svg>
