<svg width="38" height="38" viewBox="0 0 38 38" fill="none" xmlns="http://www.w3.org/2000/svg">
<rect width="38" height="38" rx="5" fill="#E9A200" fill-opacity="0.1"/>
<g clip-path="url(#clip0_1863_189)">
<path d="M23.3841 25.6926C23.384 24.8655 22.7291 24.1869 21.9023 24.1574V24.1562H28.512C29.4747 24.1564 30.255 24.9368 30.2552 25.8994V29.7461C30.255 30.2404 30.634 30.652 31.1265 30.693H25.1271C24.1645 30.6932 23.384 29.9126 23.3841 28.9498V25.6926Z" fill="#FCDB89"/>
<path d="M23.3837 28.0711H18.873V28.0701C19.6899 27.9864 20.3112 27.2983 20.3114 26.477V25.6926C20.3112 24.8443 20.9989 24.1562 21.8473 24.1562C21.8656 24.1562 21.8835 24.1568 21.9019 24.1574C22.7286 24.1869 23.3835 24.8655 23.3837 25.6926V28.0711Z" fill="#F1F7F7"/>
<path d="M18.3403 7.30469C18.8593 7.30488 19.2798 7.72562 19.2796 8.2446V9.28878H8.83789V8.2446C8.83789 7.72543 9.25863 7.30469 9.7778 7.30469H18.3403Z" fill="#F3F3F3"/>
<path d="M17.1094 23.0603V14.5469C17.6266 14.5469 17.6266 14.8954 18.144 14.8954C18.6615 14.8954 18.6615 14.5469 19.1789 14.5469C19.2131 14.5467 19.247 14.5484 19.2808 14.5519C19.6988 14.5943 19.7326 14.8954 20.2137 14.8954C20.7312 14.8954 20.7312 14.5469 21.2486 14.5469C21.766 14.5469 21.766 14.8954 22.2835 14.8954C22.8009 14.8954 22.8009 14.5469 23.3189 14.5469C23.8367 14.5469 23.8363 14.8954 24.3538 14.8954C24.871 14.8954 24.8716 14.5469 25.389 14.5469V24.1771H21.9027V24.1783C21.8843 24.1777 21.8664 24.1771 21.8482 24.1771C20.9997 24.1771 20.312 24.8652 20.3122 25.7135V26.4979C20.3122 27.3823 19.5952 28.0993 18.7108 28.0993C17.8262 28.0993 17.1094 27.3823 17.1094 26.4979V23.0603Z" fill="#FCDB89"/>
<path d="M18.1429 14.8946C17.6254 14.8946 17.6254 14.5461 17.1082 14.5461V23.0595H8.83789V9.29688H19.2796V14.5512C19.2459 14.5477 19.2119 14.5459 19.1777 14.5461C18.6603 14.5461 18.6603 14.8946 18.1429 14.8946Z" fill="#FCDB89"/>
<path d="M17.1082 23.0547V26.1035H9.7778C9.25863 26.1035 8.8377 25.6828 8.83789 25.1636V23.0547H17.1082Z" fill="#F3F3F3"/>
<path d="M15.0246 24.2734H13.0931C12.9285 24.2734 12.7949 24.4068 12.7949 24.5717C12.7949 24.7364 12.9285 24.87 13.0931 24.87H15.0246C15.1893 24.87 15.3228 24.7364 15.3228 24.5717C15.3228 24.4068 15.1893 24.2734 15.0246 24.2734Z" fill="#F4AA00"/>
<path d="M31.2042 30.4002H31.1418C30.8081 30.3672 30.5533 30.087 30.552 29.7515V25.9049C30.5506 24.778 29.6375 23.8649 28.5106 23.8635H25.6854V14.5315C25.6854 14.3669 25.5519 14.2333 25.3872 14.2333C25.1406 14.2302 24.8999 14.3094 24.7032 14.4583C24.589 14.5354 24.5199 14.5818 24.352 14.5818C24.1838 14.5818 24.1153 14.5354 24.0011 14.4585C23.5944 14.1584 23.0395 14.1584 22.6325 14.4585C22.5184 14.5354 22.4492 14.5818 22.2817 14.5818C22.1141 14.5818 22.045 14.5354 21.9308 14.4585C21.5243 14.1584 20.9696 14.1584 20.5628 14.4585C20.4485 14.5354 20.3797 14.5818 20.212 14.5818C20.0444 14.5818 19.9753 14.5354 19.8611 14.4585C19.7732 14.3952 19.6778 14.3426 19.5773 14.302V8.23814C19.5767 7.55471 19.023 7.00097 18.3397 7H9.7772C9.09377 7.00078 8.53984 7.55471 8.53906 8.23814V25.1539C8.53984 25.8373 9.09357 26.3912 9.7772 26.392H16.8094V26.4825C16.809 27.0143 17.0319 27.5218 17.4235 27.8814C17.8153 28.2412 18.3397 28.42 18.8696 28.3745H23.0845V28.9553C23.0843 30.0827 23.9982 30.9966 25.1257 30.9964H31.116C31.144 30.9986 31.1727 30.9999 31.2042 30.9999C31.3698 30.9999 31.5041 30.8658 31.5041 30.7C31.5041 30.5343 31.3698 30.4 31.2042 30.4V30.4002ZM17.1076 14.2333C16.9428 14.2333 16.8094 14.3669 16.8094 14.5315V22.7467H9.13551V9.58054H18.9808V14.2487C18.8041 14.2791 18.637 14.3512 18.4933 14.4585C18.3789 14.5354 18.31 14.5818 18.1423 14.5818C17.9747 14.5818 17.9058 14.5354 17.7914 14.4585C17.5949 14.3094 17.3542 14.2302 17.1076 14.2333ZM9.7772 7.59645H18.3397C18.6939 7.59684 18.9806 7.884 18.9808 8.23814V8.98409H9.13551V8.23814C9.1359 7.8838 9.42286 7.59684 9.7772 7.59645ZM9.7772 25.7956C9.42286 25.7952 9.1359 25.5082 9.13551 25.1539V23.3432H16.8094V25.7956H9.7772ZM17.4058 26.4825V14.9183C17.4225 14.929 17.4398 14.9408 17.4582 14.9531C17.865 15.253 18.4197 15.253 18.8265 14.9531C18.9406 14.8762 19.0096 14.8296 19.1771 14.8296C19.201 14.8296 19.2249 14.8305 19.2486 14.8331H19.2491C19.3678 14.8451 19.428 14.8857 19.528 14.9529C19.9345 15.253 20.4894 15.253 20.896 14.9529C21.0103 14.876 21.0793 14.8296 21.2468 14.8296C21.4146 14.8296 21.4835 14.876 21.5977 14.9529C22.0044 15.253 22.5589 15.253 22.9657 14.9529C23.0799 14.8758 23.149 14.8294 23.3171 14.8294C23.4851 14.8294 23.5536 14.8758 23.668 14.9529C24.0747 15.2528 24.6296 15.2528 25.0364 14.9529C25.0548 14.9404 25.0723 14.9288 25.089 14.9181V23.8635H21.9009C21.8963 23.8635 21.8918 23.8641 21.8872 23.8643C21.8736 23.8639 21.86 23.8635 21.8464 23.8635C20.8331 23.8635 20.012 24.685 20.0122 25.6981V26.4825C20.0145 27.1517 19.5076 27.713 18.8416 27.7789C18.4748 27.8165 18.1092 27.6969 17.8355 27.45C17.5617 27.2028 17.4056 26.8512 17.4058 26.4825V26.4825ZM20.1007 27.7783C20.4283 27.4265 20.6098 26.9632 20.6086 26.4825V25.6981C20.6086 25.3628 20.7445 25.0416 20.9857 24.8083C21.2268 24.5751 21.5522 24.4497 21.8875 24.4607H21.8905C22.5578 24.4819 23.087 25.0304 23.0845 25.6981V27.7783H20.1007ZM24.104 29.9771C23.8322 29.7066 23.6798 29.3387 23.681 28.9553V25.6981C23.6823 25.2401 23.5117 24.7984 23.203 24.4599H28.5106C29.3082 24.4609 29.9548 25.1073 29.9555 25.9049V29.7515C29.9557 29.9806 30.0192 30.205 30.1394 30.4002H25.1257C24.7424 30.4013 24.3743 30.2489 24.104 29.9771V29.9771Z" fill="#F4AA00"/>
<path d="M19.7285 18.0795C19.7285 18.2443 19.8621 18.3777 20.0267 18.3777H23.94C24.1046 18.3777 24.2382 18.2443 24.2382 18.0795C24.2382 17.9148 24.1046 17.7812 23.94 17.7812H20.0267C19.8621 17.7812 19.7285 17.9148 19.7285 18.0795V18.0795Z" fill="#F4AA00"/>
<path d="M18.556 18.3777H19.1898C19.3544 18.3777 19.488 18.2443 19.488 18.0795C19.488 17.9148 19.3544 17.7812 19.1898 17.7812H18.556C18.3914 17.7812 18.2578 17.9148 18.2578 18.0795C18.2578 18.2443 18.3914 18.3777 18.556 18.3777Z" fill="#F4AA00"/>
<path d="M23.94 19.4688H20.0267C19.8621 19.4688 19.7285 19.6023 19.7285 19.767C19.7285 19.9316 19.8621 20.0652 20.0267 20.0652H23.94C24.1046 20.0652 24.2382 19.9316 24.2382 19.767C24.2382 19.6023 24.1046 19.4688 23.94 19.4688Z" fill="#F4AA00"/>
<path d="M18.556 20.0652H19.1898C19.3544 20.0652 19.488 19.9316 19.488 19.767C19.488 19.6023 19.3544 19.4688 19.1898 19.4688H18.556C18.3914 19.4688 18.2578 19.6023 18.2578 19.767C18.2578 19.9316 18.3914 20.0652 18.556 20.0652Z" fill="#F4AA00"/>
<path d="M23.94 21.1094H20.0267C19.8621 21.1094 19.7285 21.243 19.7285 21.4076C19.7285 21.5723 19.8621 21.7059 20.0267 21.7059H23.94C24.1046 21.7059 24.2382 21.5723 24.2382 21.4076C24.2382 21.243 24.1046 21.1094 23.94 21.1094Z" fill="#F4AA00"/>
<path d="M19.488 21.4076C19.488 21.243 19.3544 21.1094 19.1898 21.1094H18.556C18.3914 21.1094 18.2578 21.243 18.2578 21.4076C18.2578 21.5723 18.3914 21.7059 18.556 21.7059H19.1898C19.3544 21.7059 19.488 21.5723 19.488 21.4076Z" fill="#F4AA00"/>
<path d="M18.556 16.7136H21.3558C21.5206 16.7136 21.654 16.5803 21.654 16.4154C21.654 16.2508 21.5206 16.1172 21.3558 16.1172H18.556C18.3914 16.1172 18.2578 16.2508 18.2578 16.4154C18.2578 16.5803 18.3914 16.7136 18.556 16.7136V16.7136Z" fill="#F4AA00"/>
<path d="M25.5029 26.2482C25.7102 26.2482 25.8784 26.4161 25.8787 26.6233C25.8787 26.7881 26.0123 26.9215 26.177 26.9215C26.3416 26.9215 26.4752 26.7881 26.4752 26.6233C26.4744 26.2017 26.2024 25.8284 25.8011 25.6989V25.5795C25.8011 25.4148 25.6677 25.2812 25.5029 25.2812C25.3382 25.2812 25.2046 25.4148 25.2046 25.5795V25.6989C24.7495 25.8457 24.4688 26.3019 24.5431 26.7745C24.6175 27.2469 25.0247 27.595 25.5029 27.595C25.7102 27.595 25.8782 27.763 25.8782 27.9703C25.8782 28.1775 25.7102 28.3456 25.5029 28.3456C25.2957 28.3456 25.1277 28.1775 25.1277 27.9703C25.1277 27.8055 24.9942 27.6721 24.8295 27.6721C24.6647 27.6721 24.5313 27.8055 24.5313 27.9703C24.5319 28.3918 24.8037 28.765 25.2046 28.8947V29.045C25.2046 29.2096 25.3382 29.3432 25.5029 29.3432C25.6677 29.3432 25.8011 29.2096 25.8011 29.045V28.8949C26.2568 28.7483 26.5379 28.2918 26.4635 27.8191C26.3892 27.3463 25.9814 26.9982 25.5029 26.9986C25.2957 26.9986 25.1277 26.8306 25.1277 26.6233C25.1277 26.4161 25.2957 26.2482 25.5029 26.2482V26.2482Z" fill="#F4AA00"/>
<path d="M28.6572 28.375H27.5424C27.3777 28.375 27.2441 28.5084 27.2441 28.6732C27.2441 28.8379 27.3777 28.9714 27.5424 28.9714H28.6572C28.8219 28.9714 28.9554 28.8379 28.9554 28.6732C28.9554 28.5084 28.8219 28.375 28.6572 28.375Z" fill="#F4AA00"/>
<path d="M28.6572 27.0391H27.5424C27.3777 27.0391 27.2441 27.1724 27.2441 27.3373C27.2441 27.5019 27.3777 27.6355 27.5424 27.6355H28.6572C28.8219 27.6355 28.9554 27.5019 28.9554 27.3373C28.9554 27.1724 28.8219 27.0391 28.6572 27.0391Z" fill="#F4AA00"/>
<path d="M28.6572 25.6797H27.5424C27.3777 25.6797 27.2441 25.8133 27.2441 25.9779C27.2441 26.1427 27.3777 26.2761 27.5424 26.2761H28.6572C28.8219 26.2761 28.9554 26.1427 28.9554 25.9779C28.9554 25.8133 28.8219 25.6797 28.6572 25.6797Z" fill="#F4AA00"/>
</g>
<defs>
<clipPath id="clip0_1863_189">
<rect width="24" height="24" fill="white" transform="translate(8 7)"/>
</clipPath>
</defs>
</svg>
