<svg width="37" height="24" viewBox="0 0 37 24" fill="none" xmlns="http://www.w3.org/2000/svg">
<path d="M22.0989 17.3141C20.3956 17.7464 19.2763 18.1787 18.5389 18.5855C16.225 17.5425 13.7076 16.9835 11.2919 16.9835C8.31681 16.9835 5.62142 17.7464 3.33289 18.8398L0.103516 2.99805H22.0989M6.66398 6.96484H4.70601V12.7625H8.62147V11.3893H6.66398V6.96484ZM12.0293 11.872C11.1393 11.872 10.9359 11.4906 10.9359 10.4231H14.9286C14.9286 7.85482 14.3183 6.78637 12.0298 6.78637C9.53783 6.78637 8.8767 7.65093 8.8767 9.8886C8.8767 12.0759 9.79211 13.118 11.9031 13.118C13.9882 13.118 14.7511 12.3551 14.8015 11.16H12.9706C12.9702 11.6436 12.7922 11.872 12.0293 11.872ZM10.9359 9.2788C10.9359 8.41424 11.1139 7.93158 11.953 7.93158C12.7672 7.93158 12.9702 8.313 12.9702 9.2788H10.9359ZM17.1149 6.96484H14.979L17.1912 12.7625H19.6069L21.8705 6.96484H19.7849L18.4377 10.7536L17.1149 6.96484Z" fill="#A50716"/>
<path d="M22.0742 2.99805H36.8988L33.4152 18.8398C31.1266 17.517 29.0415 16.9581 26.0156 16.9581C24.3628 16.9581 23.2439 17.1102 22.0742 17.3141M22.4302 6.93941V12.7625H24.3373V6.93941H22.4302ZM25.7867 7.32083L25.685 7.90521C26.2953 7.52379 26.5496 7.19322 26.5496 6.76094C26.5496 6.27781 26.219 6.02353 25.7359 6.02353C25.2527 6.02353 24.9476 6.30371 24.9476 6.71009C24.9481 7.24455 25.3036 7.32083 25.7867 7.32083ZM28.5075 10.9316H26.4479C26.4733 12.3302 27.2107 12.8891 29.4484 12.8891C31.5335 12.8891 32.3726 12.4314 32.3726 10.982C32.3726 8.69348 28.5075 9.83775 28.5075 8.46463C28.5075 8.13406 28.889 7.85435 29.3975 7.85435C29.932 7.85435 30.1349 8.08273 30.2621 8.56634H32.2201C32.1946 7.34579 31.4831 6.78637 29.5247 6.78637C27.4904 6.78637 26.5496 7.34579 26.5496 8.61767C26.5496 11.1351 30.4147 9.78689 30.4147 11.2113C30.4147 11.6436 30.1858 11.847 29.6264 11.847C28.9652 11.847 28.5589 11.5928 28.5075 10.9316ZM30.0841 18.763C30.6944 18.763 31.2029 19.2716 31.2029 19.8819C31.2029 20.4921 30.6944 21.0007 30.0841 21.0007C29.4738 21.0007 28.9652 20.5176 28.9652 19.8819C28.968 19.586 29.0867 19.303 29.2959 19.0937C29.5052 18.8845 29.7882 18.7657 30.0841 18.763ZM31.0249 19.8823C31.0249 19.3738 30.6185 18.9669 30.0841 18.9669C29.5501 18.9669 29.1432 19.3738 29.1432 19.8823C29.1432 20.3909 29.5755 20.8232 30.0841 20.8232C30.2077 20.8235 30.3302 20.7994 30.4445 20.7522C30.5588 20.705 30.6626 20.6357 30.7501 20.5483C30.8375 20.4609 30.9068 20.357 30.9539 20.2427C31.0011 20.1285 31.0252 20.006 31.0249 19.8823ZM29.7027 20.4418V19.3229H30.0073C30.3125 19.3229 30.5418 19.3992 30.5418 19.6789C30.5418 19.8065 30.4655 19.9078 30.2875 20.0095L30.4909 20.4418H30.2875L30.1095 20.1112H29.9315V20.4418H29.7027ZM30.2875 19.6789C30.2875 19.6026 30.1853 19.5518 29.9315 19.5518V19.8315C30.1095 19.8315 30.2875 19.8315 30.2875 19.6789Z" fill="#A50716"/>
</svg>
