<svg width="25" height="24" viewBox="0 0 25 24" fill="none" xmlns="http://www.w3.org/2000/svg">
<path d="M8.4803 1.63846L3.68965 3.81602C3.48657 3.90833 3.33512 4.08626 3.27643 4.30147L1.77643 9.80146C1.75065 9.89597 1.74364 9.99462 1.75579 10.0919L2.75579 18.0919C2.80271 18.4672 3.12176 18.7488 3.5 18.7488H5.19384L6.23392 10.0947L5.28659 7.2346L6.71051 6.76296L7.71051 9.78203C7.74519 9.88675 7.75635 9.99783 7.74319 10.1074L6.39246 21.3463C7.12268 21.8301 8.01925 22.165 8.96269 22.3859C10.0743 22.6462 11.3002 22.7597 12.501 22.7508C13.7019 22.7597 14.9278 22.6462 16.0394 22.3859C16.9808 22.1655 17.8756 21.8315 18.605 21.3494L17.2539 10.1074C17.2407 9.99783 17.2519 9.88675 17.2866 9.78203L18.2866 6.76296L19.7105 7.2346L18.7632 10.0947L19.8033 18.7488H21.5C21.8782 18.7488 22.1973 18.4672 22.2442 18.0919L23.2442 10.0919C23.2564 9.99462 23.2493 9.89597 23.2236 9.80146L21.7236 4.30147C21.6649 4.08626 21.5134 3.90833 21.3104 3.81602L16.518 1.6377L14.4624 5.74886L10.5354 5.74828L8.4803 1.63846Z" fill="#30B0C7"/>
<path d="M15.0358 1.24902H9.96289L11.4629 4.24864L13.5358 4.24894L15.0358 1.24902Z" fill="#30B0C7"/>
</svg>
