<svg width="47" height="24" viewBox="0 0 47 24" fill="none" xmlns="http://www.w3.org/2000/svg">
<path fill-rule="evenodd" clip-rule="evenodd" d="M7.27768 14.5118V15.45H1.41016V8.99752H2.46648V14.5118H7.27768ZM6.45633 11.344L7.62955 9.11465H6.5149L5.63474 11.344H6.45633ZM16.0492 10.0567C15.6688 9.45802 15.1131 8.95478 14.4587 8.61188C13.8043 8.26874 13.0512 8.08596 12.2983 8.08596C11.5455 8.08596 10.7921 8.26874 10.138 8.61188C9.48361 8.95478 8.9277 9.45802 8.54725 10.0567C8.1668 10.6551 7.96135 11.3492 7.96135 12.0432C7.96135 12.737 8.1668 13.4311 8.54725 14.0295C8.9277 14.6282 9.48337 15.1314 10.138 15.4743C10.7924 15.8175 11.5455 16.0002 12.2983 16.0002C13.0512 16.0002 13.8043 15.8177 14.4587 15.4743C15.1131 15.1314 15.6688 14.6282 16.0492 14.0295C16.4299 13.4311 16.6351 12.7368 16.6351 12.0432C16.6351 11.3494 16.4299 10.6553 16.0492 10.0567ZM15.1362 13.6233C14.8524 14.0928 14.437 14.4888 13.9467 14.7592C13.4565 15.0294 12.8916 15.1735 12.3264 15.1735C11.7613 15.1735 11.1964 15.0294 10.7062 14.7592C10.2162 14.4888 9.80076 14.093 9.51667 13.6233C9.23257 13.1536 9.08002 12.6105 9.08002 12.0673C9.08002 11.5239 9.23257 10.9808 9.51667 10.5113C9.80076 10.0418 10.2159 9.64577 10.7062 9.37561C11.1964 9.10521 11.7616 8.96115 12.3264 8.96115C12.8913 8.96115 13.4565 9.10521 13.9467 9.37561C14.437 9.64577 14.8521 10.0416 15.1362 10.5113C15.4204 10.9807 15.5714 11.5186 15.5731 12.0673C15.5713 12.616 15.4203 13.1539 15.1362 13.6233ZM24.0008 11.7801C23.8098 12.2005 23.4484 12.4435 23.1658 12.5904C22.8831 12.7375 22.6793 12.7885 22.4741 12.7812L24.5277 15.4502H23.3542L21.3681 12.8693H18.7775V15.4502H17.7214V8.99752H21.9458C22.3727 8.99752 22.8059 9.08159 23.188 9.29649C23.5701 9.5114 23.9007 9.838 24.0561 10.3002C24.2112 10.7621 24.1914 11.3598 24.0008 11.7801ZM22.8193 11.736C23.0418 11.548 23.1735 11.2389 23.162 10.9323C23.1506 10.6256 22.996 10.3219 22.7752 10.1365C22.5541 9.95135 22.2717 9.936 22.0046 9.936H18.7775V11.9306H22.0046C22.2899 11.9306 22.5969 11.9242 22.8193 11.736ZM30.1016 11.7546V12.6343H26.5225V14.5118H31.3337V15.45H25.4661V8.99752H31.3337V9.936H26.5225V11.7546H30.1016ZM30.1602 8H28.5758L27.9307 8.82135L30.1602 8ZM33.4024 13.8075L32.5657 15.45H31.5098L34.7952 8.99728H35.8516L39.1374 15.45H38.0811L37.2449 13.8075H33.4024ZM35.3233 10.0345L33.8202 12.9864H36.8264L35.3233 10.0345ZM45.5325 14.5118V15.45H39.6655V8.99752H40.7213V14.5118H45.5325ZM45.0753 10.2924L45.0661 10.1384C45.0647 10.1101 45.0671 10.0817 45.0555 10.0496C45.0439 10.0165 45.0262 9.98594 45.0033 9.95938C44.9871 9.93939 44.9639 9.92631 44.9384 9.92278C44.984 9.90689 45.0225 9.87546 45.0472 9.83398C45.0749 9.78982 45.0919 9.73149 45.0911 9.66891C45.0904 9.60633 45.0713 9.53926 45.038 9.48967C44.966 9.38411 44.8392 9.36616 44.7282 9.37136H44.2608V10.4494H44.4422V10.0066H44.7133C44.7428 10.0066 44.7922 10.0026 44.8415 10.0411C44.9069 10.1183 44.8779 10.2199 44.8895 10.3061C44.8904 10.3575 44.8954 10.4062 44.9166 10.4494H45.1204V10.4161C45.0834 10.4008 45.08 10.3469 45.0753 10.2924ZM44.8512 9.81745C44.795 9.85335 44.7369 9.85359 44.6968 9.85288H44.4408V9.52462C44.5525 9.52604 44.6649 9.5199 44.7756 9.52887C44.8012 9.53163 44.8256 9.54089 44.8465 9.55577C44.8674 9.57066 44.8842 9.59067 44.8951 9.61389C44.9185 9.68521 44.9195 9.76172 44.8512 9.81745Z" fill="black"/>
<path fill-rule="evenodd" clip-rule="evenodd" d="M45.4675 9.45288C45.3881 9.31544 45.272 9.19925 45.1345 9.1199C44.9971 9.04055 44.8384 8.99805 44.6797 8.99805C44.521 8.99805 44.3623 9.04055 44.2248 9.1199C44.0874 9.19925 43.9712 9.31544 43.8919 9.45288C43.8125 9.59032 43.7695 9.74902 43.7695 9.90772C43.7695 10.0664 43.8125 10.2251 43.8919 10.3623C43.9712 10.4995 44.0874 10.6159 44.2248 10.6953C44.3623 10.7746 44.521 10.8172 44.6797 10.8172C44.8384 10.8172 44.9971 10.7746 45.1345 10.6953C45.272 10.6159 45.3881 10.4998 45.4675 10.3623C45.5468 10.2249 45.5898 10.0664 45.5898 9.90772C45.5898 9.74902 45.5468 9.59032 45.4675 9.45288ZM45.3586 10.3033C45.2904 10.4204 45.1928 10.5178 45.0755 10.5857C44.9578 10.6533 44.8246 10.6889 44.6889 10.6892C44.5532 10.6891 44.42 10.6534 44.3025 10.5857C44.185 10.5179 44.0873 10.4206 44.0191 10.3033C43.9515 10.1859 43.9158 10.0529 43.9158 9.9174C43.9158 9.78194 43.9515 9.64886 44.0191 9.53152C44.1218 9.35404 44.2908 9.22459 44.4888 9.17162C44.6869 9.11866 44.8979 9.14652 45.0755 9.24908C45.1921 9.31638 45.2908 9.41486 45.3586 9.53152C45.4261 9.64893 45.4618 9.78196 45.4621 9.9174C45.4621 10.052 45.4262 10.1866 45.3586 10.3033Z" fill="black"/>
</svg>
