<svg width="31" height="24" viewBox="0 0 31 24" fill="none" xmlns="http://www.w3.org/2000/svg">
<path d="M13.4502 3.59513C15.5098 3.52468 17.6543 3.59699 19.6913 3.90574C20.6513 4.05129 21.6141 4.23702 22.5245 4.5827C22.9896 4.75904 23.4397 4.97631 23.859 5.24503C25.7933 6.48526 27.6564 8.46853 28.4587 10.6574C29.1759 12.6146 29.6226 15.4716 28.3907 17.3071C27.5176 18.6077 25.9348 18.8417 24.5036 19.055C23.83 19.1555 23.1504 19.209 22.4739 19.2868C21.1593 19.4377 16.2747 19.7223 15.1573 19.8415C14.5016 19.9114 13.6483 19.9904 13.2999 19.282C12.7547 18.1731 12.9628 16.4665 12.6889 15.2536C12.4512 14.2024 12.0632 13.1921 11.6727 12.1876C11.0788 10.6597 10.4744 9.13587 9.86271 7.61502C9.60023 6.96229 9.40777 6.20715 8.93811 5.68577C8.66517 5.38262 8.04185 4.79261 8.60513 4.39633C8.68396 4.34104 8.77821 4.31312 8.87054 4.28601C9.73947 4.03143 10.6299 3.85552 11.5283 3.74355C12.1668 3.66392 12.8077 3.61701 13.4502 3.59513Z" fill="#D33737"/>
<path d="M28.392 17.3069C27.5187 18.6072 25.9363 18.8413 24.5047 19.0546C24.204 19.0996 23.903 19.1353 23.6007 19.1672C24.5905 18.9242 25.5143 18.5087 26.1173 17.6102C27.4159 15.6751 26.9449 12.6622 26.1888 10.5984C25.3427 8.29074 23.3786 6.19951 21.3384 4.89144C20.8967 4.60858 20.4218 4.37946 19.9317 4.19351C19.4265 4.0017 18.9062 3.85658 18.3789 3.74023C18.8203 3.78464 19.2589 3.83972 19.6925 3.90558C20.6526 4.05069 21.6155 4.23648 22.5256 4.58211C22.9907 4.75866 23.4412 4.97572 23.86 5.24444C25.7945 6.48488 27.6577 8.46836 28.46 10.6568C29.1773 12.6144 29.6241 15.4712 28.392 17.3069H28.392Z" fill="#C42626"/>
<path d="M5.77696 5.89562C4.73537 6.98551 4.02693 8.3463 3.38733 9.71163C2.53009 11.5412 1.04739 15.3756 2.35514 17.2798C3.00872 18.2313 4.24794 18.6397 5.28141 19.0085C5.96724 19.2537 6.6731 19.4387 7.391 19.5614C9.67154 19.9501 12.4614 20.1752 14.7514 19.8289C15.9339 19.65 17.6186 19.2492 18.3185 18.198C19.8273 15.932 18.7342 12.2874 17.6688 10.0971C16.9029 8.52243 15.8945 7.03786 14.5379 5.93084C11.9219 3.79644 8.22946 3.32944 5.77696 5.89562Z" fill="#FFC1B8"/>
<path d="M18.3178 18.1967C17.6179 19.2483 15.9336 19.6492 14.7507 19.8279C13.6255 19.998 12.38 20.0303 11.1339 19.9725C11.6414 19.9465 12.1366 19.8994 12.6102 19.8279C13.7925 19.6492 15.4773 19.2482 16.1771 18.1967C17.6856 15.9314 16.5926 12.2861 15.5273 10.096C14.7613 8.52161 13.7531 7.03657 12.3967 5.92955C11.3241 5.05517 10.0714 4.45998 8.79688 4.2394C10.7462 3.87995 12.8625 4.56315 14.5372 5.92955C15.8944 7.03657 16.9026 8.52156 17.6683 10.096C18.7337 12.2861 19.8267 15.9314 18.3178 18.1967L18.3178 18.1967Z" fill="#FFB3A8"/>
<path d="M14.603 10.2868C14.657 9.35301 14.3005 8.35631 13.6754 7.67999C13.0267 6.97784 12.1661 6.47893 11.2808 6.13661C9.79917 5.56352 7.72272 5.48282 7.14503 7.31328C7.05804 7.58889 7.03456 7.8947 7.14231 8.16284C7.32724 8.62209 7.8332 8.85292 8.30169 9.01303C8.81413 9.18823 9.33687 9.33171 9.86695 9.44267C10.222 9.51712 10.5856 9.57861 10.911 9.73872C11.7897 10.1713 12.0508 11.3428 12.8838 11.7439C13.8633 12.2154 14.5119 11.2919 14.5949 10.3948C14.5982 10.3587 14.6009 10.3229 14.603 10.2868Z" fill="#E57670"/>
<path d="M14.6021 10.2869C14.5998 10.3229 14.597 10.3589 14.5937 10.3948C14.5437 10.9343 14.2894 11.4838 13.8809 11.7328C13.9326 11.5748 13.9666 11.4115 13.9821 11.246C13.9854 11.2101 13.9881 11.1742 13.9904 11.1382C14.0442 10.204 13.6875 9.20747 13.0626 8.53094C12.4137 7.82922 11.5528 7.3301 10.6681 6.98778C9.55458 6.55686 8.1054 6.40406 7.20898 7.13225C7.86299 5.48902 9.84871 5.58306 11.2797 6.13657C12.1652 6.47889 13.0258 6.9778 13.6743 7.67973C14.2998 8.35626 14.6558 9.35317 14.6021 10.2869Z" fill="#E05C56"/>
<path d="M4.3931 12.7111C4.12747 11.8582 4.22631 10.7787 4.73435 10.206C5.21869 9.66018 6.15951 9.75172 6.74681 10.0331C7.16022 10.2314 7.55697 10.4951 8.01169 10.5554C8.87123 10.6694 9.31736 10.4684 9.903 11.194C11.5423 13.225 9.12389 14.2528 7.40978 14.4425C6.90612 14.4984 6.3849 14.4905 5.9075 14.3207C5.2441 14.0849 4.60199 13.3815 4.3931 12.7111Z" fill="#E57670"/>
<path d="M9.43847 13.8376C9.66492 13.3623 9.5934 12.7688 9.01235 12.0486C8.42714 11.3232 7.98102 11.5243 7.12121 11.4107C6.66676 11.3503 6.27 11.0863 5.85616 10.8881C5.45946 10.6977 4.90093 10.5945 4.43164 10.7161C4.50796 10.522 4.60905 10.3483 4.73559 10.2059C5.21966 9.66034 6.16059 9.75145 6.74767 10.0335C7.16145 10.2314 7.55821 10.4951 8.01272 10.5555C8.87226 10.6694 9.3186 10.4686 9.90381 11.1941C10.9097 12.44 10.3881 13.3083 9.43847 13.8376Z" fill="#E05C56"/>
<path d="M14.4953 14.2576C14.0563 15.0796 13.2021 15.6498 13.219 16.6549C13.2234 16.9255 13.2463 17.2021 13.3547 17.4502C13.5993 18.0095 14.2558 18.3135 14.8643 18.2683C15.4731 18.2231 16.0281 17.8847 16.4651 17.4586C16.685 17.2442 16.8843 17.0012 17.0006 16.7168C17.3119 15.9554 17.1036 15.1609 17.0267 14.3935C16.9529 13.6594 16.873 13.0465 16.3397 12.4752C15.9592 12.0675 15.3522 12.2307 15.0155 12.6262C14.6431 13.0642 14.7951 13.6215 14.5585 14.1314C14.5385 14.1741 14.5174 14.2163 14.4953 14.2576Z" fill="#E57670"/>
<path d="M16.9999 16.7167C16.884 17.0008 16.6845 17.2444 16.4648 17.4587C16.0278 17.8848 15.4726 18.2232 14.8643 18.2682C14.667 18.2832 14.4648 18.2611 14.2734 18.2057C14.7386 18.0814 15.1612 17.7979 15.5089 17.4587C15.7288 17.2444 15.9277 17.0008 16.0443 16.7167C16.356 15.9556 16.1477 15.161 16.0701 14.3936C15.9965 13.6593 15.9169 13.0466 15.3836 12.4749C15.355 12.4444 15.3241 12.4162 15.2913 12.3903C15.625 12.1854 16.0486 12.1635 16.3395 12.475C16.8725 13.0466 16.9526 13.6593 17.0264 14.3936C17.1033 15.161 17.3116 15.9556 16.9999 16.7167Z" fill="#E05C56"/>
<path d="M8.33386 16.1605C7.28405 16.2745 6.22432 16.0646 5.22735 15.7456C4.91673 15.6464 4.60003 15.5348 4.27105 15.5466C3.94208 15.5582 3.59244 15.729 3.4959 16.0246C3.34245 16.4951 3.8689 16.8963 4.3359 17.115C6.24556 18.01 8.39144 18.4634 10.5336 18.425C10.736 18.4215 10.9461 18.4115 11.1261 18.3233C11.4892 18.1452 11.6114 17.7104 11.6068 17.3274C11.602 16.9446 11.5108 16.5558 11.6079 16.183C11.7376 15.6845 12.3536 15.1875 12.2512 14.6505C12.1265 13.9957 11.5941 14.1013 11.2326 14.462C10.3474 15.3458 9.71755 16.01 8.33386 16.1605Z" fill="#E57670"/>
<path d="M12.065 15.351C11.8436 15.1552 11.4935 15.2834 11.2329 15.5434C10.3477 16.4269 9.71795 17.0909 8.33404 17.2414C7.28435 17.3559 6.22467 17.1457 5.2277 16.8272C4.91666 16.7276 4.59995 16.616 4.2714 16.6277C4.10312 16.6337 3.92951 16.6809 3.78733 16.7655C3.55356 16.5589 3.40477 16.3039 3.49587 16.0248C3.59258 15.7291 3.94221 15.5582 4.27135 15.5465C4.59995 15.5344 4.9166 15.6462 5.2277 15.7456C6.22467 16.0644 7.28413 16.2747 8.33404 16.1605C9.71795 16.01 10.3477 15.346 11.2329 14.4622C11.5943 14.1014 12.1267 13.9956 12.2514 14.6503C12.297 14.8908 12.1993 15.1229 12.065 15.351Z" fill="#E05C56"/>
</svg>
