<svg width="39" height="24" viewBox="0 0 39 24" fill="none" xmlns="http://www.w3.org/2000/svg">
<path fill-rule="evenodd" clip-rule="evenodd" d="M17.3623 11.1481C17.0496 10.4456 16.0697 10.3096 15.6735 10.7401C15.4858 10.9441 15.5482 11.3748 15.9028 11.5788C16.2346 11.7565 16.5682 11.9303 16.9035 12.1002C17.9878 12.6668 18.1336 13.5507 18.1128 13.9588C18.0087 15.8628 16.4657 15.9762 15.8403 15.9988C15.1731 16.0214 14.5059 15.7266 14.2973 15.5907C14.1096 15.4774 14.0263 15.3641 14.0263 15.3641L14.3392 13.8454H14.3809C14.3809 13.8454 14.6102 14.9786 15.757 14.9786C16.5911 14.9786 16.6952 14.3213 16.5284 14.0266C16.299 13.6412 15.6943 13.4371 15.1523 13.1424C14.7354 12.9158 14.089 12.3492 14.1305 11.3519C14.214 9.90135 15.4024 9.44807 16.299 9.44807C17.1748 9.44807 17.6543 9.81064 17.6543 9.81064C17.8001 9.90135 17.8628 9.96919 17.8628 9.96919L17.4875 11.3519V11.3745H17.4456C17.4458 11.3748 17.4458 11.3295 17.3623 11.1481ZM26.9951 13.4148C26.0152 10.2189 25.8067 9.62973 25.8067 9.62973H23.9091V9.67496C24.1804 9.69757 24.1596 10.083 24.0968 10.287C24.0968 10.2644 22.6376 15.251 22.5124 15.8176H23.9721V15.7721C23.9513 15.7721 23.7425 15.6362 23.7633 15.2508C23.8055 14.956 23.9513 14.3442 23.9513 14.3442H25.5149C25.6192 14.7068 25.6609 14.8882 25.7231 15.0467C25.9108 15.6814 26.0566 15.7947 26.0566 15.7947H27.9542V15.7721C27.7454 15.7495 27.6207 15.4096 27.5577 15.2281C27.4747 15.0015 27.3911 14.7975 26.9951 13.4148ZM25.2228 13.3693H24.1804L24.2012 13.3238L24.7016 11.3974V11.3519L24.7224 11.3974C24.7641 11.5559 24.9937 12.4175 25.2436 13.3238L25.2644 13.3693H25.2228ZM35.0221 8.58673C35.5432 8.22416 35.6685 7.58947 35.6268 7.02261V7C35.6268 7 34.9596 7.65731 32.2073 8.76814V8.79076C32.2073 8.79076 34.3342 9.0174 35.0221 8.58673ZM22.4705 11.3295C22.262 10.6041 21.6158 10.423 21.2613 10.4682C20.8234 10.5363 20.0312 10.967 19.9895 12.2816C19.9268 14.1628 20.8026 14.7296 21.4073 14.843C22.3039 15.0015 22.5957 14.4123 22.6374 14.3668H22.6791C22.3664 15.6133 21.9077 15.9988 20.9486 15.9988C20.0312 15.9988 18.4257 15.1827 18.384 12.7801C18.3632 10.332 20.0312 9.47068 21.178 9.4252C22.3247 9.37997 22.8459 9.87873 22.8459 9.87873C22.9292 9.96919 22.9714 10.0373 22.9714 10.0373L22.5124 11.3519H22.4916L22.4705 11.3295ZM10.0023 15.8174C9.98149 15.7719 9.89817 15.4548 9.89817 15.0693V11.7826C9.89817 11.7826 9.96066 9.69732 9.50195 9.67471V9.62948H13.5884L13.4007 11.1255V11.1707H13.3799V11.1255C13.3383 11.0348 13.2755 10.6948 12.796 10.6948C12.3789 10.6948 11.6911 10.6722 11.5451 10.6722H11.5243V12.0095L11.5451 11.9868H13.2755L13.0878 13.2334H13.067V13.2107C13.067 13.2107 13.0462 13.0519 12.7543 13.0519C12.4833 13.0519 11.6909 13.0293 11.5451 13.0293H11.5243V14.7291H11.5451C11.6703 14.7517 12.3789 14.8425 12.9629 14.7065C13.6718 14.5251 13.7967 14.208 13.8176 14.1851L13.8592 14.2078L13.4838 15.8171L10.0023 15.8174ZM32.3534 15.8174C32.3117 15.7719 32.249 15.4548 32.249 15.0693V11.7826C32.249 11.7826 32.2911 9.69732 31.853 9.67471V9.62948H35.9397L35.7518 11.1255V11.1707H35.7309C35.7309 11.1481 35.7101 11.1255 35.7101 11.1255C35.6893 11.0348 35.6062 10.6948 35.1473 10.6948C34.73 10.6948 34.0422 10.6722 33.8961 10.6722H33.8753V12.0095L33.8961 11.9868H35.6062L35.4393 13.2334H35.418V13.2107C35.418 13.2107 35.3764 13.0519 35.1056 13.0519C34.8135 13.0519 34.0211 13.0293 33.8959 13.0293H33.8751V14.7291H33.8959C34.0211 14.7517 34.73 14.8425 35.3139 14.7065C36.0226 14.5251 36.148 14.208 36.1686 14.1851L36.1894 14.2078L35.8351 15.8171L32.3534 15.8174ZM30.0182 15.7947V15.7721C29.9973 15.7495 29.6847 15.704 29.6847 14.9789V13.0296H29.7055C29.8307 13.0296 30.5602 13.0522 30.8523 13.0522C31.1235 13.0522 31.1652 13.211 31.1652 13.211V13.2336H31.186C31.186 13.2336 31.2904 12.3951 31.3529 11.9871H29.7057L29.6849 12.0097V10.6725H29.7057C29.8518 10.6725 30.4773 10.6951 30.8733 10.6951C31.3529 10.6951 31.4362 11.035 31.4572 11.1258V11.171H31.4989V11.1258C31.5614 10.6725 31.6866 9.62973 31.6866 9.62973H27.6626V9.67496C28.1002 9.72018 28.0586 11.7828 28.0586 11.7828V15.1374C28.0586 15.1374 28.0377 15.6362 28.163 15.7947H30.0182Z" fill="black"/>
<path fill-rule="evenodd" clip-rule="evenodd" d="M4.16362 13.7097C4.16362 12.2365 4.1428 10.899 4.1428 10.695V10.6495C4.1428 10.6721 4.16362 10.695 4.16362 10.695C4.18445 10.7176 4.45547 11.0123 5.78993 13.3016C6.89481 15.2057 6.79067 15.0243 6.9367 15.2283C7.06191 15.4549 7.22855 15.7949 7.60394 15.7949H9.02172C9.02172 15.7949 8.9384 15.4323 8.9384 14.2084V8.70047H30.8932C30.8932 8.70047 31.5813 8.67786 32.1235 7.49918L32.0814 7.47656C32.0606 7.52204 31.9983 7.54466 31.7685 7.54466H7.22855V7.56727C7.22855 7.56727 7.58288 7.81652 7.58288 9.42562C7.58288 10.7857 7.60371 12.2589 7.60371 12.2589V12.6898C7.60371 12.6672 7.58288 12.6443 7.58288 12.6443C7.47873 12.4403 5.9774 9.78819 5.74827 9.403C5.74827 9.403 5.08104 8.29242 4.72648 7.88436C4.43464 7.5444 4.16339 7.5444 4.01759 7.5444H2.41211V7.58963C2.43294 7.58963 2.8081 7.83889 2.8081 9.62964V13.7094C2.8081 15.568 2.41211 15.772 2.41211 15.772V15.7947H3.91321C4.16339 15.7947 4.16339 15.5906 4.16339 15.5454L4.16362 13.7097ZM36.6271 15.2964C36.6271 14.9791 36.8562 14.7524 37.1483 14.7524C37.419 14.7524 37.6486 14.9791 37.6486 15.2964C37.6486 15.6366 37.419 15.863 37.1483 15.863C36.8562 15.863 36.6271 15.6364 36.6271 15.2964ZM37.1483 15.7723C37.3774 15.7723 37.5443 15.5683 37.5443 15.2961C37.5443 15.0469 37.3774 14.8429 37.1483 14.8429C36.8979 14.8429 36.731 15.0469 36.731 15.2961C36.731 15.5685 36.8979 15.7723 37.1483 15.7723ZM37.0231 15.6364H36.94V14.9791H37.1691C37.3151 14.9791 37.3774 15.0471 37.3774 15.1605C37.3774 15.2738 37.3149 15.3419 37.2314 15.3419L37.3982 15.6366H37.2943L37.1274 15.3419H37.0231V15.6364ZM37.1483 15.2738C37.2108 15.2738 37.2735 15.2512 37.2735 15.1605C37.2735 15.0924 37.2108 15.0698 37.1483 15.0698H37.0231V15.2738H37.1483Z" fill="black"/>
</svg>
