<svg width="47" height="24" viewBox="0 0 47 24" fill="none" xmlns="http://www.w3.org/2000/svg">
<g clip-path="url(#clip0_1889_166)">
<path d="M5.89288 8.07305L6.16921 8.1421C4.12024 12.6896 4.25823 17.1907 10.2102 17.1907C20.2836 14.6235 20.2836 14.6235 27.1332 12.7124C25.867 12.6896 24.6007 12.6663 23.3459 12.6435C23.1501 11.3196 22.9544 9.99565 22.7702 8.67167L21.3196 12.5397C20.341 12.5743 19.3624 12.6089 18.384 12.6432C19.8 8.45278 21.2161 4.27381 22.6321 0.094841C23.6452 0.10633 24.6582 0.117819 25.6713 0.140916C24.8424 2.63904 24.8424 2.63904 24.9347 2.77714C25.6946 1.90219 26.4659 1.02724 27.237 0.152286C30.1493 0.0950803 33.062 0.0488853 35.9747 0.00292969C35.7559 0.751145 35.5485 1.49948 35.3415 2.24781C34.2938 2.30538 33.2462 2.36294 32.2101 2.42051C31.5655 4.3315 31.5654 4.3315 31.5309 4.75754C32.4518 4.81511 33.3729 4.87267 34.3054 4.94173L33.4764 7.25566C32.4634 7.34781 31.4502 7.43996 30.4488 7.532C30.1609 8.39534 29.8729 9.2588 29.5968 10.1338L32.4634 10.2374C32.3599 10.5713 32.2562 10.9166 32.1523 11.2621C32.3481 11.2621 32.5438 11.2621 32.7511 11.2736C37.3907 10.0417 42.0415 8.82139 46.6925 7.60117C34.9154 12.7125 23.1385 17.824 11.3611 22.947C-2.59335 27.5337 -2.79932 16.0781 5.89288 8.07305ZM6.56056 12.6435L10.8778 0.00292969H14.0666L14.1357 4.59634C14.6768 3.08818 15.2179 1.59163 15.7589 0.0950803C16.6798 0.0604939 17.6123 0.0259075 18.5447 0.00292969C17.1517 4.21637 15.7702 8.42993 14.3887 12.6435H11.1883C11.1538 11.1583 11.1193 9.67324 11.0962 8.19979C9.81814 11.6879 9.81814 11.6879 9.58788 12.6435H6.56056ZM14.8725 12.6435C16.2886 8.46451 17.716 4.28554 19.1435 0.117938H22.1828C20.7093 4.25083 19.2472 8.38385 17.7851 12.5167C16.8066 12.5513 15.8396 12.5974 14.8725 12.6435ZM26.2236 11.3655C25.6596 6.56489 25.6596 6.56489 25.6596 5.44819C29.712 0.728167 29.712 0.728167 29.9882 0.624528L26.2236 11.3655Z" fill="#E09142"/>
</g>
<defs>
<clipPath id="clip0_1889_166">
<rect width="46.6926" height="24" fill="white"/>
</clipPath>
</defs>
</svg>
