<svg width="38" height="38" viewBox="0 0 38 38" fill="none" xmlns="http://www.w3.org/2000/svg">
<rect width="38" height="38" rx="5" fill="#AA1FBE" fill-opacity="0.1"/>
<path d="M19.586 9.67002C19.586 9.29994 19.3237 9 19 9C18.6764 9 18.4141 9.29994 18.4141 9.67002V12.5406C18.4141 12.9107 18.6764 13.2107 19 13.2107C19.3237 13.2107 19.586 12.9107 19.586 12.5406V9.67002Z" fill="#B218C9"/>
<path d="M16.0775 13.7316C16.1918 13.8623 16.3418 13.9279 16.4918 13.9279C16.6417 13.9279 16.7917 13.8624 16.9061 13.7316C17.1349 13.4698 17.1349 13.0457 16.9061 12.7839L15.6507 11.3486C15.4219 11.0869 15.051 11.0869 14.8221 11.3486C14.5932 11.6104 14.5932 12.0345 14.8221 12.2963L16.0775 13.7316Z" fill="#B218C9"/>
<path d="M21.5098 13.9277C21.6598 13.9277 21.8098 13.8623 21.9241 13.7314L23.1796 12.2961C23.4083 12.0345 23.4083 11.6102 23.1796 11.3486C22.9507 11.0869 22.5797 11.0869 22.3508 11.3486L21.0955 12.784C20.8666 13.0457 20.8666 13.4698 21.0955 13.7314C21.21 13.8623 21.36 13.9277 21.5098 13.9277Z" fill="#B218C9"/>
<path d="M17.3055 15.3194C17.2994 15.3252 17.2936 15.3307 17.2881 15.336L14.7547 17.8192C14.52 18.0492 14.22 18.1761 13.9105 18.1761H12.0959C10.3861 18.1761 9 19.7581 9 21.716V28.1759C9 28.5459 9.26232 28.846 9.58598 28.846H14.6071C14.9309 28.846 15.1931 28.5457 15.1931 28.1759V22.025L18.1749 19.1026C18.3272 18.9534 18.4148 18.7355 18.4148 18.5062V15.9338C18.4148 15.2794 17.7501 14.9073 17.3055 15.3194V15.3194Z" fill="#B218C9"/>
<path d="M25.9048 18.3304H24.0902C23.7807 18.3304 23.4807 18.2035 23.246 17.9734L20.7126 15.4903C20.7071 15.485 20.7013 15.4795 20.6952 15.4737C20.2507 15.0616 19.5859 15.4337 19.5859 16.0881V18.6605C19.5859 18.8898 19.6735 19.1077 19.8258 19.2569L22.8076 22.1793V28.3301C22.8076 28.7 23.0698 29.0001 23.3936 29.0001H28.4147C28.7384 29.0001 29.0007 28.7001 29.0007 28.3301V21.8703C29.0007 19.9124 27.6147 18.3304 25.9048 18.3304Z" fill="#E9A3FB"/>
<path d="M14.5628 15.3533C14.5628 13.7967 13.4552 12.5303 12.0939 12.5303C10.7326 12.5303 9.625 13.7967 9.625 15.3533C9.625 16.91 10.7326 18.1764 12.0939 18.1764C13.4552 18.1764 14.5628 16.91 14.5628 15.3533Z" fill="#B218C9"/>
<path d="M28.3734 15.5056C28.3734 13.949 27.2658 12.6826 25.9045 12.6826C24.5431 12.6826 23.4355 13.949 23.4355 15.5056C23.4355 17.0624 24.5431 18.3288 25.9045 18.3288C27.2658 18.3288 28.3734 17.0624 28.3734 15.5056V15.5056Z" fill="#E9A3FB"/>
</svg>
