<svg width="142" height="44" viewBox="0 0 142 44" fill="none" xmlns="http://www.w3.org/2000/svg">
<g clip-path="url(#clip0_1937_129)">
<path fill-rule="evenodd" clip-rule="evenodd" d="M29.058 17.5287V27.2566L33.53 29.9341V17.5287C33.53 14.7554 32.1982 12.3754 29.8715 10.9892L24.0297 7.50872L19.0006 4.51277V9.84032L27.636 14.9854C28.5787 15.5475 29.058 16.4062 29.058 17.5287ZM22.659 1.53964L28.5008 5.02016L34.3426 8.50068C36.6693 9.88686 38.0011 12.2668 38.0011 15.0392V28.9613C38.0011 31.7336 36.6693 34.1136 34.3426 35.4998L28.5008 38.9803L22.659 42.4608C20.3324 43.847 17.6688 43.847 15.3422 42.4608L11.1134 39.9412C10.4578 39.5629 9.91336 39.0088 9.53774 38.3376C9.16213 37.6663 8.96927 36.9027 8.97954 36.1276V33.3425L17.5769 38.4647C18.5204 39.0259 19.4799 39.0259 20.4226 38.4647L22.5538 37.1953C23.1787 36.8352 23.6976 36.3075 24.0557 35.668C24.4137 35.0284 24.5976 34.3009 24.5877 33.5624V20.7947C24.5967 20.0937 24.422 19.4031 24.0821 18.7961C23.7421 18.1891 23.2495 17.6881 22.6564 17.3462L12.3417 11.1982C11.6962 10.8013 10.9588 10.5918 10.2074 10.5918C9.45603 10.5918 8.7186 10.8013 8.07312 11.1982L5.89593 12.4968C4.95236 13.058 4.47306 13.9158 4.47306 15.0392V35.9844L3.66037 35.4998C1.33373 34.1136 0.00195312 31.7336 0.00195312 28.9613V15.0392C0.00195312 12.2668 1.33373 9.88686 3.66037 8.50068L9.50217 5.02016L15.3431 1.53964C17.6688 0.153454 20.3324 0.153454 22.659 1.53964Z" fill="#003399"/>
<path fill-rule="evenodd" clip-rule="evenodd" d="M9.79828 28.5046L16.9612 32.7745H16.9674C18.1002 33.3841 20.0749 32.1649 20.0749 30.838V22.0263C20.0621 21.7429 19.9803 21.4674 19.8372 21.2251C19.6941 20.9829 19.4943 20.7817 19.2561 20.6401L12.0931 16.3711H12.0869C10.9523 15.767 8.97852 16.9725 8.97852 18.3012V27.1321C8.99276 27.4127 9.07513 27.6851 9.21807 27.9243C9.361 28.1635 9.55991 28.3618 9.79651 28.5009" fill="#FF6600"/>
<g clip-path="url(#clip1_1937_129)">
<path fill-rule="evenodd" clip-rule="evenodd" d="M29.058 17.5287V27.2566L33.53 29.9341V17.5287C33.53 14.7554 32.1982 12.3754 29.8715 10.9892L24.0297 7.50872L19.0006 4.51277V9.84032L27.636 14.9854C28.5787 15.5475 29.058 16.4062 29.058 17.5287ZM22.659 1.53964L28.5008 5.02016L34.3426 8.50068C36.6693 9.88686 38.0011 12.2668 38.0011 15.0392V28.9613C38.0011 31.7336 36.6693 34.1136 34.3426 35.4998L28.5008 38.9803L22.659 42.4608C20.3324 43.847 17.6688 43.847 15.3422 42.4608L11.1134 39.9412C10.4578 39.5629 9.91336 39.0088 9.53774 38.3376C9.16213 37.6663 8.96927 36.9027 8.97954 36.1276V33.3425L17.5769 38.4647C18.5204 39.0259 19.4799 39.0259 20.4226 38.4647L22.5538 37.1953C23.1787 36.8352 23.6976 36.3075 24.0557 35.668C24.4137 35.0284 24.5976 34.3009 24.5877 33.5624V20.7947C24.5967 20.0937 24.422 19.4031 24.0821 18.7961C23.7421 18.1891 23.2495 17.6881 22.6564 17.3462L12.3417 11.1982C11.6962 10.8013 10.9588 10.5918 10.2074 10.5918C9.45603 10.5918 8.7186 10.8013 8.07312 11.1982L5.89593 12.4968C4.95236 13.058 4.47306 13.9158 4.47306 15.0392V35.9844L3.66037 35.4998C1.33373 34.1136 0.00195312 31.7336 0.00195312 28.9613V15.0392C0.00195312 12.2668 1.33373 9.88686 3.66037 8.50068L9.50217 5.02016L15.3431 1.53964C17.6688 0.153454 20.3324 0.153454 22.659 1.53964Z" fill="#C52127"/>
<path fill-rule="evenodd" clip-rule="evenodd" d="M9.79828 28.5046L16.9612 32.7745H16.9674C18.1002 33.3841 20.0749 32.1649 20.0749 30.838V22.0263C20.0621 21.7429 19.9803 21.4674 19.8372 21.2251C19.6941 20.9829 19.4943 20.7817 19.2561 20.6401L12.0931 16.3711H12.0869C10.9523 15.767 8.97852 16.9725 8.97852 18.3012V27.1321C8.99276 27.4127 9.07513 27.6851 9.21807 27.9243C9.361 28.1635 9.55991 28.3618 9.79651 28.5009" fill="#F68A3D"/>
</g>
</g>
<path d="M54.3608 30.5V13.0455H61.2472C62.571 13.0455 63.6989 13.2983 64.6307 13.804C65.5625 14.304 66.2727 15 66.7614 15.892C67.2557 16.7784 67.5028 17.8011 67.5028 18.9602C67.5028 20.1193 67.2528 21.142 66.7528 22.0284C66.2528 22.9148 65.5284 23.6051 64.5795 24.0994C63.6364 24.5937 62.4943 24.8409 61.1534 24.8409H56.7642V21.8835H60.5568C61.267 21.8835 61.8523 21.7614 62.3125 21.517C62.7784 21.267 63.125 20.9233 63.3523 20.4858C63.5852 20.0426 63.7017 19.5341 63.7017 18.9602C63.7017 18.3807 63.5852 17.875 63.3523 17.4432C63.125 17.0057 62.7784 16.6676 62.3125 16.429C61.8466 16.1847 61.2557 16.0625 60.5398 16.0625H58.0511V30.5H54.3608ZM85.9396 21.7727C85.9396 23.6761 85.5788 25.2955 84.8572 26.6307C84.1413 27.9659 83.1641 28.9858 81.9254 29.6903C80.6925 30.3892 79.3061 30.7386 77.7663 30.7386C76.2152 30.7386 74.8232 30.3864 73.5902 29.6818C72.3572 28.9773 71.3828 27.9574 70.6669 26.6222C69.951 25.2869 69.593 23.6705 69.593 21.7727C69.593 19.8693 69.951 18.25 70.6669 16.9148C71.3828 15.5795 72.3572 14.5625 73.5902 13.8636C74.8232 13.1591 76.2152 12.8068 77.7663 12.8068C79.3061 12.8068 80.6925 13.1591 81.9254 13.8636C83.1641 14.5625 84.1413 15.5795 84.8572 16.9148C85.5788 18.25 85.9396 19.8693 85.9396 21.7727ZM82.1982 21.7727C82.1982 20.5398 82.0135 19.5 81.6442 18.6534C81.2805 17.8068 80.7663 17.1648 80.1016 16.7273C79.4368 16.2898 78.6584 16.071 77.7663 16.071C76.8743 16.071 76.0959 16.2898 75.4311 16.7273C74.7663 17.1648 74.2493 17.8068 73.88 18.6534C73.5163 19.5 73.3345 20.5398 73.3345 21.7727C73.3345 23.0057 73.5163 24.0455 73.88 24.892C74.2493 25.7386 74.7663 26.3807 75.4311 26.8182C76.0959 27.2557 76.8743 27.4744 77.7663 27.4744C78.6584 27.4744 79.4368 27.2557 80.1016 26.8182C80.7663 26.3807 81.2805 25.7386 81.6442 24.892C82.0135 24.0455 82.1982 23.0057 82.1982 21.7727ZM98.142 18.0653C98.0739 17.3778 97.7813 16.8437 97.2642 16.4631C96.7472 16.0824 96.0455 15.892 95.1591 15.892C94.5568 15.892 94.0483 15.9773 93.6335 16.1477C93.2188 16.3125 92.9006 16.5426 92.679 16.8381C92.4631 17.1335 92.3551 17.4688 92.3551 17.8438C92.3438 18.1562 92.4091 18.429 92.5511 18.6619C92.6989 18.8949 92.9006 19.0966 93.1562 19.267C93.4119 19.4318 93.7074 19.5767 94.0426 19.7017C94.3778 19.821 94.7358 19.9233 95.1165 20.0085L96.6847 20.3835C97.446 20.554 98.1449 20.7812 98.7812 21.0653C99.4176 21.3494 99.9688 21.6989 100.435 22.1136C100.901 22.5284 101.261 23.017 101.517 23.5795C101.778 24.142 101.912 24.7869 101.918 25.5142C101.912 26.5824 101.639 27.5085 101.099 28.2926C100.565 29.071 99.7926 29.6761 98.7812 30.108C97.7756 30.5341 96.5625 30.7472 95.142 30.7472C93.733 30.7472 92.5057 30.5312 91.4602 30.0994C90.4205 29.6676 89.608 29.0284 89.0227 28.1818C88.4432 27.3295 88.1392 26.2756 88.1108 25.0199H91.6818C91.7216 25.6051 91.8892 26.0937 92.1847 26.4858C92.4858 26.8722 92.8864 27.1648 93.3864 27.3636C93.892 27.5568 94.4631 27.6534 95.0994 27.6534C95.7244 27.6534 96.267 27.5625 96.7273 27.3807C97.1932 27.1989 97.554 26.946 97.8097 26.6222C98.0653 26.2983 98.1932 25.9261 98.1932 25.5057C98.1932 25.1136 98.0767 24.7841 97.8438 24.517C97.6165 24.25 97.2813 24.0227 96.8381 23.8352C96.4006 23.6477 95.8636 23.4773 95.2273 23.3239L93.3267 22.8466C91.8551 22.4886 90.6932 21.929 89.8409 21.1676C88.9886 20.4062 88.5653 19.3807 88.571 18.0909C88.5653 17.0341 88.8466 16.1108 89.4148 15.321C89.9886 14.5312 90.7756 13.9148 91.7756 13.4716C92.7756 13.0284 93.9119 12.8068 95.1847 12.8068C96.4801 12.8068 97.6108 13.0284 98.5767 13.4716C99.5483 13.9148 100.304 14.5312 100.844 15.321C101.384 16.1108 101.662 17.0256 101.679 18.0653H98.142ZM104.332 35.4091V17.4091H107.911V19.608H108.073C108.232 19.2557 108.462 18.8977 108.763 18.5341C109.07 18.1648 109.468 17.858 109.957 17.6136C110.451 17.3636 111.065 17.2386 111.798 17.2386C112.752 17.2386 113.633 17.4886 114.44 17.9886C115.246 18.483 115.891 19.2301 116.374 20.2301C116.857 21.2244 117.099 22.4716 117.099 23.9716C117.099 25.4318 116.863 26.6648 116.391 27.6705C115.925 28.6705 115.289 29.429 114.482 29.946C113.681 30.4574 112.783 30.7131 111.789 30.7131C111.085 30.7131 110.485 30.5966 109.991 30.3636C109.502 30.1307 109.102 29.8381 108.789 29.4858C108.477 29.1278 108.238 28.767 108.073 28.4034H107.962V35.4091H104.332ZM107.886 23.9545C107.886 24.733 107.994 25.4119 108.21 25.9915C108.425 26.571 108.738 27.0227 109.147 27.3466C109.556 27.6648 110.053 27.8239 110.638 27.8239C111.229 27.8239 111.729 27.6619 112.138 27.3381C112.548 27.0085 112.857 26.554 113.067 25.9744C113.283 25.3892 113.391 24.7159 113.391 23.9545C113.391 23.1989 113.286 22.5341 113.076 21.9602C112.866 21.3864 112.556 20.9375 112.147 20.6136C111.738 20.2898 111.235 20.1278 110.638 20.1278C110.048 20.1278 109.548 20.2841 109.138 20.5966C108.735 20.9091 108.425 21.3523 108.21 21.9261C107.994 22.5 107.886 23.1761 107.886 23.9545ZM119.519 30.5V17.4091H123.039V19.6932H123.175C123.414 18.8807 123.815 18.267 124.377 17.8523C124.94 17.4318 125.587 17.2216 126.32 17.2216C126.502 17.2216 126.698 17.233 126.908 17.2557C127.119 17.2784 127.303 17.3097 127.462 17.3494V20.571C127.292 20.5199 127.056 20.4744 126.755 20.4347C126.454 20.3949 126.178 20.375 125.928 20.375C125.394 20.375 124.917 20.4915 124.496 20.7244C124.082 20.9517 123.752 21.2699 123.508 21.679C123.269 22.0881 123.15 22.5597 123.15 23.0938V30.5H119.519ZM134.645 30.7557C133.321 30.7557 132.176 30.4744 131.21 29.9119C130.25 29.3437 129.509 28.554 128.986 27.5426C128.463 26.5256 128.202 25.3466 128.202 24.0057C128.202 22.6534 128.463 21.4716 128.986 20.4602C129.509 19.4432 130.25 18.6534 131.21 18.0909C132.176 17.5227 133.321 17.2386 134.645 17.2386C135.969 17.2386 137.111 17.5227 138.071 18.0909C139.037 18.6534 139.781 19.4432 140.304 20.4602C140.827 21.4716 141.088 22.6534 141.088 24.0057C141.088 25.3466 140.827 26.5256 140.304 27.5426C139.781 28.554 139.037 29.3437 138.071 29.9119C137.111 30.4744 135.969 30.7557 134.645 30.7557ZM134.662 27.9432C135.264 27.9432 135.767 27.7727 136.17 27.4318C136.574 27.0852 136.878 26.6136 137.082 26.017C137.293 25.4205 137.398 24.7415 137.398 23.9801C137.398 23.2188 137.293 22.5398 137.082 21.9432C136.878 21.3466 136.574 20.875 136.17 20.5284C135.767 20.1818 135.264 20.0085 134.662 20.0085C134.054 20.0085 133.543 20.1818 133.128 20.5284C132.719 20.875 132.409 21.3466 132.199 21.9432C131.994 22.5398 131.892 23.2188 131.892 23.9801C131.892 24.7415 131.994 25.4205 132.199 26.017C132.409 26.6136 132.719 27.0852 133.128 27.4318C133.543 27.7727 134.054 27.9432 134.662 27.9432Z" fill="#121212"/>
<defs>
<clipPath id="clip0_1937_129">
<rect width="38" height="43" fill="white" transform="translate(0 0.5)"/>
</clipPath>
<clipPath id="clip1_1937_129">
<rect width="38" height="43" fill="white" transform="translate(0 0.5)"/>
</clipPath>
</defs>
</svg>
