<svg width="38" height="38" viewBox="0 0 38 38" fill="none" xmlns="http://www.w3.org/2000/svg">
<rect width="38" height="38" rx="5" fill="#2DCBFF" fill-opacity="0.1"/>
<path d="M27.7226 25.2237C27.0146 25.0979 26.5269 24.7259 26.3412 24.028C26.2991 23.8446 26.2809 23.6565 26.2871 23.4685C26.2827 22.1254 26.3079 20.7818 26.277 19.4406C26.2537 18.4192 26.7988 17.7785 27.6736 17.6086C27.5961 13.8658 24.5784 9.70898 19.7985 9.03809C14.2866 8.26399 9.58034 12.4215 9.27133 17.6036C9.35377 17.6243 9.44189 17.6457 9.52937 17.6696C9.83483 17.7509 10.1079 17.9241 10.3116 18.1658C10.5152 18.4075 10.6396 18.706 10.6679 19.0209C10.6968 19.3985 10.688 19.7761 10.6886 20.1537C10.6886 21.2865 10.6949 22.4156 10.6886 23.5465C10.6823 24.5214 10.0335 25.2263 9.12407 25.2225C8.14543 25.2181 7.41663 24.7643 6.94399 23.9084C6.75514 23.5611 6.65912 23.1709 6.66519 22.7756C6.66519 21.8649 6.65386 20.9536 6.66519 20.0423C6.67967 19.0932 7.11895 18.3808 7.93711 17.9063C8.0548 17.8377 8.11899 17.7804 8.12591 17.6262C8.26563 15.2416 9.11714 13.1427 10.6899 11.3459C12.099 9.73604 13.8404 8.63342 15.9198 8.13623C19.3548 7.31241 22.4732 8.01036 25.1939 10.2804C27.082 11.8538 28.2299 13.8879 28.6881 16.3033C28.7711 16.7439 28.7869 17.1913 28.8498 17.6331C28.8648 17.7321 28.9184 17.821 28.999 17.8805C29.8605 18.384 30.3023 19.1228 30.3049 20.121C30.3049 20.9932 30.3105 21.8649 30.3049 22.7365C30.2979 23.7051 29.8694 24.4358 29.0311 24.9191C28.892 24.9991 28.8599 25.0872 28.8574 25.2338C28.846 25.8134 28.8775 26.4019 28.7907 26.9714C28.5509 28.5335 27.1115 29.7456 25.5262 29.7721C24.9925 29.7809 24.4563 29.7771 23.9245 29.7721C23.7986 29.7721 23.7219 29.7979 23.6564 29.9288C23.3417 30.5581 22.8307 30.9017 22.1195 30.9106C21.5078 30.9187 20.8948 30.9213 20.2831 30.9068C19.3938 30.8866 18.6952 30.173 18.643 29.2535C18.5958 28.4139 19.2516 27.5926 20.1125 27.524C20.8557 27.4717 21.6015 27.47 22.3448 27.519C22.9547 27.5536 23.3776 27.9249 23.6614 28.463C23.7005 28.5373 23.7942 28.6317 23.8635 28.6317C24.4834 28.6317 25.1058 28.6512 25.7219 28.6021C26.7975 28.5159 27.6956 27.5272 27.7189 26.4485C27.7296 26.0469 27.7226 25.6467 27.7226 25.2237ZM9.54195 21.4124C9.54195 20.6823 9.54195 19.9517 9.54195 19.2216C9.54195 18.9107 9.36448 18.7452 9.05609 18.7465C8.38332 18.7496 7.815 19.3236 7.80305 20.0505C7.78752 20.9614 7.78752 21.8722 7.80305 22.7831C7.81438 23.4804 8.3487 24.0456 8.98938 24.0789C9.36699 24.0991 9.54195 23.9386 9.54321 23.5566C9.54384 22.8423 9.54258 22.1273 9.54195 21.4124V21.4124ZM27.43 21.4124V23.5799C27.4363 23.9336 27.6049 24.0928 27.9599 24.0796C28.6132 24.0569 29.1557 23.4943 29.1701 22.7831C29.1871 21.8724 29.1852 20.9611 29.1701 20.0505C29.1718 19.7409 29.0631 19.4408 28.8636 19.204C28.6641 18.9672 28.3868 18.8093 28.0814 18.7584C27.6597 18.681 27.4313 18.8667 27.4306 19.2921C27.4287 19.9989 27.43 20.7056 27.43 21.4124ZM21.2277 29.7828C21.5109 29.7828 21.7942 29.7859 22.0761 29.7828C22.4399 29.7777 22.686 29.5436 22.686 29.2082C22.686 28.8727 22.4512 28.6417 22.0774 28.6417C21.5198 28.6375 20.9622 28.6375 20.4046 28.6417C20.0269 28.6417 19.7941 28.8658 19.7953 29.2082C19.7966 29.5505 20.0395 29.779 20.4033 29.7846C20.6783 29.784 20.9533 29.7809 21.2277 29.7809V29.7828Z" fill="#2DCBFF"/>
<path d="M14.8622 23.0007C13.7099 22.9076 12.9113 22.3833 12.5469 21.3015C12.4628 21.0322 12.4214 20.7515 12.4241 20.4695C12.4128 18.9143 12.4153 17.3592 12.4197 15.8041C12.4241 14.3371 13.4651 13.2961 14.9271 13.2949C17.298 13.2923 19.6686 13.2923 22.0387 13.2949C23.5026 13.2949 24.5448 14.3339 24.5498 15.8003C24.5549 17.3556 24.5549 18.9108 24.5498 20.4657C24.5461 21.9478 23.5089 22.9831 22.0324 22.9869C21.0884 22.9869 20.1482 22.9906 19.206 22.9837C19.1332 22.9795 19.0604 22.9914 18.9927 23.0186C18.925 23.0458 18.8642 23.0876 18.8146 23.1411C18.1682 23.7937 17.5219 24.447 16.8598 25.0839C16.2695 25.6503 15.3456 25.4955 14.9988 24.7723C14.9177 24.5865 14.8732 24.3866 14.8679 24.1839C14.8484 23.7931 14.8622 23.401 14.8622 23.0007ZM16.0152 24.3066C16.1222 24.2065 16.1858 24.1505 16.2462 24.0907C16.9039 23.4381 17.5678 22.7892 18.2148 22.1278C18.3018 22.0333 18.4084 21.9587 18.527 21.9094C18.6457 21.8601 18.7736 21.8371 18.902 21.8421C19.9461 21.8515 20.9909 21.849 22.035 21.8452C22.8877 21.8414 23.3988 21.3317 23.4006 20.4814C23.404 18.9181 23.404 17.355 23.4006 15.7921C23.4006 14.9475 22.8928 14.4459 22.0513 14.4447C20.6063 14.4447 19.1615 14.4447 17.717 14.4447C16.7509 14.4447 15.7849 14.4384 14.822 14.4447C14.1372 14.4503 13.5884 14.9482 13.5821 15.6065C13.5666 17.2952 13.5666 18.984 13.5821 20.6727C13.5865 21.2587 14.056 21.747 14.6382 21.8156C14.8899 21.8452 15.1417 21.8351 15.3934 21.844C15.7949 21.8591 15.9988 22.0579 16.0045 22.4626C16.0121 22.9812 16.0045 23.4998 16.0045 24.0184C16.002 24.0964 16.007 24.1707 16.0152 24.3066Z" fill="#2DCBFF"/>
<path d="M16.0163 24.3067C16.01 24.172 16.0031 24.0965 16.0031 24.021C16.0031 23.5024 16.0081 22.9838 16.0031 22.4652C15.9974 22.0605 15.7935 21.8617 15.392 21.8466C15.1402 21.8377 14.8885 21.8466 14.6367 21.8182C14.0546 21.7496 13.5851 21.2613 13.5807 20.6753C13.5669 18.987 13.5669 17.2982 13.5807 15.6091C13.587 14.9501 14.1358 14.4529 14.8205 14.4473C15.7859 14.4385 16.752 14.4473 17.7155 14.4473C19.1601 14.4473 20.6049 14.4473 22.0499 14.4473C22.8913 14.4473 23.3973 14.9508 23.3992 15.7947C23.4026 17.3576 23.4026 18.9207 23.3992 20.484C23.3992 21.3343 22.8863 21.844 22.0335 21.8478C20.9894 21.8516 19.9447 21.8541 18.9006 21.8447C18.7721 21.8396 18.644 21.8625 18.5252 21.9119C18.4065 21.9612 18.2998 22.0358 18.2127 22.1304C17.5632 22.7918 16.9018 23.4407 16.2441 24.0933C16.1868 24.1506 16.1233 24.2066 16.0163 24.3067ZM19.3279 18.2215C19.3259 18.0551 19.2747 17.8931 19.1806 17.7559C19.0866 17.6187 18.9539 17.5124 18.7995 17.4505C18.6451 17.3887 18.4758 17.3739 18.313 17.4083C18.1502 17.4426 18.0012 17.5244 17.8849 17.6433C17.7686 17.7623 17.6902 17.913 17.6595 18.0765C17.6289 18.2401 17.6474 18.409 17.7127 18.562C17.778 18.715 17.8872 18.8452 18.0265 18.9362C18.1658 19.0271 18.3289 19.0747 18.4953 19.073C18.7173 19.0665 18.9282 18.9741 19.0835 18.8153C19.2388 18.6565 19.3264 18.4436 19.3279 18.2215ZM15.7369 17.3889C15.5137 17.3896 15.3 17.479 15.1427 17.6373C14.9854 17.7956 14.8975 18.01 14.8982 18.2331C14.899 18.4563 14.9884 18.67 15.1467 18.8273C15.305 18.9846 15.5194 19.0725 15.7425 19.0717C15.9657 19.071 16.1794 18.9816 16.3367 18.8233C16.494 18.665 16.5819 18.4506 16.5811 18.2275C16.5804 18.0043 16.491 17.7906 16.3327 17.6333C16.1743 17.476 15.96 17.3881 15.7369 17.3889ZM22.0662 18.2328C22.0672 18.0109 21.9804 17.7975 21.8246 17.6394C21.6688 17.4813 21.4568 17.3912 21.2349 17.3889C21.1243 17.3887 21.0147 17.4102 20.9125 17.4524C20.8103 17.4945 20.7173 17.5563 20.639 17.6344C20.5606 17.7124 20.4984 17.8051 20.4559 17.9072C20.4134 18.0093 20.3914 18.1188 20.3912 18.2294C20.391 18.3399 20.4126 18.4495 20.4547 18.5517C20.4968 18.654 20.5587 18.7469 20.6367 18.8253C20.7148 18.9036 20.8075 18.9658 20.9096 19.0083C21.0117 19.0508 21.1211 19.0728 21.2317 19.073C21.4536 19.0717 21.666 18.9825 21.8224 18.8251C21.9787 18.6677 22.0664 18.4547 22.0662 18.2328V18.2328Z" fill="#2DCBFF"/>
</svg>
