<svg width="37" height="24" viewBox="0 0 37 24" fill="none" xmlns="http://www.w3.org/2000/svg">
<g clip-path="url(#clip0_1889_121)">
<path d="M19.0768 7.03347C18.9594 7.04726 18.8467 7.37638 18.6199 7.54784C18.4541 7.67158 18.2471 7.66384 18.1372 7.81682C18.0954 7.87397 18.109 7.97153 18.0616 8.0652C17.9691 8.25254 17.6431 8.26929 17.6431 8.4734C17.642 8.69384 17.915 8.73594 18.1513 8.89234C18.3357 9.01824 18.3538 9.10504 18.5771 9.16604C18.7677 9.21549 19.0514 9.0539 19.3069 9.11191C19.5167 9.15963 19.7174 9.19399 19.7648 9.35813C19.8065 9.50939 19.762 9.74398 19.5076 9.71693C19.4219 9.70962 19.0502 9.61422 18.5934 9.65117C18.0424 9.69889 17.4136 9.83592 17.3521 10.3039C17.3183 10.5656 17.7429 10.8741 18.153 10.8114C18.4366 10.7688 18.3024 10.514 18.4569 10.3903C18.6594 10.2317 19.8065 10.9437 20.873 10.9437C21.3219 10.9437 21.6558 10.8573 21.9874 10.5927C22.0184 10.5724 22.0562 10.5291 22.1042 10.5265C22.1493 10.5291 22.2282 10.563 22.2542 10.5776C23.1131 11.1035 23.7622 12.1585 26.9188 12.1709C27.3626 12.1726 27.8685 12.3342 28.2813 12.6212C28.6496 12.8808 28.8651 13.2842 29.0743 13.6937C29.3901 14.3082 29.9564 14.9059 30.8147 15.5711C30.8615 15.6067 31.5682 16.0253 31.6245 16.0566C31.6336 16.0609 31.6855 16.1554 31.6675 16.2083C31.6466 16.6071 31.5704 17.7668 32.7051 17.8192C32.9826 17.8299 32.9098 17.6813 32.9098 17.579C32.9093 17.377 32.8608 17.1764 33.0007 16.9697C33.1918 16.6853 32.5952 16.5542 32.6127 15.9393C32.625 15.4808 32.1197 15.559 31.8631 15.2097C31.7153 15.0073 31.5839 14.8999 31.5935 14.6523C31.6511 13.2593 31.2044 12.3441 30.9816 12.1193C30.808 11.9496 30.6641 11.8822 30.8231 11.8035C31.7701 11.327 31.985 10.8835 31.985 10.8835C32.4885 9.98162 32.9414 9.15787 33.5657 8.79525C33.6915 8.72046 34.0141 8.537 34.2121 8.4648C34.7946 8.25553 35.1014 8.1288 35.2707 8.0033C35.5385 7.80436 35.75 7.38971 35.4934 7.13834C35.1742 6.82809 34.6221 7.07431 34.3785 7.18429C32.6375 7.97153 32.3809 9.36026 31.7779 10.1578C31.2969 10.795 30.5147 11.263 29.8154 11.3012C29.2908 11.3308 28.7258 11.2501 28.1629 11.0619C26.7942 10.6047 26.0452 10.0143 25.8687 9.90988C25.5009 9.69374 22.6461 7.55857 20.3333 7.47135C20.3333 7.47135 20.0462 7.0335 19.974 7.02619C19.8048 7.00985 19.6317 7.28786 19.5076 7.32013C19.3909 7.34974 19.1946 7.01885 19.0768 7.03347ZM8.89481 19.7769C8.6771 19.773 8.49214 19.6368 8.49214 19.4684L8.49271 13.9717H6.115V20.0308C6.115 20.3278 6.43079 20.5701 6.81824 20.5701H10.9742C11.3644 20.5701 11.6763 20.3278 11.6763 20.0308V13.9717H9.30088L9.29861 19.4684C9.29861 19.6368 9.11361 19.773 8.89481 19.7769ZM16.8558 13.9717H13.2571C12.8313 13.9717 12.4845 14.2356 12.4845 14.5634V20.5701H14.8644V15.0602C14.8661 14.8913 15.0454 14.7577 15.2665 14.7577C15.4887 14.7577 15.6669 14.8883 15.672 15.0555V20.5701H18.0424V15.0554C18.0452 14.8883 18.2234 14.7576 18.445 14.7576C18.665 14.7576 18.8466 14.8913 18.8483 15.0602V20.5701H21.2283V14.5634C21.2283 14.2356 20.8808 13.9717 20.4551 13.9717H16.8558ZM2.93305 15.0718C2.93475 14.8883 2.73849 14.7576 2.53038 14.7576H2.12658V18.0951H2.53038C2.74019 18.0951 2.93479 17.9679 2.93305 17.7853V15.0718ZM4.52854 18.9119H2.12658V20.5701H-0.25V13.9717H4.5438C4.97294 13.9717 5.30792 14.2373 5.30792 14.566V18.3177C5.30792 18.6468 4.95999 18.9119 4.52854 18.9119ZM29.3839 19.0945C28.9062 19.0945 28.5052 19.4091 28.5052 19.7902C28.5052 20.1726 28.9062 20.4846 29.3991 20.4846C29.8881 20.4846 30.284 20.1726 30.284 19.7902C30.284 19.4082 29.8881 19.0945 29.3991 19.0945H29.3839ZM30.4543 19.7881C30.4543 20.2362 29.9828 20.6006 29.3991 20.6006C28.8092 20.6006 28.3355 20.2388 28.3355 19.7881C28.3355 19.3459 28.8092 18.9764 29.3816 18.9764C29.9828 18.9764 30.4543 19.3348 30.4543 19.7881Z" fill="black"/>
<path d="M29.2889 19.7364C29.4542 19.7364 29.541 19.6917 29.541 19.6024C29.541 19.5229 29.457 19.4821 29.2963 19.4821H29.2489V19.7364H29.2889ZM29.8975 20.2581H29.6138L29.2489 19.8881V20.2581H29.0171V19.3226H29.2607C29.5918 19.3226 29.7677 19.418 29.7677 19.6002C29.7677 19.7218 29.664 19.8297 29.519 19.8619L29.5021 19.8667L29.8975 20.2581ZM25.2182 18.0963V15.058C25.2125 14.8899 25.0349 14.761 24.8133 14.761C24.5939 14.761 24.4123 14.8951 24.4106 15.0627V18.0963H25.2182ZM25.2182 20.5701V18.9136H24.4106V20.5701H22.0352V14.5634C22.0352 14.2355 22.382 13.9717 22.8078 13.9717H26.821C27.2479 13.9717 27.5948 14.2355 27.5948 14.5634V20.57L25.2182 20.5701Z" fill="black"/>
</g>
<defs>
<clipPath id="clip0_1889_121">
<rect width="36" height="24" fill="white" transform="translate(0.5)"/>
</clipPath>
</defs>
</svg>
