<svg width="40" height="40" viewBox="0 0 40 40" fill="none" xmlns="http://www.w3.org/2000/svg">
<rect width="40" height="40" rx="8" fill="url(#paint0_linear_3486_188)"/>
<path d="M20.6938 28.5122C22.0711 28.3844 23.3386 27.8261 24.3666 26.9109C23.5578 28.6634 21.9499 30.0556 20.0051 30.6106C17.4728 31.3332 14.8035 30.5122 12.6816 28.3582C12.6555 28.3317 12.6245 28.3106 12.5902 28.2962C12.556 28.2818 12.5192 28.2743 12.482 28.2741H12.481C12.4063 28.2741 12.3346 28.3038 12.2818 28.3566L10.6918 29.9456L10.5824 24.1845L16.3435 24.2939L14.7545 25.8839C14.7276 25.9109 14.7064 25.943 14.6922 25.9783C14.6781 26.0137 14.6712 26.0515 14.6721 26.0896C14.673 26.1277 14.6816 26.1652 14.6974 26.1998C14.7132 26.2345 14.7358 26.2656 14.764 26.2912C16.543 27.9132 18.649 28.7016 20.6939 28.5122L20.6938 28.5122ZM14.9072 14.4818C16.437 14.4818 17.6816 13.2366 17.6816 11.706C17.6816 10.1754 16.4371 8.93164 14.9072 8.93164C13.3773 8.93164 12.1328 10.1762 12.1328 11.706C12.1328 13.2358 13.3773 14.4818 14.9072 14.4818ZM25.0601 17.6362C26.5899 17.6362 27.8345 16.3916 27.8345 14.8618C27.8345 13.332 26.5899 12.0874 25.0601 12.0874C23.5303 12.0874 22.2843 13.3319 22.2843 14.8618C22.2843 16.3917 23.5295 17.6362 25.0601 17.6362ZM30.845 23.3037C30.4835 20.3937 27.9965 18.1996 25.0601 18.1996C22.1237 18.1996 19.6416 20.3888 19.2752 23.2921C19.2365 23.5947 19.2951 23.6881 19.314 23.7095C19.3375 23.7362 19.386 23.7497 19.4582 23.7497H30.6608C30.7326 23.7497 30.781 23.7362 30.8046 23.7094C30.8233 23.6882 30.8815 23.5963 30.845 23.3037ZM20.5697 19.4809C19.9358 16.9015 17.5791 15.0452 14.9072 15.0452C11.9757 15.0452 9.48878 17.2339 9.12231 20.1363C9.08364 20.4389 9.14219 20.5323 9.16108 20.5537C9.18461 20.5805 9.23312 20.594 9.30526 20.594H19.6673C19.9256 20.1904 20.2283 19.817 20.5697 19.4809Z" fill="white"/>
<defs>
<linearGradient id="paint0_linear_3486_188" x1="31" y1="-6.3926e-07" x2="8.5" y2="39" gradientUnits="userSpaceOnUse">
<stop stop-color="#FF86F3"/>
<stop offset="1" stop-color="#E707D8"/>
</linearGradient>
</defs>
</svg>
