<svg width="38" height="38" viewBox="0 0 38 38" fill="none" xmlns="http://www.w3.org/2000/svg">
<rect width="38" height="38" rx="5" fill="#6D55FF" fill-opacity="0.1"/>
<g clip-path="url(#clip0_1863_215)">
<path d="M26.4063 8.31836H25.4691C25.8723 9.05847 26.1016 9.90672 26.1016 10.8076C26.1016 11.973 25.1553 12.9211 23.9922 12.9211H14.0078C12.8447 12.9211 11.8984 11.973 11.8984 10.8076C11.8984 9.90672 12.1278 9.05852 12.5309 8.31836H11.5938C10.4306 8.31836 9.48438 9.2665 9.48438 10.4319V28.8898C9.48438 30.0551 10.4306 31.0033 11.5938 31.0033H26.4063C27.5694 31.0033 28.5156 30.0551 28.5156 28.8898V10.4319C28.5156 9.26645 27.5694 8.31836 26.4063 8.31836ZM16.5284 26.977L14.9972 28.5112C14.7226 28.7863 14.2774 28.7864 14.0028 28.5112L13.2528 27.7598C12.9782 27.4847 12.9782 27.0386 13.2528 26.7635C13.5273 26.4883 13.9726 26.4883 14.2472 26.7635L14.5 27.0168L15.5341 25.9808C15.8086 25.7056 16.2538 25.7056 16.5284 25.9808C16.803 26.2558 16.803 26.7018 16.5284 26.977ZM16.5284 22.9378L14.9972 24.472C14.7226 24.7472 14.2774 24.7472 14.0028 24.472L13.2528 23.7206C12.9782 23.4455 12.9782 22.9994 13.2528 22.7243C13.5273 22.4492 13.9726 22.4492 14.2472 22.7243L14.5 22.9776L15.5341 21.9416C15.8086 21.6664 16.2538 21.6664 16.5284 21.9416C16.803 22.2167 16.803 22.6627 16.5284 22.9378ZM15.1847 20.0885C14.9101 20.3637 14.4649 20.3637 14.1903 20.0885C13.9157 19.8134 13.9157 19.3674 14.1903 19.0923L16.7215 16.556C16.9961 16.2809 17.4413 16.2809 17.7159 16.556L19.8438 18.688L21.5213 17.0072H21.4375C21.0492 17.0072 20.7344 16.6917 20.7344 16.3027C20.7344 15.9136 21.0492 15.5982 21.4375 15.5982C23.3737 15.5982 23.5388 15.5152 23.8035 15.9116C23.9649 16.1534 23.9219 16.2352 23.9219 18.0874C23.9219 18.4765 23.6071 18.7919 23.2188 18.7919C22.8304 18.7919 22.5156 18.4765 22.5156 18.0874V18.0035L20.3409 20.1824C20.0664 20.4575 19.6211 20.4576 19.3465 20.1824L17.2188 18.0505L15.1847 20.0885ZM24.2031 27.9505H18.5313C18.1429 27.9505 17.8281 27.635 17.8281 27.246C17.8281 26.8569 18.1429 26.5415 18.5313 26.5415H24.2031C24.5914 26.5415 24.9063 26.8569 24.9063 27.246C24.9063 27.635 24.5914 27.9505 24.2031 27.9505ZM24.2031 23.9113H18.5313C18.1429 23.9113 17.8281 23.5959 17.8281 23.2068C17.8281 22.8177 18.1429 22.5023 18.5313 22.5023H24.2031C24.5914 22.5023 24.9063 22.8177 24.9063 23.2068C24.9063 23.5959 24.5914 23.9113 24.2031 23.9113Z" fill="#644AFF"/>
<path d="M20.8984 7H17.1016C15.0079 7 13.3047 8.70663 13.3047 10.8043C13.3047 11.1934 13.6195 11.5088 14.0078 11.5088H23.9922C24.3805 11.5088 24.6953 11.1934 24.6953 10.8043C24.6953 8.70663 22.9921 7 20.8984 7Z" fill="#644AFF"/>
</g>
<defs>
<clipPath id="clip0_1863_215">
<rect width="24" height="24" fill="white" transform="translate(7 7)"/>
</clipPath>
</defs>
</svg>
