<svg width="29" height="24" viewBox="0 0 29 24" fill="none" xmlns="http://www.w3.org/2000/svg">
<g clip-path="url(#clip0_1889_135)">
<path fill-rule="evenodd" clip-rule="evenodd" d="M24.6925 5.23717C24.3503 5.23717 24.0222 5.37549 23.7802 5.62171C23.5383 5.86793 23.4024 6.20187 23.4024 6.55007C23.4024 7.00702 23.6223 7.40771 23.9699 7.64301L19.5948 17.1986L20.5088 4.47416C20.8405 4.44556 21.1486 4.28763 21.3686 4.03336C21.5887 3.7791 21.7037 3.44815 21.6896 3.10964C21.6756 2.77113 21.5335 2.45123 21.2932 2.21676C21.0529 1.98229 20.7328 1.85137 20.3999 1.85135C20.0577 1.85135 19.7296 1.98967 19.4876 2.23589C19.2457 2.48211 19.1097 2.81605 19.1097 3.16425C19.1097 3.73502 19.4675 4.21115 19.968 4.39232L16.9655 16.8162L15.4802 3.11096C15.7531 3.03811 15.9945 2.87516 16.1665 2.64766C16.3386 2.42017 16.4316 2.141 16.431 1.85391C16.431 1.50571 16.2951 1.17177 16.0532 0.925554C15.8112 0.679338 15.4831 0.541016 15.1409 0.541016C14.7987 0.541016 14.4706 0.679338 14.2286 0.925554C13.9867 1.17177 13.8508 1.50571 13.8508 1.85391C13.8508 2.50908 14.3258 3.03765 14.9428 3.13611L13.7456 16.4884L10.2664 4.43111C10.4747 4.32112 10.6493 4.15501 10.7711 3.95092C10.8929 3.74682 10.9573 3.51259 10.9572 3.2738C10.9572 3.01413 10.8815 2.7603 10.7397 2.54439C10.598 2.32849 10.3965 2.16021 10.1607 2.06084C9.925 1.96147 9.66559 1.93547 9.41533 1.98613C9.16507 2.03679 8.93519 2.16183 8.75476 2.34544C8.57433 2.52905 8.45146 2.76299 8.40168 3.01766C8.3519 3.27234 8.37745 3.53632 8.4751 3.77622C8.57274 4.01612 8.7381 4.22117 8.95027 4.36543C9.16243 4.50969 9.41186 4.58669 9.66703 4.58669C9.68546 4.58669 9.70556 4.58499 9.72357 4.58413L11.2231 17.199L6.17026 8.02025C6.41973 7.82116 6.58843 7.53556 6.64416 7.21795C6.6999 6.90034 6.63876 6.57297 6.47242 6.29831C6.30608 6.02365 6.04619 5.82094 5.74233 5.72886C5.43848 5.63678 5.11195 5.66178 4.82505 5.79909C4.53816 5.93639 4.311 6.1764 4.18691 6.47329C4.06282 6.77018 4.0505 7.10318 4.1523 7.40872C4.25411 7.71427 4.4629 7.97097 4.73884 8.12984C5.01478 8.28871 5.33854 8.33862 5.64833 8.27005L9.88149 21.1846C10.8474 24.188 19.4327 24.2426 20.7203 21.1846L24.5434 7.84634C24.5966 7.85316 24.6368 7.86254 24.6917 7.86254C25.0298 7.85645 25.352 7.71553 25.589 7.47011C25.826 7.22468 25.9589 6.89438 25.959 6.55027C25.9591 6.20617 25.8264 5.87577 25.5896 5.63019C25.3527 5.38461 25.0306 5.24348 24.6925 5.23717ZM15.1949 22.5657C13.0071 22.5657 11.2336 21.8947 11.2336 21.0669C11.2336 20.2391 13.0071 19.8504 15.1949 19.8504C17.3827 19.8504 18.9238 20.2391 18.9238 21.0669C18.9238 21.8947 17.3823 22.5657 15.1949 22.5657Z" fill="#B4975A"/>
</g>
<defs>
<clipPath id="clip0_1889_135">
<rect width="29" height="24" fill="white"/>
</clipPath>
</defs>
</svg>
