<svg width="38" height="38" viewBox="0 0 38 38" fill="none" xmlns="http://www.w3.org/2000/svg">
<rect width="38" height="38" rx="5" fill="#FF8243" fill-opacity="0.1"/>
<g clip-path="url(#clip0_1863_118)">
<ellipse cx="20.6008" cy="13.3996" rx="4.8" ry="4.8" fill="white"/>
<path d="M15.5007 30.7416C17.1072 30.7416 18.4095 29.4392 18.4095 27.8327C18.4095 26.2262 17.1072 24.9238 15.5007 24.9238C13.8941 24.9238 12.5918 26.2262 12.5918 27.8327C12.5918 29.4392 13.8941 30.7416 15.5007 30.7416Z" fill="#FF722C"/>
<path d="M24.8207 24.8952C23.2063 24.7363 21.7689 25.9162 21.61 27.5305C21.4512 29.1449 22.631 30.5823 24.2454 30.7412C24.4367 30.76 24.6294 30.76 24.8207 30.7412C26.435 30.5823 27.6149 29.1449 27.456 27.5305C27.3188 26.1358 26.2153 25.0324 24.8207 24.8952Z" fill="#FF722C"/>
<path d="M30.8076 13.8249C30.6631 13.6085 30.4182 13.4807 30.158 13.486H26.9385V13.4295C26.9387 10.0136 24.1699 7.24436 20.754 7.24414C17.3382 7.24392 14.5689 10.0128 14.5687 13.4286V13.4295V13.486H12.1682L11.3492 9.75808C11.2582 9.37886 10.9202 9.11073 10.5302 9.10852H7V10.803H9.85239L12.4789 22.8621C12.5482 23.2586 12.8954 23.546 13.2979 23.5399H28.0682C28.4582 23.5377 28.7962 23.2696 28.8872 22.8904L30.9771 14.5309C31.0383 14.282 30.9752 14.0188 30.8076 13.8249ZM20.7536 17.9199C18.2737 17.9199 16.2632 15.9094 16.2632 13.4295C16.2632 10.9495 18.2737 8.93907 20.7536 8.93907C23.2336 8.93907 25.244 10.9495 25.244 13.4295C25.2286 15.903 23.2272 17.9044 20.7536 17.9199Z" fill="#FF722C"/>
<path d="M20.0743 13.5137L18.521 11.9322L17.3066 13.1183L19.453 15.2929C19.6094 15.4525 19.8226 15.5439 20.0461 15.5471C20.2667 15.5579 20.4817 15.476 20.6391 15.3211L24.1976 11.9604L23.0397 10.7178L20.0743 13.5137Z" fill="#FF722C"/>
</g>
<defs>
<clipPath id="clip0_1863_118">
<rect width="24" height="24" fill="white" transform="translate(7 7)"/>
</clipPath>
</defs>
</svg>
