<svg width="27" height="24" viewBox="0 0 27 24" fill="none" xmlns="http://www.w3.org/2000/svg">
<path d="M22.5723 6.68927C22.9637 7.2733 23.2985 7.89339 23.572 8.5411C23.572 8.54123 23.5722 8.54085 23.5725 8.54098C23.8593 9.20911 24.0771 9.90479 24.2225 10.6172C24.3684 11.334 24.4415 12.0637 24.4409 12.7952C24.4403 13.1589 24.4214 13.5224 24.3843 13.8842C24.3465 14.2547 24.2924 14.6233 24.222 14.989L24.1968 15.1212L20.9513 17.4718L20.4262 21.647H14.8269L14.6233 21.7827C14.4666 21.9043 14.2902 21.9981 14.1018 22.0602H14.1005C13.9099 22.123 13.7097 22.1531 13.4998 22.1531C13.2855 22.1531 13.0855 22.123 12.895 22.0602H12.8937C12.7109 22.0002 12.5399 21.91 12.3762 21.7881L12.1471 21.647H6.59943L6.06603 17.4726L2.80363 15.1212L2.77736 14.9916C2.70348 14.625 2.64837 14.2549 2.61226 13.8827C2.57664 13.5213 2.55873 13.1584 2.55859 12.7952C2.55859 12.0581 2.63044 11.3332 2.77375 10.6233C2.91849 9.90975 3.13464 9.2126 3.41896 8.54235C3.69231 7.89304 4.02706 7.27132 4.41865 6.68566C4.81132 6.09957 5.26041 5.55332 5.75949 5.05471C6.2555 4.55898 6.79827 4.11236 7.38023 3.72108C7.96603 3.32735 8.58793 2.99019 9.23755 2.71417C9.92185 2.42282 10.6174 2.20543 11.3258 2.06149C12.0414 1.91684 12.7697 1.84455 13.4998 1.84572C14.2347 1.84572 14.9611 1.91818 15.6778 2.06398C16.3927 2.20982 17.0911 2.42766 17.7621 2.71417C18.4092 2.98895 19.0286 3.32504 19.6117 3.71785C20.1914 4.10893 20.7323 4.5548 21.2318 5.05471C21.2323 5.05496 21.2316 5.0557 21.2318 5.05595C21.7294 5.55666 22.1783 6.10356 22.5723 6.68927Z" fill="white"/>
<path fill-rule="evenodd" clip-rule="evenodd" d="M25.0089 8.27253C24.3738 6.84549 23.4788 5.583 22.3338 4.48533C21.1885 3.39673 19.8606 2.54595 18.369 1.9422C16.8103 1.31109 15.1839 1 13.5 1C11.8064 1 10.1898 1.31109 8.63084 1.9422C7.13923 2.54595 5.80163 3.39673 4.65664 4.48533C3.50197 5.583 2.61655 6.84549 1.98144 8.27253C1.3271 9.74535 1 11.2913 1 12.8922C1 13.679 1.07693 14.4655 1.25017 15.2798L5.10882 17.9232L5.71501 22.4331H12.0179L12.3932 22.6525C12.7204 22.8904 13.0764 23 13.4999 23C13.9137 23 14.2794 22.8904 14.5968 22.6525L14.9432 22.4331H21.3136L21.9103 17.9232L25.7497 15.2798C25.9134 14.4655 26 13.6788 26 12.8922C26 11.2913 25.6729 9.74535 25.0089 8.27253Z" fill="#CC2229"/>
<path fill-rule="evenodd" clip-rule="evenodd" d="M22.3973 9.77793C22.1667 8.87258 21.6706 8.09882 20.8995 7.47336L15.5028 16.1071L20.2792 6.6421C19.6412 5.86018 18.8347 5.32526 17.8157 5.02062L14.5101 15.7531L16.9295 4.5844C16.1762 4.19752 15.3786 4 14.5278 4L13.9873 4.0329L13.5088 15.6542L13.0037 4.0329L12.4719 4C11.6212 4 10.8147 4.19752 10.0703 4.5844L12.463 15.7531L9.1842 5.02075C8.16505 5.32538 7.34099 5.8603 6.72068 6.64222L11.5237 16.1072L6.10023 7.47349C5.32931 8.09895 4.83298 8.8727 4.6026 9.77806L10.6464 16.6751L4.42535 10.8725C4.14169 11.4652 4 12.0825 4 12.7162C4 13.0701 4.04435 13.4486 4.15062 13.852L7.64222 16.2224L8.10312 19.4074H12.3479L12.9505 19.8354C13.119 19.9424 13.2963 19.9918 13.5 20C13.695 19.992 13.8811 19.9424 14.0318 19.8354L14.6698 19.4074H18.9323L19.3667 16.2224L22.8493 13.852C22.9467 13.4486 23 13.0701 23 12.7162C23 12.0825 22.8493 11.4652 22.5747 10.8725L16.3891 16.6748L22.3973 9.77793Z" fill="#F6D330"/>
</svg>
