<svg width="25" height="24" viewBox="0 0 25 24" fill="none" xmlns="http://www.w3.org/2000/svg">
<g clip-path="url(#clip0_1885_159)">
<path d="M16.3174 6.22862C16.5969 6.50291 16.6907 6.91434 16.5583 7.28291C16.4846 7.4942 16.1126 8.5442 15.4869 10.1342C15.6433 10.1621 15.7929 10.2182 15.9287 10.3005L16.7923 10.8178C17.059 10.978 17.2585 11.2296 17.3538 11.5257C17.4492 11.8219 17.4339 12.1426 17.3109 12.4283L16.5129 14.2939C16.5489 14.3038 16.5857 14.3162 16.6213 14.3256L21.4286 9.51962C21.75 9.19815 21.9305 8.76219 21.9305 8.30762C21.9305 7.85306 21.75 7.4171 21.4286 7.09562L20.82 6.48705L17.466 9.84277C17.3852 9.92084 17.2769 9.96403 17.1646 9.96306C17.0522 9.96208 16.9447 9.91701 16.8652 9.83755C16.7858 9.75809 16.7407 9.6506 16.7397 9.53823C16.7387 9.42586 16.7819 9.3176 16.86 9.23677L19.9119 6.18491L18.243 4.5182L16.758 4.73248C16.561 4.75934 16.3604 4.74031 16.172 4.6769C15.9835 4.61349 15.8123 4.5074 15.6716 4.36691L15.3437 4.03905C15.2673 3.96276 15.1649 3.91813 15.057 3.91407C14.9491 3.91002 14.8436 3.94685 14.7617 4.0172C13.9294 4.74577 12.9643 6.26034 11.1484 7.47234C12.7736 7.49977 14.3559 6.57577 15.0484 6.10777C15.2412 5.97775 15.4731 5.91871 15.7046 5.94076C15.9361 5.9628 16.1527 6.06455 16.3174 6.22862ZM18.1534 10.3673L20.5179 8.00334C20.5574 7.96241 20.6047 7.92976 20.657 7.9073C20.7093 7.88483 20.7655 7.87301 20.8224 7.87252C20.8793 7.87202 20.9357 7.88287 20.9884 7.90442C21.0411 7.92596 21.0889 7.95779 21.1292 7.99803C21.1694 8.03827 21.2012 8.08612 21.2228 8.13879C21.2443 8.19146 21.2552 8.24789 21.2547 8.3048C21.2542 8.3617 21.2424 8.41794 21.2199 8.47023C21.1974 8.52251 21.1648 8.56981 21.1239 8.60934L18.7594 10.9733C18.7199 11.0143 18.6726 11.0469 18.6203 11.0694C18.568 11.0918 18.5118 11.1037 18.4549 11.1042C18.398 11.1047 18.3416 11.0938 18.2889 11.0723C18.2362 11.0507 18.1884 11.0189 18.1481 10.9787C18.1079 10.9384 18.0761 10.8906 18.0545 10.8379C18.033 10.7852 18.0221 10.7288 18.0226 10.6719C18.0231 10.615 18.0349 10.5587 18.0574 10.5065C18.0799 10.4542 18.1125 10.4069 18.1534 10.3673ZM24.0716 18.2141L22.8716 17.3141C22.7123 17.1939 22.583 17.0385 22.4938 16.8601C22.4046 16.6816 22.3579 16.485 22.3573 16.2855V15.8222C22.3576 15.714 22.317 15.6096 22.2435 15.5301C22.17 15.4506 22.0692 15.4018 21.9613 15.3936C21.5181 15.3793 21.0745 15.3907 20.6327 15.4279C19.4086 15.5446 18.1743 15.4955 16.9633 15.2818C18.093 16.4488 19.8634 16.9133 20.6842 17.0715C20.8921 17.1127 21.0817 17.2183 21.2264 17.3733C21.371 17.5283 21.4632 17.7248 21.4899 17.9351C21.5167 18.1453 21.4767 18.3587 21.3756 18.545C21.2744 18.7313 21.1172 18.881 20.9263 18.9731C19.7415 19.5388 18.541 20.0712 17.3263 20.5695H24.0716V18.2141ZM13.7593 3.79862C13.9059 3.64391 14.0494 3.49862 14.1943 3.37305C14.4398 3.15918 14.7573 3.04644 15.0828 3.05757C15.4082 3.06871 15.7173 3.2029 15.9476 3.43305L16.2754 3.76091C16.3224 3.80787 16.3796 3.84328 16.4426 3.86432C16.5056 3.88537 16.5727 3.89149 16.6384 3.8822L17.4874 3.76091L13.8506 0.124482C13.7687 0.0470508 13.6603 0.00390625 13.5476 0.00390625C13.4349 0.00390625 13.3265 0.0470508 13.2446 0.124482L12.8589 0.510196C12.7926 0.579199 12.751 0.66811 12.7404 0.763171C12.7297 0.858231 12.7508 0.95414 12.8002 1.03605C13.318 1.87572 13.6454 2.81872 13.7593 3.79862Z" fill="#30B0C7"/>
<path d="M10.1374 16.653L9.23739 16.1134C8.37597 16.6565 7.46848 17.1229 6.52539 17.5071H7.10525C7.39282 17.5148 7.67953 17.5457 7.96239 17.5993C10.0688 17.985 11.8602 19.3628 12.7731 21.3C13.8214 21.0137 14.4814 20.7535 14.9284 20.5945C16.8393 19.8769 18.7186 19.0777 20.5611 18.1993C20.586 18.1883 20.607 18.1702 20.6217 18.1474C20.6365 18.1245 20.6441 18.0979 20.6438 18.0707C20.6459 18.0334 20.6342 17.9967 20.6111 17.9674C20.588 17.9381 20.555 17.9183 20.5182 17.9117C19.3932 17.6948 16.644 16.9513 15.5468 14.7613C15.519 14.7056 15.5036 14.6445 15.5017 14.5822C15.4999 14.52 15.5116 14.4581 15.5361 14.4008L16.5261 12.0865C16.5667 11.9911 16.5713 11.8842 16.5391 11.7856C16.5069 11.687 16.44 11.6034 16.3508 11.5504L15.4872 11.0327C15.4013 10.979 15.2988 10.9581 15.1987 10.9739C15.0986 10.9896 15.0075 11.0409 14.9421 11.1184C14.7555 11.3358 14.5653 11.5501 14.3717 11.7613L14.865 12.0574C14.9602 12.117 15.0282 12.2116 15.0544 12.3208C15.0806 12.43 15.0628 12.5452 15.005 12.6415C14.9471 12.7377 14.8538 12.8074 14.745 12.8356C14.6363 12.8637 14.5208 12.8481 14.4235 12.792L13.7674 12.3985C13.5617 12.6098 13.3401 12.8293 13.1031 13.0573L13.5792 13.3431C13.6745 13.4027 13.7425 13.4973 13.7687 13.6065C13.7948 13.7157 13.7771 13.8309 13.7192 13.9272C13.6614 14.0234 13.568 14.0932 13.4593 14.1213C13.3506 14.1495 13.2351 14.1338 13.1378 14.0777L12.45 13.665C12.2207 13.8707 11.9785 14.0794 11.727 14.2885L12.2935 14.6288C12.3888 14.6884 12.4568 14.783 12.483 14.8922C12.5091 15.0015 12.4914 15.1166 12.4335 15.2129C12.3757 15.3092 12.2823 15.3789 12.1736 15.407C12.0649 15.4352 11.9494 15.4195 11.8521 15.3634L11.0138 14.8645C10.698 15.1093 10.371 15.3523 10.0281 15.5888L10.5771 15.9184C10.6723 15.978 10.7403 16.0726 10.7665 16.1818C10.7927 16.291 10.775 16.4062 10.7171 16.5025C10.6592 16.5987 10.5659 16.6684 10.4572 16.6966C10.3484 16.7247 10.233 16.7091 10.1357 16.653H10.1374ZM22.0182 14.5401C22.343 14.5626 22.6472 14.7074 22.8694 14.9454C23.0916 15.1834 23.2152 15.4968 23.2152 15.8224V16.2857C23.2157 16.4203 23.2795 16.5471 23.3867 16.6285L24.0724 17.1428V12C24.0724 11.8863 24.0272 11.7773 23.9469 11.6969C23.8665 11.6166 23.7575 11.5714 23.6438 11.5714H23.0995C22.9024 11.5744 22.7318 11.7098 22.6842 11.9014C22.4566 12.8612 22.0215 13.7595 21.4097 14.5333C21.6231 14.5285 21.8258 14.5285 22.0182 14.5401Z" fill="#30B0C7"/>
<path d="M8.64324 21.8568C9.74281 21.875 10.8405 21.7599 11.9124 21.5139C11.5113 20.7205 10.9323 20.0304 10.2207 19.4974C9.50904 18.9645 8.68393 18.6031 7.80967 18.4415C7.57678 18.397 7.34079 18.3706 7.10382 18.3626C1.87524 18.3626 3.94653 18.3468 2.66981 18.4261C2.56824 18.4261 0.779386 18.4518 0.531672 19.7906C0.524289 19.8293 0.518285 19.8681 0.513672 19.9072C1.28296 20.3628 3.94353 21.8568 5.64324 21.8568H8.64324Z" fill="#30B0C7"/>
<path d="M15.1478 21.4284C14.7732 21.5651 14.4226 21.6963 13.9114 21.857C12.2171 22.4409 10.4354 22.7308 8.64335 22.7141H5.64336C3.99078 22.7141 1.70307 21.5634 0.556641 20.9223C0.640601 21.7607 1.0313 22.5386 1.65373 23.1066C2.27615 23.6746 3.08645 23.9927 3.92907 23.9998H22.7862C23.2409 23.9998 23.6769 23.8192 23.9984 23.4977C24.3199 23.1762 24.5005 22.7402 24.5005 22.2855V21.4284H15.1478ZM23.2148 23.1427H18.9291C18.8154 23.1427 18.7064 23.0975 18.626 23.0172C18.5457 22.9368 18.5005 22.8278 18.5005 22.7141C18.5005 22.6005 18.5457 22.4914 18.626 22.4111C18.7064 22.3307 18.8154 22.2855 18.9291 22.2855H23.2148C23.3284 22.2855 23.4375 22.3307 23.5178 22.4111C23.5982 22.4914 23.6434 22.6005 23.6434 22.7141C23.6434 22.8278 23.5982 22.9368 23.5178 23.0172C23.4375 23.0975 23.3284 23.1427 23.2148 23.1427ZM7.99407 15.3671C7.94475 15.3387 7.90159 15.3007 7.86711 15.2554C7.83263 15.2101 7.80752 15.1584 7.79326 15.1033C7.77899 15.0481 7.77584 14.9907 7.78401 14.9344C7.79217 14.878 7.81148 14.8239 7.84081 14.7751C7.87013 14.7263 7.90888 14.6838 7.9548 14.6502C8.00072 14.6165 8.05289 14.5924 8.10825 14.5791C8.16361 14.5658 8.22107 14.5637 8.27725 14.5729C8.33344 14.5821 8.38724 14.6023 8.4355 14.6325L9.2185 15.104C9.5665 14.873 9.90421 14.636 10.2261 14.3938L9.70836 14.0831C9.65903 14.0547 9.61587 14.0167 9.5814 13.9714C9.54692 13.9261 9.52181 13.8744 9.50754 13.8193C9.49327 13.7641 9.49013 13.7067 9.49829 13.6504C9.50646 13.594 9.52577 13.5399 9.55509 13.4911C9.58442 13.4423 9.62317 13.3998 9.66909 13.3662C9.71501 13.3325 9.76717 13.3084 9.82254 13.2951C9.8779 13.2818 9.93535 13.2797 9.99154 13.2889C10.0477 13.2981 10.1015 13.3183 10.1498 13.3485L10.9478 13.8273C11.2019 13.6198 11.4449 13.4133 11.6764 13.208L10.9906 12.7974C10.9413 12.769 10.8982 12.731 10.8637 12.6857C10.8292 12.6404 10.8041 12.5887 10.7898 12.5335C10.7756 12.4784 10.7724 12.421 10.7806 12.3647C10.7887 12.3083 10.8081 12.2542 10.8374 12.2054C10.8667 12.1566 10.9055 12.1141 10.9514 12.0805C10.9973 12.0468 11.0495 12.0226 11.1048 12.0094C11.1602 11.9961 11.2176 11.994 11.2738 12.0032C11.33 12.0123 11.3838 12.0326 11.4321 12.0628L12.3372 12.6058C12.5645 12.3914 12.7881 12.1731 13.0079 11.951L12.2764 11.5117C12.227 11.4833 12.1839 11.4453 12.1494 11.4C12.1149 11.3547 12.0898 11.3029 12.0755 11.2478C12.0613 11.1927 12.0581 11.1353 12.0663 11.079C12.0745 11.0226 12.0938 10.9685 12.1231 10.9197C12.1524 10.8709 12.1912 10.8284 12.2371 10.7947C12.283 10.7611 12.3352 10.7369 12.3905 10.7237C12.4459 10.7104 12.5034 10.7083 12.5595 10.7175C12.6157 10.7266 12.6695 10.7469 12.7178 10.7771L13.6178 11.3163C14.3091 10.5714 14.2769 10.5478 14.4599 10.3995C15.2164 8.50312 15.6659 7.23412 15.7495 6.9954C15.7597 6.96568 15.7603 6.93354 15.7514 6.90343C15.7424 6.87332 15.7243 6.84674 15.6996 6.82738C15.6749 6.80802 15.6447 6.79683 15.6133 6.79538C15.582 6.79392 15.5509 6.80227 15.5245 6.81926C14.5696 7.46469 12.1019 8.88155 9.77435 8.10969C9.71526 8.09009 9.66115 8.05786 9.61578 8.01523C9.57041 7.9726 9.53487 7.92059 9.51164 7.86283L8.57307 5.52712C8.53464 5.43044 8.46236 5.35103 8.36971 5.30372C8.27705 5.25641 8.17035 5.24441 8.0695 5.26997L7.09535 5.51383C6.99687 5.53818 6.91021 5.59668 6.8508 5.67893C6.79139 5.76117 6.76309 5.86182 6.77093 5.96297C6.79235 6.21497 6.8095 6.50726 6.82278 6.82012L7.37993 6.6804C7.43455 6.66678 7.49132 6.66406 7.54699 6.67237C7.60267 6.68069 7.65616 6.6999 7.70441 6.72889C7.75266 6.75788 7.79473 6.79609 7.82822 6.84134C7.8617 6.88659 7.88595 6.938 7.89957 6.99262C7.91319 7.04724 7.91592 7.10401 7.9076 7.15968C7.89928 7.21536 7.88008 7.26885 7.85108 7.3171C7.82209 7.36535 7.78388 7.40743 7.73863 7.44091C7.69338 7.4744 7.64197 7.49864 7.58735 7.51226L6.84164 7.69869C6.84507 7.99998 6.84293 8.31198 6.83564 8.63469L7.37993 8.49883C7.43455 8.48521 7.49132 8.48248 7.54699 8.4908C7.60267 8.49912 7.65616 8.51833 7.70441 8.54732C7.75266 8.57631 7.79473 8.61452 7.82822 8.65977C7.8617 8.70502 7.88595 8.75643 7.89957 8.81105C7.91319 8.86567 7.91592 8.92244 7.9076 8.97811C7.89928 9.03379 7.88008 9.08728 7.85108 9.13553C7.82209 9.18378 7.78388 9.22585 7.73863 9.25934C7.69338 9.29282 7.64197 9.31707 7.58735 9.33069L6.80221 9.52697C6.78421 9.85526 6.75936 10.1733 6.73364 10.4788L7.37993 10.3173C7.48914 10.2927 7.60364 10.3118 7.69893 10.3706C7.79422 10.4293 7.86274 10.523 7.88984 10.6316C7.91694 10.7403 7.90046 10.8552 7.84393 10.9518C7.78741 11.0484 7.69531 11.1191 7.58735 11.1487L6.63336 11.3874C6.5815 11.8005 6.5185 12.2017 6.44693 12.596L7.0765 12.4387C7.18571 12.4141 7.30021 12.4332 7.3955 12.492C7.49079 12.5507 7.55931 12.6444 7.58641 12.7531C7.61351 12.8617 7.59703 12.9766 7.5405 13.0732C7.48398 13.1698 7.39189 13.2405 7.28393 13.2701L6.25536 13.5273C5.98151 14.7752 5.56281 15.9868 5.00778 17.1375C6.19766 16.7728 7.33766 16.2617 8.40164 15.6161L7.99407 15.3671Z" fill="#30B0C7"/>
</g>
<defs>
<clipPath id="clip0_1885_159">
<rect width="24" height="24" fill="white" transform="translate(0.5)"/>
</clipPath>
</defs>
</svg>
