<svg width="24" height="24" viewBox="0 0 24 24" fill="none" xmlns="http://www.w3.org/2000/svg">
<path fill-rule="evenodd" clip-rule="evenodd" d="M20.75 1.25H3.25V4.95394L2.63617 9.86454C3.01125 9.71154 3.43159 9.50804 3.84927 9.24225C4.93256 8.55288 5.96735 7.47222 6.20232 5.75H7.71347C7.46322 8.13995 6.03298 9.63058 4.65458 10.5078C3.90144 10.9871 3.15423 11.2919 2.59847 11.4772C2.53947 11.4968 2.48248 11.5152 2.4277 11.5323L1.25587 20.907C1.20449 21.318 1.49604 21.6929 1.90705 21.7442L9.90705 22.7442C10.3127 22.795 10.6843 22.5114 10.7424 22.1067L11.6195 15.7501H9.99908C9.80017 15.7501 9.6094 15.6711 9.46875 15.5304L7.96875 14.0304L9.02941 12.9698L10.3097 14.2501H13.6884L14.9687 12.9698L16.0294 14.0304L14.5294 15.5304C14.3887 15.6711 14.198 15.7501 13.9991 15.7501H12.3806L13.2577 22.1067C13.3158 22.5114 13.6874 22.795 14.0931 22.7442L22.0931 21.7442C22.5041 21.6929 22.7956 21.318 22.7443 20.907L21.5723 11.5311C21.5187 11.5144 21.463 11.4964 21.4054 11.4772C20.8496 11.2919 20.1024 10.9871 19.3492 10.5078C17.9708 9.63058 16.5406 8.13995 16.2903 5.75H17.8015C18.0365 7.47222 19.0713 8.55288 20.1546 9.24225C20.5708 9.50713 20.9897 9.71013 21.3638 9.86295L20.75 4.95267V1.25ZM19.25 4.25V2.75H4.75V4.25H19.25Z" fill="#A2845E"/>
</svg>
