<svg width="24" height="24" viewBox="0 0 24 24" fill="none" xmlns="http://www.w3.org/2000/svg">
<path d="M7.10751 5.4225L7.31189 0.75H7.71126L8.03751 3.46312C8.04594 3.53211 8.07337 3.59739 8.11674 3.65169C8.16012 3.70598 8.21772 3.74716 8.28314 3.77063C9.13093 4.14125 9.86207 4.7353 10.3984 5.48927C10.9347 6.24324 11.2561 7.12879 11.3281 8.05125C11.3281 8.15071 11.3676 8.24609 11.438 8.31642C11.5083 8.38674 11.6037 8.42625 11.7031 8.42625C11.8026 8.42625 11.898 8.38674 11.9683 8.31642C12.0386 8.24609 12.0781 8.15071 12.0781 8.05125C12.395 4.81125 15.0163 3.81 15.1269 3.77063C15.1927 3.74745 15.2507 3.70639 15.2944 3.65208C15.3381 3.59776 15.3658 3.53232 15.3744 3.46312L15.695 0.75H16.0944L16.295 5.4225C16.3722 6.70489 16.0336 7.97797 15.3294 9.0525L15.0313 9.51H8.37314L8.07501 9.0525C7.37029 7.97814 7.03098 6.70509 7.10751 5.4225ZM16.7038 23.25H6.70064C4.13939 17.73 6.67814 13.7606 7.76939 12.0525C7.76939 12.0525 8.47064 10.62 8.51939 10.26H14.8813C14.9338 10.62 15.6313 12.0525 15.6313 12.0525C16.7263 13.7606 19.265 17.73 16.7038 23.25Z" fill="#FF2D55"/>
</svg>
