<svg width="24" height="24" viewBox="0 0 24 24" fill="none" xmlns="http://www.w3.org/2000/svg">
<path d="M17.0494 0H6.9516C6.72209 -1.15097e-07 6.49484 0.0452328 6.28283 0.133113C6.07082 0.220993 5.87821 0.349797 5.716 0.512162C5.5538 0.674527 5.42519 0.867268 5.33752 1.07937C5.24985 1.29147 5.20485 1.51877 5.20508 1.74827V22.2535C5.20508 23.2173 5.9852 24 6.9516 24H17.0494C17.5125 23.9998 17.9566 23.8157 18.2841 23.4882C18.6116 23.1607 18.7957 22.7166 18.7959 22.2535V1.74827C18.7959 1.2849 18.612 0.840488 18.2845 0.512674C17.957 0.18486 17.5128 0.000463599 17.0494 0ZM9.50885 1.06173H14.4939C14.6198 1.06173 14.7222 1.24976 14.7222 1.4824C14.7222 1.71504 14.6198 1.90394 14.4939 1.90394H9.50885C9.38203 1.90394 9.28146 1.71504 9.28146 1.4824C9.28146 1.24976 9.38203 1.06173 9.50885 1.06173ZM12.0014 22.2745C11.7056 22.2745 11.422 22.157 11.2129 21.9479C11.0038 21.7388 10.8863 21.4551 10.8863 21.1594C10.8863 20.8637 11.0038 20.58 11.2129 20.3709C11.422 20.1618 11.7056 20.0443 12.0014 20.0443C12.2971 20.0443 12.5807 20.1618 12.7899 20.3709C12.999 20.58 13.1165 20.8637 13.1165 21.1594C13.1165 21.4551 12.999 21.7388 12.7899 21.9479C12.5807 22.157 12.2971 22.2745 12.0014 22.2745ZM17.4876 18.4535H6.51431V2.94993H17.4876V18.4535Z" fill="#FF3B30"/>
</svg>
