<svg width="24" height="24" viewBox="0 0 24 24" fill="none" xmlns="http://www.w3.org/2000/svg">
<path d="M11.2507 11.6714C11.2382 11.6698 11.2258 11.6683 11.2118 11.6683C11.1977 11.6683 11.1853 11.6698 11.1728 11.6714C11.0107 11.6901 10.886 11.8288 10.886 11.994C10.886 12.1732 11.0325 12.3197 11.2118 12.3197C11.391 12.3197 11.5375 12.1732 11.5375 11.994C11.5375 11.8288 11.4128 11.6901 11.2507 11.6714ZM7.77539 0.078125H14.6544V4.00228H7.77539V0.078125Z" fill="#AF52DE"/>
<path d="M16.0898 11.7339H16.6945C16.6322 10.4185 16.1054 9.22166 15.2732 8.30686L14.8477 8.73231C14.7963 8.78374 14.7293 8.80867 14.6623 8.80867C14.5953 8.80867 14.5283 8.78374 14.4768 8.73231C14.374 8.62945 14.374 8.46426 14.4768 8.3614L14.9023 7.93595C13.9875 7.10374 12.7922 6.57543 11.4753 6.51465V7.11932C11.4753 7.26426 11.3584 7.38114 11.2135 7.38114C11.0685 7.38114 10.9516 7.26426 10.9516 7.11932V6.51465C9.63632 6.57699 8.43943 7.10374 7.52463 7.93595L7.95008 8.3614C8.05294 8.46426 8.05294 8.62945 7.95008 8.73231C7.89866 8.78374 7.83164 8.80867 7.76463 8.80867C7.69762 8.80867 7.6306 8.78374 7.57918 8.73231L7.15372 8.30686C6.32151 9.22166 5.7932 10.417 5.73242 11.7339H6.3371C6.48203 11.7339 6.59892 11.8508 6.59892 11.9957C6.59892 12.1406 6.48203 12.2575 6.3371 12.2575H5.73242C5.79476 13.5728 6.32151 14.7697 7.15372 15.6845L7.57918 15.2591C7.68203 15.1562 7.84723 15.1562 7.95008 15.2591C8.05294 15.3619 8.05294 15.5271 7.95008 15.63L7.52463 16.0554C8.43943 16.8876 9.63476 17.4144 10.9516 17.4767V16.8721C10.9516 16.7271 11.0685 16.6102 11.2135 16.6102C11.3584 16.6102 11.4753 16.7271 11.4753 16.8721V17.4767C12.7906 17.4144 13.9875 16.8876 14.9023 16.0554L14.4768 15.63C14.374 15.5271 14.374 15.3619 14.4768 15.2591C14.5797 15.1562 14.7449 15.1562 14.8477 15.2591L15.2732 15.6845C16.1054 14.7697 16.6337 13.5744 16.6945 12.2575H16.0898C15.9449 12.2575 15.828 12.1406 15.828 11.9957C15.8264 11.8508 15.9449 11.7339 16.0898 11.7339ZM13.5402 14.324C13.4888 14.3754 13.4218 14.4004 13.3548 14.4004C13.2877 14.4004 13.2207 14.3754 13.1693 14.324L11.5984 12.7531C11.4831 12.8123 11.3506 12.8466 11.2119 12.8466C10.7428 12.8466 10.3626 12.4648 10.3626 11.9972C10.3626 11.6201 10.6103 11.2991 10.9501 11.1884V9.18738C10.9501 9.04244 11.067 8.92556 11.2119 8.92556C11.3568 8.92556 11.4737 9.04244 11.4737 9.18738V11.1869C11.815 11.2975 12.0613 11.6185 12.0613 11.9957C12.0613 12.1344 12.027 12.2653 11.9677 12.3822L13.5387 13.9531C13.6431 14.0559 13.6431 14.2211 13.5402 14.324Z" fill="#AF52DE"/>
<path d="M15.9604 4.51504V2.93945H15.1797V4.26413C15.1797 4.40439 15.069 4.51971 14.9288 4.52595H7.50746C7.36253 4.52595 7.24564 4.40906 7.24564 4.26413V2.93945H6.46642V4.51504C6.46642 5.31919 6.1672 6.07504 5.62175 6.64231C4.23629 8.08854 3.47266 9.98984 3.47266 11.994C3.47266 13.9982 4.23629 15.8995 5.62175 17.3457C6.16564 17.913 6.46642 18.6688 6.46642 19.473V21.0485H7.24564V19.7379C7.24564 19.6459 7.29396 19.5649 7.36564 19.5182C7.3672 19.5166 7.37032 19.515 7.37188 19.5135C7.4124 19.487 7.46071 19.473 7.51214 19.473H14.9147C15.0114 19.473 15.0955 19.5244 15.1407 19.6023L15.1454 19.6117C15.1656 19.6491 15.1781 19.6927 15.1781 19.7379V21.0485H15.9589V19.473C15.9589 18.6688 16.2581 17.913 16.802 17.3457C17.9599 16.1363 18.683 14.6091 18.8903 12.9696C18.8903 12.9649 18.8919 12.9602 18.8919 12.9571C18.9308 12.6392 18.9511 12.3182 18.9511 11.994C18.9511 9.98984 18.1875 8.08854 16.802 6.64231C16.2597 6.07504 15.9604 5.31919 15.9604 4.51504ZM16.7521 14.3348C16.4498 15.0501 16.0166 15.6937 15.4633 16.2454C14.9116 16.7971 14.268 17.2304 13.5527 17.5343C12.8108 17.8475 12.0238 18.0065 11.2119 18.0065C10.3999 18.0065 9.61292 17.8475 8.8711 17.5343C8.15577 17.2319 7.51214 16.7987 6.96045 16.2454C6.40876 15.6937 5.97551 15.0501 5.67162 14.3348C5.35837 13.593 5.19941 12.8059 5.19941 11.994C5.19941 11.1821 5.35837 10.395 5.67162 9.65322C5.97395 8.9379 6.4072 8.29426 6.96045 7.74257C7.51214 7.19088 8.15577 6.75763 8.8711 6.45374C9.61292 6.14049 10.3999 5.98153 11.2119 5.98153C12.0238 5.98153 12.8108 6.14049 13.5527 6.45374C14.268 6.75608 14.9116 7.18932 15.4633 7.74257C16.015 8.29426 16.4482 8.9379 16.7521 9.65322C17.0654 10.395 17.2243 11.1821 17.2243 11.994C17.2243 12.8059 17.0654 13.593 16.7521 14.3348Z" fill="#AF52DE"/>
<path d="M7.77539 20.0024H14.6544V23.9219H7.77539V20.0024ZM19.3811 10.7344C19.4092 10.9136 19.4294 11.0944 19.445 11.2752C19.4653 11.5136 19.4762 11.7536 19.4762 11.9936C19.4762 12.2352 19.4653 12.4752 19.445 12.712C19.4294 12.8944 19.4076 13.0736 19.3811 13.2528C19.6741 13.2263 19.9468 13.0985 20.1572 12.8881C20.3956 12.6497 20.5281 12.3318 20.5281 11.9936C20.5281 11.3359 20.0232 10.7936 19.3811 10.7344Z" fill="#AF52DE"/>
</svg>
