<svg width="38" height="38" viewBox="0 0 38 38" fill="none" xmlns="http://www.w3.org/2000/svg">
<rect width="38" height="38" rx="5" fill="#0DC7EB" fill-opacity="0.1"/>
<path fill-rule="evenodd" clip-rule="evenodd" d="M12.7598 10.137V18.1149L17.6055 19.1848L22.6524 18.1149V10.137C22.6524 9.59735 22.2117 9.15625 21.6724 9.15625C18.9689 9.15625 16.3776 9.15625 13.7399 9.15625C13.2005 9.15625 12.7598 9.59735 12.7598 10.137Z" fill="#1C80B8"/>
<path fill-rule="evenodd" clip-rule="evenodd" d="M12.7598 10.137V18.1149H14.1834V10.137C14.1834 9.59735 14.6241 9.15625 15.1634 9.15625H13.7399C13.2005 9.15625 12.7598 9.59735 12.7598 10.137Z" fill="#24BEDC"/>
<path fill-rule="evenodd" clip-rule="evenodd" d="M16.2252 11.3248H19.0683C19.323 11.3248 19.5325 11.1151 19.5325 10.8589V9.15625H15.7598V10.8589C15.7598 11.1151 15.9692 11.3248 16.2252 11.3248V11.3248Z" fill="white"/>
<path fill-rule="evenodd" clip-rule="evenodd" d="M8.12305 19.0961V27.074L12.9687 28.1439L18.0157 27.074L18.8849 22.8097L18.0157 19.0961C17.8924 18.5701 17.5748 18.1152 17.0355 18.1152C14.3321 18.1152 11.7408 18.1152 9.10303 18.1152C8.56378 18.1152 8.12305 18.5563 8.12305 19.0961Z" fill="#04D0F8"/>
<path fill-rule="evenodd" clip-rule="evenodd" d="M8.12305 19.0961V27.074C8.51581 27.0631 8.995 27.0686 9.54651 27.0616V19.0961C9.54651 18.5563 9.98743 18.1152 10.5267 18.1152H9.10303C8.56378 18.1152 8.12305 18.5563 8.12305 19.0961Z" fill="#24BEDC"/>
<path fill-rule="evenodd" clip-rule="evenodd" d="M11.5968 20.2837H14.4399C14.6959 20.2837 14.9039 20.0741 14.9039 19.8179V18.1152H11.1328V19.8179C11.1328 20.0741 11.3408 20.2837 11.5968 20.2837Z" fill="white"/>
<path fill-rule="evenodd" clip-rule="evenodd" d="M18.0137 19.0961V27.074C19.0513 27.0453 20.895 28.148 22.8594 28.1439C24.4568 28.141 26.0707 27.0438 27.9063 27.0493V19.0961C27.9063 18.5563 27.4656 18.1152 26.9263 18.1152C24.2228 18.1152 21.6315 18.1152 18.9937 18.1152C18.4544 18.1152 18.0137 18.5563 18.0137 19.0961Z" fill="#04D0F8"/>
<path fill-rule="evenodd" clip-rule="evenodd" d="M18.0137 19.0961V27.074L19.4373 27.0616V19.0961C19.4373 18.5563 19.8781 18.1152 20.4173 18.1152H18.9937C18.4544 18.1152 18.0137 18.5563 18.0137 19.0961Z" fill="#24BEDC"/>
<path fill-rule="evenodd" clip-rule="evenodd" d="M21.4791 20.2837H24.3209C24.5767 20.2837 24.7862 20.0741 24.7862 19.8179V18.1152H21.0137V19.8179C21.0137 20.0741 21.2231 20.2837 21.4791 20.2837Z" fill="white"/>
<path fill-rule="evenodd" clip-rule="evenodd" d="M6.86646 27.0625C6.39001 27.0625 6 27.4529 6 27.9312C6 28.4078 6.39001 28.7982 6.86646 28.7982H29.1321C29.3225 28.7982 29.5003 28.7365 29.6428 28.631C29.859 28.4722 30 28.2173 30 27.9312C30 27.6433 29.859 27.3886 29.6428 27.2297C29.5003 27.1255 29.3225 27.0625 29.1321 27.0625H6.86646Z" fill="#1C80B8"/>
</svg>
