<svg width="25" height="24" viewBox="0 0 25 24" fill="none" xmlns="http://www.w3.org/2000/svg">
<path d="M11.5917 16.7929L12.0102 14.5571C12.0548 14.3165 12.04 14.0701 11.967 13.8351C11.894 13.6 11.7645 13.3819 11.5875 13.1959C11.4104 13.0098 11.19 12.8602 10.9416 12.7574C10.6932 12.6546 10.4226 12.6011 10.1486 12.6006H2.98695C2.71281 12.6006 2.44196 12.6538 2.19325 12.7564C1.94454 12.859 1.72392 13.0086 1.54675 13.1948C1.36958 13.381 1.24011 13.5994 1.16733 13.8346C1.09456 14.0699 1.08023 14.3164 1.12535 14.5571L1.54383 16.7929C1.70134 17.6334 2.18871 18.3969 2.91924 18.9476C3.64977 19.4984 4.57609 19.8006 5.53344 19.8006H7.60213C8.55948 19.8006 9.48581 19.4984 10.2163 18.9476C10.9469 18.3969 11.4342 17.6334 11.5917 16.7929ZM23.456 16.7929L23.8745 14.5571C23.919 14.3165 23.9043 14.0701 23.8313 13.8351C23.7583 13.6 23.6288 13.3819 23.4517 13.1959C23.2746 13.0098 23.0543 12.8602 22.8058 12.7574C22.5574 12.6546 22.2868 12.6011 22.0128 12.6006H14.8512C14.577 12.6006 14.3062 12.6538 14.0575 12.7564C13.8088 12.859 13.5881 13.0086 13.411 13.1948C13.2338 13.381 13.1043 13.5994 13.0316 13.8346C12.9588 14.0699 12.9445 14.3164 12.9896 14.5571L13.4081 16.7929C13.5656 17.6334 14.0529 18.3969 14.7835 18.9476C15.514 19.4984 16.4403 19.8006 17.3977 19.8006H19.4664C20.4237 19.8006 21.35 19.4984 22.0806 18.9476C22.8111 18.3969 23.2985 17.6334 23.456 16.7929Z" fill="#007AFF"/>
<path d="M13.7341 13.3879H11.2636C11.0553 13.3879 10.8557 13.4728 10.7084 13.624C10.5612 13.7752 10.4785 13.9802 10.4785 14.194C10.4785 14.4078 10.5612 14.6129 10.7084 14.7641C10.8557 14.9153 11.0553 15.0002 11.2636 15.0002H13.7341C13.9423 15.0002 14.142 14.9153 14.2892 14.7641C14.4365 14.6129 14.5192 14.4078 14.5192 14.194C14.5192 13.9802 14.4365 13.7752 14.2892 13.624C14.142 13.4728 13.9423 13.3879 13.7341 13.3879ZM22.6823 12.9235L20.9048 5.62503C20.8383 5.35179 20.7129 5.09738 20.5378 4.88058C20.3627 4.66377 20.1425 4.4901 19.8933 4.37238C19.6441 4.25466 19.3723 4.1959 19.0981 4.20044C18.8238 4.20497 18.5541 4.27269 18.3087 4.39858L17.3823 4.87368C17.2892 4.92047 17.2061 4.9857 17.1377 5.06563C17.0693 5.14555 17.017 5.23859 16.9838 5.33937C16.9506 5.44016 16.9371 5.54669 16.9442 5.65284C16.9513 5.75898 16.9788 5.86264 17.025 5.95783C17.0713 6.05302 17.1355 6.13786 17.2139 6.20746C17.2922 6.27707 17.3833 6.33005 17.4817 6.36336C17.5801 6.39667 17.6839 6.40966 17.7872 6.40156C17.8906 6.39346 17.9913 6.36444 18.0836 6.31618L19.0101 5.84001C19.0452 5.82188 19.0838 5.81209 19.123 5.81137C19.1623 5.81064 19.2012 5.81901 19.2369 5.83584C19.2726 5.85266 19.3042 5.87753 19.3292 5.90858C19.3543 5.93963 19.3722 5.97608 19.3817 6.01521L21.1582 13.3148C21.2152 13.5149 21.3455 13.6846 21.5217 13.7883C21.6979 13.892 21.9063 13.9217 22.1033 13.8711C22.3004 13.8205 22.4707 13.6936 22.5786 13.517C22.6865 13.3404 22.7237 13.1277 22.6823 12.9235ZM3.8395 13.3148L5.61596 6.01521C5.62578 5.9763 5.64391 5.94011 5.66904 5.90929C5.69417 5.87846 5.72567 5.85377 5.76125 5.83699C5.79683 5.82022 5.8356 5.81179 5.87474 5.81231C5.91389 5.81283 5.95244 5.82229 5.98758 5.84001L6.91402 6.31618C7.00636 6.36444 7.1071 6.39346 7.21041 6.40156C7.31373 6.40966 7.41758 6.39667 7.51599 6.36336C7.6144 6.33005 7.70541 6.27707 7.78378 6.20746C7.86215 6.13786 7.92632 6.05302 7.97261 5.95783C8.01889 5.86264 8.04637 5.75898 8.05345 5.65284C8.06053 5.54669 8.04708 5.44016 8.01388 5.33937C7.98067 5.23859 7.92836 5.14555 7.85997 5.06563C7.79158 4.9857 7.70845 4.92047 7.61539 4.87368L6.68895 4.39858C6.44359 4.27269 6.17383 4.20497 5.89957 4.20044C5.62531 4.1959 5.35357 4.25466 5.10438 4.37238C4.8552 4.4901 4.63494 4.66377 4.45986 4.88058C4.28478 5.09738 4.15935 5.35179 4.09283 5.62503L2.31532 12.9235C2.27394 13.1277 2.31111 13.3404 2.41905 13.517C2.52698 13.6936 2.6973 13.8205 2.89432 13.8711C3.09135 13.9217 3.29979 13.892 3.47598 13.7883C3.65217 13.6846 3.78244 13.5149 3.8395 13.3148Z" fill="#007AFF"/>
</svg>
