<svg width="40" height="41" viewBox="0 0 40 41" fill="none" xmlns="http://www.w3.org/2000/svg">
<rect y="0.5" width="40" height="40" rx="8" fill="url(#paint0_linear_3486_182)"/>
<path d="M24.6586 23.8079L20.7161 25.1907C20.723 25.211 20.7286 25.2319 20.733 25.2534C20.7761 25.4663 20.7987 25.6871 20.7987 25.9134C20.7987 26.3089 20.5584 26.6826 20.1717 26.8038L17.3329 27.6936C16.6297 27.9141 15.8768 27.8365 15.2261 27.4795L12.8761 25.9727L13.4066 25.1286L15.7122 26.6083C16.128 26.8317 16.5994 26.8766 17.0398 26.7385L19.7406 25.8919V25.7584C19.6685 24.7777 18.9181 23.9918 17.9857 23.9918H16.8208C16.4504 23.9918 16.0846 23.8972 15.7525 23.715L13.4712 22.4636C13.2155 22.3233 12.933 22.25 12.6462 22.25H10.25V29.3223L17.1948 31.6587C17.7083 31.8315 18.2591 31.7573 18.7273 31.4511L27.75 25.5979C27.0349 23.6745 25.4503 23.5283 24.6586 23.8079Z" fill="white"/>
<path fill-rule="evenodd" clip-rule="evenodd" d="M16.3537 22.6191L15.4299 22.1123C14.6823 20.9205 14.25 19.5107 14.25 18C14.25 13.7198 17.7198 10.25 22 10.25C26.2802 10.25 29.75 13.7198 29.75 18C29.75 20.0487 28.9551 21.9118 27.6569 23.2976C27.364 23.0513 27.0454 22.8603 26.7112 22.7219C25.8258 22.3553 24.913 22.3928 24.2437 22.6288L20.3747 23.9858C19.8429 23.2489 19.003 22.7418 17.9857 22.7418H16.8208C16.6649 22.7418 16.5054 22.7023 16.3537 22.6191ZM20.1358 13.8393C20.4543 13.6005 20.8358 13.4281 21.25 13.3336V12.5H22.75V13.3345C23.5387 13.5151 24.2347 13.9803 24.5646 14.6803L23.2078 15.3197C23.0905 15.071 22.6684 14.75 22 14.75C21.5943 14.75 21.2559 14.8743 21.0358 15.0393C20.8159 15.2042 20.75 15.3748 20.75 15.5C20.75 15.6252 20.8159 15.7958 21.0358 15.9607C21.2559 16.1257 21.5943 16.25 22 16.25C22.6989 16.25 23.3604 16.4615 23.8642 16.8393C24.3682 17.2173 24.75 17.7968 24.75 18.5C24.75 19.2032 24.3682 19.7827 23.8642 20.1607C23.5457 20.3995 23.1642 20.5719 22.75 20.6664V21.5H21.25V20.6655C20.4613 20.4849 19.7653 20.0198 19.4354 19.3197L20.7922 18.6803C20.9095 18.929 21.3316 19.25 22 19.25C22.4057 19.25 22.7441 19.1257 22.9642 18.9607C23.1841 18.7958 23.25 18.6252 23.25 18.5C23.25 18.3748 23.1841 18.2042 22.9642 18.0393C22.7441 17.8743 22.4057 17.75 22 17.75C21.3011 17.75 20.6396 17.5385 20.1358 17.1607C19.6318 16.7827 19.25 16.2032 19.25 15.5C19.25 14.7968 19.6318 14.2173 20.1358 13.8393Z" fill="white"/>
<defs>
<linearGradient id="paint0_linear_3486_182" x1="31" y1="0.499999" x2="8.5" y2="39.5" gradientUnits="userSpaceOnUse">
<stop stop-color="#FFA872"/>
<stop offset="1" stop-color="#FF620D"/>
</linearGradient>
</defs>
</svg>
