<svg width="38" height="38" viewBox="0 0 38 38" fill="none" xmlns="http://www.w3.org/2000/svg">
<path d="M17.4234 6.32617C17.687 6.38391 17.9559 6.42626 18.2144 6.50324C19.833 6.9812 20.8178 8.10713 21.4093 9.63659C21.852 10.7792 21.8244 11.9507 21.63 13.1331C21.3914 14.583 20.8249 15.8821 19.8837 17.0215C19.7554 17.1781 19.7182 17.4289 19.6855 17.6432C19.6517 17.9052 19.6396 18.1696 19.6495 18.4336C19.6517 18.5684 19.6814 18.7014 19.7368 18.8243C19.8824 19.1348 20.0409 19.4402 20.2122 19.7372C20.2708 19.8216 20.3539 19.8859 20.4502 19.9214C21.4203 20.3095 22.3858 20.7111 23.3667 21.0678C24.3637 21.4297 25.3799 21.737 26.382 22.0879C26.6387 22.1777 26.8696 22.3445 27.1044 22.467C26.4988 22.7031 25.8951 22.868 25.3658 23.1651C24.8365 23.4621 24.3643 23.8977 23.8543 24.2833C23.6285 24.0863 23.3821 23.8599 23.1229 23.6475C20.268 21.3103 16.4912 22.8481 15.6533 26.1194C15.2113 27.8452 15.5892 29.4132 16.7709 30.7694C16.8011 30.804 16.8293 30.8393 16.8787 30.8977H6.32832V30.6571C6.32832 28.1521 6.32703 25.647 6.32446 23.142C6.32198 23.0467 6.33852 22.9519 6.37311 22.8631C6.4077 22.7743 6.45965 22.6933 6.52592 22.6249C6.79794 22.3278 7.1386 22.1572 7.51712 22.0244C9.30962 21.3969 11.0963 20.7535 12.8856 20.1177C13.277 19.9785 13.5747 19.759 13.7408 19.3529C13.891 18.9866 14.1521 18.6626 14.0744 18.2289C14.0611 18.1176 14.0583 18.0053 14.0661 17.8934C14.0818 17.4851 13.9446 17.0856 13.6812 16.7732C12.7002 15.5761 12.23 14.1705 12.0375 12.6468C11.8944 11.5099 11.9734 10.4122 12.4372 9.35944C13.1211 7.79918 14.2336 6.74062 15.9516 6.39995C16.0594 6.37878 16.1653 6.35119 16.2724 6.32617H17.4234Z" fill="#FCC705"/>
<path d="M30.9196 27.889C30.8702 28.0815 30.8246 28.274 30.7701 28.4607C30.3319 29.9664 29.018 30.9627 27.493 30.9076C26.616 30.8755 25.8846 30.4758 25.2533 29.8811C24.794 29.4493 24.3372 29.0143 23.8913 28.5922C23.3454 29.0964 22.8199 29.6257 22.2483 30.0998C20.1536 31.8359 17.5008 30.6086 16.9503 28.2669C16.6597 27.0262 16.9298 25.8964 17.7908 24.9437C18.9417 23.6695 20.8093 23.5233 22.1379 24.6126C22.6871 25.0617 23.1869 25.575 23.7053 26.0619C23.7554 26.1209 23.7984 26.1854 23.8336 26.2544C24.384 25.7411 24.8787 25.2625 25.39 24.8032C26.0566 24.204 26.8361 23.8466 27.7445 23.8966C29.1931 23.9762 30.1356 24.7743 30.6751 26.0824C30.7868 26.3519 30.8394 26.6444 30.9189 26.9267L30.9196 27.889ZM25.2046 27.4066C25.7929 27.9263 26.3068 28.46 26.9002 28.8822C27.5552 29.3479 28.3488 29.1349 28.8037 28.4677C28.9475 28.2597 29.0473 28.0247 29.0972 27.7768C29.147 27.5289 29.1458 27.2735 29.0937 27.0262C28.9096 26.0484 27.8747 25.1996 26.8085 25.9759C26.2478 26.382 25.7704 26.8959 25.2046 27.4066V27.4066ZM22.5639 27.4027C21.9936 26.8895 21.4983 26.3872 20.9421 25.9625C20.3057 25.4755 19.5307 25.6186 19.0296 26.2479C18.6755 26.697 18.5735 27.2103 18.6723 27.7639C18.8436 28.7263 19.8438 29.5783 20.8882 28.8706C21.4829 28.4671 21.9814 27.9205 22.5639 27.4027V27.4027Z" fill="#FCC705"/>
<rect width="38" height="38" rx="5" fill="#FCC705" fill-opacity="0.1"/>
</svg>
