<svg width="25" height="24" viewBox="0 0 25 24" fill="none" xmlns="http://www.w3.org/2000/svg">
<path fill-rule="evenodd" clip-rule="evenodd" d="M20.2266 9C20.7789 9 21.2266 9.44772 21.2266 10C21.2266 10.5523 20.7789 11 20.2266 11C19.7036 11 19.3012 11.2497 18.9941 11.6785C18.9093 11.7969 18.8349 11.9256 18.7714 12.0599C18.9475 12.0348 19.1314 12.0195 19.3182 12.0196C20.316 12.0195 21.3074 12.667 22.0136 13.5798C22.7408 14.5195 23.25 15.8349 23.25 17.3848C23.25 20.6682 20.3169 22.7503 17.5 22.7503C14.6832 22.7503 11.75 20.6682 11.75 17.3848C11.75 15.8349 12.2593 14.5195 12.9864 13.5798C13.6927 12.667 14.6841 12.0195 15.6819 12.0195C16.0184 12.0195 16.3452 12.0691 16.6345 12.1362C16.772 11.5713 17.0153 11.0066 17.3682 10.5139C17.9702 9.67339 18.9315 9 20.2266 9Z" fill="#34C759"/>
<path d="M13.6274 3.5C13.6274 4.01976 13.4449 4.48673 13.1467 4.85841C12.9791 5.06738 12.8952 5.17187 12.8863 5.26012C12.8773 5.34837 12.9275 5.44611 13.0277 5.64158C13.7716 7.09213 14.383 8.49067 14.775 9.9996C14.8433 10.2627 14.8775 10.3943 14.8226 10.4975C14.7677 10.6007 14.621 10.6524 14.3275 10.7559C13.2891 11.1221 12.4149 11.867 11.8 12.6615C10.8686 13.8652 10.25 15.5039 10.25 17.3845C10.25 19.1021 10.8553 20.5392 11.7997 21.6473C12.1685 22.0801 12.3529 22.2965 12.2828 22.466C12.2127 22.6356 11.9583 22.6563 11.4495 22.6976C11.0363 22.7311 10.5975 22.75 10.1728 22.75H6.82747C5.91753 22.75 5.13973 22.707 4.49163 22.5754C3.83816 22.4427 3.26433 22.2098 2.81205 21.7918C1.91069 20.9586 1.75 19.6296 1.75 18V13.7771C1.75 10.6245 2.65282 8.21494 3.97245 5.64169C4.07273 5.44614 4.12287 5.34837 4.11392 5.26012C4.10497 5.17187 4.02115 5.06738 3.85352 4.85841C3.55536 4.48673 3.3728 4.01976 3.3728 3.5C3.3728 2.20288 4.4918 1.25 5.7456 1.25H11.2546C12.5084 1.25 13.6274 2.20288 13.6274 3.5Z" fill="#34C759"/>
</svg>
