<svg width="25" height="24" viewBox="0 0 25 24" fill="none" xmlns="http://www.w3.org/2000/svg">
<path d="M14.8572 1.01133C14.6389 0.972965 14.4149 1.03311 14.2451 1.17561C14.0754 1.31811 13.9774 1.52839 13.9774 1.75001C13.9774 2.82338 13.2143 3.50988 12.2508 3.50988C11.201 3.50988 10.5086 2.68947 10.5086 1.77999C10.5086 1.55806 10.4103 1.34753 10.2402 1.20503C10.07 1.06252 9.84553 1.00269 9.62704 1.04162C9.26243 1.10659 8.51938 1.22232 7.85765 1.32318C7.52892 1.37329 7.22352 1.41924 7.00027 1.45266L6.63642 1.50692C6.45989 1.53307 6.29847 1.62131 6.18116 1.75578L2.68483 5.76362C2.42534 6.06107 2.44083 6.50875 2.72025 6.78756L5.24462 9.30645C5.51194 9.57319 5.93588 9.59957 6.23421 9.36804L7.15559 8.65297L7.39228 10.7339C7.40952 10.8855 7.53779 11 7.69036 11H16.8203C16.9732 11 17.1017 10.8849 17.1185 10.7329L17.3508 8.63191L18.2747 9.32699C18.5702 9.54929 18.9836 9.52306 19.2487 9.26519L21.773 6.80888C22.059 6.5306 22.077 6.07712 21.814 5.77702L18.3175 1.78748C18.2049 1.65893 18.0517 1.57272 17.8833 1.54313L14.8572 1.01133Z" fill="#FF9500"/>
<path d="M18.1782 12.6154C18.1224 12.5421 18.0352 12.5 17.943 12.5H6.56943C6.47834 12.5 6.39218 12.5409 6.3363 12.6128C4.62268 14.8185 3.55804 18.1181 3.45926 21.7295C3.45373 21.9319 3.53026 22.1279 3.67145 22.273C3.81265 22.4181 4.00652 22.5 4.20898 22.5H20.2655C20.4661 22.5 20.6584 22.4196 20.7993 22.2769C20.9402 22.1341 21.0181 21.9408 21.0155 21.7403C20.9748 18.5921 20.1777 16.1006 19.2515 14.3235C18.9023 13.6535 18.5336 13.0829 18.1782 12.6154Z" fill="#FF9500"/>
</svg>
