<svg width="25" height="24" viewBox="0 0 25 24" fill="none" xmlns="http://www.w3.org/2000/svg">
<g clip-path="url(#clip0_1885_172)">
<path d="M18.3185 6.2544H17.5548C17.4457 4.98168 16.9367 3.8544 16.0276 3.0544C15.0821 2.18168 13.8457 1.70895 12.5367 1.70895H12.4639C11.1912 1.70895 9.95484 2.18168 8.97302 3.0544C8.06393 3.8544 7.55484 5.01804 7.44575 6.2544H6.68211C6.7912 4.76349 7.40938 3.41804 8.46393 2.47259C9.55484 1.49077 10.973 0.945312 12.4639 0.945312H12.5367C14.0276 0.945312 15.4457 1.49077 16.5367 2.47259C17.5912 3.41804 18.2094 4.76349 18.3185 6.2544ZM14.5367 12.218H10.4639C10.2457 12.218 10.0639 12.3999 10.0639 12.618V14.8362C10.0639 15.0544 10.2457 15.2362 10.4639 15.2362H14.5003C14.7185 15.2362 14.9003 15.0544 14.9003 14.8362V12.618C14.9003 12.3999 14.7185 12.218 14.5367 12.218ZM14.5367 12.218H10.4639C10.2457 12.218 10.0639 12.3999 10.0639 12.618V14.8362C10.0639 15.0544 10.2457 15.2362 10.4639 15.2362H14.5003C14.7185 15.2362 14.9003 15.0544 14.9003 14.8362V12.618C14.9003 12.3999 14.7185 12.218 14.5367 12.218ZM14.5367 12.218H10.4639C10.2457 12.218 10.0639 12.3999 10.0639 12.618V14.8362C10.0639 15.0544 10.2457 15.2362 10.4639 15.2362H14.5003C14.7185 15.2362 14.9003 15.0544 14.9003 14.8362V12.618C14.9003 12.3999 14.7185 12.218 14.5367 12.218ZM14.5367 12.218H10.4639C10.2457 12.218 10.0639 12.3999 10.0639 12.618V14.8362C10.0639 15.0544 10.2457 15.2362 10.4639 15.2362H14.5003C14.7185 15.2362 14.9003 15.0544 14.9003 14.8362V12.618C14.9003 12.3999 14.7185 12.218 14.5367 12.218ZM24.0639 19.0544L22.3548 11.7817C22.2094 12.1089 22.0276 12.4362 21.8094 12.7271C21.0457 13.7089 19.8821 14.2544 18.6457 14.2544H16.5003C16.2821 14.2544 16.1003 14.0726 16.1003 13.8544C16.1003 13.6362 16.2821 13.4544 16.5003 13.4544H18.6457C19.6639 13.4544 20.573 13.018 21.1912 12.218C21.8094 11.418 22.0276 10.4362 21.8094 9.4544L21.4457 7.96349C21.3003 7.41804 20.8276 7.01804 20.2457 7.01804H4.75484C4.17302 7.01804 3.70029 7.41804 3.55484 7.96349L3.22757 9.4544C3.00938 10.4362 3.22757 11.4544 3.84575 12.218C4.46393 13.018 5.40938 13.4544 6.3912 13.4544H8.53666C8.75484 13.4544 8.93666 13.6362 8.93666 13.8544C8.93666 14.0726 8.75484 14.2544 8.53666 14.2544H6.3912C5.15484 14.2544 3.9912 13.7089 3.22757 12.7271C3.00938 12.4362 2.82757 12.1089 2.68211 11.7817L0.97302 19.0544C0.754839 20.0362 0.97302 21.0544 1.5912 21.818C2.20938 22.618 3.15484 23.0544 4.13666 23.0544H20.8639C21.8821 23.0544 22.7912 22.618 23.4094 21.818C24.0639 21.018 24.2821 20.0362 24.0639 19.0544ZM15.7003 14.8362C15.7003 15.4908 15.1912 15.9999 14.5367 15.9999H10.4639C9.80938 15.9999 9.30029 15.4908 9.30029 14.8362V12.618C9.30029 11.9635 9.80938 11.4544 10.4639 11.4544H14.5003C15.1548 11.4544 15.6639 11.9635 15.6639 12.618L15.7003 14.8362ZM14.5367 12.218H10.4639C10.2457 12.218 10.0639 12.3999 10.0639 12.618V14.8362C10.0639 15.0544 10.2457 15.2362 10.4639 15.2362H14.5003C14.7185 15.2362 14.9003 15.0544 14.9003 14.8362V12.618C14.9003 12.3999 14.7185 12.218 14.5367 12.218ZM14.5367 12.218H10.4639C10.2457 12.218 10.0639 12.3999 10.0639 12.618V14.8362C10.0639 15.0544 10.2457 15.2362 10.4639 15.2362H14.5003C14.7185 15.2362 14.9003 15.0544 14.9003 14.8362V12.618C14.9003 12.3999 14.7185 12.218 14.5367 12.218ZM14.5367 12.218H10.4639C10.2457 12.218 10.0639 12.3999 10.0639 12.618V14.8362C10.0639 15.0544 10.2457 15.2362 10.4639 15.2362H14.5003C14.7185 15.2362 14.9003 15.0544 14.9003 14.8362V12.618C14.9003 12.3999 14.7185 12.218 14.5367 12.218Z" fill="#5856D6"/>
</g>
<defs>
<clipPath id="clip0_1885_172">
<rect width="24" height="24" fill="white" transform="translate(0.5)"/>
</clipPath>
</defs>
</svg>
