<svg width="44" height="11" viewBox="0 0 44 11" fill="none" xmlns="http://www.w3.org/2000/svg">
<path fill-rule="evenodd" clip-rule="evenodd" d="M8.56324 8.51174C8.56324 9.19378 7.99327 9.74756 7.56408 9.74756H2.71249L8.81487 0.000245118H0.655315V1.61474H1.0747C1.0747 0.932205 1.5164 0.379162 1.94583 0.379162H6.13818L0 10.1262H8.85117L8.85166 8.51149L8.56324 8.51174ZM15.6753 9.81035C16.2674 9.81035 16.8427 9.5651 16.7132 9.33799L15.5789 7.08706H11.587L10.5466 9.34363C10.437 9.59747 10.8936 9.8101 11.3218 9.8101V10.1262H9.01916L9.01892 9.8101C9.61071 9.8101 10.0269 9.55038 10.1029 9.34584L14.4294 0L19.1508 9.33775C19.3016 9.583 19.7443 9.8101 20.4698 9.8101L20.4688 10.1262H15.6753V9.81035ZM11.7604 6.72262L13.4874 2.93224L15.4156 6.72262H11.7604ZM21.0201 0.391423C21.7228 0.391423 22.3018 0.572421 22.3018 0.791186C22.3018 2.52806 22.2979 9.32916 22.3018 9.32916C22.3018 9.56142 21.7294 9.82016 21.0272 9.82016L21.0262 10.1262H25.7194V9.84125C25.0219 9.84125 24.4573 9.5624 24.4573 9.33064V0.30485H25.8101C27.1139 0.30485 28.1692 1.38739 28.1692 2.61611C28.1692 3.84507 27.1129 4.84104 25.8092 4.84104H24.8728C24.8728 4.84104 28.0454 9.64382 28.0495 9.64382C28.1751 9.82531 28.2369 10.1262 28.2369 10.1262H31.657V9.84125C30.9987 9.84125 30.6544 9.56779 30.4638 9.32965L27.4092 5.34528C28.8751 5.24841 30.0106 4.06261 30.0106 2.65633C30.0106 1.18678 28.748 0.000245118 27.1892 0.000245118H21.0201V0.391423ZM38.6317 9.8204C39.2247 9.8204 39.7996 9.5651 39.6701 9.33799L38.5353 7.08706H34.5438L33.5035 9.34363C33.3943 9.59747 33.8507 9.84125 34.279 9.84125V10.1262H31.9758V9.82016C32.5678 9.82016 32.984 9.55038 33.0598 9.34584L37.3868 0L42.1084 9.33775C42.2587 9.583 42.7014 9.8307 43.4271 9.8307L43.4261 10.1262H38.6317V9.8204ZM34.7172 6.72262L36.444 2.93224L38.373 6.72262H34.7172Z" fill="#1C4882"/>
</svg>
