<svg width="25" height="25" viewBox="0 0 25 25" fill="none" xmlns="http://www.w3.org/2000/svg">
<path d="M23.0005 12.7326C23.0005 11.8693 22.9291 11.2393 22.7743 10.5859H12.7148V14.4826H18.6195C18.5005 15.4509 17.8577 16.9093 16.4291 17.8892L16.4091 18.0197L19.5897 20.4344L19.8101 20.4559C21.8338 18.6242 23.0005 15.9292 23.0005 12.7326Z" fill="#4285F4"/>
<path d="M12.714 23.0015C15.6068 23.0015 18.0353 22.0682 19.8092 20.4582L16.4282 17.8914C15.5235 18.5098 14.3092 18.9414 12.714 18.9414C9.88069 18.9414 7.47596 17.1098 6.61874 14.5781L6.49309 14.5886L3.18583 17.0969L3.14258 17.2148C4.90446 20.6448 8.5235 23.0015 12.714 23.0015Z" fill="#34A853"/>
<path d="M6.62095 14.5755C6.39477 13.9222 6.26386 13.2221 6.26386 12.4988C6.26386 11.7754 6.39477 11.0755 6.60905 10.4221L6.60306 10.283L3.25435 7.73438L3.14478 7.78545C2.41863 9.2088 2.00195 10.8072 2.00195 12.4988C2.00195 14.1905 2.41863 15.7888 3.14478 17.2121L6.62095 14.5755Z" fill="#FBBC05"/>
<path d="M12.7141 6.05997C14.7259 6.05997 16.083 6.91163 16.8569 7.62335L19.8807 4.73C18.0236 3.03834 15.6069 2 12.7141 2C8.52353 2 4.90447 4.35665 3.14258 7.78662L6.60686 10.4233C7.47598 7.89166 9.88073 6.05997 12.7141 6.05997Z" fill="#EB4335"/>
</svg>
