<svg width="150" height="51" viewBox="0 0 150 51" fill="none" xmlns="http://www.w3.org/2000/svg">
<g clip-path="url(#clip0_5666_3261)" filter="url(#filter0_d_5666_3261)">
<path fill-rule="evenodd" clip-rule="evenodd" d="M33.058 17.0287V26.7566L37.53 29.4341V17.0287C37.53 14.2554 36.1982 11.8754 33.8715 10.4892L28.0297 7.00872L23.0006 4.01277V9.34032L31.636 14.4854C32.5787 15.0475 33.058 15.9062 33.058 17.0287ZM26.659 1.03964L32.5008 4.52016L38.3426 8.00068C40.6693 9.38686 42.0011 11.7668 42.0011 14.5392V28.4613C42.0011 31.2336 40.6693 33.6136 38.3426 34.9998L32.5008 38.4803L26.659 41.9608C24.3324 43.347 21.6688 43.347 19.3422 41.9608L15.1134 39.4412C14.4578 39.0629 13.9134 38.5088 13.5377 37.8376C13.1621 37.1663 12.9693 36.4027 12.9795 35.6276V32.8425L21.5769 37.9647C22.5204 38.5259 23.4799 38.5259 24.4226 37.9647L26.5538 36.6953C27.1787 36.3352 27.6976 35.8075 28.0557 35.168C28.4137 34.5285 28.5976 33.8009 28.5877 33.0624V20.2947C28.5968 19.5937 28.422 18.9031 28.0821 18.2961C27.7421 17.6891 27.2495 17.1881 26.6564 16.8462L16.3417 10.6982C15.6962 10.3013 14.9588 10.0918 14.2074 10.0918C13.456 10.0918 12.7186 10.3013 12.0731 10.6982L9.89593 11.9968C8.95236 12.558 8.47306 13.4158 8.47306 14.5392V35.4844L7.66037 34.9998C5.33373 33.6136 4.00195 31.2336 4.00195 28.4613V14.5392C4.00195 11.7668 5.33373 9.38686 7.66037 8.00068L13.5022 4.52016L19.3431 1.03964C21.6688 -0.346546 24.3324 -0.346546 26.659 1.03964Z" fill="#003399"/>
<path fill-rule="evenodd" clip-rule="evenodd" d="M13.7983 28.0036L20.9612 32.2735H20.9674C22.1002 32.8831 24.0749 31.6639 24.0749 30.337V21.5253C24.0621 21.2419 23.9803 20.9664 23.8372 20.7242C23.6941 20.4819 23.4943 20.2807 23.2561 20.1391L16.0931 15.8702H16.0869C14.9523 15.266 12.9785 16.4715 12.9785 17.8002V26.6311C12.9928 26.9117 13.0751 27.1842 13.2181 27.4234C13.361 27.6625 13.5599 27.8608 13.7965 27.9999" fill="#FF6600"/>
<g clip-path="url(#clip1_5666_3261)">
<path fill-rule="evenodd" clip-rule="evenodd" d="M33.058 17.0287V26.7566L37.53 29.4341V17.0287C37.53 14.2554 36.1982 11.8754 33.8715 10.4892L28.0297 7.00872L23.0006 4.01277V9.34032L31.636 14.4854C32.5787 15.0475 33.058 15.9062 33.058 17.0287ZM26.659 1.03964L32.5008 4.52016L38.3426 8.00068C40.6693 9.38686 42.0011 11.7668 42.0011 14.5392V28.4613C42.0011 31.2336 40.6693 33.6136 38.3426 34.9998L32.5008 38.4803L26.659 41.9608C24.3324 43.347 21.6688 43.347 19.3422 41.9608L15.1134 39.4412C14.4578 39.0629 13.9134 38.5088 13.5377 37.8376C13.1621 37.1663 12.9693 36.4027 12.9795 35.6276V32.8425L21.5769 37.9647C22.5204 38.5259 23.4799 38.5259 24.4226 37.9647L26.5538 36.6953C27.1787 36.3352 27.6976 35.8075 28.0557 35.168C28.4137 34.5285 28.5976 33.8009 28.5877 33.0624V20.2947C28.5968 19.5937 28.422 18.9031 28.0821 18.2961C27.7421 17.6891 27.2495 17.1881 26.6564 16.8462L16.3417 10.6982C15.6962 10.3013 14.9588 10.0918 14.2074 10.0918C13.456 10.0918 12.7186 10.3013 12.0731 10.6982L9.89593 11.9968C8.95236 12.558 8.47306 13.4158 8.47306 14.5392V35.4844L7.66037 34.9998C5.33373 33.6136 4.00195 31.2336 4.00195 28.4613V14.5392C4.00195 11.7668 5.33373 9.38686 7.66037 8.00068L13.5022 4.52016L19.3431 1.03964C21.6688 -0.346546 24.3324 -0.346546 26.659 1.03964Z" fill="#C52127"/>
<path fill-rule="evenodd" clip-rule="evenodd" d="M13.7983 28.0036L20.9612 32.2735H20.9674C22.1002 32.8831 24.0749 31.6639 24.0749 30.337V21.5253C24.0621 21.2419 23.9803 20.9664 23.8372 20.7242C23.6941 20.4819 23.4943 20.2807 23.2561 20.1391L16.0931 15.8702H16.0869C14.9523 15.266 12.9785 16.4715 12.9785 17.8002V26.6311C12.9928 26.9117 13.0751 27.1842 13.2181 27.4234C13.361 27.6625 13.5599 27.8608 13.7965 27.9999" fill="#F68A3D"/>
</g>
</g>
<g filter="url(#filter1_d_5666_3261)">
<path d="M58.3608 30V12.5455H65.2472C66.571 12.5455 67.6989 12.7983 68.6307 13.304C69.5625 13.804 70.2727 14.5 70.7614 15.392C71.2557 16.2784 71.5028 17.3011 71.5028 18.4602C71.5028 19.6193 71.2528 20.642 70.7528 21.5284C70.2528 22.4148 69.5284 23.1051 68.5795 23.5994C67.6364 24.0937 66.4943 24.3409 65.1534 24.3409H60.7642V21.3835H64.5568C65.267 21.3835 65.8523 21.2614 66.3125 21.017C66.7784 20.767 67.125 20.4233 67.3523 19.9858C67.5852 19.5426 67.7017 19.0341 67.7017 18.4602C67.7017 17.8807 67.5852 17.375 67.3523 16.9432C67.125 16.5057 66.7784 16.1676 66.3125 15.929C65.8466 15.6847 65.2557 15.5625 64.5398 15.5625H62.0511V30H58.3608ZM89.9396 21.2727C89.9396 23.1761 89.5788 24.7955 88.8572 26.1307C88.1413 27.4659 87.1641 28.4858 85.9254 29.1903C84.6925 29.8892 83.3061 30.2386 81.7663 30.2386C80.2152 30.2386 78.8232 29.8864 77.5902 29.1818C76.3572 28.4773 75.3828 27.4574 74.6669 26.1222C73.951 24.7869 73.593 23.1705 73.593 21.2727C73.593 19.3693 73.951 17.75 74.6669 16.4148C75.3828 15.0795 76.3572 14.0625 77.5902 13.3636C78.8232 12.6591 80.2152 12.3068 81.7663 12.3068C83.3061 12.3068 84.6925 12.6591 85.9254 13.3636C87.1641 14.0625 88.1413 15.0795 88.8572 16.4148C89.5788 17.75 89.9396 19.3693 89.9396 21.2727ZM86.1982 21.2727C86.1982 20.0398 86.0135 19 85.6442 18.1534C85.2805 17.3068 84.7663 16.6648 84.1016 16.2273C83.4368 15.7898 82.6584 15.571 81.7663 15.571C80.8743 15.571 80.0959 15.7898 79.4311 16.2273C78.7663 16.6648 78.2493 17.3068 77.88 18.1534C77.5163 19 77.3345 20.0398 77.3345 21.2727C77.3345 22.5057 77.5163 23.5455 77.88 24.392C78.2493 25.2386 78.7663 25.8807 79.4311 26.3182C80.0959 26.7557 80.8743 26.9744 81.7663 26.9744C82.6584 26.9744 83.4368 26.7557 84.1016 26.3182C84.7663 25.8807 85.2805 25.2386 85.6442 24.392C86.0135 23.5455 86.1982 22.5057 86.1982 21.2727ZM102.142 17.5653C102.074 16.8778 101.781 16.3437 101.264 15.9631C100.747 15.5824 100.045 15.392 99.1591 15.392C98.5568 15.392 98.0483 15.4773 97.6335 15.6477C97.2188 15.8125 96.9006 16.0426 96.679 16.3381C96.4631 16.6335 96.3551 16.9688 96.3551 17.3438C96.3438 17.6562 96.4091 17.929 96.5511 18.1619C96.6989 18.3949 96.9006 18.5966 97.1562 18.767C97.4119 18.9318 97.7074 19.0767 98.0426 19.2017C98.3778 19.321 98.7358 19.4233 99.1165 19.5085L100.685 19.8835C101.446 20.054 102.145 20.2812 102.781 20.5653C103.418 20.8494 103.969 21.1989 104.435 21.6136C104.901 22.0284 105.261 22.517 105.517 23.0795C105.778 23.642 105.912 24.2869 105.918 25.0142C105.912 26.0824 105.639 27.0085 105.099 27.7926C104.565 28.571 103.793 29.1761 102.781 29.608C101.776 30.0341 100.563 30.2472 99.142 30.2472C97.733 30.2472 96.5057 30.0312 95.4602 29.5994C94.4205 29.1676 93.608 28.5284 93.0227 27.6818C92.4432 26.8295 92.1392 25.7756 92.1108 24.5199H95.6818C95.7216 25.1051 95.8892 25.5937 96.1847 25.9858C96.4858 26.3722 96.8864 26.6648 97.3864 26.8636C97.892 27.0568 98.4631 27.1534 99.0994 27.1534C99.7244 27.1534 100.267 27.0625 100.727 26.8807C101.193 26.6989 101.554 26.446 101.81 26.1222C102.065 25.7983 102.193 25.4261 102.193 25.0057C102.193 24.6136 102.077 24.2841 101.844 24.017C101.616 23.75 101.281 23.5227 100.838 23.3352C100.401 23.1477 99.8636 22.9773 99.2273 22.8239L97.3267 22.3466C95.8551 21.9886 94.6932 21.429 93.8409 20.6676C92.9886 19.9062 92.5653 18.8807 92.571 17.5909C92.5653 16.5341 92.8466 15.6108 93.4148 14.821C93.9886 14.0312 94.7756 13.4148 95.7756 12.9716C96.7756 12.5284 97.9119 12.3068 99.1847 12.3068C100.48 12.3068 101.611 12.5284 102.577 12.9716C103.548 13.4148 104.304 14.0312 104.844 14.821C105.384 15.6108 105.662 16.5256 105.679 17.5653H102.142ZM108.332 34.9091V16.9091H111.911V19.108H112.073C112.232 18.7557 112.462 18.3977 112.763 18.0341C113.07 17.6648 113.468 17.358 113.957 17.1136C114.451 16.8636 115.065 16.7386 115.798 16.7386C116.752 16.7386 117.633 16.9886 118.44 17.4886C119.246 17.983 119.891 18.7301 120.374 19.7301C120.857 20.7244 121.099 21.9716 121.099 23.4716C121.099 24.9318 120.863 26.1648 120.391 27.1705C119.925 28.1705 119.289 28.929 118.482 29.446C117.681 29.9574 116.783 30.2131 115.789 30.2131C115.085 30.2131 114.485 30.0966 113.991 29.8636C113.502 29.6307 113.102 29.3381 112.789 28.9858C112.477 28.6278 112.238 28.267 112.073 27.9034H111.962V34.9091H108.332ZM111.886 23.4545C111.886 24.233 111.994 24.9119 112.21 25.4915C112.425 26.071 112.738 26.5227 113.147 26.8466C113.556 27.1648 114.053 27.3239 114.638 27.3239C115.229 27.3239 115.729 27.1619 116.138 26.8381C116.548 26.5085 116.857 26.054 117.067 25.4744C117.283 24.8892 117.391 24.2159 117.391 23.4545C117.391 22.6989 117.286 22.0341 117.076 21.4602C116.866 20.8864 116.556 20.4375 116.147 20.1136C115.738 19.7898 115.235 19.6278 114.638 19.6278C114.048 19.6278 113.548 19.7841 113.138 20.0966C112.735 20.4091 112.425 20.8523 112.21 21.4261C111.994 22 111.886 22.6761 111.886 23.4545ZM123.519 30V16.9091H127.039V19.1932H127.175C127.414 18.3807 127.815 17.767 128.377 17.3523C128.94 16.9318 129.587 16.7216 130.32 16.7216C130.502 16.7216 130.698 16.733 130.908 16.7557C131.119 16.7784 131.303 16.8097 131.462 16.8494V20.071C131.292 20.0199 131.056 19.9744 130.755 19.9347C130.454 19.8949 130.178 19.875 129.928 19.875C129.394 19.875 128.917 19.9915 128.496 20.2244C128.082 20.4517 127.752 20.7699 127.508 21.179C127.269 21.5881 127.15 22.0597 127.15 22.5938V30H123.519ZM138.645 30.2557C137.321 30.2557 136.176 29.9744 135.21 29.4119C134.25 28.8437 133.509 28.054 132.986 27.0426C132.463 26.0256 132.202 24.8466 132.202 23.5057C132.202 22.1534 132.463 20.9716 132.986 19.9602C133.509 18.9432 134.25 18.1534 135.21 17.5909C136.176 17.0227 137.321 16.7386 138.645 16.7386C139.969 16.7386 141.111 17.0227 142.071 17.5909C143.037 18.1534 143.781 18.9432 144.304 19.9602C144.827 20.9716 145.088 22.1534 145.088 23.5057C145.088 24.8466 144.827 26.0256 144.304 27.0426C143.781 28.054 143.037 28.8437 142.071 29.4119C141.111 29.9744 139.969 30.2557 138.645 30.2557ZM138.662 27.4432C139.264 27.4432 139.767 27.2727 140.17 26.9318C140.574 26.5852 140.878 26.1136 141.082 25.517C141.293 24.9205 141.398 24.2415 141.398 23.4801C141.398 22.7188 141.293 22.0398 141.082 21.4432C140.878 20.8466 140.574 20.375 140.17 20.0284C139.767 19.6818 139.264 19.5085 138.662 19.5085C138.054 19.5085 137.543 19.6818 137.128 20.0284C136.719 20.375 136.409 20.8466 136.199 21.4432C135.994 22.0398 135.892 22.7188 135.892 23.4801C135.892 24.2415 135.994 24.9205 136.199 25.517C136.409 26.1136 136.719 26.5852 137.128 26.9318C137.543 27.2727 138.054 27.4432 138.662 27.4432Z" fill="white"/>
</g>
<defs>
<filter id="filter0_d_5666_3261" x="0" y="0" width="46" height="51" filterUnits="userSpaceOnUse" color-interpolation-filters="sRGB">
<feFlood flood-opacity="0" result="BackgroundImageFix"/>
<feColorMatrix in="SourceAlpha" type="matrix" values="0 0 0 0 0 0 0 0 0 0 0 0 0 0 0 0 0 0 127 0" result="hardAlpha"/>
<feOffset dy="4"/>
<feGaussianBlur stdDeviation="2"/>
<feComposite in2="hardAlpha" operator="out"/>
<feColorMatrix type="matrix" values="0 0 0 0 0 0 0 0 0 0 0 0 0 0 0 0 0 0 0.25 0"/>
<feBlend mode="normal" in2="BackgroundImageFix" result="effect1_dropShadow_5666_3261"/>
<feBlend mode="normal" in="SourceGraphic" in2="effect1_dropShadow_5666_3261" result="shape"/>
</filter>
<filter id="filter1_d_5666_3261" x="54.3613" y="12.3066" width="94.7266" height="30.6025" filterUnits="userSpaceOnUse" color-interpolation-filters="sRGB">
<feFlood flood-opacity="0" result="BackgroundImageFix"/>
<feColorMatrix in="SourceAlpha" type="matrix" values="0 0 0 0 0 0 0 0 0 0 0 0 0 0 0 0 0 0 127 0" result="hardAlpha"/>
<feOffset dy="4"/>
<feGaussianBlur stdDeviation="2"/>
<feComposite in2="hardAlpha" operator="out"/>
<feColorMatrix type="matrix" values="0 0 0 0 0 0 0 0 0 0 0 0 0 0 0 0 0 0 0.25 0"/>
<feBlend mode="normal" in2="BackgroundImageFix" result="effect1_dropShadow_5666_3261"/>
<feBlend mode="normal" in="SourceGraphic" in2="effect1_dropShadow_5666_3261" result="shape"/>
</filter>
<clipPath id="clip0_5666_3261">
<rect width="38" height="43" fill="white" transform="translate(4)"/>
</clipPath>
<clipPath id="clip1_5666_3261">
<rect width="38" height="43" fill="white" transform="translate(4)"/>
</clipPath>
</defs>
</svg>
