<svg width="16" height="17" viewBox="0 0 16 17" fill="none" xmlns="http://www.w3.org/2000/svg">
<path fill-rule="evenodd" clip-rule="evenodd" d="M3.75723 3.92867C3.60439 4.12327 3.44009 4.3323 3.31139 4.4647C3.05477 4.72872 2.6327 4.73472 2.36868 4.47809C2.10466 4.22147 2.09866 3.7994 2.35529 3.53538C2.42321 3.4655 2.53719 3.32339 2.70868 3.10507C2.72105 3.08931 2.73363 3.07329 2.7464 3.05702C2.89835 2.86345 3.07747 2.63525 3.26211 2.41735C3.4598 2.18405 3.68301 1.93935 3.90755 1.74811C4.02009 1.65227 4.14857 1.55628 4.28815 1.48159C4.42243 1.40973 4.61153 1.33337 4.83334 1.33337C5.05515 1.33337 5.24426 1.40973 5.37854 1.48159C5.51811 1.55628 5.6466 1.65227 5.75914 1.74811C5.98367 1.93935 6.20689 2.18405 6.40457 2.41735C6.58921 2.63525 6.76834 2.86345 6.92027 3.05703C6.93307 3.0733 6.94561 3.08932 6.95801 3.10507C7.12947 3.32339 7.24347 3.4655 7.31141 3.53538C7.56801 3.7994 7.56201 4.22147 7.29801 4.47809C7.03401 4.73472 6.61191 4.72872 6.35529 4.4647C6.2266 4.3323 6.0623 4.12327 5.90945 3.92867C5.89763 3.91361 5.88575 3.89848 5.87381 3.88327C5.75411 3.73081 5.62851 3.57083 5.50001 3.41445V7.33337C5.50001 7.70157 5.20153 8.00004 4.83334 8.00004C4.46515 8.00004 4.16667 7.70157 4.16667 7.33337V3.41445C4.03817 3.57083 3.91258 3.7308 3.79289 3.88326C3.78094 3.89847 3.76906 3.91361 3.75723 3.92867Z" fill="#567DF4"/>
<path fill-rule="evenodd" clip-rule="evenodd" d="M2.18477 5.35303C2.16666 5.88146 2.16667 6.47865 2.16667 7.14926V10.1983C2.16666 11.2208 2.16665 12.0451 2.24284 12.701C2.32166 13.3796 2.48946 13.9611 2.88455 14.4537C3.02957 14.6345 3.19342 14.7992 3.37329 14.945C3.86331 15.3421 4.44178 15.5108 5.11691 15.59C5.76941 15.6666 6.70781 15.6666 7.72494 15.6666C8.10494 15.6672 8.44127 15.6676 8.7582 15.5552C8.82354 15.532 8.88761 15.5053 8.95007 15.4753C9.25327 15.3295 9.49081 15.0901 9.75914 14.8197L12.9477 11.6146C13.2593 11.3024 13.5358 11.0252 13.6851 10.6627C13.8345 10.3002 13.8339 9.90771 13.8333 9.46551L13.8331 7.14931C13.8332 5.9613 13.8332 5.00373 13.7325 4.25061C13.6279 3.46871 13.4041 2.81036 12.884 2.28749C12.3638 1.76461 11.7089 1.53972 10.931 1.43459C10.1818 1.33335 9.22921 1.33335 8.04734 1.33337C7.51547 1.33337 7.01087 1.33336 6.54839 1.34258C6.72961 1.52083 6.89714 1.70961 7.04034 1.87862L7.05181 1.89241L7.93961 2.98703C8.48567 3.58273 8.46214 4.50867 7.87881 5.07566C7.45627 5.48638 6.85381 5.59812 6.33334 5.41461V7.33337C6.33334 8.16177 5.66177 8.83337 4.83334 8.83337C4.00491 8.83337 3.33334 8.16177 3.33334 7.33337V5.41461C2.96048 5.54608 2.54551 5.52601 2.18477 5.35303ZM11.9674 10.7571C12.3795 10.3429 12.4497 10.256 12.4876 10.1641C11.5759 10.1641 11.1435 10.1646 10.5655 10.2423C9.96541 10.323 9.46021 10.4956 9.05894 10.8969C8.65761 11.2982 8.485 11.8034 8.40434 12.4034C8.32681 12.9802 8.32681 13.4176 8.32681 14.3256C8.44794 14.2891 8.54221 14.2002 8.89747 13.843L11.9674 10.7571Z" fill="#567DF4"/>
</svg>
