<svg width="24" height="24" viewBox="0 0 24 24" fill="none" xmlns="http://www.w3.org/2000/svg">
<rect width="24" height="24" rx="4" fill="#00A551" fill-opacity="0.1"/>
<path d="M19.9918 11.3127C19.9898 11.2823 19.9841 11.2533 19.9741 11.2247C19.9704 11.214 19.9678 11.2037 19.9631 11.1933C19.9471 11.1587 19.9268 11.126 19.8988 11.0983C19.8984 11.098 19.8984 11.098 19.8984 11.098L17.9961 9.19533V7.33333C17.9961 7.326 17.9924 7.31967 17.9918 7.31233C17.9898 7.283 17.9841 7.25467 17.9748 7.22667C17.9711 7.216 17.9684 7.20567 17.9634 7.19533C17.9471 7.16 17.9268 7.12633 17.8981 7.09767L14.8981 4.09767C14.8694 4.069 14.8358 4.04833 14.8001 4.03233C14.7901 4.02767 14.7801 4.025 14.7698 4.02167C14.7414 4.01167 14.7124 4.006 14.6821 4.00433C14.6758 4.00333 14.6698 4 14.6628 4H6.32943C6.14543 4 5.99609 4.14933 5.99609 4.33333V9.19533L4.09376 11.0977C4.09376 11.0977 4.09343 11.098 4.09309 11.0983C4.06509 11.1263 4.04509 11.159 4.02909 11.1933C4.02443 11.2037 4.02176 11.214 4.01809 11.2247C4.00809 11.2533 4.00209 11.2823 4.00043 11.3127C3.99976 11.32 3.99609 11.326 3.99609 11.3333V17.6667C3.99609 17.8507 4.14543 18 4.32943 18H5.99609V19.6667C5.99609 19.8507 6.14543 20 6.32943 20H17.6628C17.8468 20 17.9961 19.8507 17.9961 19.6667V18H19.6628C19.8468 18 19.9961 17.8507 19.9961 17.6667V11.3333C19.9961 11.326 19.9924 11.32 19.9918 11.3127ZM18.8581 11H17.9961V10.138L18.8581 11ZM16.8581 7H14.9961V5.138L16.8581 7ZM6.66276 4.66667H14.3294V7.33333C14.3294 7.51733 14.4788 7.66667 14.6628 7.66667H17.3294V9.33333V11H6.66276V9.33333V4.66667ZM5.99609 10.138V11H5.13409L5.99609 10.138ZM17.3294 19.3333H6.66276V18H17.3294V19.3333ZM19.3294 17.3333H4.66276V11.6667H6.32943H17.6628H19.3294V17.3333Z" fill="#00A551"/>
<path d="M11.8035 13.2951C11.8525 13.2497 11.9075 13.2167 11.9678 13.1957C12.0282 13.1751 12.0905 13.1647 12.1548 13.1647C12.3778 13.1647 12.5628 13.2534 12.7102 13.4311L13.0842 12.9437C12.9745 12.8154 12.8395 12.7181 12.6792 12.6517C12.5185 12.5857 12.3365 12.5527 12.1325 12.5527C11.9928 12.5527 11.8548 12.5764 11.7188 12.6234C11.5828 12.6707 11.4608 12.7434 11.3532 12.8417C11.2455 12.9401 11.1585 13.0637 11.0925 13.2127C11.0265 13.3621 10.9932 13.5407 10.9932 13.7484C10.9932 13.9147 11.0148 14.0571 11.0582 14.1761C11.1015 14.2954 11.1602 14.3991 11.2338 14.4877C11.3075 14.5767 11.3925 14.6531 11.4888 14.7174C11.5852 14.7817 11.6882 14.8401 11.7978 14.8931C11.9715 14.9801 12.1152 15.0744 12.2285 15.1764C12.3418 15.2784 12.3985 15.4164 12.3985 15.5901C12.3985 15.7677 12.3512 15.9054 12.2568 16.0037C12.1625 16.1021 12.0435 16.1511 11.8998 16.1511C11.7715 16.1511 11.6458 16.1207 11.5228 16.0604C11.3998 16.0001 11.2952 15.9167 11.2082 15.8111L10.8398 16.3097C10.9532 16.4421 11.1042 16.5514 11.2932 16.6384C11.4822 16.7254 11.6878 16.7687 11.9108 16.7687C12.0658 16.7687 12.2132 16.7424 12.3528 16.6894C12.4925 16.6364 12.6145 16.5581 12.7185 16.4541C12.8225 16.3504 12.9055 16.2227 12.9678 16.0717C13.0302 15.9207 13.0615 15.7467 13.0615 15.5504C13.0615 15.3804 13.0352 15.2331 12.9822 15.1084C12.9292 14.9837 12.8612 14.8761 12.7782 14.7854C12.6952 14.6947 12.6025 14.6174 12.5005 14.5531C12.3985 14.4887 12.2985 14.4321 12.2002 14.3831C12.0338 14.3001 11.8998 14.2121 11.7978 14.1194C11.6958 14.0271 11.6448 13.8957 11.6448 13.7257C11.6448 13.6274 11.6588 13.5424 11.6875 13.4707C11.7158 13.3991 11.7545 13.3404 11.8035 13.2951Z" fill="#00A551"/>
<path d="M9.0551 13.6181C9.1231 13.4857 9.2081 13.3811 9.3101 13.3034C9.4121 13.2261 9.5311 13.1874 9.6671 13.1874C9.91277 13.1874 10.1128 13.2987 10.2678 13.5217L10.6588 13.0457C10.5491 12.8871 10.4074 12.7654 10.2338 12.6801C10.0601 12.5951 9.85777 12.5527 9.62744 12.5527C9.40444 12.5527 9.20144 12.6047 9.0181 12.7084C8.83477 12.8124 8.6791 12.9577 8.55044 13.1447C8.4221 13.3321 8.32277 13.5547 8.2531 13.8134C8.1831 14.0724 8.14844 14.3547 8.14844 14.6607C8.14844 14.9667 8.18344 15.2481 8.2531 15.5051C8.32277 15.7621 8.4211 15.9837 8.54777 16.1707C8.67444 16.3581 8.8291 16.5044 9.01244 16.6101C9.19577 16.7157 9.40077 16.7687 9.62744 16.7687C9.87677 16.7687 10.0834 16.7197 10.2478 16.6214C10.4121 16.5231 10.5471 16.3947 10.6528 16.2361L10.2618 15.7771C10.1974 15.8754 10.1171 15.9584 10.0211 16.0264C9.9251 16.0944 9.81044 16.1284 9.67844 16.1284C9.53877 16.1284 9.41677 16.0897 9.31277 16.0121C9.20877 15.9347 9.1231 15.8301 9.05477 15.6977C8.98644 15.5654 8.93577 15.4097 8.90177 15.2301C8.86777 15.0507 8.85077 14.8611 8.85077 14.6607C8.85077 14.4567 8.86777 14.2651 8.90177 14.0854C8.9361 13.9061 8.9871 13.7504 9.0551 13.6181Z" fill="#00A551"/>
<path d="M14.6637 15.873H14.6467L13.9781 12.6543H13.2188L14.1991 16.6663H15.0604L16.0577 12.6543H15.3324L14.6637 15.873Z" fill="#00A551"/>
</svg>
