<svg width="24" height="24" viewBox="0 0 24 24" fill="none" xmlns="http://www.w3.org/2000/svg">
<rect width="24" height="24" rx="4" fill="#9A5DFC" fill-opacity="0.15"/>
<g clip-path="url(#clip0_1915_136)">
<path d="M14.2965 4C14.4306 4.09801 14.5768 4.18494 14.6975 4.29582C16.0448 5.53763 17.3859 6.78433 18.7346 8.02437C18.8215 8.09899 18.8901 8.18996 18.9358 8.29117C18.9815 8.39238 19.0032 8.50148 18.9996 8.61112C18.9938 12.5397 18.9925 16.4683 18.9957 20.3968C18.9957 20.8226 18.8041 21 18.3441 21H5.64733C5.20127 21 5.00674 20.8191 5.00674 20.4039C5.00674 15.1475 5.00515 9.89093 5.00195 4.63421C5.00195 4.33307 5.10305 4.12329 5.40058 4H14.2965ZM17.9076 19.9977V8.98012H14.2184C13.8221 8.98012 13.6147 8.78587 13.6147 8.41643C13.6147 7.33753 13.6147 6.25833 13.6147 5.17884V5.00853H6.08956V19.999L17.9076 19.9977ZM17.0538 7.98223L14.7061 5.80906V7.98223H17.0538Z" fill="#9A5DFC"/>
<path d="M12.0074 11.3051C13.179 11.3051 14.3505 11.3051 15.5218 11.3051C15.918 11.3051 16.125 11.4989 16.125 11.8688C16.125 13.8158 16.125 15.7628 16.125 17.7098C16.125 18.0877 15.9188 18.2766 15.5064 18.2766H8.49591C8.07572 18.2766 7.87305 18.0885 7.87305 17.6956V11.8879C7.87305 11.4887 8.07188 11.3051 8.50932 11.3051C9.67615 11.3045 10.8422 11.3045 12.0074 11.3051ZM8.95635 13.2854H11.4531V12.3097H8.95635V13.2854ZM15.0383 13.2951V12.3119H12.5522V13.2938L15.0383 13.2951ZM8.96353 14.2988V15.2812H11.4516V14.2988H8.96353ZM12.5517 14.2988V15.2812H15.0412V14.2979L12.5517 14.2988ZM8.96209 16.2946V17.2703H11.4535V16.2946H8.96209ZM15.0422 16.299H12.5498V17.2747H15.0412L15.0422 16.299Z" fill="#9A5DFC"/>
</g>
<defs>
<clipPath id="clip0_1915_136">
<rect width="14" height="17" fill="white" transform="translate(5 4)"/>
</clipPath>
</defs>
</svg>
