<svg width="24" height="24" viewBox="0 0 24 24" fill="none" xmlns="http://www.w3.org/2000/svg">
<rect width="24" height="24" rx="4" fill="#F13C3C" fill-opacity="0.1"/>
<path d="M19.9937 11.3127C19.9917 11.2823 19.986 11.2533 19.976 11.2247C19.9724 11.214 19.9697 11.2037 19.965 11.1933C19.949 11.1587 19.9287 11.126 19.9007 11.0983C19.9004 11.098 19.9004 11.098 19.9004 11.098L17.998 9.19533V7.33333C17.998 7.326 17.9944 7.31967 17.9937 7.31233C17.9917 7.283 17.986 7.25467 17.9767 7.22667C17.973 7.216 17.9704 7.20567 17.9654 7.19533C17.949 7.16 17.9287 7.12633 17.9 7.09767L14.9 4.09767C14.8714 4.069 14.8377 4.04833 14.802 4.032C14.792 4.02767 14.782 4.02467 14.772 4.02133C14.7434 4.01133 14.714 4.00567 14.684 4.00367C14.6774 4.00333 14.6714 4 14.6647 4H6.33138C6.14738 4 5.99805 4.14933 5.99805 4.33333V9.19533L4.09571 11.0977C4.09571 11.0977 4.09538 11.098 4.09505 11.0983C4.06705 11.1263 4.04705 11.159 4.03105 11.1933C4.02638 11.2037 4.02371 11.214 4.02005 11.2247C4.01005 11.2533 4.00405 11.2823 4.00238 11.3127C4.00171 11.32 3.99805 11.326 3.99805 11.3333V17.6667C3.99805 17.8507 4.14738 18 4.33138 18H5.99805V19.6667C5.99805 19.8507 6.14738 20 6.33138 20H17.6647C17.8487 20 17.998 19.8507 17.998 19.6667V18H19.6647C19.8487 18 19.998 17.8507 19.998 17.6667V11.3333C19.998 11.326 19.9944 11.32 19.9937 11.3127ZM18.86 11H17.998V10.138L18.86 11ZM16.86 7H14.998V5.138L16.86 7ZM6.66471 4.66667H14.3314V7.33333C14.3314 7.51733 14.4807 7.66667 14.6647 7.66667H17.3314V9.33333V11H6.66471V9.33333V4.66667ZM5.99805 10.138V11H5.13605L5.99805 10.138ZM17.3314 19.3333H6.66471V18H17.3314V19.3333ZM19.3314 17.3333H4.66471V11.6667H6.33138H17.6647H19.3314V17.3333Z" fill="#F13C3C"/>
<path d="M10.082 12.9063C9.97432 12.814 9.85265 12.7486 9.71632 12.711C9.58032 12.6733 9.44798 12.6543 9.31965 12.6543H8.20898V16.6663H8.87765V15.057H9.35365C9.49332 15.057 9.62932 15.0323 9.76165 14.9833C9.89398 14.9343 10.011 14.8586 10.113 14.7566C10.215 14.6546 10.297 14.5273 10.3597 14.374C10.422 14.221 10.4533 14.0426 10.4533 13.8386C10.4533 13.612 10.4183 13.423 10.3483 13.272C10.2783 13.121 10.1897 12.999 10.082 12.9063ZM9.65432 14.3346C9.55232 14.446 9.42198 14.5016 9.26332 14.5016H8.87798V13.2266H9.26332C9.42198 13.2266 9.55232 13.2756 9.65432 13.374C9.75632 13.4723 9.80732 13.629 9.80732 13.8443C9.80732 14.0596 9.75632 14.223 9.65432 14.3346Z" fill="#F13C3C"/>
<path d="M14.2402 16.6663H14.9259V14.9436H15.9516V14.36H14.9206V13.2663H16.0366V12.6543H14.2402V16.6663Z" fill="#F13C3C"/>
<path d="M12.0223 12.6543H11.0137V16.6663H12.0167C12.5343 16.6663 12.9263 16.4916 13.1927 16.1423C13.459 15.7926 13.592 15.3006 13.592 14.666C13.592 14.0313 13.459 13.5373 13.1927 13.184C12.9263 12.831 12.5363 12.6543 12.0223 12.6543ZM12.847 15.2806C12.8037 15.4566 12.742 15.603 12.663 15.72C12.5837 15.837 12.4893 15.925 12.3797 15.9833C12.27 16.042 12.151 16.0713 12.0227 16.0713H11.6997V13.2493H12.0227C12.151 13.2493 12.27 13.2786 12.3797 13.3373C12.4893 13.3956 12.5837 13.4836 12.663 13.6006C12.7423 13.7176 12.8037 13.865 12.847 14.0426C12.8903 14.2203 12.9123 14.428 12.9123 14.666C12.9123 14.9003 12.8903 15.105 12.847 15.2806Z" fill="#F13C3C"/>
</svg>
