<svg width="24" height="24" viewBox="0 0 24 24" fill="none" xmlns="http://www.w3.org/2000/svg">
<rect width="24" height="24" rx="4" fill="#FF8400" fill-opacity="0.1"/>
<path d="M7.56836 9.9V5H16.1872V9.9" stroke="#FF8400" stroke-linecap="round" stroke-linejoin="round"/>
<path d="M7.56826 16.2004H6.13179C5.75081 16.2004 5.38544 16.0529 5.11605 15.7903C4.84665 15.5278 4.69531 15.1717 4.69531 14.8004V11.3004C4.69531 10.9291 4.84665 10.573 5.11605 10.3104C5.38544 10.0479 5.75081 9.90039 6.13179 9.90039H17.6236C18.0046 9.90039 18.3699 10.0479 18.6393 10.3104C18.9087 10.573 19.0601 10.9291 19.0601 11.3004V14.8004C19.0601 15.1717 18.9087 15.5278 18.6393 15.7903C18.3699 16.0529 18.0046 16.2004 17.6236 16.2004H16.1871" stroke="#FF8400" stroke-linecap="round" stroke-linejoin="round"/>
<path d="M16.1872 13.4004H7.56836V19.0004H16.1872V13.4004Z" stroke="#FF8400" stroke-linecap="round" stroke-linejoin="round"/>
</svg>
