<svg width="561" height="387" viewBox="0 0 561 387" fill="none" xmlns="http://www.w3.org/2000/svg">
<g clip-path="url(#clip0_4206_1012)">
<path d="M32.2481 160.56L40.202 168.511C43.9414 172.218 49.9627 172.218 53.6698 168.511L61.6237 160.56C65.3308 156.853 65.3308 150.832 61.6237 147.124L53.6698 139.138C49.9627 135.431 43.9414 135.431 40.202 139.138L32.2481 147.124C28.541 150.832 28.541 156.853 32.2481 160.56ZM60.6832 60.5004L65.7445 65.5585C68.1233 67.9178 71.9532 67.9178 74.3125 65.5585L79.3739 60.5004C81.7332 58.1411 81.7332 54.3111 79.3739 51.9518L74.3125 46.8711C71.9532 44.5117 68.1233 44.5117 65.7445 46.8711L60.6832 51.9518C58.3238 54.3111 58.3238 58.1411 60.6832 60.5004ZM2.26802 95.1378L6.75727 99.627C8.86777 101.721 12.2678 101.721 14.3622 99.627L18.8514 95.1378C20.9458 93.0434 20.9458 89.6434 18.8514 87.5523L14.3622 83.0436C12.2678 80.9493 8.871 80.9493 6.75727 83.0436L2.26802 87.5523C0.173681 89.6434 0.173681 93.0434 2.26802 95.1378Z" fill="#FFEAEA"/>
<path d="M254.62 62.609C271.53 62.609 285.239 49.3604 285.239 33.0174C285.239 16.6744 271.53 3.42578 254.62 3.42578C237.709 3.42578 224 16.6744 224 33.0174C224 49.3604 237.709 62.609 254.62 62.609Z" fill="#FEF0F1"/>
<g opacity="0.5">
<path d="M268.999 39.9879L261.874 46.8741C261.853 46.8937 261.819 46.8937 261.798 46.8741L240.242 26.0415L247.367 19.1554C247.389 19.1357 247.422 19.1357 247.443 19.1554L268.999 39.9879Z" fill="#C52127"/>
<path d="M240.242 39.9879L247.367 46.8741C247.389 46.8937 247.422 46.8937 247.443 46.8741L268.999 26.0415L261.874 19.1554C261.853 19.1357 261.819 19.1357 261.798 19.1554L240.242 39.9879Z" fill="#C52127"/>
</g>
<path d="M232.182 129.414C232.182 129.414 239.535 180.065 252.896 191.821C252.896 191.821 193.225 201.129 171.316 192.645C149.407 184.162 187.168 140.879 187.168 140.879L232.182 129.414Z" fill="#030047"/>
<path d="M268.695 207.686C268.695 207.686 207.918 193.967 187.387 193.973C164.32 193.978 96.039 206.951 96.039 206.951L83.793 371.159H268.695V207.686Z" fill="#F7666B"/>
<path opacity="0.4" d="M230.271 266.833C235.199 266.833 239.194 262.839 239.194 257.911C239.194 252.983 235.199 248.988 230.271 248.988C225.343 248.988 221.348 252.983 221.348 257.911C221.348 262.839 225.343 266.833 230.271 266.833Z" fill="white"/>
<path opacity="0.4" d="M216.955 289.578C219.381 289.578 221.348 287.612 221.348 285.186C221.348 282.76 219.381 280.793 216.955 280.793C214.529 280.793 212.562 282.76 212.562 285.186C212.562 287.612 214.529 289.578 216.955 289.578Z" fill="white"/>
<path opacity="0.4" d="M244.549 311.725C247.508 311.725 249.906 309.327 249.906 306.369C249.906 303.41 247.508 301.012 244.549 301.012C241.591 301.012 239.193 303.41 239.193 306.369C239.193 309.327 241.591 311.725 244.549 311.725Z" fill="white"/>
<path opacity="0.4" d="M240.996 237.276C243.954 237.276 246.353 234.878 246.353 231.919C246.353 228.961 243.954 226.562 240.996 226.562C238.038 226.562 235.639 228.961 235.639 231.919C235.639 234.878 238.038 237.276 240.996 237.276Z" fill="white"/>
<path opacity="0.4" d="M170.662 288.382C175.462 288.382 179.353 284.491 179.353 279.691C179.353 274.891 175.462 271 170.662 271C165.862 271 161.971 274.891 161.971 279.691C161.971 284.491 165.862 288.382 170.662 288.382Z" fill="white"/>
<path opacity="0.4" d="M217.927 353.116C224.744 353.116 230.27 347.589 230.27 340.773C230.27 333.956 224.744 328.43 217.927 328.43C211.11 328.43 205.584 333.956 205.584 340.773C205.584 347.589 211.11 353.116 217.927 353.116Z" fill="white"/>
<path opacity="0.4" d="M162.729 349.658C168.591 349.658 173.343 344.906 173.343 339.044C173.343 333.182 168.591 328.43 162.729 328.43C156.867 328.43 152.115 333.182 152.115 339.044C152.115 344.906 156.867 349.658 162.729 349.658Z" fill="white"/>
<path opacity="0.4" d="M132.539 242.711C137.949 242.711 142.334 238.326 142.334 232.916C142.334 227.507 137.949 223.121 132.539 223.121C127.129 223.121 122.744 227.507 122.744 232.916C122.744 238.326 127.129 242.711 132.539 242.711Z" fill="white"/>
<path opacity="0.4" d="M128.015 306.371C134.166 306.371 139.152 301.385 139.152 295.234C139.152 289.084 134.166 284.098 128.015 284.098C121.865 284.098 116.879 289.084 116.879 295.234C116.879 301.385 121.865 306.371 128.015 306.371Z" fill="white"/>
<path d="M196.619 171.476L198.144 196.386C198.144 196.386 218.604 241.755 191.661 244.424C164.718 247.093 150.867 238.833 149.467 230.444C148.069 222.057 155.567 197.527 155.567 197.527L156.456 153.809L196.619 171.476Z" fill="white"/>
<path d="M181.713 246.018C160.668 246.018 149.726 238.531 148.406 230.621C147.024 222.328 153.817 199.592 154.495 197.357L155.384 153.789C155.392 153.428 155.578 153.094 155.882 152.9C156.187 152.706 156.569 152.676 156.898 152.822L197.056 170.487C197.425 170.648 197.676 171.006 197.7 171.408L199.213 196.121C200.396 198.792 211.672 225.062 204.045 238.253C201.594 242.495 197.463 244.932 191.772 245.495C188.196 245.853 184.843 246.018 181.713 246.018ZM157.506 155.45L156.65 197.551C156.647 197.65 156.631 197.75 156.602 197.844C156.529 198.087 149.195 222.226 150.536 230.268C151.932 238.649 166.475 245.835 191.557 243.351C196.518 242.861 200.089 240.782 202.173 237.179C209.491 224.523 197.285 197.106 197.161 196.829C197.107 196.71 197.075 196.581 197.067 196.452L195.583 172.199L157.506 155.45Z" fill="#030047"/>
<path d="M137.965 105.079L207.641 73.5977C208.807 74.6211 231.055 98.658 233.081 139.123C234.489 167.297 221.653 178.299 200.967 177.749C176.313 177.092 156.518 160.817 148.193 137.602C144.566 127.481 141.991 116.441 137.965 105.079Z" fill="white"/>
<path d="M202.414 178.846C201.927 178.846 201.434 178.84 200.935 178.827C176.581 178.178 155.98 162.519 147.176 137.963C145.372 132.932 143.853 127.763 142.245 122.294C140.637 116.818 138.97 111.157 136.948 105.437C136.762 104.909 137.009 104.324 137.521 104.093L207.197 72.6119C207.582 72.4368 208.035 72.5042 208.353 72.7843C208.59 72.9916 232.045 96.8104 234.159 139.069C234.875 153.365 231.953 163.976 225.476 170.607C220.13 176.077 212.376 178.846 202.414 178.846ZM139.309 105.652C141.205 111.106 142.786 116.479 144.316 121.685C145.916 127.125 147.427 132.261 149.21 137.235C157.707 160.936 177.548 176.045 200.995 176.669C211.1 176.939 218.762 174.388 223.933 169.099C229.971 162.915 232.688 152.851 232.004 139.177C230.13 101.709 210.634 78.4885 207.386 74.8957L139.309 105.652Z" fill="#030047"/>
<path d="M113.189 203.836L106.327 321.085L77.6789 306.482L51.5494 293.159L41.291 287.937L74.2693 225.118C78.5138 217.06 85.5781 210.844 94.1237 207.666L96.0385 206.96L113.189 203.836Z" fill="#F7666B"/>
<path opacity="0.4" d="M82.485 295.241C82.485 299.658 80.6429 303.644 77.6803 306.477L51.5508 293.154C52.5581 285.543 59.0622 279.688 66.9452 279.688C75.5338 279.688 82.485 286.652 82.485 295.241Z" fill="white"/>
<path opacity="0.4" d="M80.4994 259.487C84.8947 259.487 88.4578 255.924 88.4578 251.529C88.4578 247.133 84.8947 243.57 80.4994 243.57C76.1041 243.57 72.541 247.133 72.541 251.529C72.541 255.924 76.1041 259.487 80.4994 259.487Z" fill="white"/>
<path d="M106.324 322.161C106.157 322.161 105.987 322.121 105.833 322.043L40.7954 288.895C40.5396 288.763 40.3456 288.537 40.2568 288.259C40.1706 287.984 40.1975 287.686 40.3295 287.43L57.3021 255.109C57.5768 254.581 58.2285 254.376 58.7591 254.656C59.287 254.933 59.489 255.585 59.2143 256.113L42.7507 287.465L105.343 319.366L109.205 253.412C109.24 252.817 109.739 252.361 110.347 252.396C110.942 252.431 111.395 252.943 111.363 253.536L107.401 321.141C107.379 321.504 107.177 321.833 106.86 322.013C106.695 322.113 106.509 322.161 106.324 322.161Z" fill="#030047"/>
<path d="M405.629 340.335C402.865 349.788 397.153 357.76 389.658 363.37C382.176 368.98 372.912 372.233 363.054 372.233H211.648L211.747 371.368H150.528C148.613 371.08 147.062 369.672 146.154 368.118C145.535 367.067 145.22 365.858 145.335 364.579C145.564 361.342 148.328 358.694 151.581 358.81H162.661L142.071 358.71C139.712 358.71 137.439 357.544 136.23 355.503C136.216 355.489 136.216 355.473 136.2 355.46C135.581 354.409 135.266 353.2 135.379 351.921C135.608 348.684 138.371 346.036 141.624 346.152H162.658L131.234 346.052C129.319 345.764 127.765 344.356 126.86 342.799C126.241 341.749 125.925 340.539 126.039 339.26C126.267 336.023 129.031 333.561 132.284 333.677L162.658 333.389H140.574C138.659 333.101 137.105 331.692 136.2 330.138C135.581 329.088 135.266 327.879 135.379 326.599C135.608 323.362 138.371 320.9 141.624 321.016L179.351 320.728L164.56 313.333C163.595 312.743 162.847 311.964 162.286 311.03C161.322 309.376 161.107 307.276 161.826 305.361C163.237 301.577 167.638 299.923 171.206 301.808L218.284 315.649V315.635L294.181 318.398L319.459 248.098L387.14 290.629C403.614 301.286 411.139 321.501 405.629 340.335Z" fill="white"/>
<path d="M363.051 373.312H211.647C211.34 373.312 211.046 373.18 210.842 372.951C210.715 372.809 210.629 372.634 210.591 372.451H150.525C150.471 372.451 150.417 372.448 150.366 372.44C148.346 372.135 146.423 370.727 145.219 368.667C144.46 367.376 144.128 365.93 144.258 364.487C144.387 362.663 145.198 361.021 146.415 359.814L142.06 359.792C139.267 359.792 136.684 358.373 135.316 356.087C135.297 356.062 135.281 356.035 135.265 356.008C134.505 354.716 134.172 353.269 134.301 351.823C134.43 349.997 135.241 348.354 136.461 347.145L131.228 347.129C131.174 347.129 131.123 347.124 131.072 347.118C129.052 346.814 127.129 345.403 125.925 343.342C125.165 342.055 124.831 340.609 124.961 339.162C125.233 335.354 128.521 332.459 132.319 332.599L136.73 332.556C136.173 332.02 135.674 331.39 135.262 330.682C134.503 329.394 134.172 327.945 134.301 326.502C134.57 322.693 137.805 319.798 141.659 319.938L174.844 319.685L164.074 314.299C162.908 313.59 162.022 312.694 161.359 311.587C160.204 309.604 160.005 307.14 160.815 304.983C161.591 302.901 163.229 301.25 165.305 300.458C167.357 299.677 169.649 299.801 171.61 300.803L218.404 314.56L293.434 317.291L318.446 247.733C318.557 247.426 318.802 247.184 319.109 247.079C319.418 246.971 319.76 247.012 320.035 247.187L387.716 289.718C404.478 300.566 412.264 321.506 406.665 340.646C403.886 350.151 398.23 358.311 390.304 364.244C382.386 370.172 372.962 373.312 363.051 373.312ZM212.805 371.155H363.054C372.491 371.155 381.467 368.166 389.011 362.507C396.56 356.857 401.946 349.084 404.594 340.032C409.926 321.799 402.509 301.856 386.555 291.53L320.022 249.721L295.196 318.759C295.037 319.2 294.609 319.489 294.14 319.472L218.399 316.715C218.259 316.731 218.116 316.72 217.976 316.68L170.896 302.839C170.826 302.818 170.761 302.791 170.697 302.758C169.264 302.002 167.573 301.897 166.067 302.47C164.57 303.041 163.39 304.229 162.83 305.734C162.243 307.294 162.386 309.069 163.21 310.482C163.692 311.288 164.319 311.921 165.114 312.408L179.824 319.758C180.271 319.981 180.505 320.48 180.392 320.967C180.279 321.452 179.848 321.799 179.35 321.802L141.624 322.09C138.871 321.996 136.636 324.005 136.447 326.669C136.356 327.681 136.59 328.683 137.121 329.585C137.982 331.064 139.297 332.074 140.651 332.306H162.652C163.247 332.306 163.729 332.785 163.732 333.38C163.735 333.975 163.258 334.457 162.663 334.465L132.289 334.754C129.569 334.657 127.301 336.671 127.11 339.335C127.018 340.347 127.253 341.349 127.783 342.249C128.645 343.727 129.962 344.737 131.317 344.972L162.655 345.071C163.25 345.074 163.732 345.556 163.732 346.151C163.729 346.747 163.25 347.229 162.652 347.229H141.616C138.987 347.137 136.641 349.273 136.447 351.996C136.356 353.011 136.577 353.972 137.102 354.88C137.104 354.883 137.107 354.885 137.107 354.888C137.123 354.91 137.137 354.931 137.15 354.953C138.128 356.606 140.01 357.632 142.063 357.632L162.658 357.732C163.253 357.735 163.732 358.22 163.732 358.815C163.729 359.41 163.247 359.892 162.652 359.892H151.572C148.955 359.801 146.598 361.936 146.404 364.659C146.313 365.672 146.547 366.674 147.077 367.576C147.939 369.054 149.253 370.064 150.608 370.296H211.744C212.051 370.296 212.345 370.428 212.549 370.657C212.684 370.797 212.767 370.969 212.805 371.155Z" fill="#030047"/>
<path d="M268.694 207.691L331.769 248.989L294.174 318.388L230.488 284.346L268.694 207.691Z" fill="#F7666B"/>
<path opacity="0.4" d="M294.773 252.018C299.439 252.018 303.221 248.236 303.221 243.57C303.221 238.904 299.439 235.121 294.773 235.121C290.107 235.121 286.324 238.904 286.324 243.57C286.324 248.236 290.107 252.018 294.773 252.018Z" fill="white"/>
<path opacity="0.4" d="M285.619 289.578C288.045 289.578 290.012 287.612 290.012 285.186C290.012 282.76 288.045 280.793 285.619 280.793C283.193 280.793 281.227 282.76 281.227 285.186C281.227 287.612 283.193 289.578 285.619 289.578Z" fill="white"/>
<path opacity="0.4" d="M311.844 288.803C317.911 288.803 322.83 283.885 322.83 277.818C322.83 271.75 317.911 266.832 311.844 266.832C305.777 266.832 300.859 271.75 300.859 277.818C300.859 283.885 305.777 288.803 311.844 288.803Z" fill="white"/>
<path d="M294.176 319.468C294.004 319.468 293.832 319.428 293.67 319.342L269.442 306.393C268.917 306.113 268.717 305.458 269 304.933C269.28 304.408 269.935 304.209 270.46 304.489L293.74 316.934L330.349 249.351L299.768 229.327C299.269 229.001 299.129 228.33 299.455 227.832C299.784 227.334 300.449 227.194 300.95 227.52L332.361 248.088C332.829 248.395 332.986 249.011 332.719 249.504L295.127 318.903C294.93 319.264 294.559 319.468 294.176 319.468Z" fill="#030047"/>
<path d="M553.833 371.152H21.4746V373.31H553.833V371.152Z" fill="#030047"/>
<path d="M375.642 349.961V371.17H204.467C199.49 371.17 195.461 367.141 195.461 362.164V361.299C195.461 355.04 200.54 349.961 206.783 349.961H375.642Z" fill="#121535"/>
<path d="M487.847 248.988H326.088C318.636 248.988 311.989 253.669 309.479 260.685L269.945 371.166H461.599L499.431 265.441C502.302 257.423 496.361 248.988 487.847 248.988Z" fill="#121535"/>
<path d="M399.08 311.725C398.135 317.639 392.576 322.436 386.662 322.436C380.734 322.436 376.71 317.639 377.656 311.725C378.601 305.811 384.17 301.014 390.085 301.014C396.002 301.014 400.028 305.811 399.08 311.725ZM541.879 1.75H332.639C323.164 1.75 315.48 9.43102 315.48 18.9084V170.989C315.48 180.463 323.161 188.147 332.639 188.147H541.879C551.354 188.147 559.038 180.466 559.038 170.989V18.9084C559.035 9.43371 551.354 1.75 541.879 1.75Z" fill="white"/>
<path d="M164.813 128.509L167.221 132.931C167.221 132.931 177.819 120.575 179.868 106.769C179.868 106.769 221.726 115.051 233.199 94.6579C248.154 68.0759 190.733 46.4764 160.006 63.1312C126.217 81.445 122.333 122.713 113.249 149.966C104.165 177.218 90.2031 185.826 97.4855 195.387C105.993 206.558 153.461 190.711 153.461 190.711L154.267 151.202L164.813 128.509Z" fill="#030047"/>
<path d="M165.51 148.57C165.51 148.57 158.483 152.608 149.305 150.679C140.129 148.751 135.543 122.174 142.962 119.002C150.382 115.829 164.812 128.509 164.812 128.509" fill="white"/>
<path d="M154.371 152.282C152.72 152.282 150.948 152.124 149.084 151.733C143.194 150.497 139.232 140.912 138.36 132.086C137.63 124.701 139.192 119.439 142.54 118.009C150.485 114.61 164.915 127.16 165.526 127.699C165.973 128.092 166.019 128.773 165.626 129.221C165.23 129.668 164.551 129.713 164.101 129.32C160.229 125.919 148.949 117.616 143.388 119.994C141.023 121.004 139.895 125.668 140.506 131.876C141.293 139.834 144.883 148.647 149.528 149.624C158.166 151.44 164.909 147.674 164.977 147.634C165.491 147.34 166.151 147.518 166.447 148.035C166.743 148.552 166.566 149.21 166.049 149.506C165.806 149.646 161.117 152.282 154.371 152.282Z" fill="#030047"/>
<path d="M158.544 132.616C157.348 130.728 155.754 129.091 153.901 127.844C152.737 127.063 151.442 126.422 150.052 126.252C148.663 126.083 147.16 126.43 146.153 127.402C144.725 128.778 144.582 131.003 144.752 132.98C145.065 136.586 146.123 140.125 147.839 143.308" fill="white"/>
<path d="M147.838 144.385C147.453 144.385 147.082 144.181 146.888 143.817C145.11 140.52 144.001 136.804 143.675 133.068C143.419 130.098 143.982 127.989 145.401 126.621C146.573 125.492 148.356 124.951 150.182 125.175C151.571 125.347 152.985 125.923 154.501 126.941C156.47 128.266 158.183 130.025 159.457 132.031C159.775 132.535 159.627 133.2 159.123 133.521C158.619 133.841 157.954 133.69 157.634 133.187C156.521 131.431 155.024 129.89 153.3 128.732C152.075 127.908 150.968 127.445 149.92 127.316C148.735 127.17 147.607 127.491 146.901 128.172C145.98 129.061 145.63 130.599 145.827 132.88C146.126 136.324 147.149 139.75 148.789 142.791C149.072 143.316 148.875 143.97 148.35 144.253C148.186 144.345 148.011 144.385 147.838 144.385Z" fill="#030047"/>
<path d="M187.601 205.458L105.665 365.588C97.3404 379.223 81.9568 386.902 66.0561 385.358C38.9517 382.727 21.6074 355.235 30.9043 329.639L45.3049 289.992L70.6992 302.927L149.287 204.369C146.079 199.462 134.814 182.083 133.618 177.421C131.431 168.789 131.633 150.616 135.172 143.912C138.711 137.206 142.05 141.755 142.05 141.755C142.05 141.755 142.567 136.344 146.885 136.301C151.202 136.245 152.438 140.516 152.438 140.516C158.999 135.51 159.834 146.255 159.834 146.255C160.596 144.903 161.748 144.271 162.985 144.039C166.222 143.419 169.214 145.997 169.43 149.291C169.658 152.671 170.062 157.607 170.755 162.051C171.487 166.799 172.853 173.788 182.19 182.493C188.492 188.35 190.622 197.413 187.601 205.458Z" fill="white"/>
<path d="M70.0171 386.63C68.6678 386.63 67.3105 386.566 65.9531 386.434C52.6998 385.146 41.0221 377.95 33.9174 366.687C26.8127 355.424 25.3422 341.786 29.8883 329.27L44.2889 289.624C44.3939 289.333 44.6202 289.101 44.9084 288.988C45.1992 288.875 45.517 288.891 45.7944 289.031L70.405 301.565L147.959 204.305C142.497 195.93 133.679 182.003 132.575 177.688C130.469 169.369 130.367 150.705 134.221 143.407C135.632 140.732 137.261 139.31 139.06 139.176C139.973 139.108 140.762 139.388 141.387 139.757C142.087 137.64 143.719 135.249 146.876 135.219C150.003 135.184 151.985 137.183 152.922 138.898C154.455 138.028 155.863 137.869 157.118 138.432C159.149 139.34 160.108 141.933 160.552 143.881C161.193 143.439 161.939 143.137 162.79 142.978C164.578 142.636 166.375 143.081 167.853 144.223C169.415 145.429 170.382 147.25 170.512 149.221C170.851 154.209 171.295 158.472 171.826 161.887C172.464 166.024 173.533 172.946 182.933 181.707C189.574 187.88 191.807 197.352 188.615 205.838C188.602 205.876 188.586 205.913 188.567 205.951L106.631 366.081C98.821 378.876 84.7786 386.63 70.0171 386.63ZM45.9048 291.506L31.9217 330.008C27.6045 341.893 28.9996 354.842 35.746 365.537C42.4925 376.232 53.5805 383.064 66.1631 384.287C81.5521 385.782 96.6934 378.219 104.746 365.028L186.614 205.022C189.464 197.37 187.444 188.846 181.459 183.285C171.513 174.015 170.328 166.339 169.693 162.216C169.151 158.739 168.704 154.414 168.36 149.364C168.271 148.009 167.606 146.757 166.534 145.93C165.551 145.171 164.363 144.874 163.191 145.098C162.09 145.303 161.303 145.855 160.778 146.784C160.544 147.199 160.067 147.409 159.607 147.309C159.143 147.207 158.801 146.813 158.761 146.339C158.659 145.047 157.975 141.177 156.235 140.401C155.454 140.054 154.398 140.379 153.095 141.373C152.809 141.589 152.44 141.651 152.101 141.54C151.764 141.43 151.503 141.158 151.403 140.816C151.363 140.678 150.334 137.379 146.97 137.379C146.949 137.379 146.924 137.379 146.9 137.379C143.614 137.411 143.143 141.678 143.124 141.858C143.078 142.302 142.766 142.674 142.335 142.793C141.91 142.908 141.446 142.752 141.182 142.391C141.177 142.386 140.334 141.241 139.211 141.33C138.231 141.408 137.137 142.504 136.127 144.414C132.793 150.727 132.473 168.499 134.665 177.155C135.424 180.123 141.228 190.077 150.191 203.777C150.444 204.168 150.423 204.677 150.132 205.041L71.5442 303.599C71.2264 304 70.6662 304.118 70.211 303.887L45.9048 291.506Z" fill="#030047"/>
<path d="M59.7298 315.669C59.4632 315.669 59.1993 315.572 58.9919 315.376C58.5583 314.966 58.5367 314.285 58.9461 313.851L69.9209 302.187C70.3303 301.754 71.0144 301.732 71.4453 302.141C71.8789 302.551 71.9004 303.232 71.4911 303.666L60.5163 315.33C60.3035 315.556 60.0153 315.669 59.7298 315.669Z" fill="#030047"/>
<path d="M166.015 177.7C165.64 177.7 165.279 177.506 165.08 177.159C164.859 176.774 159.651 167.703 158.77 163.044C157.895 158.428 158.719 146.672 158.754 146.174C158.797 145.578 159.33 145.134 159.906 145.174C160.502 145.218 160.949 145.732 160.906 146.327C160.898 146.446 160.068 158.301 160.889 162.643C161.703 166.941 166.895 175.99 166.947 176.082C167.245 176.599 167.068 177.259 166.551 177.555C166.384 177.655 166.198 177.7 166.015 177.7Z" fill="#030047"/>
<path d="M155.849 180.337C155.429 180.337 155.031 180.09 154.856 179.68C154.64 179.174 149.571 167.184 149.019 160.987C148.4 154.044 151.26 140.847 151.384 140.287C151.511 139.702 152.098 139.336 152.669 139.462C153.25 139.589 153.619 140.165 153.493 140.747C153.466 140.882 150.581 154.181 151.171 160.793C151.696 166.65 156.792 178.713 156.846 178.834C157.08 179.384 156.824 180.017 156.275 180.248C156.135 180.308 155.989 180.337 155.849 180.337Z" fill="#030047"/>
<path d="M142.059 141.754C142.059 141.754 139.668 159.669 140.422 164.439C141.523 171.42 146.543 182.685 146.543 182.685" fill="white"/>
<path d="M146.544 183.764C146.132 183.764 145.739 183.524 145.559 183.123C145.351 182.657 140.466 171.647 139.353 164.607C138.586 159.738 140.891 142.35 140.988 141.612C141.066 141.022 141.592 140.605 142.2 140.686C142.79 140.764 143.205 141.308 143.127 141.898C143.102 142.075 140.767 159.711 141.486 164.27C142.556 171.027 147.479 182.132 147.53 182.245C147.772 182.789 147.527 183.427 146.983 183.669C146.841 183.734 146.692 183.764 146.544 183.764Z" fill="#030047"/>
<path d="M199.985 131.721C201.403 131.325 202.074 129.29 201.483 127.175C200.893 125.061 199.264 123.668 197.846 124.064C196.428 124.46 195.757 126.495 196.347 128.61C196.938 130.724 198.566 132.117 199.985 131.721Z" fill="#030047"/>
<path d="M193.949 121.323C196.037 119.411 199.234 119.031 202.061 120.361L193.949 121.323Z" fill="white"/>
<path d="M193.951 122.402C193.657 122.402 193.366 122.283 193.156 122.052C192.752 121.613 192.782 120.929 193.223 120.527C195.639 118.313 199.286 117.864 202.523 119.385C203.062 119.639 203.292 120.282 203.039 120.821C202.786 121.36 202.149 121.594 201.605 121.338C199.17 120.191 196.453 120.498 194.683 122.119C194.473 122.31 194.212 122.402 193.951 122.402Z" fill="#030047"/>
<path d="M221.932 129.342C223.35 128.946 224.021 126.911 223.43 124.797C222.84 122.682 221.211 121.289 219.793 121.685C218.375 122.081 217.704 124.116 218.294 126.231C218.885 128.345 220.513 129.739 221.932 129.342Z" fill="#030047"/>
<path d="M215.898 118.94C217.986 117.028 221.183 116.648 224.01 117.978L215.898 118.94Z" fill="white"/>
<path d="M215.899 120.023C215.606 120.023 215.315 119.904 215.105 119.673C214.701 119.234 214.73 118.55 215.172 118.148C217.588 115.935 221.237 115.485 224.472 117.006C225.01 117.26 225.242 117.903 224.989 118.442C224.736 118.981 224.097 119.215 223.553 118.959C221.116 117.812 218.399 118.119 216.632 119.74C216.422 119.929 216.161 120.023 215.899 120.023Z" fill="#030047"/>
<path d="M209.204 133.012C208.972 135.457 209.958 137.849 211.067 140.041C212.18 142.233 213.459 144.401 213.885 146.823C214.31 149.244 213.669 152.045 211.628 153.413" fill="white"/>
<path d="M211.63 154.491C211.283 154.491 210.941 154.324 210.733 154.011C210.402 153.516 210.534 152.845 211.03 152.514C212.737 151.369 213.16 148.924 212.823 147.006C212.492 145.121 211.59 143.387 210.634 141.547L210.106 140.526C208.98 138.31 207.865 135.673 208.126 132.907C208.183 132.315 208.713 131.876 209.303 131.935C209.898 131.992 210.332 132.517 210.278 133.112C210.068 135.328 211.046 137.61 212.031 139.551L212.549 140.556C213.537 142.457 214.56 144.423 214.948 146.635C215.511 149.815 214.442 152.829 212.228 154.31C212.045 154.431 211.835 154.491 211.63 154.491Z" fill="#030047"/>
<path d="M201.798 163.482C201.278 163.482 200.817 163.105 200.734 162.575C200.621 161.877 200.147 161.182 199.463 160.719C198.816 160.28 197.96 160.011 196.988 159.938C194.86 159.782 192.684 160.603 191.189 162.141C190.777 162.569 190.093 162.577 189.662 162.163C189.234 161.748 189.226 161.064 189.643 160.636C191.574 158.648 194.375 157.584 197.144 157.786C198.496 157.886 199.716 158.282 200.677 158.933C201.86 159.739 202.657 160.94 202.864 162.233C202.958 162.82 202.56 163.375 201.97 163.469C201.913 163.48 201.854 163.482 201.798 163.482Z" fill="#030047"/>
<path d="M268.693 315.306C268.098 315.306 267.613 314.824 267.613 314.226V241.49C267.613 240.895 268.095 240.41 268.693 240.41C269.288 240.41 269.773 240.892 269.773 241.49V314.226C269.773 314.821 269.288 315.306 268.693 315.306Z" fill="#030047"/>
<g opacity="0.4">
<path d="M286.325 360.716C286.204 360.716 286.077 360.694 285.956 360.651C285.396 360.446 285.105 359.827 285.31 359.267L317.222 271.511C319.85 264.288 326.777 259.438 334.461 259.438H476.891C480.139 259.438 483.075 260.965 484.941 263.625C486.807 266.286 487.244 269.561 486.14 272.61L474.766 304.021C474.561 304.581 473.942 304.869 473.385 304.667C472.824 304.465 472.534 303.846 472.735 303.286L484.109 271.875C484.971 269.497 484.629 266.941 483.174 264.864C481.715 262.785 479.425 261.595 476.891 261.595H334.461C327.682 261.595 321.568 265.877 319.25 272.249L287.338 360.005C287.179 360.444 286.764 360.716 286.325 360.716Z" fill="white"/>
</g>
<path d="M159.83 146.254C159.83 146.254 158.973 158.314 159.83 162.847C160.686 167.377 166.013 176.623 166.013 176.623" fill="white"/>
<path d="M152.436 140.516C152.436 140.516 149.481 154.03 150.093 160.89C150.637 166.987 155.848 179.257 155.848 179.257" fill="white"/>
<path d="M541.881 189.223H332.64C322.586 189.223 314.404 181.041 314.404 170.988V18.9076C314.404 8.85114 322.583 0.671875 332.64 0.671875H541.881C551.937 0.671875 560.116 8.85383 560.116 18.9076V170.988C560.116 181.044 551.937 189.223 541.881 189.223ZM332.64 2.82914C323.774 2.82914 316.564 10.0415 316.564 18.9076V170.988C316.564 179.854 323.776 187.066 332.64 187.066H541.881C550.747 187.066 557.959 179.854 557.959 170.988V18.9076C557.959 10.0415 550.747 2.82914 541.881 2.82914H332.64Z" fill="#FEC4C4"/>
<path d="M541.879 1.75H332.641C323.166 1.75 315.482 9.43102 315.482 18.9084V34.5694H559.037V18.9084C559.034 9.43371 551.353 1.75 541.879 1.75Z" fill="#FFEAEA"/>
<path d="M559.035 35.6447H315.48C314.885 35.6447 314.4 35.1626 314.4 34.5647V18.9037C314.4 8.84725 322.579 0.667969 332.636 0.667969H541.876C551.933 0.667969 560.112 8.84994 560.112 18.9037V34.5647C560.115 35.1626 559.633 35.6447 559.035 35.6447ZM316.56 33.4874H557.957V18.9064C557.957 10.0403 550.745 2.82793 541.879 2.82793H332.638C323.772 2.82793 316.56 10.0403 316.56 18.9064V33.4874Z" fill="#FEC4C4"/>
<path d="M339.575 24.7735C342.381 24.7735 344.657 22.4982 344.657 19.6915C344.657 16.8847 342.381 14.6094 339.575 14.6094C336.768 14.6094 334.492 16.8847 334.492 19.6915C334.492 22.4982 336.768 24.7735 339.575 24.7735Z" fill="#E89497"/>
<path d="M355.555 24.7735C358.362 24.7735 360.637 22.4982 360.637 19.6915C360.637 16.8847 358.362 14.6094 355.555 14.6094C352.748 14.6094 350.473 16.8847 350.473 19.6915C350.473 22.4982 352.748 24.7735 355.555 24.7735Z" fill="#E89497"/>
<path d="M371.533 24.7735C374.34 24.7735 376.616 22.4982 376.616 19.6915C376.616 16.8847 374.34 14.6094 371.533 14.6094C368.727 14.6094 366.451 16.8847 366.451 19.6915C366.451 22.4982 368.727 24.7735 371.533 24.7735Z" fill="#E89497"/>
<path d="M380.59 124.284H350.99V113.084L370.19 79.4846H386.19L366.99 113.084H380.59V101.084H394.99V113.084H400.59V124.284H394.99V135.484H380.59V124.284ZM445.421 94.6846C445.421 91.4846 443.821 89.8846 440.621 89.8846H431.821C428.621 89.8846 427.021 91.4846 427.021 94.6846V120.284C427.021 123.484 428.621 125.084 431.821 125.084H440.621C443.821 125.084 445.421 123.484 445.421 120.284V94.6846ZM459.821 120.284C459.821 125.884 458.541 129.964 455.981 132.524C453.474 135.031 449.421 136.284 443.821 136.284H428.621C423.021 136.284 418.941 135.031 416.381 132.524C413.874 129.964 412.621 125.884 412.621 120.284V94.6846C412.621 89.0846 413.874 85.0312 416.381 82.5246C418.941 79.9646 423.021 78.6846 428.621 78.6846H443.821C449.421 78.6846 453.474 79.9646 455.981 82.5246C458.541 85.0312 459.821 89.0846 459.821 94.6846V120.284ZM507.015 94.6846C507.015 91.4846 505.415 89.8846 502.215 89.8846H493.415C490.215 89.8846 488.615 91.4846 488.615 94.6846V120.284C488.615 123.484 490.215 125.084 493.415 125.084H502.215C505.415 125.084 507.015 123.484 507.015 120.284V94.6846ZM521.415 120.284C521.415 125.884 520.135 129.964 517.575 132.524C515.068 135.031 511.015 136.284 505.415 136.284H490.215C484.615 136.284 480.535 135.031 477.975 132.524C475.468 129.964 474.215 125.884 474.215 120.284V94.6846C474.215 89.0846 475.468 85.0312 477.975 82.5246C480.535 79.9646 484.615 78.6846 490.215 78.6846H505.415C511.015 78.6846 515.068 79.9646 517.575 82.5246C520.135 85.0312 521.415 89.0846 521.415 94.6846V120.284Z" fill="#C52127"/>
</g>
<defs>
<clipPath id="clip0_4206_1012">
<rect width="561" height="387" fill="white"/>
</clipPath>
</defs>
</svg>
