<svg width="782" height="326" viewBox="0 0 782 326" fill="none" xmlns="http://www.w3.org/2000/svg">
<g opacity="0.5">
<path fill-rule="evenodd" clip-rule="evenodd" d="M703.23 207.96C653.852 192.509 629.305 213.95 573.396 243.401C517.484 272.857 448.439 282.3 369.624 227.333C290.805 172.367 202.491 192.509 166.58 253.846C142.639 294.739 87.4326 318.588 0.959961 325.403H781.853C762.358 257.406 736.154 218.257 703.23 207.96Z" fill="#FFCCCC"/>
<path fill-rule="evenodd" clip-rule="evenodd" d="M0.959961 325.404C27.6823 244.98 79.9655 218.172 157.81 244.98C274.577 285.192 342.838 255.033 403.765 194.714C464.693 134.396 536.292 126.353 620.573 220.854C676.759 283.855 730.13 318.702 780.681 325.404H0.959961Z" fill="#FFE9E9"/>
</g>
<path fill-rule="evenodd" clip-rule="evenodd" d="M205.08 0H580.557C585.005 0 588.615 3.60758 588.615 8.05743V261.867C588.615 266.317 585.005 269.924 580.557 269.924H205.08C200.63 269.924 197.022 266.317 197.022 261.867V8.05743C197.022 3.60758 200.63 0 205.08 0Z" fill="#FFCBCD"/>
<path fill-rule="evenodd" clip-rule="evenodd" d="M217.97 48.3438H567.664C570.332 48.3438 572.498 50.5083 572.498 53.1782V245.751C572.498 248.421 570.332 250.586 567.664 250.586H217.97C215.3 250.586 213.136 248.421 213.136 245.751V53.1782C213.136 50.5083 215.3 48.3438 217.97 48.3438Z" fill="white"/>
<path fill-rule="evenodd" clip-rule="evenodd" d="M205.08 0H580.557C585.005 0 588.615 3.60758 588.615 8.05743V32.2297H197.022V8.05743C197.022 3.60758 200.63 0 205.08 0Z" fill="#FD787D"/>
<path d="M219.581 22.556C223.142 22.556 226.028 19.6703 226.028 16.1104C226.028 12.5501 223.142 9.66406 219.581 9.66406C216.021 9.66406 213.136 12.5501 213.136 16.1104C213.136 19.6703 216.021 22.556 219.581 22.556ZM240.531 22.556C244.091 22.556 246.977 19.6703 246.977 16.1104C246.977 12.5501 244.091 9.66406 240.531 9.66406C236.971 9.66406 234.085 12.5501 234.085 16.1104C234.085 19.6703 236.971 22.556 240.531 22.556ZM261.48 22.556C265.04 22.556 267.926 19.6703 267.926 16.1104C267.926 12.5501 265.04 9.66406 261.48 9.66406C257.92 9.66406 255.034 12.5501 255.034 16.1104C255.034 19.6703 257.92 22.556 261.48 22.556Z" fill="white"/>
<path fill-rule="evenodd" clip-rule="evenodd" d="M342.061 181.293H435.527C439.085 181.293 441.973 184.179 441.973 187.739C441.973 191.299 439.085 194.185 435.527 194.185H342.061C338.498 194.185 335.615 191.299 335.615 187.739C335.615 184.179 338.498 181.293 342.061 181.293ZM317.888 210.3H459.699C463.257 210.3 466.145 213.185 466.145 216.745C466.145 220.306 463.257 223.191 459.699 223.191H317.888C314.326 223.191 311.442 220.306 311.442 216.745C311.442 213.185 314.326 210.3 317.888 210.3Z" fill="#FFCBCD" fill-opacity="0.43"/>
<path d="M605.935 85.9458V151.587C605.935 154.554 608.341 156.959 611.306 156.959H681.245C684.21 156.959 686.616 154.554 686.616 151.587V85.9458C686.616 82.9794 684.21 80.5742 681.245 80.5742H611.306C608.341 80.5742 605.935 82.9794 605.935 85.9458Z" fill="#FD787D"/>
<path d="M608.62 85.9397C608.62 84.4567 609.823 83.2539 611.306 83.2539H681.244C682.727 83.2539 683.93 84.4567 683.93 85.9397V151.581C683.93 153.064 682.727 154.267 681.244 154.267H611.306C609.823 154.267 608.62 153.064 608.62 151.581V85.9397Z" fill="white"/>
<path d="M652.092 128.685L666.883 140.948C667.915 141.806 669.449 141.663 670.308 140.628C671.163 139.594 671.022 138.059 669.986 137.202L655.199 124.939C654.163 124.081 652.629 124.225 651.774 125.259C650.915 126.294 651.056 127.828 652.092 128.685Z" fill="#FD787D"/>
<path d="M657.507 134.766L666.106 141.895C667.658 143.182 669.961 142.967 671.246 141.415C672.531 139.863 672.316 137.562 670.765 136.276L662.166 129.146C660.614 127.859 658.315 128.074 657.03 129.626C655.741 131.178 655.956 133.479 657.507 134.766ZM639.532 133.635C650.284 133.635 658.999 124.92 658.999 114.169C658.999 103.418 650.284 94.7031 639.532 94.7031C628.784 94.7031 620.069 103.418 620.069 114.169C620.069 124.92 628.784 133.635 639.532 133.635Z" fill="#FFCBCD"/>
<path d="M639.533 128.761C631.467 128.761 624.931 122.225 624.931 114.162C624.931 106.099 631.467 99.5625 639.533 99.5625C647.595 99.5625 654.131 106.099 654.131 114.162C654.131 122.225 647.595 128.761 639.533 128.761Z" fill="white"/>
<path d="M98.9873 81.9107V147.552C98.9873 150.518 101.393 152.924 104.359 152.924H174.298C177.264 152.924 179.669 150.518 179.669 147.552V81.9107C179.669 78.9438 177.264 76.5391 174.298 76.5391H104.359C101.393 76.5391 98.9873 78.9438 98.9873 81.9107Z" fill="#FD787D"/>
<path d="M101.675 81.9085C101.675 80.425 102.878 79.2227 104.361 79.2227H174.3C175.783 79.2227 176.985 80.425 176.985 81.9085V147.55C176.985 149.033 175.783 150.235 174.3 150.235H104.361C102.878 150.235 101.675 149.033 101.675 147.55V81.9085Z" fill="white"/>
<path d="M140.641 124.865H132.416C132.209 123.892 132.139 122.919 132.139 121.807C132.139 118.539 133.453 114.993 137.393 112.004L140.918 109.362C142.784 107.971 143.406 106.303 143.406 104.495C143.406 101.784 141.402 99.1417 137.254 99.1417C133.245 99.1417 130.895 102.409 130.895 105.677C130.895 107.276 131.034 107.971 131.103 108.249L121.426 107.902C121.219 106.928 121.149 105.885 121.149 104.982C121.149 96.8474 127.163 89.9648 137.254 89.9648C148.452 89.9648 154.051 96.7086 154.051 103.661C154.051 109.223 151.493 113.046 147.346 116.175L144.719 118.122C142.3 119.929 140.641 121.737 140.641 124.865ZM130.826 135.016C130.826 131.679 133.453 128.968 136.771 128.968C140.088 128.968 142.784 131.679 142.784 135.016C142.784 138.284 140.088 140.995 136.771 140.995C133.453 140.995 130.826 138.284 130.826 135.016Z" fill="#FFCBCD"/>
<path d="M317.896 132.402H280.896V118.402L304.896 76.4023H324.896L300.896 118.402H317.896V103.402H335.896V118.402H342.896V132.402H335.896V146.402H317.896V132.402ZM398.935 95.4023C398.935 91.4023 396.935 89.4023 392.935 89.4023H381.935C377.935 89.4023 375.935 91.4023 375.935 95.4023V127.402C375.935 131.402 377.935 133.402 381.935 133.402H392.935C396.935 133.402 398.935 131.402 398.935 127.402V95.4023ZM416.935 127.402C416.935 134.402 415.335 139.502 412.135 142.702C409.001 145.836 403.935 147.402 396.935 147.402H377.935C370.935 147.402 365.835 145.836 362.635 142.702C359.501 139.502 357.935 134.402 357.935 127.402V95.4023C357.935 88.4023 359.501 83.3357 362.635 80.2023C365.835 77.0023 370.935 75.4023 377.935 75.4023H396.935C403.935 75.4023 409.001 77.0023 412.135 80.2023C415.335 83.3357 416.935 88.4023 416.935 95.4023V127.402ZM453.927 75.4023C463.06 75.4023 474.06 76.069 486.927 77.4023V90.9023C483.26 90.7023 480.127 90.5357 477.527 90.4023C474.993 90.2023 472.893 90.069 471.227 90.0023C469.627 89.869 468.027 89.7357 466.427 89.6023C463.76 89.469 461.293 89.4023 459.027 89.4023C454.96 89.4023 452.927 91.069 452.927 94.4023V103.402C459.393 102.069 465.06 101.402 469.927 101.402H476.927C481.46 101.402 485.093 102.769 487.827 105.502C490.56 108.236 491.927 111.869 491.927 116.402V129.402C491.927 135.469 490.393 140.002 487.327 143.002C484.26 145.936 479.46 147.402 472.927 147.402H453.927C447.393 147.402 442.593 145.936 439.527 143.002C436.46 140.002 434.927 135.469 434.927 129.402V94.4023C434.927 87.869 436.46 83.069 439.527 80.0023C442.593 76.9357 447.393 75.4023 453.927 75.4023ZM464.927 115.402C462.393 115.402 460.06 115.536 457.927 115.802C455.86 116.069 454.193 116.269 452.927 116.402V127.402C452.927 131.402 454.927 133.402 458.927 133.402H467.927C471.927 133.402 473.927 131.402 473.927 127.402V118.902C473.927 117.902 473.593 117.069 472.927 116.402C472.26 115.736 471.427 115.402 470.427 115.402H464.927Z" fill="#C52127"/>
</svg>
