<svg width="52" height="55" viewBox="0 0 52 55" fill="none" xmlns="http://www.w3.org/2000/svg">
<path fill-rule="evenodd" clip-rule="evenodd" d="M39.7609 21.4328V33.677L45.8804 37.047V21.4328C45.8804 17.9422 44.058 14.9467 40.8742 13.2019L32.8801 8.82112L25.9982 5.05023V11.7558L37.815 18.2317C39.105 18.9392 39.7609 20.0201 39.7609 21.4328ZM31.0044 1.30806L38.9985 5.68886L46.9925 10.0697C50.1764 11.8144 51.9988 14.81 51.9988 18.2994V35.8226C51.9988 39.3121 50.1764 42.3077 46.9925 44.0524L38.9985 48.4332L31.0044 52.814C27.8206 54.5587 24.1757 54.5587 20.9919 52.814L15.2051 49.6427C14.3079 49.1665 13.563 48.4691 13.049 47.6242C12.535 46.7793 12.2711 45.8182 12.2851 44.8427V41.3371L24.0499 47.7842C25.3411 48.4906 26.6541 48.4906 27.9441 47.7842L30.8604 46.1865C31.7156 45.7333 32.4257 45.069 32.9156 44.2641C33.4056 43.4592 33.6572 42.5434 33.6437 41.6139V25.5437C33.656 24.6613 33.417 23.7922 32.9517 23.0281C32.4865 22.2641 31.8125 21.6335 31.0008 21.2031L16.886 13.4649C16.0027 12.9654 14.9936 12.7017 13.9654 12.7017C12.9372 12.7017 11.928 12.9654 11.0448 13.4649L8.06544 15.0994C6.77424 15.8058 6.11836 16.8855 6.11836 18.2994V44.6623L5.00626 44.0524C1.82244 42.3077 0 39.3121 0 35.8226V18.2994C0 14.81 1.82244 11.8144 5.00626 10.0697L13.0003 5.68886L20.9931 1.30806C24.1757 -0.436673 27.8206 -0.436673 31.0044 1.30806Z" fill="#C52127"/>
</svg>
