<svg width="38" height="43" viewBox="0 0 38 43" fill="none" xmlns="http://www.w3.org/2000/svg">
<path fill-rule="evenodd" clip-rule="evenodd" d="M29.058 17.0287V26.7566L33.53 29.4341V17.0287C33.53 14.2554 32.1982 11.8754 29.8715 10.4892L24.0297 7.00872L19.0006 4.01277V9.34032L27.636 14.4854C28.5787 15.0475 29.058 15.9062 29.058 17.0287ZM22.659 1.03964L28.5008 4.52016L34.3426 8.00068C36.6693 9.38686 38.0011 11.7668 38.0011 14.5392V28.4613C38.0011 31.2336 36.6693 33.6136 34.3426 34.9998L28.5008 38.4803L22.659 41.9608C20.3324 43.347 17.6688 43.347 15.3422 41.9608L11.1134 39.4412C10.4578 39.0629 9.91336 38.5088 9.53774 37.8376C9.16213 37.1663 8.96927 36.4027 8.97954 35.6276V32.8425L17.5769 37.9647C18.5204 38.5259 19.4799 38.5259 20.4226 37.9647L22.5538 36.6953C23.1787 36.3352 23.6976 35.8075 24.0557 35.168C24.4137 34.5284 24.5976 33.8009 24.5877 33.0624V20.2947C24.5967 19.5937 24.422 18.9031 24.0821 18.2961C23.7421 17.6891 23.2495 17.1881 22.6564 16.8462L12.3417 10.6982C11.6962 10.3013 10.9588 10.0918 10.2074 10.0918C9.45603 10.0918 8.7186 10.3013 8.07312 10.6982L5.89593 11.9968C4.95236 12.558 4.47306 13.4158 4.47306 14.5392V35.4844L3.66037 34.9998C1.33373 33.6136 0.00195312 31.2336 0.00195312 28.4613V14.5392C0.00195312 11.7668 1.33373 9.38686 3.66037 8.00068L9.50217 4.52016L15.3431 1.03964C17.6688 -0.346546 20.3324 -0.346546 22.659 1.03964Z" fill="#C52127"/>
<path fill-rule="evenodd" clip-rule="evenodd" d="M9.79828 28.0036L16.9612 32.2735H16.9674C18.1002 32.8831 20.0749 31.6639 20.0749 30.337V21.5253C20.0621 21.2419 19.9803 20.9664 19.8372 20.7242C19.6941 20.4819 19.4943 20.2807 19.2561 20.1391L12.0931 15.8702H12.0869C10.9523 15.266 8.97852 16.4715 8.97852 17.8002V26.6311C8.99276 26.9117 9.07513 27.1842 9.21807 27.4234C9.361 27.6625 9.55991 27.8608 9.79651 27.9999" fill="#F68A3D"/>
</svg>
