<svg width="26" height="29" viewBox="0 0 26 29" fill="none" xmlns="http://www.w3.org/2000/svg">
<g clip-path="url(#clip0_1834_127)">
<path fill-rule="evenodd" clip-rule="evenodd" d="M19.8824 11.4845V18.0451L22.9422 19.8509V11.4845C22.9422 9.6141 22.031 8.00901 20.439 7.07414L16.442 4.72681L13.001 2.70629V6.29929L18.9095 9.76919C19.5544 10.1483 19.8824 10.7274 19.8824 11.4845ZM15.5042 0.701151L19.5012 3.04848L23.4982 5.39581C25.0901 6.33067 26.0013 7.93576 26.0013 9.8055V19.1948C26.0013 21.0645 25.0901 22.6696 23.4982 23.6045L19.5012 25.9518L15.5042 28.2992C13.9123 29.234 12.0898 29.234 10.4979 28.2992L7.60452 26.5999C7.15593 26.3448 6.78344 25.9711 6.52644 25.5184C6.26944 25.0656 6.13748 24.5507 6.14451 24.0279V22.1496L12.0269 25.6041C12.6725 25.9826 13.329 25.9826 13.974 25.6041L15.4322 24.748C15.8597 24.5052 16.2148 24.1492 16.4598 23.7179C16.7048 23.2866 16.8305 22.796 16.8238 22.2979V13.6871C16.83 13.2143 16.7104 12.7486 16.4778 12.3392C16.2452 11.9298 15.9082 11.592 15.5024 11.3614L8.44495 7.21508C8.0033 6.9474 7.49875 6.80608 6.98464 6.80608C6.47053 6.80608 5.96598 6.9474 5.52433 7.21508L4.03467 8.09086C3.38907 8.46936 3.06113 9.04788 3.06113 9.8055V23.9313L2.50508 23.6045C0.913172 22.6696 0.00195312 21.0645 0.00195312 19.1948V9.8055C0.00195312 7.93576 0.913172 6.33067 2.50508 5.39581L6.5021 3.04848L10.4985 0.701151C12.0898 -0.233717 13.9123 -0.233717 15.5042 0.701151Z" fill="#003399"/>
<path fill-rule="evenodd" clip-rule="evenodd" d="M6.70347 18.8868L11.6044 21.7665H11.6087C12.3838 22.1776 13.7349 21.3553 13.7349 20.4605V14.5177C13.7261 14.3266 13.6701 14.1408 13.5722 13.9774C13.4743 13.814 13.3376 13.6783 13.1746 13.5828L8.2736 10.7037H8.26936C7.49307 10.2963 6.14258 11.1093 6.14258 12.0054V17.9611C6.15232 18.1504 6.20868 18.3341 6.30648 18.4954C6.40428 18.6567 6.54037 18.7905 6.70226 18.8843" fill="#FF6600"/>
<g clip-path="url(#clip1_1834_127)">
<path fill-rule="evenodd" clip-rule="evenodd" d="M19.8824 11.4845V18.0451L22.9422 19.8509V11.4845C22.9422 9.6141 22.031 8.00901 20.439 7.07414L16.442 4.72681L13.001 2.70629V6.29929L18.9095 9.76919C19.5544 10.1483 19.8824 10.7274 19.8824 11.4845ZM15.5042 0.701151L19.5012 3.04848L23.4982 5.39581C25.0901 6.33067 26.0013 7.93576 26.0013 9.8055V19.1948C26.0013 21.0645 25.0901 22.6696 23.4982 23.6045L19.5012 25.9518L15.5042 28.2992C13.9123 29.234 12.0898 29.234 10.4979 28.2992L7.60452 26.5999C7.15593 26.3448 6.78344 25.9711 6.52644 25.5184C6.26944 25.0656 6.13748 24.5507 6.14451 24.0279V22.1496L12.0269 25.6041C12.6725 25.9826 13.329 25.9826 13.974 25.6041L15.4322 24.748C15.8597 24.5052 16.2148 24.1492 16.4598 23.7179C16.7048 23.2866 16.8305 22.796 16.8238 22.2979V13.6871C16.83 13.2143 16.7104 12.7486 16.4778 12.3392C16.2452 11.9298 15.9082 11.592 15.5024 11.3614L8.44495 7.21508C8.0033 6.9474 7.49875 6.80608 6.98464 6.80608C6.47053 6.80608 5.96598 6.9474 5.52433 7.21508L4.03467 8.09086C3.38907 8.46936 3.06113 9.04788 3.06113 9.8055V23.9313L2.50508 23.6045C0.913172 22.6696 0.00195312 21.0645 0.00195312 19.1948V9.8055C0.00195312 7.93576 0.913172 6.33067 2.50508 5.39581L6.5021 3.04848L10.4985 0.701151C12.0898 -0.233717 13.9123 -0.233717 15.5042 0.701151Z" fill="#C52127"/>
<path fill-rule="evenodd" clip-rule="evenodd" d="M6.70347 18.8868L11.6044 21.7665H11.6087C12.3838 22.1776 13.7349 21.3553 13.7349 20.4605V14.5177C13.7261 14.3266 13.6701 14.1408 13.5722 13.9774C13.4743 13.814 13.3376 13.6783 13.1746 13.5828L8.2736 10.7037H8.26936C7.49307 10.2963 6.14258 11.1093 6.14258 12.0054V17.9611C6.15232 18.1504 6.20868 18.3341 6.30648 18.4954C6.40428 18.6567 6.54037 18.7905 6.70226 18.8843" fill="#F68A3D"/>
</g>
</g>
<defs>
<clipPath id="clip0_1834_127">
<rect width="26" height="29" fill="white"/>
</clipPath>
<clipPath id="clip1_1834_127">
<rect width="26" height="29" fill="white"/>
</clipPath>
</defs>
</svg>
