<svg width="32" height="33" viewBox="0 0 32 33" fill="none" xmlns="http://www.w3.org/2000/svg">
<path d="M21.6139 5.27664C17.91 3.74437 17.0509 4.51317 0.0390625 9.07936L2.2727 10.0436C16.3767 6.25721 15.9771 6.48446 16.7125 6.38881C23.9944 5.43576 28.344 13.969 23.7116 19.5235C22.7152 20.7179 21.334 21.6542 19.5961 22.1209C15.2797 23.2766 15.7275 22.7743 15.6807 25.0227C15.7 24.2653 16.7378 24.1801 20.2521 23.2381C29.0056 20.8853 29.8924 8.7002 21.6139 5.27664Z" fill="white"/>
<path d="M8.50159 20.5C7.55221 22.3205 8.3913 23.3407 10.4987 32L10.9988 31C9.28509 23.9584 7.89862 20.6906 9.99877 19C9 19.5 8.87049 19.798 8.50159 20.5Z" fill="white"/>
<path d="M17.7861 11.481C17.3772 11.5116 17.4567 11.5197 0.0360938 16.201C0.0360938 26.8404 -0.115293 26.8811 0.497306 28.3288C2.32805 32.6631 6.71138 32 10.5 32C8.14749 23.2249 7.52025 22.2991 8.58013 20.4541C9.73032 18.4634 11.4603 18.5157 18.1132 16.5661C18.9645 16.3192 20.5926 15.9428 20.5321 13.9935C20.4908 12.599 19.2718 11.3852 17.7861 11.481Z" fill="white"/>
<path d="M26.0611 0.0215785C29.298 0.0215785 31.917 2.65415 31.917 5.88573V26.0471C31.917 28.4714 30.4461 30.5552 28.3403 31.4451C26.9284 32.0408 26.8161 31.9035 17.5655 31.9035C16.5609 28.2056 16.0997 26.5304 15.9072 25.6874C15.6247 24.4519 15.7205 24.4134 17.9801 23.8314C20.5719 23.1642 22.9718 22.7331 25.1106 20.1687C29.026 15.4769 27.7795 7.82709 21.6098 5.27658C17.906 3.74431 17.0469 4.51311 0.0350092 9.0793C0.0350092 6.42935 -0.607523 2.27018 3.61271 0.482617C5.11178 -0.151485 4.0354 0.0215785 26.0611 0.0215785Z" fill="#F93B42"/>
<path d="M7.44311 31.1952C4.41469 31.1952 2.31145 30.6621 1.19962 28.0322C0.774195 27.0329 0.765937 26.9065 0.787956 21.352C0.790709 20.1139 0.796042 18.6145 0.799139 16.7863C5.21102 15.6 8.46187 14.7245 10.8672 14.0761C17.1028 12.3954 17.613 12.2614 17.8387 12.2449C17.8769 12.242 17.9156 12.2394 17.9534 12.2394C18.9087 12.2394 19.7407 13.0546 19.7715 14.0159C19.8069 15.1933 19.0682 15.5012 18.0224 15.8002L17.8989 15.836C16.3391 16.2917 15.0293 16.6459 13.9775 16.9287C10.4277 17.8813 8.95904 18.2769 7.92118 20.075C6.89124 21.8596 7.18799 22.9333 8.61016 28.0758C8.86012 28.9598 9.14311 29.9782 9.45861 31.1561C9.28882 31.1596 9.11558 31.1613 8.94493 31.1678C8.44501 31.1812 7.93993 31.1952 7.44311 31.1952Z" fill="#F93B42"/>
<path d="M21.816 31.1515C20.7995 31.1485 19.5924 31.1454 18.1451 31.1432L18.0985 30.9725C17.2528 27.8509 16.8249 26.2858 16.6486 25.517C16.6238 25.4184 16.5714 25.1855 16.5579 25.0478C16.8053 24.9214 17.4969 24.7428 18.1668 24.5701L18.7684 24.4194C21.124 23.8259 23.562 23.2109 25.6957 20.6575C27.8152 18.1154 28.605 14.6614 27.8066 11.4184C27.038 8.30244 24.8856 5.80629 21.8979 4.57335C20.7395 4.09287 19.7678 3.79388 18.491 3.79388C16.4344 3.79388 13.7544 4.53258 7.28072 6.31429C5.43811 6.81937 3.29375 7.40978 0.776094 8.09085C0.710207 5.49629 0.649479 2.56387 3.90583 1.18574L4.03778 1.12759C4.74327 0.826025 4.89174 0.763062 10.2068 0.763062C11.4292 0.763062 12.9169 0.768393 14.7317 0.770973C17.5984 0.776306 21.2826 0.784565 26.0576 0.784565C28.8657 0.784565 31.153 3.07187 31.153 5.88594V26.0473C31.153 28.1007 29.929 29.9431 28.0368 30.742C27.2162 31.0907 26.9637 31.1564 23.8945 31.1564C23.307 31.1564 22.623 31.1533 21.816 31.1515Z" fill="#F93B42"/>
<path d="M1.64282 27.8455C1.17026 26.7304 1.2721 26.8374 1.28053 17.1513C1.57677 17.0718 17.6552 12.7167 17.9599 12.7167C18.6545 12.7167 19.278 13.332 19.3027 14.0322C19.3244 14.8067 18.9865 15.0289 17.8966 15.342C10.9557 17.3381 8.92382 17.393 7.51541 19.8361C6.23327 22.0603 6.83452 23.3261 8.8471 30.6957C5.37106 30.7827 2.86733 30.7361 1.64282 27.8455Z" fill="#F93B42"/>
<path d="M18.5127 30.6678C17.634 27.4359 17.2737 26.113 17.1015 25.3549C19.9235 24.4818 23.2456 24.339 26.0603 20.9648C30.5462 15.5889 28.9785 6.98103 22.0822 4.1341C18.0269 2.45371 16.7306 3.28255 1.24262 7.47011C1.1905 4.57605 1.57447 2.69851 4.227 1.56656C5.26468 1.12186 5.24834 1.26224 26.0603 1.26224C28.6057 1.26224 30.6783 3.33537 30.6783 5.88554V26.0469C30.6783 27.9083 29.5689 29.5778 27.8555 30.3019C26.7763 30.7611 26.7739 30.6756 18.5127 30.6678Z" fill="#F93B42"/>
<path d="M17.5113 31.9136C15.6797 25.3219 15.7022 25.5112 15.6693 25.0226C15.5979 23.757 18.1266 23.9765 21.4212 22.645C27.9232 20.1607 29.5047 10.1143 22.6899 6.0668C18.4813 3.63464 17.6406 4.62347 0.104245 9.11225L0.0276902 9.07922L0.0273438 9.0221C17.4426 4.04975 18.6699 3.26392 22.9128 5.69074C29.8867 9.74067 28.5712 20.3551 21.5478 22.9469C20.0707 23.5237 18.6159 23.7981 17.309 24.1497C15.5706 24.6166 15.7385 24.5972 16.2756 26.7057C16.3007 26.7935 16.8118 28.7954 17.6021 31.8928L17.5113 31.9136Z" fill="#F93B42"/>
<path d="M10.7602 18.6862C6.83994 20.5935 8.01868 22.5241 10.525 31.6852L10.4488 31.9034H10.3165C8.47456 24.8237 6.42912 21.2799 9.54269 19.2487C9.99462 18.9537 10.7602 18.6862 10.7602 18.6862Z" fill="white"/>
</svg>
