<svg width="117" height="33" viewBox="0 0 117 33" fill="none" xmlns="http://www.w3.org/2000/svg">
<path d="M21.6139 5.27664C17.91 3.74437 17.0509 4.51317 0.0390625 9.07936L2.2727 10.0436C16.3767 6.25721 15.9771 6.48446 16.7125 6.38881C23.9944 5.43576 28.344 13.969 23.7116 19.5235C22.7152 20.7179 21.334 21.6542 19.5961 22.1209C15.2797 23.2766 15.7275 22.7743 15.6807 25.0227C15.7 24.2653 16.7378 24.1801 20.2521 23.2381C29.0056 20.8853 29.8924 8.7002 21.6139 5.27664Z" fill="white"/>
<path d="M8.50159 20.5C7.55221 22.3205 8.3913 23.3407 10.4987 32L10.9988 31C9.28509 23.9584 7.89862 20.6906 9.99877 19C9 19.5 8.87049 19.798 8.50159 20.5Z" fill="white"/>
<path d="M17.7861 11.481C17.3772 11.5116 17.4567 11.5197 0.0360938 16.201C0.0360938 26.8404 -0.115293 26.8811 0.497306 28.3288C2.32805 32.6631 6.71139 32 10.5 32C8.14749 23.2249 7.52025 22.2991 8.58013 20.4541C9.73032 18.4634 11.4603 18.5157 18.1132 16.5661C18.9645 16.3192 20.5926 15.9428 20.5321 13.9935C20.4908 12.599 19.2718 11.3852 17.7861 11.481Z" fill="white"/>
<path d="M26.0611 0.0215785C29.298 0.0215785 31.917 2.65415 31.917 5.88573V26.0471C31.917 28.4714 30.4461 30.5552 28.3403 31.4451C26.9284 32.0408 26.8161 31.9035 17.5655 31.9035C16.5609 28.2056 16.0997 26.5304 15.9072 25.6874C15.6247 24.4519 15.7205 24.4134 17.9801 23.8314C20.5719 23.1642 22.9718 22.7331 25.1106 20.1687C29.026 15.4769 27.7795 7.82709 21.6098 5.27658C17.906 3.74431 17.0469 4.51311 0.0350092 9.0793C0.0350092 6.42935 -0.607523 2.27018 3.61271 0.482617C5.11178 -0.151485 4.0354 0.0215785 26.0611 0.0215785Z" fill="#F93B42"/>
<path d="M7.44311 31.1952C4.41469 31.1952 2.31145 30.6621 1.19962 28.0322C0.774195 27.0329 0.765937 26.9065 0.787956 21.352C0.790709 20.1139 0.796042 18.6145 0.799139 16.7863C5.21102 15.6 8.46187 14.7245 10.8672 14.0761C17.1028 12.3954 17.613 12.2614 17.8387 12.2449C17.8769 12.242 17.9156 12.2394 17.9534 12.2394C18.9087 12.2394 19.7407 13.0546 19.7715 14.0159C19.8069 15.1933 19.0682 15.5012 18.0224 15.8002L17.8989 15.836C16.3391 16.2917 15.0293 16.6459 13.9775 16.9287C10.4277 17.8813 8.95904 18.2769 7.92118 20.075C6.89124 21.8596 7.18799 22.9333 8.61016 28.0758C8.86012 28.9598 9.14311 29.9782 9.45861 31.1561C9.28882 31.1596 9.11558 31.1613 8.94493 31.1678C8.44501 31.1812 7.93993 31.1952 7.44311 31.1952Z" fill="#F93B42"/>
<path d="M21.816 31.1515C20.7995 31.1485 19.5924 31.1454 18.1451 31.1432L18.0985 30.9725C17.2528 27.8509 16.8249 26.2858 16.6486 25.517C16.6238 25.4184 16.5714 25.1855 16.5579 25.0478C16.8053 24.9214 17.4969 24.7428 18.1668 24.5701L18.7684 24.4194C21.124 23.8259 23.562 23.2109 25.6957 20.6575C27.8152 18.1154 28.605 14.6614 27.8066 11.4184C27.038 8.30244 24.8856 5.80629 21.8979 4.57335C20.7395 4.09287 19.7678 3.79388 18.491 3.79388C16.4344 3.79388 13.7544 4.53258 7.28072 6.31429C5.43811 6.81937 3.29375 7.40978 0.776094 8.09085C0.710207 5.49629 0.649479 2.56387 3.90583 1.18574L4.03778 1.12759C4.74327 0.826025 4.89174 0.763062 10.2068 0.763062C11.4292 0.763062 12.9169 0.768393 14.7317 0.770973C17.5984 0.776306 21.2826 0.784565 26.0576 0.784565C28.8657 0.784565 31.153 3.07187 31.153 5.88594V26.0473C31.153 28.1007 29.929 29.9431 28.0368 30.742C27.2162 31.0907 26.9637 31.1564 23.8945 31.1564C23.307 31.1564 22.623 31.1533 21.816 31.1515Z" fill="#F93B42"/>
<path d="M1.64282 27.8455C1.17026 26.7304 1.2721 26.8374 1.28053 17.1513C1.57677 17.0718 17.6552 12.7167 17.9599 12.7167C18.6545 12.7167 19.278 13.332 19.3027 14.0322C19.3244 14.8067 18.9865 15.0289 17.8966 15.342C10.9557 17.3381 8.92382 17.393 7.51541 19.8361C6.23327 22.0603 6.83452 23.3261 8.8471 30.6957C5.37106 30.7827 2.86733 30.7361 1.64282 27.8455Z" fill="#F93B42"/>
<path d="M18.5127 30.6678C17.634 27.4359 17.2737 26.113 17.1015 25.3549C19.9235 24.4818 23.2456 24.339 26.0603 20.9648C30.5462 15.5889 28.9785 6.98103 22.0822 4.1341C18.0269 2.45371 16.7306 3.28255 1.24262 7.47011C1.1905 4.57605 1.57447 2.69851 4.227 1.56656C5.26468 1.12186 5.24834 1.26224 26.0603 1.26224C28.6057 1.26224 30.6783 3.33537 30.6783 5.88554V26.0469C30.6783 27.9083 29.5689 29.5778 27.8555 30.3019C26.7763 30.7611 26.7739 30.6756 18.5127 30.6678Z" fill="#F93B42"/>
<path d="M17.5113 31.9136C15.6797 25.3219 15.7022 25.5112 15.6693 25.0226C15.5979 23.757 18.1266 23.9765 21.4212 22.645C27.9232 20.1607 29.5047 10.1143 22.6899 6.0668C18.4813 3.63464 17.6406 4.62347 0.104245 9.11225L0.0276902 9.07922L0.0273438 9.0221C17.4426 4.04975 18.6699 3.26392 22.9128 5.69074C29.8868 9.74067 28.5712 20.3551 21.5478 22.9469C20.0707 23.5237 18.6159 23.7981 17.309 24.1497C15.5706 24.6166 15.7385 24.5972 16.2756 26.7057C16.3007 26.7935 16.8118 28.7954 17.6021 31.8928L17.5113 31.9136Z" fill="#F93B42"/>
<path d="M10.7602 18.6862C6.83994 20.5935 8.01868 22.5241 10.525 31.6852L10.4488 31.9034H10.3165C8.47456 24.8237 6.42912 21.2798 9.54269 19.2487C9.99462 18.9537 10.7602 18.6862 10.7602 18.6862Z" fill="white"/>
<path d="M39.3274 25V9.72727H45.353C46.5114 9.72727 47.4982 9.94851 48.3136 10.391C49.1289 10.8285 49.7504 11.4375 50.1779 12.218C50.6104 12.9936 50.8267 13.8885 50.8267 14.9027C50.8267 15.9169 50.608 16.8118 50.1705 17.5874C49.733 18.3629 49.0991 18.967 48.2688 19.3995C47.4435 19.832 46.4442 20.0483 45.271 20.0483H41.4304V17.4606H44.7489C45.3704 17.4606 45.8825 17.3537 46.2852 17.1399C46.6928 16.9212 46.9961 16.6204 47.195 16.2376C47.3988 15.8498 47.5007 15.4048 47.5007 14.9027C47.5007 14.3956 47.3988 13.9531 47.195 13.5753C46.9961 13.1925 46.6928 12.8967 46.2852 12.6879C45.8775 12.4741 45.3604 12.3672 44.734 12.3672H42.5565V25H39.3274ZM66.9589 17.3636C66.9589 19.0291 66.6432 20.446 66.0118 21.6143C65.3854 22.7827 64.5303 23.6751 63.4465 24.2915C62.3676 24.9031 61.1546 25.2088 59.8073 25.2088C58.45 25.2088 57.232 24.9006 56.1531 24.2841C55.0743 23.6676 54.2217 22.7752 53.5953 21.6069C52.9688 20.4386 52.6556 19.0241 52.6556 17.3636C52.6556 15.6982 52.9688 14.2812 53.5953 13.1129C54.2217 11.9446 55.0743 11.0547 56.1531 10.4432C57.232 9.8267 58.45 9.51847 59.8073 9.51847C61.1546 9.51847 62.3676 9.8267 63.4465 10.4432C64.5303 11.0547 65.3854 11.9446 66.0118 13.1129C66.6432 14.2812 66.9589 15.6982 66.9589 17.3636ZM63.6851 17.3636C63.6851 16.2848 63.5235 15.375 63.2004 14.6342C62.8822 13.8935 62.4323 13.3317 61.8506 12.9489C61.2689 12.5661 60.5878 12.3746 59.8073 12.3746C59.0267 12.3746 58.3456 12.5661 57.7639 12.9489C57.1823 13.3317 56.7298 13.8935 56.4067 14.6342C56.0885 15.375 55.9294 16.2848 55.9294 17.3636C55.9294 18.4425 56.0885 19.3523 56.4067 20.093C56.7298 20.8338 57.1823 21.3956 57.7639 21.7784C58.3456 22.1612 59.0267 22.3526 59.8073 22.3526C60.5878 22.3526 61.2689 22.1612 61.8506 21.7784C62.4323 21.3956 62.8822 20.8338 63.2004 20.093C63.5235 19.3523 63.6851 18.4425 63.6851 17.3636ZM77.636 14.1197C77.5763 13.5181 77.3203 13.0508 76.8679 12.7177C76.4155 12.3846 75.8015 12.218 75.0259 12.218C74.4989 12.218 74.054 12.2926 73.6911 12.4418C73.3281 12.5859 73.0497 12.7873 72.8558 13.0458C72.6669 13.3043 72.5724 13.5977 72.5724 13.9258C72.5625 14.1992 72.6197 14.4379 72.744 14.6417C72.8732 14.8455 73.0497 15.022 73.2734 15.1712C73.4972 15.3153 73.7557 15.4421 74.049 15.5515C74.3423 15.6559 74.6555 15.7454 74.9886 15.82L76.3608 16.1481C77.027 16.2972 77.6385 16.4961 78.1953 16.7447C78.7521 16.9933 79.2344 17.299 79.642 17.6619C80.0497 18.0249 80.3654 18.4524 80.5891 18.9446C80.8178 19.4368 80.9347 20.0011 80.9396 20.6374C80.9347 21.5721 80.696 22.3825 80.2237 23.0685C79.7564 23.7496 79.0803 24.2791 78.1953 24.657C77.3153 25.0298 76.2539 25.2163 75.011 25.2163C73.7781 25.2163 72.7042 25.0273 71.7894 24.6495C70.8796 24.2717 70.1687 23.7124 69.6566 22.9716C69.1495 22.2259 68.8835 21.3036 68.8587 20.2049H71.9833C72.0181 20.717 72.1648 21.1445 72.4233 21.4876C72.6868 21.8256 73.0373 22.0817 73.4748 22.2557C73.9173 22.4247 74.4169 22.5092 74.9737 22.5092C75.5206 22.5092 75.9954 22.4297 76.3981 22.2706C76.8058 22.1115 77.1214 21.8903 77.3452 21.6069C77.5689 21.3235 77.6808 20.9979 77.6808 20.63C77.6808 20.2869 77.5788 19.9986 77.375 19.7649C77.1761 19.5312 76.8828 19.3324 76.495 19.1683C76.1122 19.0043 75.6424 18.8551 75.0856 18.7209L73.4226 18.3033C72.1349 17.9901 71.1183 17.5004 70.3725 16.8342C69.6268 16.168 69.2564 15.2706 69.2614 14.142C69.2564 13.2173 69.5025 12.4094 69.9996 11.7184C70.5018 11.0273 71.1903 10.4879 72.0653 10.1001C72.9403 9.71236 73.9347 9.51847 75.0483 9.51847C76.1818 9.51847 77.1712 9.71236 78.0163 10.1001C78.8665 10.4879 79.5277 11.0273 80 11.7184C80.4723 12.4094 80.7159 13.2099 80.7308 14.1197H77.636ZM83.0519 29.2955V13.5455H86.184V15.4695H86.3257C86.4649 15.1612 86.6663 14.848 86.9298 14.5298C87.1982 14.2067 87.5463 13.9382 87.9738 13.7244C88.4063 13.5057 88.9433 13.3963 89.5846 13.3963C90.4198 13.3963 91.1904 13.6151 91.8964 14.0526C92.6024 14.4851 93.1666 15.1388 93.5892 16.0138C94.0118 16.8839 94.2231 17.9751 94.2231 19.2876C94.2231 20.5653 94.0168 21.6442 93.6041 22.5241C93.1965 23.3991 92.6396 24.0629 91.9337 24.5153C91.2327 24.9627 90.4472 25.1864 89.5771 25.1864C88.9607 25.1864 88.4362 25.0845 88.0036 24.8807C87.5761 24.6768 87.2256 24.4208 86.9521 24.1126C86.6787 23.7994 86.4699 23.4837 86.3257 23.1655H86.2288V29.2955H83.0519ZM86.1617 19.2727C86.1617 19.9538 86.2561 20.5479 86.445 21.055C86.634 21.5621 86.9074 21.9574 87.2654 22.2408C87.6233 22.5192 88.0583 22.6584 88.5704 22.6584C89.0874 22.6584 89.5249 22.5167 89.8829 22.2333C90.2409 21.945 90.5118 21.5472 90.6958 21.0401C90.8847 20.5281 90.9791 19.9389 90.9791 19.2727C90.9791 18.6115 90.8872 18.0298 90.7032 17.5277C90.5193 17.0256 90.2483 16.6328 89.8904 16.3494C89.5324 16.0661 89.0924 15.9244 88.5704 15.9244C88.0534 15.9244 87.6159 16.0611 87.2579 16.3345C86.9049 16.608 86.634 16.9957 86.445 17.4979C86.2561 18 86.1617 18.5916 86.1617 19.2727ZM96.341 25V13.5455H99.4209V15.544H99.5402C99.749 14.8331 100.1 14.2962 100.592 13.9332C101.084 13.5653 101.651 13.3814 102.292 13.3814C102.451 13.3814 102.623 13.3913 102.807 13.4112C102.991 13.4311 103.152 13.4585 103.291 13.4933V16.3121C103.142 16.2674 102.936 16.2276 102.672 16.1928C102.409 16.158 102.168 16.1406 101.949 16.1406C101.482 16.1406 101.064 16.2425 100.696 16.4464C100.333 16.6452 100.045 16.9237 99.8311 17.2816C99.6222 17.6396 99.5178 18.0522 99.5178 18.5195V25H96.341ZM109.576 25.2237C108.418 25.2237 107.416 24.9776 106.571 24.4854C105.73 23.9883 105.082 23.2972 104.624 22.4123C104.167 21.5224 103.938 20.4908 103.938 19.3175C103.938 18.1342 104.167 17.1001 104.624 16.2152C105.082 15.3253 105.73 14.6342 106.571 14.142C107.416 13.6449 108.418 13.3963 109.576 13.3963C110.734 13.3963 111.734 13.6449 112.574 14.142C113.419 14.6342 114.07 15.3253 114.528 16.2152C114.985 17.1001 115.214 18.1342 115.214 19.3175C115.214 20.4908 114.985 21.5224 114.528 22.4123C114.07 23.2972 113.419 23.9883 112.574 24.4854C111.734 24.9776 110.734 25.2237 109.576 25.2237ZM109.591 22.7628C110.118 22.7628 110.558 22.6136 110.911 22.3153C111.264 22.0121 111.53 21.5994 111.709 21.0774C111.893 20.5554 111.985 19.9613 111.985 19.2951C111.985 18.6289 111.893 18.0348 111.709 17.5128C111.53 16.9908 111.264 16.5781 110.911 16.2749C110.558 15.9716 110.118 15.82 109.591 15.82C109.059 15.82 108.612 15.9716 108.249 16.2749C107.891 16.5781 107.62 16.9908 107.436 17.5128C107.257 18.0348 107.167 18.6289 107.167 19.2951C107.167 19.9613 107.257 20.5554 107.436 21.0774C107.62 21.5994 107.891 22.0121 108.249 22.3153C108.612 22.6136 109.059 22.7628 109.591 22.7628Z" fill="white"/>
</svg>
