<?xml version="1.0" encoding="utf-8"?>
<!-- Generator: Adobe Illustrator 27.0.0, SVG Export Plug-In . SVG Version: 6.00 Build 0)  -->
<svg version="1.1" id="Layer_1" xmlns="http://www.w3.org/2000/svg" xmlns:xlink="http://www.w3.org/1999/xlink" x="0px" y="0px"
	 viewBox="0 0 150 51" style="enable-background:new 0 0 150 51;" xml:space="preserve">
<style type="text/css">
	.st0{clip-path:url(#SVGID_00000136371370389695074190000006220522142386055814_);}
	.st1{fill-rule:evenodd;clip-rule:evenodd;fill:#003399;}
	.st2{fill-rule:evenodd;clip-rule:evenodd;fill:#FF6600;}
	.st3{clip-path:url(#SVGID_00000030471769047012201260000010778549786113733530_);}
	.st4{fill-rule:evenodd;clip-rule:evenodd;fill:#C52127;}
	.st5{fill-rule:evenodd;clip-rule:evenodd;fill:#F68A3D;}
	.st6{fill:#F68A3D;}
	.st7{fill:#C52127;}
</style>
<g>
	<defs>
		<rect id="SVGID_1_" x="5.1" y="4" width="38" height="43"/>
	</defs>
	<clipPath id="SVGID_00000137854804792533496740000012203699245677639589_">
		<use xlink:href="#SVGID_1_"  style="overflow:visible;"/>
	</clipPath>
	<g style="clip-path:url(#SVGID_00000137854804792533496740000012203699245677639589_);">
		<path class="st1" d="M34.1,21v9.7l4.5,2.7V21c0-2.8-1.3-5.2-3.7-6.5L29.1,11l-5-3v5.3l8.6,5.1C33.7,19,34.1,19.9,34.1,21z M27.7,5
			l5.8,3.5l5.8,3.5c2.3,1.4,3.7,3.8,3.7,6.5v13.9c0,2.8-1.3,5.2-3.7,6.5l-5.8,3.5L27.7,46c-2.3,1.4-5,1.4-7.3,0l-4.2-2.5
			c-0.7-0.4-1.2-0.9-1.6-1.6c-0.4-0.7-0.6-1.4-0.6-2.2v-2.8l8.6,5.1c0.9,0.6,1.9,0.6,2.8,0l2.1-1.3c0.6-0.4,1.1-0.9,1.5-1.5
			c0.4-0.6,0.5-1.4,0.5-2.1V24.3c0-0.7-0.2-1.4-0.5-2c-0.3-0.6-0.8-1.1-1.4-1.4l-10.3-6.1c-0.6-0.4-1.4-0.6-2.1-0.6
			c-0.8,0-1.5,0.2-2.1,0.6L11,16c-0.9,0.6-1.4,1.4-1.4,2.5v20.9L8.7,39c-2.3-1.4-3.7-3.8-3.7-6.5V18.5c0-2.8,1.3-5.2,3.7-6.5
			l5.8-3.5L20.4,5C22.7,3.7,25.4,3.7,27.7,5z"/>
		<path class="st2" d="M14.9,32l7.2,4.3h0c1.1,0.6,3.1-0.6,3.1-1.9v-8.8c0-0.3-0.1-0.6-0.2-0.8c-0.1-0.2-0.3-0.4-0.6-0.6l-7.2-4.3h0
			c-1.1-0.6-3.1,0.6-3.1,1.9v8.8c0,0.3,0.1,0.6,0.2,0.8C14.4,31.7,14.6,31.9,14.9,32"/>
		<g>
			<defs>
				<rect id="SVGID_00000168108890982363981800000002239262509778543236_" x="5.1" y="4" width="38" height="43"/>
			</defs>
			<clipPath id="SVGID_00000159469884859829317270000014142408786655411114_">
				<use xlink:href="#SVGID_00000168108890982363981800000002239262509778543236_"  style="overflow:visible;"/>
			</clipPath>
			<g style="clip-path:url(#SVGID_00000159469884859829317270000014142408786655411114_);">
				<path class="st4" d="M34.1,21v9.7l4.5,2.7V21c0-2.8-1.3-5.2-3.7-6.5L29.1,11l-5-3v5.3l8.6,5.1C33.7,19,34.1,19.9,34.1,21z
					 M27.7,5l5.8,3.5l5.8,3.5c2.3,1.4,3.7,3.8,3.7,6.5v13.9c0,2.8-1.3,5.2-3.7,6.5l-5.8,3.5L27.7,46c-2.3,1.4-5,1.4-7.3,0l-4.2-2.5
					c-0.7-0.4-1.2-0.9-1.6-1.6c-0.4-0.7-0.6-1.4-0.6-2.2v-2.8l8.6,5.1c0.9,0.6,1.9,0.6,2.8,0l2.1-1.3c0.6-0.4,1.1-0.9,1.5-1.5
					c0.4-0.6,0.5-1.4,0.5-2.1V24.3c0-0.7-0.2-1.4-0.5-2c-0.3-0.6-0.8-1.1-1.4-1.4l-10.3-6.1c-0.6-0.4-1.4-0.6-2.1-0.6
					c-0.8,0-1.5,0.2-2.1,0.6L11,16c-0.9,0.6-1.4,1.4-1.4,2.5v20.9L8.7,39c-2.3-1.4-3.7-3.8-3.7-6.5V18.5c0-2.8,1.3-5.2,3.7-6.5
					l5.8-3.5L20.4,5C22.7,3.7,25.4,3.7,27.7,5z"/>
				<path class="st5" d="M14.9,32l7.2,4.3h0c1.1,0.6,3.1-0.6,3.1-1.9v-8.8c0-0.3-0.1-0.6-0.2-0.8c-0.1-0.2-0.3-0.4-0.6-0.6l-7.2-4.3
					h0c-1.1-0.6-3.1,0.6-3.1,1.9v8.8c0,0.3,0.1,0.6,0.2,0.8C14.4,31.7,14.6,31.9,14.9,32"/>
			</g>
		</g>
	</g>
</g>
<path class="st6" d="M64.6,19.8c-0.5-1-1.3-1.8-2.4-2.3c-1-0.6-2.3-0.8-3.8-0.8h-7.7v19.5h4.1v-6.3h3.5c1.5,0,2.8-0.3,3.8-0.8
	c1.1-0.5,1.9-1.3,2.4-2.3c0.6-1,0.8-2.1,0.8-3.4C65.5,22,65.2,20.8,64.6,19.8z M60.8,25c-0.3,0.5-0.6,0.9-1.2,1.2
	c-0.5,0.3-1.2,0.4-2,0.4h-2.8V20h2.8c0.8,0,1.5,0.1,2,0.4c0.5,0.3,0.9,0.6,1.2,1.1c0.3,0.5,0.4,1,0.4,1.7
	C61.2,23.9,61.1,24.5,60.8,25z"/>
<path class="st7" d="M146.7,24.9c-0.6-1.1-1.4-2-2.5-2.6c-1.1-0.6-2.3-0.9-3.8-0.9c-1.5,0-2.8,0.3-3.8,0.9c-1.1,0.6-1.9,1.5-2.5,2.6
	c-0.6,1.1-0.9,2.4-0.9,4c0,1.5,0.3,2.8,0.9,3.9c0.6,1.1,1.4,2,2.5,2.6c1.1,0.6,2.4,0.9,3.8,0.9c1.5,0,2.7-0.3,3.8-0.9
	c1.1-0.6,1.9-1.5,2.5-2.6c0.6-1.1,0.9-2.4,0.9-3.9C147.6,27.4,147.3,26.1,146.7,24.9z M143.1,31.1c-0.2,0.7-0.6,1.2-1,1.6
	c-0.4,0.4-1,0.6-1.7,0.6c-0.7,0-1.3-0.2-1.7-0.6c-0.5-0.4-0.8-0.9-1-1.6c-0.2-0.7-0.3-1.4-0.3-2.3s0.1-1.6,0.3-2.3
	c0.2-0.7,0.6-1.2,1-1.6c0.5-0.4,1-0.6,1.7-0.6c0.7,0,1.2,0.2,1.7,0.6c0.4,0.4,0.8,0.9,1,1.6c0.2,0.7,0.4,1.4,0.4,2.3
	S143.4,30.5,143.1,31.1z"/>
<path class="st7" d="M120,24.7c-0.5-1.1-1.3-2-2.2-2.5c-0.9-0.6-1.9-0.8-2.9-0.8c-0.8,0-1.5,0.1-2.1,0.4c-0.5,0.3-1,0.6-1.3,1
	c-0.3,0.4-0.6,0.8-0.8,1.2h-0.2v-2.5h-4v20.1h4.1v-7.8h0.1c0.2,0.4,0.5,0.8,0.8,1.2c0.3,0.4,0.8,0.7,1.3,1c0.5,0.3,1.2,0.4,2,0.4
	c1.1,0,2.1-0.3,3-0.8c0.9-0.6,1.6-1.4,2.1-2.5c0.5-1.1,0.8-2.5,0.8-4.1C120.8,27.2,120.6,25.8,120,24.7z M116.3,31.1
	c-0.2,0.6-0.6,1.2-1,1.5c-0.5,0.4-1,0.5-1.7,0.5c-0.7,0-1.2-0.2-1.7-0.5c-0.5-0.4-0.8-0.9-1-1.5c-0.2-0.6-0.4-1.4-0.4-2.3
	c0-0.9,0.1-1.6,0.4-2.3c0.2-0.6,0.6-1.1,1-1.5c0.5-0.4,1-0.5,1.7-0.5c0.7,0,1.2,0.2,1.7,0.5c0.5,0.4,0.8,0.9,1,1.5
	c0.2,0.6,0.3,1.4,0.3,2.2C116.7,29.7,116.6,30.4,116.3,31.1z"/>
<path class="st6" d="M84.8,21c-0.8-1.5-1.9-2.6-3.3-3.4c-1.4-0.8-2.9-1.2-4.6-1.2c-1.7,0-3.3,0.4-4.7,1.2c-1.4,0.8-2.5,1.9-3.3,3.4
	c-0.8,1.5-1.2,3.3-1.2,5.4c0,2.1,0.4,3.9,1.2,5.4c0.8,1.5,1.9,2.6,3.3,3.4c1.4,0.8,2.9,1.2,4.7,1.2c1.7,0,3.3-0.4,4.6-1.2
	c1.4-0.8,2.5-1.9,3.3-3.4c0.8-1.5,1.2-3.3,1.2-5.4C86,24.3,85.6,22.5,84.8,21z M81.2,29.9c-0.4,0.9-1,1.7-1.7,2.2
	c-0.7,0.5-1.6,0.7-2.6,0.7c-1,0-1.9-0.2-2.6-0.7c-0.7-0.5-1.3-1.2-1.7-2.2c-0.4-0.9-0.6-2.1-0.6-3.5c0-1.4,0.2-2.5,0.6-3.5
	c0.4-0.9,1-1.7,1.7-2.1c0.7-0.5,1.6-0.7,2.6-0.7c1,0,1.9,0.2,2.6,0.7c0.7,0.5,1.3,1.2,1.7,2.1c0.4,0.9,0.6,2.1,0.6,3.5
	C81.9,27.8,81.7,28.9,81.2,29.9z"/>
<path class="st7" d="M131.1,21.3c-0.8,0-1.5,0.2-2.2,0.7c-0.6,0.5-1.1,1.1-1.3,2.1h-0.2v-2.6h-3.9v14.6h4.1v-8.3
	c0-0.6,0.1-1.1,0.4-1.6c0.3-0.5,0.6-0.8,1.1-1.1c0.5-0.3,1-0.4,1.6-0.4c0.3,0,0.6,0,0.9,0.1c0.3,0,0.6,0.1,0.8,0.2v-3.6
	c-0.2,0-0.4-0.1-0.6-0.1C131.6,21.3,131.3,21.3,131.1,21.3z"/>
<path class="st6" d="M102.2,26.8c-0.5-0.5-1.1-0.9-1.8-1.2c-0.7-0.3-1.5-0.6-2.3-0.8l-1.8-0.4c-0.4-0.1-0.8-0.2-1.2-0.3
	c-0.4-0.1-0.7-0.3-1-0.5c-0.3-0.2-0.5-0.4-0.7-0.7c-0.2-0.3-0.2-0.6-0.2-0.9c0-0.4,0.1-0.8,0.4-1.1c0.2-0.3,0.6-0.6,1.1-0.8
	c0.5-0.2,1-0.3,1.7-0.3c1,0,1.8,0.2,2.4,0.6c0.6,0.4,0.9,1,1,1.8h3.9c0-1.2-0.3-2.2-0.9-3.1c-0.6-0.9-1.4-1.6-2.5-2.1
	c-1.1-0.5-2.3-0.7-3.8-0.7c-1.4,0-2.7,0.2-3.8,0.7c-1.1,0.5-2,1.2-2.6,2.1c-0.6,0.9-0.9,1.9-0.9,3.1c0,1.4,0.5,2.6,1.4,3.4
	c1,0.9,2.2,1.5,3.9,1.9l2.1,0.5c0.7,0.2,1.3,0.4,1.8,0.6c0.5,0.2,0.9,0.5,1.1,0.8c0.3,0.3,0.4,0.7,0.4,1.1c0,0.5-0.1,0.9-0.4,1.2
	c-0.3,0.4-0.7,0.6-1.2,0.8C97.6,32.9,97,33,96.3,33c-0.7,0-1.3-0.1-1.9-0.3c-0.6-0.2-1-0.5-1.3-1c-0.3-0.4-0.5-1-0.6-1.6h-4
	c0,1.4,0.4,2.6,1,3.5c0.7,0.9,1.6,1.7,2.7,2.1c1.2,0.5,2.5,0.7,4.1,0.7c1.6,0,2.9-0.2,4.1-0.7c1.1-0.5,2-1.2,2.6-2
	c0.6-0.9,0.9-1.9,0.9-3.1c0-0.8-0.2-1.5-0.4-2.2C103.2,27.8,102.8,27.2,102.2,26.8z"/>
</svg>
