<svg width="147" height="170" viewBox="0 0 147 170" fill="none" xmlns="http://www.w3.org/2000/svg">
<path d="M92.7904 0L54.2121 0C39.7466 0 28.0195 11.5506 28.0195 25.7993V79.9976H40.532V27.3309C40.532 19.0433 47.3531 12.3249 55.7671 12.3249H91.2351C99.6494 12.3249 106.47 19.0436 106.47 27.3312V79.9976H118.983V25.7993C118.983 11.5506 107.256 0 92.7904 0Z" fill="#5B5B5B"/>
<path d="M0.224609 76.6052L0.224609 96.5761C0.224609 137.125 33.0315 169.997 73.5005 169.997C113.97 169.997 146.776 137.125 146.776 96.5758V76.6052C146.776 64.6731 137.122 55 125.214 55L21.7875 55C9.87862 54.9997 0.224609 64.6728 0.224609 76.6052Z" fill="#C52127"/>
<path d="M88.0845 138.981C104.504 132.252 112.301 113.628 105.5 97.3827C98.699 81.1374 79.8747 73.4229 63.455 80.1519C47.0354 86.881 39.2381 105.505 46.0394 121.751C52.8406 137.996 71.6649 145.711 88.0845 138.981Z" fill="#931F26"/>
<path d="M85.1468 99.2807C85.1468 93.3365 80.1467 88.5545 74.1046 88.8746C68.7263 89.1595 64.3661 93.6155 64.2115 98.9744C64.0981 102.885 66.1581 106.317 69.27 108.193L67.3695 132.049C67.3511 132.28 67.381 132.513 67.4573 132.732C67.5337 132.952 67.6548 133.153 67.8131 133.324C67.9714 133.494 68.1635 133.63 68.3772 133.723C68.5909 133.816 68.8216 133.864 69.0549 133.864H80.2989C80.5321 133.864 80.7629 133.816 80.9766 133.723C81.1904 133.63 81.3824 133.494 81.5407 133.324C81.6991 133.153 81.8202 132.952 81.8965 132.732C81.9728 132.513 82.0027 132.28 81.9842 132.049L80.084 108.193C83.1146 106.367 85.1468 103.064 85.1468 99.2807Z" fill="white"/>
</svg>
