<svg width="25" height="24" viewBox="0 0 25 24" fill="none" xmlns="http://www.w3.org/2000/svg">
<path fill-rule="evenodd" clip-rule="evenodd" d="M2 2.24805C2 1.69576 2.44772 1.24805 3 1.24805H3.93845C5.31505 1.24805 6.515 2.18494 6.84887 3.52044L6.85349 3.53889L7.31816 5.75213H20.5184C20.8759 5.75871 21.258 5.77738 21.6007 5.86779C21.9829 5.96861 22.3604 6.16972 22.641 6.55582C22.9858 7.03022 23.0219 7.55875 22.9914 8.00277C22.963 8.41457 22.8624 8.91418 22.753 9.45713L22.7414 9.51506C22.3387 11.5154 21.9324 13.4703 20.9595 14.8903C20.4504 15.6334 19.7842 16.2398 18.8981 16.651C18.0234 17.0569 16.9865 17.2486 15.7632 17.2486H8.92903C8.34562 17.2657 7.81269 17.6601 7.59895 18.248H18L17.9984 18.2506L17.9976 18.252H18C19.2426 18.252 20.25 19.2593 20.25 20.502C20.25 21.7446 19.2426 22.752 18 22.752C16.7574 22.752 15.75 21.7446 15.75 20.502C15.75 20.4161 15.7548 20.3314 15.7642 20.248H13.2358C13.2452 20.3314 13.25 20.4161 13.25 20.502C13.25 21.7446 12.2426 22.752 11 22.752C9.75736 22.752 8.75 21.7446 8.75 20.502C8.75 20.4161 8.75481 20.3314 8.76417 20.248H6.91143C6.09384 20.248 5.5 19.5696 5.5 18.8195C5.5 17.4675 6.24057 16.2602 7.35392 15.6561L4.90464 3.99023C4.78811 3.55321 4.39205 3.24805 3.93845 3.24805H3C2.44772 3.24805 2 2.80033 2 2.24805ZM11 19.752C10.5858 19.752 10.25 20.0877 10.25 20.502C10.25 20.9162 10.5858 21.252 11 21.252C11.4142 21.252 11.75 20.9162 11.75 20.502C11.75 20.0877 11.4142 19.752 11 19.752ZM18 19.752C17.5858 19.752 17.25 20.0877 17.25 20.502C17.25 20.9162 17.5858 21.252 18 21.252C18.4142 21.252 18.75 20.9162 18.75 20.502C18.75 20.0877 18.4142 19.752 18 19.752Z" fill="white"/>
</svg>
