<svg width="25" height="24" viewBox="0 0 25 24" fill="none" xmlns="http://www.w3.org/2000/svg">
<path fill-rule="evenodd" clip-rule="evenodd" d="M6.75001 3.75C8.26879 3.75 9.50001 4.98122 9.50001 6.5C9.50001 8.01878 8.26879 9.25 6.75001 9.25C5.23122 9.25 4.00001 8.01878 4.00001 6.5C4.00001 4.98122 5.23122 3.75 6.75001 3.75ZM9.42982 14.5068C8.90307 14.7034 8.40249 14.9533 7.93488 15.25H2V12.7368L2.1645 12.5313C3.27215 11.1476 4.90653 10.25 6.75 10.25C7.10759 10.25 7.45731 10.2838 7.79684 10.3483C7.76598 10.5611 7.75 10.7787 7.75 11C7.75 12.4176 8.40545 13.682 9.42982 14.5068ZM15 6.5C15 4.98122 16.2312 3.75 17.75 3.75C19.2688 3.75 20.5 4.98122 20.5 6.5C20.5 8.01878 19.2688 9.25 17.75 9.25C16.2312 9.25 15 8.01878 15 6.5ZM12.25 15.25C10.2414 15.25 8.43495 16.1187 7.1927 17.4981L7.00001 17.7121V20.25H17.5V17.7121L17.3073 17.4981C16.0651 16.1187 14.2586 15.25 12.25 15.25ZM9.00001 11C9.00001 9.20507 10.4551 7.75 12.25 7.75C14.0449 7.75 15.5 9.20507 15.5 11C15.5 12.7949 14.0449 14.25 12.25 14.25C10.4551 14.25 9.00001 12.7949 9.00001 11ZM15.0702 14.5068C15.5969 14.7034 16.0975 14.9533 16.5651 15.25H22.5V12.7368L22.3355 12.5313C21.2279 11.1476 19.5935 10.25 17.75 10.25C17.3924 10.25 17.0427 10.2838 16.7032 10.3483C16.734 10.5611 16.75 10.7787 16.75 11C16.75 12.4176 16.0946 13.682 15.0702 14.5068Z" fill="white"/>
</svg>
