<svg width="25" height="24" viewBox="0 0 25 24" fill="none" xmlns="http://www.w3.org/2000/svg">
<path fill-rule="evenodd" clip-rule="evenodd" d="M14.8721 1.755C13.4066 1.08166 11.5954 1.08167 10.1299 1.755L9.61537 1.9914C7.91868 2.77096 6.75098 4.24322 6.75098 5.95612V6.1166C6.5763 6.17446 6.40503 6.23493 6.23739 6.29792C5.84965 6.4436 5.65341 6.87604 5.7991 7.26379C5.94303 7.64688 6.36687 7.84302 6.75098 7.70718V8.72517C6.75098 10.4023 7.45626 11.9837 8.66221 13.0846L7.88413 15.4073L6.41797 15.8936C5.49197 16.2006 4.92173 16.3897 4.40905 16.6858C3.90787 16.9752 3.4533 17.3381 3.06059 17.7621C2.75094 18.0964 2.3035 18.8163 2.00777 19.8144C1.90532 20.1596 1.78351 20.57 1.75688 20.8941C1.72372 21.2976 1.80693 21.6828 2.08148 22.0482C2.37848 22.4434 2.77304 22.6155 3.18524 22.6885C3.5352 22.7504 3.96175 22.7503 4.40536 22.7502H20.5946C21.0382 22.7503 21.4648 22.7504 21.8148 22.6885C22.227 22.6155 22.6215 22.4434 22.9185 22.0482C23.1931 21.6828 23.2763 21.2976 23.2431 20.8941C23.2165 20.57 23.0947 20.1596 22.9922 19.8144C22.6965 18.8163 22.2491 18.0964 21.9394 17.7621C21.5467 17.3381 21.0921 16.9752 20.591 16.6858C20.0783 16.3897 19.508 16.2006 18.582 15.8936L17.1159 15.4073L16.3383 13.086C17.5451 11.985 18.251 10.403 18.251 8.72517V7.70704C18.6352 7.84316 19.0593 7.64701 19.2033 7.26379C19.3489 6.87604 19.1527 6.4436 18.765 6.29792C18.5972 6.23489 18.4258 6.17437 18.251 6.11647V5.95612C18.251 4.24322 17.0833 2.77096 15.3866 1.9914L14.8721 1.755ZM15.0536 13.9945L14.9507 14.0575C13.4436 14.9808 11.5584 14.9808 10.0512 14.0575L9.94677 13.9935L9.35376 15.7637L10.3515 16.6307C10.9964 17.1912 11.4276 17.564 11.7881 17.8051C12.1309 18.0344 12.3298 18.0882 12.5 18.0882C12.6702 18.0882 12.8691 18.0344 13.2119 17.8051C13.5724 17.564 14.0036 17.1912 14.6485 16.6307L15.6462 15.7637L15.0536 13.9945ZM8.25098 8.72517V7.24458C9.4892 6.93796 10.8895 6.75973 12.3783 6.75039C12.4192 6.75013 12.4602 6.75 12.5012 6.75C14.0373 6.75 15.4803 6.92978 16.751 7.24436V8.72517C16.751 10.2623 15.961 11.6795 14.6817 12.4633L14.1672 12.7785C13.1409 13.4072 11.8611 13.4072 10.8348 12.7785L10.3203 12.4633C9.04095 11.6795 8.25098 10.2623 8.25098 8.72517Z" fill="white"/>
</svg>
