<svg width="20" height="20" viewBox="0 0 20 20" fill="none" xmlns="http://www.w3.org/2000/svg">
<path d="M1.04102 2.5C1.04102 2.15483 1.32084 1.875 1.66602 1.875H18.3326C18.6778 1.875 18.9576 2.15483 18.9576 2.5V7.29167H1.04102V2.5Z" fill="white"/>
<path fill-rule="evenodd" clip-rule="evenodd" d="M12.0827 10.0002H7.91602V8.3335H12.0827V10.0002Z" fill="white"/>
<path fill-rule="evenodd" clip-rule="evenodd" d="M1.875 17.2918V6.4585H3.5V16.4585H14.8754C15.5484 16.4585 16.0941 15.8988 16.0941 15.2085C16.0941 14.5182 15.5484 13.9585 14.8754 13.9585H13.9929L14.637 14.6193L13.4879 15.7977L10.8826 13.1252L13.4879 10.4527L14.637 11.631L13.9929 12.2918H14.8754C16.4459 12.2918 17.7191 13.5977 17.7191 15.2085C17.7191 16.8193 16.4459 18.1252 14.8754 18.1252H2.6875C2.23877 18.1252 1.875 17.7521 1.875 17.2918ZM18.125 6.4585V10.6252H16.5V6.4585H18.125Z" fill="white"/>
<path d="M7.91602 9.1665H12.0827" stroke="white" stroke-width="1.25"/>
</svg>
