<svg width="25" height="24" viewBox="0 0 25 24" fill="none" xmlns="http://www.w3.org/2000/svg">
<path d="M15.8692 2.25C16.679 2.24998 17.3584 2.24996 17.9157 2.30341C18.504 2.35982 19.0443 2.48188 19.5485 2.77828C20.0577 3.07767 20.4046 3.48092 20.7001 3.95445C20.9751 4.39514 21.2399 4.95545 21.5489 5.60946L22.4139 7.44019C22.6349 7.90784 22.4159 8.45754 21.9249 8.66799C21.4338 8.87843 20.8566 8.66992 20.6357 8.20227L19.792 6.41662C19.4558 5.70511 19.2355 5.24241 19.0239 4.90329C18.8265 4.58692 18.6781 4.44901 18.5242 4.35854C18.3652 4.26507 18.1486 4.1922 17.7204 4.15114C17.2722 4.10817 16.6915 4.10708 15.8212 4.10708H9.67883C8.8085 4.10708 8.22775 4.10817 7.7796 4.15114C7.35144 4.1922 7.13476 4.26507 6.97578 4.35854C6.82188 4.44901 6.67355 4.58692 6.4761 4.90329C6.26446 5.24241 6.04424 5.70511 5.70805 6.41662L4.86432 8.20227C4.64335 8.66992 4.06616 8.87843 3.57512 8.66799C3.08408 8.45754 2.86515 7.90784 3.08612 7.44019L3.95113 5.6095C4.26012 4.95548 4.52485 4.39515 4.79988 3.95445C5.09541 3.48092 5.44226 3.07767 5.95153 2.77828C6.45573 2.48188 6.99597 2.35982 7.58426 2.30341C8.1416 2.24996 8.82102 2.24998 9.63084 2.25H15.8692Z" fill="white"/>
<path d="M13.75 3V8C13.75 8.55228 13.3023 9 12.75 9C12.1977 9 11.75 8.55228 11.75 8V3H13.75Z" fill="white"/>
<path fill-rule="evenodd" clip-rule="evenodd" d="M3.75 7.25C3.33579 7.25 3 7.58579 3 8V13.0564C2.99999 14.8942 2.99997 16.3498 3.15314 17.489C3.31076 18.6614 3.64288 19.6104 4.39124 20.3588C5.13961 21.1071 6.08856 21.4392 7.26098 21.5969C8.40019 21.75 9.85583 21.75 11.6936 21.75H13.8064C15.6442 21.75 17.0998 21.75 18.239 21.5969C19.4114 21.4392 20.3604 21.1071 21.1088 20.3588C21.8571 19.6104 22.1892 18.6614 22.3469 17.489C22.5 16.3498 22.5 14.8942 22.5 13.0565V8C22.5 7.58579 22.1642 7.25 21.75 7.25H3.75ZM11.2803 12.0303C11.5732 11.7374 11.5732 11.2626 11.2803 10.9697C10.9874 10.6768 10.5126 10.6768 10.2197 10.9697L8.21967 12.9697C7.92678 13.2626 7.92678 13.7374 8.21967 14.0303L10.2197 16.0303C10.5126 16.3232 10.9874 16.3232 11.2803 16.0303C11.5732 15.7374 11.5732 15.2626 11.2803 14.9697L10.5607 14.25H14.75C15.4404 14.25 16 14.8096 16 15.5C16 16.1904 15.4404 16.75 14.75 16.75H13.75C13.3358 16.75 13 17.0858 13 17.5C13 17.9142 13.3358 18.25 13.75 18.25H14.75C16.2688 18.25 17.5 17.0188 17.5 15.5C17.5 13.9812 16.2688 12.75 14.75 12.75H10.5607L11.2803 12.0303Z" fill="white"/>
</svg>
