<svg width="25" height="24" viewBox="0 0 25 24" fill="none" xmlns="http://www.w3.org/2000/svg">
<path fill-rule="evenodd" clip-rule="evenodd" d="M19.7094 1.57208C20.4581 1.74402 21.2163 2.0252 21.7205 2.5294C22.2247 3.0336 22.5059 3.79184 22.6778 4.54046C22.8554 5.31381 22.9426 6.19907 22.9787 7.06907C23.051 8.81159 22.9216 10.5922 22.838 11.5023C22.7858 12.0702 22.5535 12.5946 22.1906 13.0168C19.4813 16.1692 16.6728 19.0389 13.6063 21.7845C12.2032 23.0409 10.1082 23.0542 8.64712 21.9229C6.23744 20.0571 4.19283 18.0125 2.32709 15.6028C1.19579 14.1417 1.20911 12.0468 2.46543 10.6437C5.2111 7.57712 8.08082 4.76863 11.2331 2.05931C11.6553 1.69644 12.1797 1.46409 12.7477 1.4119C13.6578 1.32827 15.4383 1.19887 17.1808 1.27116C18.0508 1.30726 18.9361 1.39446 19.7094 1.57208ZM19.25 6.5C19.25 5.67157 18.5784 5 17.75 5C16.9215 5 16.25 5.67157 16.25 6.5C16.25 7.32843 16.9215 8 17.75 8C18.5784 8 19.25 7.32843 19.25 6.5ZM14.7799 10.5308C15.073 10.2381 15.0734 9.76324 14.7807 9.47011C14.4881 9.17697 14.0132 9.17658 13.7201 9.46923L13.5027 9.68626C12.5722 9.19935 11.3975 9.33245 10.6136 10.1151C10.1963 10.5317 9.86938 11.0697 9.90501 11.7329C9.93929 12.3713 10.3017 12.9359 10.8064 13.4397C11.2024 13.8351 11.3028 14.0944 11.3134 14.2462C11.3219 14.3673 11.2835 14.5806 10.9381 14.9255C10.6409 15.2222 10.4052 15.2655 10.2283 15.246C10.0171 15.2227 9.74422 15.0913 9.44643 14.794C9.16097 14.509 9.04655 14.149 9.07372 13.8411C9.11014 13.4285 8.80518 13.0645 8.39257 13.0281C7.97996 12.9917 7.61595 13.2966 7.57953 13.7092C7.53304 14.236 7.65383 14.7761 7.92618 15.2537L7.72011 15.4594C7.42697 15.7521 7.42658 16.2269 7.71924 16.5201C8.01189 16.8132 8.48676 16.8136 8.77989 16.5209L8.97008 16.3311C9.29568 16.5415 9.66283 16.6927 10.0638 16.7369C10.7613 16.8139 11.4309 16.5531 11.9979 15.987C12.5167 15.4691 12.8596 14.8553 12.8098 14.1417C12.7621 13.4587 12.3646 12.8758 11.8661 12.3782C11.4764 11.9891 11.4084 11.7557 11.4028 11.6525C11.3986 11.5742 11.4225 11.4271 11.6734 11.1766C12.0406 10.8099 12.6587 10.8025 13.0533 11.1965C13.3189 11.4617 13.4035 11.8318 13.3143 12.1569C13.2048 12.5563 13.4398 12.969 13.8392 13.0785C14.2387 13.1881 14.6514 12.9531 14.7609 12.5536C14.9249 11.9556 14.8578 11.3072 14.5639 10.7464L14.7799 10.5308Z" fill="white"/>
</svg>
