<svg width="25" height="24" viewBox="0 0 25 24" fill="none" xmlns="http://www.w3.org/2000/svg">
<path d="M13.2803 1.46967C12.9874 1.17678 12.5125 1.17678 12.2196 1.46967L10.4926 3.19675L7.87331 2.7602C7.58765 2.71259 7.30011 2.8337 7.13458 3.07133C6.96906 3.30897 6.95514 3.62066 7.09882 3.8721L8.45762 6.25H17.0423L18.4011 3.8721C18.5448 3.62066 18.5309 3.30897 18.3654 3.07133C18.1999 2.8337 17.9123 2.71259 17.6267 2.7602L15.0074 3.19675L13.2803 1.46967Z" fill="white"/>
<path fill-rule="evenodd" clip-rule="evenodd" d="M8.00446 7.75H17.4959C18.2156 8.56197 19.0162 9.55911 19.763 10.6648C20.9706 12.4526 22.079 14.5845 22.4327 16.7124C22.7235 18.4618 22.0515 19.997 20.8967 21.0691C19.7534 22.1305 18.1324 22.75 16.4418 22.75H9.05853C7.36795 22.75 5.74699 22.1305 4.6037 21.0691C3.44885 19.997 2.77685 18.4618 3.06762 16.7124C3.42131 14.5845 4.52975 12.4526 5.73738 10.6648C6.4842 9.55911 7.28474 8.56197 8.00446 7.75ZM10.8857 12.0893C11.2042 11.8505 11.5858 11.6781 12 11.5836V10.75H13.5V11.5845C14.2886 11.7652 14.9847 12.2303 15.3146 12.9303L13.9577 13.5697C13.8405 13.321 13.4183 13 12.75 13C12.3443 13 12.0058 13.1243 11.7857 13.2893C11.5659 13.4542 11.5 13.6248 11.5 13.75C11.5 13.8752 11.5659 14.0458 11.7857 14.2107C12.0058 14.3757 12.3443 14.5 12.75 14.5C13.4488 14.5 14.1104 14.7115 14.6142 15.0893C15.1182 15.4673 15.5 16.0468 15.5 16.75C15.5 17.4532 15.1182 18.0327 14.6142 18.4107C14.2957 18.6495 13.9141 18.8219 13.5 18.9164V19.75H12V18.9155C11.2113 18.7348 10.5153 18.2697 10.1854 17.5697L11.5422 16.9303C11.6594 17.179 12.0816 17.5 12.75 17.5C13.1557 17.5 13.4941 17.3757 13.7142 17.2107C13.934 17.0458 14 16.8752 14 16.75C14 16.6248 13.934 16.4542 13.7142 16.2893C13.4941 16.1243 13.1557 16 12.75 16C12.0511 16 11.3895 15.7885 10.8857 15.4107C10.3818 15.0327 10 14.4532 10 13.75C10 13.0468 10.3818 12.4673 10.8857 12.0893Z" fill="white"/>
</svg>
