<svg width="48" height="48" viewBox="0 0 48 48" fill="none" xmlns="http://www.w3.org/2000/svg">
<path d="M4.5 41.5513V19.0762H8.4V39.6013H26V43.5013H6.45C5.37304 43.5013 4.5 42.6281 4.5 41.5513Z" fill="#F68A3D"/>
<path d="M39.5996 19.0762H43.4996V26.0011H39.5996V19.0762Z" fill="#F68A3D"/>
<path d="M45.5 15.6017V16C45.5 20.1421 42.1422 23.5001 38 23.5001C35.4704 23.5001 33.2334 22.2477 31.8748 20.3293C31.3924 20.8825 30.8278 21.3585 30.217 21.7567C28.3978 22.9425 26.1008 23.5001 24 23.5001C21.8992 23.5001 19.6022 22.9425 17.783 21.7567C17.1723 21.3585 16.6077 20.8823 16.1251 20.3293C14.7667 22.2477 12.5296 23.5001 10 23.5001C5.85786 23.5001 2.5 20.1421 2.5 16V15.6017L6.5 8.60166V2.5H41.5V8.60166L45.5 15.6017Z" fill="#F68A3D"/>
<path fill-rule="evenodd" clip-rule="evenodd" d="M22 36H12V32H22V36Z" fill="#F68A3D"/>
<path fill-rule="evenodd" clip-rule="evenodd" d="M35.2577 38.0861L30.6719 42.6719L33.5005 45.5003L38.0861 40.9145L42.6719 45.5003L45.5005 42.6719L40.9147 38.0861L45.5005 33.5003L42.6719 30.6719L38.0861 35.2577L33.5005 30.6719L30.6719 33.5003L35.2577 38.0861Z" fill="#F68A3D"/>
</svg>
