<svg width="40" height="40" viewBox="0 0 40 40" fill="none" xmlns="http://www.w3.org/2000/svg">
<rect width="40" height="40" rx="8" fill="url(#paint0_linear_1811_160)"/>
<path d="M23.1192 10.25C23.929 10.25 24.6084 10.25 25.1657 10.3034C25.754 10.3598 26.2943 10.4819 26.7985 10.7783C27.3077 11.0777 27.6546 11.4809 27.9501 11.9545C28.2251 12.3951 28.4899 12.9555 28.7989 13.6095L29.6639 15.4402C29.8849 15.9078 29.6659 16.4575 29.1749 16.668C28.6838 16.8784 28.1066 16.6699 27.8857 16.2023L27.042 14.4166C26.7058 13.7051 26.4855 13.2424 26.2739 12.9033C26.0765 12.5869 25.9281 12.449 25.7742 12.3585C25.6152 12.2651 25.3986 12.1922 24.9704 12.1511C24.5222 12.1082 23.9415 12.1071 23.0712 12.1071H16.9288C16.0585 12.1071 15.4777 12.1082 15.0296 12.1511C14.6014 12.1922 14.3848 12.2651 14.2258 12.3585C14.0719 12.449 13.9235 12.5869 13.7261 12.9033C13.5145 13.2424 13.2942 13.7051 12.958 14.4166L12.1143 16.2023C11.8933 16.6699 11.3162 16.8784 10.8251 16.668C10.3341 16.4575 10.1151 15.9078 10.3361 15.4402L11.2011 13.6095C11.5101 12.9555 11.7748 12.3952 12.0499 11.9545C12.3454 11.4809 12.6923 11.0777 13.2015 10.7783C13.7057 10.4819 14.246 10.3598 14.8343 10.3034C15.3916 10.25 16.071 10.25 16.8808 10.25H23.1192Z" fill="white"/>
<path d="M21 11V16C21 16.5523 20.5523 17 20 17C19.4477 17 19 16.5523 19 16V11H21Z" fill="white"/>
<path fill-rule="evenodd" clip-rule="evenodd" d="M11 15.25C10.5858 15.25 10.25 15.5858 10.25 16V21.0564C10.25 22.8942 10.25 24.3498 10.4031 25.489C10.5608 26.6614 10.8929 27.6104 11.6412 28.3588C12.3896 29.1071 13.3386 29.4392 14.511 29.5969C15.6502 29.75 17.1058 29.75 18.9436 29.75H21.0564C22.8942 29.75 24.3498 29.75 25.489 29.5969C26.6614 29.4392 27.6104 29.1071 28.3588 28.3588C29.1071 27.6104 29.4392 26.6614 29.5969 25.489C29.75 24.3498 29.75 22.8942 29.75 21.0565V16C29.75 15.5858 29.4142 15.25 29 15.25H11ZM18.5303 20.0303C18.8232 19.7374 18.8232 19.2626 18.5303 18.9697C18.2374 18.6768 17.7626 18.6768 17.4697 18.9697L15.4697 20.9697C15.1768 21.2626 15.1768 21.7374 15.4697 22.0303L17.4697 24.0303C17.7626 24.3232 18.2374 24.3232 18.5303 24.0303C18.8232 23.7374 18.8232 23.2626 18.5303 22.9697L17.8107 22.25H22C22.6904 22.25 23.25 22.8096 23.25 23.5C23.25 24.1904 22.6904 24.75 22 24.75H21C20.5858 24.75 20.25 25.0858 20.25 25.5C20.25 25.9142 20.5858 26.25 21 26.25H22C23.5188 26.25 24.75 25.0188 24.75 23.5C24.75 21.9812 23.5188 20.75 22 20.75H17.8107L18.5303 20.0303Z" fill="white"/>
<defs>
<linearGradient id="paint0_linear_1811_160" x1="31" y1="-6.3926e-07" x2="8.5" y2="39" gradientUnits="userSpaceOnUse">
<stop stop-color="#8499FF"/>
<stop offset="1" stop-color="#3641FF"/>
</linearGradient>
</defs>
</svg>
