<svg width="40" height="40" viewBox="0 0 40 40" fill="none" xmlns="http://www.w3.org/2000/svg">
<rect width="40" height="40" rx="8" fill="url(#paint0_linear_1811_133)"/>
<path d="M20.5303 9.46967C20.2374 9.17678 19.7625 9.17678 19.4696 9.46967L17.7426 11.1967L15.1233 10.7602C14.8376 10.7126 14.5501 10.8337 14.3846 11.0713C14.2191 11.309 14.2051 11.6207 14.3488 11.8721L15.7076 14.25H24.2923L25.6511 11.8721C25.7948 11.6207 25.7809 11.309 25.6154 11.0713C25.4499 10.8337 25.1623 10.7126 24.8767 10.7602L22.2574 11.1967L20.5303 9.46967Z" fill="white"/>
<path fill-rule="evenodd" clip-rule="evenodd" d="M15.2545 15.75H24.7459C25.4656 16.562 26.2662 17.5591 27.013 18.6648C28.2206 20.4526 29.329 22.5845 29.6827 24.7124C29.9735 26.4618 29.3015 27.997 28.1467 29.0691C27.0034 30.1305 25.3824 30.75 23.6918 30.75H16.3085C14.6179 30.75 12.997 30.1305 11.8537 29.0691C10.6988 27.997 10.0268 26.4618 10.3176 24.7124C10.6713 22.5845 11.7797 20.4526 12.9874 18.6648C13.7342 17.5591 14.5347 16.562 15.2545 15.75ZM18.1357 20.0893C18.4542 19.8505 18.8358 19.6781 19.25 19.5836V18.75H20.75V19.5845C21.5386 19.7652 22.2347 20.2303 22.5646 20.9303L21.2077 21.5697C21.0905 21.321 20.6683 21 20 21C19.5943 21 19.2558 21.1243 19.0357 21.2893C18.8159 21.4542 18.75 21.6248 18.75 21.75C18.75 21.8752 18.8159 22.0458 19.0357 22.2107C19.2558 22.3757 19.5943 22.5 20 22.5C20.6988 22.5 21.3604 22.7115 21.8642 23.0893C22.3682 23.4673 22.75 24.0468 22.75 24.75C22.75 25.4532 22.3682 26.0327 21.8642 26.4107C21.5457 26.6495 21.1641 26.8219 20.75 26.9164V27.75H19.25V26.9155C18.4613 26.7348 17.7653 26.2697 17.4354 25.5697L18.7922 24.9303C18.9094 25.179 19.3316 25.5 20 25.5C20.4057 25.5 20.7441 25.3757 20.9642 25.2107C21.184 25.0458 21.25 24.8752 21.25 24.75C21.25 24.6248 21.184 24.4542 20.9642 24.2893C20.7441 24.1243 20.4057 24 20 24C19.3011 24 18.6395 23.7885 18.1357 23.4107C17.6318 23.0327 17.25 22.4532 17.25 21.75C17.25 21.0468 17.6318 20.4673 18.1357 20.0893Z" fill="white"/>
<defs>
<linearGradient id="paint0_linear_1811_133" x1="34.5" y1="0.999999" x2="6" y2="38.5" gradientUnits="userSpaceOnUse">
<stop stop-color="#13EB78"/>
<stop offset="1" stop-color="#00BB58"/>
</linearGradient>
</defs>
</svg>
