<svg width="40" height="40" viewBox="0 0 40 40" fill="none" xmlns="http://www.w3.org/2000/svg">
<rect width="40" height="40" rx="8" fill="url(#paint0_linear_1811_143)"/>
<path fill-rule="evenodd" clip-rule="evenodd" d="M14.5 11.75C16.0188 11.75 17.25 12.9812 17.25 14.5C17.25 16.0188 16.0188 17.25 14.5 17.25C12.9812 17.25 11.75 16.0188 11.75 14.5C11.75 12.9812 12.9812 11.75 14.5 11.75ZM17.1798 22.5068C16.6531 22.7034 16.1525 22.9533 15.6849 23.25H9.75V20.7368L9.9145 20.5313C11.0221 19.1476 12.6565 18.25 14.5 18.25C14.8576 18.25 15.2073 18.2838 15.5468 18.3483C15.516 18.5611 15.5 18.7787 15.5 19C15.5 20.4176 16.1554 21.682 17.1798 22.5068ZM22.75 14.5C22.75 12.9812 23.9812 11.75 25.5 11.75C27.0188 11.75 28.25 12.9812 28.25 14.5C28.25 16.0188 27.0188 17.25 25.5 17.25C23.9812 17.25 22.75 16.0188 22.75 14.5ZM20 23.25C17.9914 23.25 16.1849 24.1187 14.9427 25.4981L14.75 25.7121V28.25H25.25V25.7121L25.0573 25.4981C23.8151 24.1187 22.0086 23.25 20 23.25ZM16.75 19C16.75 17.2051 18.2051 15.75 20 15.75C21.7949 15.75 23.25 17.2051 23.25 19C23.25 20.7949 21.7949 22.25 20 22.25C18.2051 22.25 16.75 20.7949 16.75 19ZM22.8202 22.5068C23.3469 22.7034 23.8475 22.9533 24.3151 23.25H30.25V20.7368L30.0855 20.5313C28.9779 19.1476 27.3435 18.25 25.5 18.25C25.1424 18.25 24.7927 18.2838 24.4532 18.3483C24.484 18.5611 24.5 18.7787 24.5 19C24.5 20.4176 23.8446 21.682 22.8202 22.5068Z" fill="white"/>
<defs>
<linearGradient id="paint0_linear_1811_143" x1="32" y1="0.5" x2="5.5" y2="38" gradientUnits="userSpaceOnUse">
<stop stop-color="#72D5FD"/>
<stop offset="1" stop-color="#098CC1"/>
</linearGradient>
</defs>
</svg>
