<svg width="40" height="40" viewBox="0 0 40 40" fill="none" xmlns="http://www.w3.org/2000/svg">
<rect width="40" height="40" rx="8" fill="url(#paint0_linear_1810_126)"/>
<path fill-rule="evenodd" clip-rule="evenodd" d="M9.5 10.248C9.5 9.69576 9.94772 9.24805 10.5 9.24805H11.4385C12.8151 9.24805 14.015 10.1849 14.3489 11.5204L14.3535 11.5389L14.8182 13.7521H28.0184C28.3759 13.7587 28.758 13.7774 29.1007 13.8678C29.4829 13.9686 29.8604 14.1697 30.141 14.5558C30.4858 15.0302 30.5219 15.5587 30.4914 16.0028C30.463 16.4146 30.3624 16.9142 30.253 17.4571L30.2414 17.5151C29.8387 19.5154 29.4324 21.4703 28.4595 22.8903C27.9504 23.6334 27.2842 24.2398 26.3981 24.651C25.5234 25.0569 24.4865 25.2486 23.2632 25.2486H16.429C15.8456 25.2657 15.3127 25.6601 15.0989 26.248H25.5L25.4984 26.2506L25.4976 26.252H25.5C26.7426 26.252 27.75 27.2593 27.75 28.502C27.75 29.7446 26.7426 30.752 25.5 30.752C24.2574 30.752 23.25 29.7446 23.25 28.502C23.25 28.4161 23.2548 28.3314 23.2642 28.248H20.7358C20.7452 28.3314 20.75 28.4161 20.75 28.502C20.75 29.7446 19.7426 30.752 18.5 30.752C17.2574 30.752 16.25 29.7446 16.25 28.502C16.25 28.4161 16.2548 28.3314 16.2642 28.248H14.4114C13.5938 28.248 13 27.5696 13 26.8195C13 25.4675 13.7406 24.2602 14.8539 23.6561L12.4046 11.9902C12.2881 11.5532 11.8921 11.248 11.4385 11.248H10.5C9.94772 11.248 9.5 10.8003 9.5 10.248ZM18.5 27.752C18.0858 27.752 17.75 28.0877 17.75 28.502C17.75 28.9162 18.0858 29.252 18.5 29.252C18.9142 29.252 19.25 28.9162 19.25 28.502C19.25 28.0877 18.9142 27.752 18.5 27.752ZM25.5 27.752C25.0858 27.752 24.75 28.0877 24.75 28.502C24.75 28.9162 25.0858 29.252 25.5 29.252C25.9142 29.252 26.25 28.9162 26.25 28.502C26.25 28.0877 25.9142 27.752 25.5 27.752Z" fill="white"/>
<defs>
<linearGradient id="paint0_linear_1810_126" x1="31" y1="-6.3926e-07" x2="8.5" y2="39" gradientUnits="userSpaceOnUse">
<stop stop-color="#FFA872"/>
<stop offset="1" stop-color="#FF620D"/>
</linearGradient>
</defs>
</svg>
