<svg width="40" height="40" viewBox="0 0 40 40" fill="none" xmlns="http://www.w3.org/2000/svg">
<rect width="40" height="40" rx="8" fill="url(#paint0_linear_1811_138)"/>
<path fill-rule="evenodd" clip-rule="evenodd" d="M18 30.75C17.7007 30.75 17.4476 30.6611 17.2239 30.5507C17.0235 30.4518 16.8014 30.3117 16.5667 30.1637L14.6291 28.9417C14.3742 28.7809 14.2283 28.6899 14.114 28.6327C14.0083 28.5747 13.9326 28.6033 13.9079 28.6249C13.7948 28.678 13.6438 28.7696 13.371 28.9417L12.8623 29.2911C12.6515 29.4359 12.3974 29.6033 12.1271 29.7447C11.655 29.9917 10.8144 30.3299 10.0558 29.8414C9.54247 29.5107 9.38152 28.9658 9.3149 28.487C9.24992 28.0198 9.24996 27.4095 9.25 26.7008V15.9998C9.24998 14.6191 9.24997 13.5075 9.36641 12.6336C9.48716 11.7274 9.74526 10.9648 10.346 10.3587C10.9476 9.75161 11.706 9.48992 12.6074 9.36764C13.4748 9.24997 14.5775 9.24998 15.9446 9.25H18H28.016C28.4911 9.25 28.8802 9.4793 29.1687 9.7609C29.4541 10.0395 29.6847 10.4083 29.8722 10.8101C30.2537 11.6273 30.5229 12.7386 30.6684 13.9644C30.7158 14.3637 30.7614 14.7478 30.7473 15.0723C30.7309 15.4502 30.6325 15.8306 30.3326 16.1652C30.0239 16.5095 29.6366 16.6432 29.2576 16.6998C28.921 16.7501 28.5084 16.7501 28.0646 16.75L28.016 16.75H26.75V26.7008C26.75 27.4095 26.7501 28.0198 26.6851 28.487C26.6185 28.9658 26.4575 29.5107 25.9441 29.8414C25.1856 30.3299 24.345 29.9917 23.8729 29.7447C23.6025 29.6033 23.3485 29.4359 23.1377 29.2911L22.629 28.9417C22.3562 28.7696 22.2052 28.678 22.0921 28.6249C22.0674 28.6033 21.9917 28.5747 21.8859 28.6327C21.7717 28.6899 21.6258 28.7809 21.3709 28.9417L19.4333 30.1636C19.1987 30.3116 18.9765 30.4518 18.7761 30.5507C18.5524 30.6611 18.2993 30.75 18 30.75ZM28.121 10.8343C28.0611 10.7759 27.9721 10.7748 27.9121 10.8329C27.8853 10.8591 27.854 10.8934 27.8186 10.938C27.652 11.1477 27.469 11.4974 27.3014 11.9962C27.0311 12.8006 26.836 13.886 26.7724 15.1219C26.7702 15.1644 26.7682 15.2071 26.7663 15.25H28.016C28.5254 15.25 28.8236 15.248 29.0358 15.2163C29.2003 15.1917 29.2417 15.1699 29.2487 15.0072C29.2569 14.8192 29.2283 14.5588 29.173 14.0921C29.0404 12.9728 28.7989 12.0569 28.513 11.4445C28.3694 11.1368 28.2313 10.942 28.121 10.8343ZM18.75 15C18.75 14.5858 18.4142 14.25 18 14.25C17.5858 14.25 17.25 14.5858 17.25 15V15.3336C16.8358 15.4281 16.4543 15.6005 16.1358 15.8393C15.6318 16.2173 15.25 16.7968 15.25 17.5C15.25 18.2032 15.6318 18.7827 16.1358 19.1607C16.6396 19.5385 17.3011 19.75 18 19.75C18.4057 19.75 18.7441 19.8743 18.9642 20.0393C19.1841 20.2042 19.25 20.3748 19.25 20.5C19.25 20.6252 19.1841 20.7958 18.9642 20.9607C18.7441 21.1257 18.4057 21.25 18 21.25C17.3316 21.25 16.9095 20.929 16.7922 20.6803C16.6157 20.3056 16.1688 20.145 15.7941 20.3216C15.4194 20.4981 15.2588 20.945 15.4354 21.3197C15.7653 22.0197 16.4613 22.4848 17.25 22.6655V23C17.25 23.4142 17.5858 23.75 18 23.75C18.4142 23.75 18.75 23.4142 18.75 23V22.6664C19.1642 22.5719 19.5457 22.3995 19.8642 22.1607C20.3682 21.7827 20.75 21.2032 20.75 20.5C20.75 19.7968 20.3682 19.2173 19.8642 18.8393C19.3604 18.4615 18.6989 18.25 18 18.25C17.5943 18.25 17.2559 18.1257 17.0358 17.9607C16.8159 17.7958 16.75 17.6252 16.75 17.5C16.75 17.3748 16.8159 17.2042 17.0358 17.0393C17.2559 16.8743 17.5943 16.75 18 16.75C18.6684 16.75 19.0905 17.071 19.2078 17.3197C19.3843 17.6944 19.8312 17.855 20.2059 17.6784C20.5806 17.5019 20.7412 17.055 20.5646 16.6803C20.2347 15.9803 19.5387 15.5152 18.75 15.3345V15Z" fill="white"/>
<defs>
<linearGradient id="paint0_linear_1811_138" x1="32" y1="1" x2="6.5" y2="38" gradientUnits="userSpaceOnUse">
<stop stop-color="#FF8282"/>
<stop offset="1" stop-color="#E71C1C"/>
</linearGradient>
</defs>
</svg>
