<svg width="40" height="40" viewBox="0 0 40 40" fill="none" xmlns="http://www.w3.org/2000/svg">
<rect width="40" height="40" rx="8" fill="url(#paint0_linear_1810_121)"/>
<path fill-rule="evenodd" clip-rule="evenodd" d="M27.4594 9.57208C28.2081 9.74402 28.9663 10.0252 29.4705 10.5294C29.9747 11.0336 30.2559 11.7918 30.4278 12.5405C30.6054 13.3138 30.6926 14.1991 30.7287 15.0691C30.801 16.8116 30.6716 18.5922 30.588 19.5023C30.5358 20.0702 30.3035 20.5946 29.9406 21.0168C27.2313 24.1692 24.4228 27.0389 21.3563 29.7845C19.9532 31.0409 17.8582 31.0542 16.3971 29.9229C13.9874 28.0571 11.9428 26.0125 10.0771 23.6028C8.94579 22.1417 8.95911 20.0468 10.2154 18.6437C12.9611 15.5771 15.8308 12.7686 18.9831 10.0593C19.4053 9.69644 19.9297 9.46409 20.4977 9.4119C21.4078 9.32827 23.1883 9.19887 24.9308 9.27116C25.8008 9.30726 26.6861 9.39446 27.4594 9.57208ZM27 14.5C27 13.6716 26.3284 13 25.5 13C24.6715 13 24 13.6716 24 14.5C24 15.3284 24.6715 16 25.5 16C26.3284 16 27 15.3284 27 14.5ZM22.5299 18.5308C22.823 18.2381 22.8234 17.7632 22.5307 17.4701C22.2381 17.177 21.7632 17.1766 21.4701 17.4692L21.2527 17.6863C20.3222 17.1994 19.1475 17.3325 18.3636 18.1151C17.9463 18.5317 17.6194 19.0697 17.655 19.7329C17.6893 20.3713 18.0517 20.9359 18.5564 21.4397C18.9524 21.8351 19.0528 22.0944 19.0634 22.2462C19.0719 22.3673 19.0335 22.5806 18.6881 22.9255C18.3909 23.2222 18.1552 23.2655 17.9783 23.246C17.7671 23.2227 17.4942 23.0913 17.1964 22.794C16.911 22.509 16.7965 22.149 16.8237 21.8411C16.8601 21.4285 16.5552 21.0645 16.1426 21.0281C15.73 20.9917 15.3659 21.2966 15.3295 21.7092C15.283 22.236 15.4038 22.7761 15.6762 23.2537L15.4701 23.4594C15.177 23.7521 15.1766 24.2269 15.4692 24.5201C15.7619 24.8132 16.2368 24.8136 16.5299 24.5209L16.7201 24.3311C17.0457 24.5415 17.4128 24.6927 17.8138 24.7369C18.5113 24.8139 19.1809 24.5531 19.7479 23.987C20.2667 23.4691 20.6096 22.8553 20.5598 22.1417C20.5121 21.4587 20.1146 20.8758 19.6161 20.3782C19.2264 19.9891 19.1584 19.7557 19.1528 19.6525C19.1486 19.5742 19.1725 19.4271 19.4234 19.1766C19.7906 18.8099 20.4087 18.8025 20.8033 19.1965C21.0689 19.4617 21.1535 19.8318 21.0643 20.1569C20.9548 20.5563 21.1898 20.969 21.5892 21.0785C21.9887 21.1881 22.4014 20.9531 22.5109 20.5536C22.6749 19.9556 22.6078 19.3072 22.3139 18.7464L22.5299 18.5308Z" fill="white"/>
<defs>
<linearGradient id="paint0_linear_1810_121" x1="33.5" y1="1.5" x2="6" y2="38.5" gradientUnits="userSpaceOnUse">
<stop stop-color="#AC93FF"/>
<stop offset="1" stop-color="#6426FC"/>
</linearGradient>
</defs>
</svg>
