<svg width="40" height="40" viewBox="0 0 40 40" fill="none" xmlns="http://www.w3.org/2000/svg">
<rect width="40" height="40" rx="8" fill="url(#paint0_linear_1811_148)"/>
<path fill-rule="evenodd" clip-rule="evenodd" d="M22.3721 9.755C20.9066 9.08166 19.0954 9.08167 17.6299 9.755L17.1154 9.9914C15.4187 10.771 14.251 12.2432 14.251 13.9561V14.1166C14.0763 14.1745 13.905 14.2349 13.7374 14.2979C13.3497 14.4436 13.1534 14.876 13.2991 15.2638C13.443 15.6469 13.8669 15.843 14.251 15.7072V16.7252C14.251 18.4023 14.9563 19.9837 16.1622 21.0846L15.3841 23.4073L13.918 23.8936C12.992 24.2006 12.4217 24.3897 11.9091 24.6858C11.4079 24.9752 10.9533 25.3381 10.5606 25.7621C10.2509 26.0964 9.8035 26.8163 9.50777 27.8144C9.40532 28.1596 9.28351 28.57 9.25688 28.8941C9.22372 29.2976 9.30693 29.6828 9.58148 30.0482C9.87848 30.4434 10.273 30.6155 10.6852 30.6885C11.0352 30.7504 11.4618 30.7503 11.9054 30.7502H28.0946C28.5382 30.7503 28.9648 30.7504 29.3148 30.6885C29.727 30.6155 30.1215 30.4434 30.4185 30.0482C30.6931 29.6828 30.7763 29.2976 30.7431 28.8941C30.7165 28.57 30.5947 28.1596 30.4922 27.8144C30.1965 26.8163 29.7491 26.0964 29.4394 25.7621C29.0467 25.3381 28.5921 24.9752 28.091 24.6858C27.5783 24.3897 27.008 24.2006 26.082 23.8936L24.6159 23.4073L23.8383 21.086C25.0451 19.985 25.751 18.403 25.751 16.7252V15.707C26.1352 15.8432 26.5593 15.647 26.7033 15.2638C26.8489 14.876 26.6527 14.4436 26.265 14.2979C26.0972 14.2349 25.9258 14.1744 25.751 14.1165V13.9561C25.751 12.2432 24.5833 10.771 22.8866 9.9914L22.3721 9.755ZM22.5536 21.9945L22.4507 22.0575C20.9436 22.9808 19.0584 22.9808 17.5512 22.0575L17.4468 21.9935L16.8538 23.7637L17.8515 24.6307C18.4964 25.1912 18.9276 25.564 19.2881 25.8051C19.6309 26.0344 19.8298 26.0882 20 26.0882C20.1702 26.0882 20.3691 26.0344 20.7119 25.8051C21.0724 25.564 21.5036 25.1912 22.1485 24.6307L23.1462 23.7637L22.5536 21.9945ZM15.751 16.7252V15.2446C16.9892 14.938 18.3895 14.7597 19.8783 14.7504C19.9192 14.7501 19.9602 14.75 20.0012 14.75C21.5373 14.75 22.9803 14.9298 24.251 15.2444V16.7252C24.251 18.2623 23.461 19.6795 22.1817 20.4633L21.6672 20.7785C20.6409 21.4072 19.3611 21.4072 18.3348 20.7785L17.8203 20.4633C16.541 19.6795 15.751 18.2623 15.751 16.7252Z" fill="white"/>
<defs>
<linearGradient id="paint0_linear_1811_148" x1="32" y1="-2.38419e-07" x2="10.5" y2="40" gradientUnits="userSpaceOnUse">
<stop stop-color="#D1E243"/>
<stop offset="1" stop-color="#7BAC00"/>
</linearGradient>
</defs>
</svg>
